<?xml version="1.0" encoding="UTF-8"?><svg xmlns="http://www.w3.org/2000/svg" viewBox="0 0 111.19 110.25"><defs><style>.d{fill:none;}.e{fill:#ec8d01;}.f{fill:#fff;}.g{fill:#ecdeb1;}.h{fill:#d03f41;}.i{fill:#5a2713;}</style></defs><g id="a"/><g id="b"><g id="c"><g><rect class="d" width="111.19" height="110.25"/><rect class="i" x="0" width="111.18" height="110.25"/><g><path class="h" d="M.02,68.13c4.82,0,8.72,3.89,8.72,8.7v8.6c0,10.55,8.57,19.1,19.15,19.1s19.15-8.55,19.15-19.1v-8.6c0-4.73,3.85-8.57,8.59-8.57s8.59,3.84,8.59,8.57v8.6c0,10.55,8.57,19.1,19.15,19.1s19.69-8.48,19.69-19.03l.12-8.88c0-4.26,3.2-7.96,8.01-7.96v5.7c-1.34,.01-2.38,1.27-2.38,2.65v8.41c0,13.71-11.25,24.83-25.12,24.83s-25.12-11.12-25.12-24.83h-.02v-8.41c0-1.47-1.19-2.67-2.67-2.67s-2.67,1.19-2.67,2.67v8.41c0,13.71-11.25,24.83-25.12,24.83S2.96,99.13,2.96,85.41v-8.41c0-1.47-1.47-2.66-2.94-2.66v-6.22Z"/><path class="e" d="M.02,63.25c7.62,0,13.95,6.17,13.95,13.79v8.43c0,7.68,6.22,13.9,13.9,13.9s13.9-6.22,13.9-13.9v-8.43c0-7.62,6.17-13.79,13.79-13.79s13.79,6.17,13.79,13.79v8.05c0,7.71,6.25,13.96,13.96,13.96s13.96-6.25,13.96-13.96v-8.05c0-7.62,6.3-13.79,13.91-13.79v5.63c-4.82,0-8.01,3.7-8.01,7.96l-.12,8.88c0,10.55-9.12,19.03-19.69,19.03s-19.15-8.55-19.15-19.1v-8.6c0-4.73-3.85-8.57-8.59-8.57s-8.59,3.84-8.59,8.57v8.6c0,10.55-8.57,19.1-19.15,19.1s-19.15-8.55-19.15-19.1v-8.6c0-4.8-3.9-8.7-8.72-8.7v-5.11Z"/><path class="f" d="M111.19,57.66c-10.55,0-19.1,8.55-19.1,19.1v8.6c0,4.73-3.84,8.57-8.57,8.57s-8.79-3.84-8.79-8.58l-.21-8.65c0-10.55-8.12-19.05-18.67-19.05s-19.1,8.55-19.1,19.1v8.6c0,4.8-3.89,8.7-8.7,8.7s-8.92-3.92-8.92-8.72l-.11-8.59C19.03,66.2,10.57,57.65,.02,57.65v-5.27c13.75,.14,25.11,11.21,25.11,24.83v8.41c0,1.47,1.19,2.67,2.67,2.67s2.67-1.19,2.67-2.67v-8.41c0-13.71,11.25-24.83,25.12-24.83s25.12,11.12,25.12,24.83v8.41c0,1.47,1.19,2.67,2.67,2.67s2.67-1.19,2.67-2.67v-8.41h.02c0-13.71,11.25-24.83,25.12-24.83v5.28Z"/><path class="g" d="M111.19,63.25c-7.62,0-13.61,6.17-13.61,13.79l.22,8.27c0,7.71-6.88,13.74-14.59,13.74s-13.96-6.25-13.96-13.96v-8.05c0-7.62-6.17-13.79-13.79-13.79s-13.43,6.24-13.43,13.85v8.74c0,7.68-6.58,13.52-14.26,13.52s-13.9-6.22-13.9-13.9v-8.43c0-7.62-6.24-13.79-13.85-13.79v-5.83c10.55,0,19.27,8.55,19.27,19.1v8.6c0,4.8,3.89,8.7,8.7,8.7s8.7-3.89,8.7-8.7v-8.6c0-10.55,8.55-19.1,19.1-19.1s19.1,8.55,19.1,19.1v8.6c0,4.73,3.84,8.57,8.57,8.57s8.57-3.84,8.57-8.57v-8.6c0-10.55,8.62-19.1,19.17-19.1v5.83Z"/></g><g><path class="g" d="M111.19,10.87c-7.62,0-13.8,6.17-13.8,13.79l.22,8.27c0,7.71-6.88,13.74-14.59,13.74s-13.96-6.25-13.96-13.96v-8.05c0-7.62-6.17-13.79-13.79-13.79-2.42,0-4.45,.92-6.38,2.02-4.14,2.37-7.05,6.64-7.05,11.83v8.74c0,7.68-6.58,13.52-14.26,13.52s-13.9-6.22-13.9-13.9v-8.43C13.68,17.05,7.63,10.87,.02,10.87l-.02-5.83c10.55,0,19.1,8.55,19.1,19.1v8.6c0,4.8,3.89,8.7,8.7,8.7s8.7-3.89,8.7-8.7v-8.6c0-10.55,8.55-19.1,19.1-19.1s19.1,8.55,19.1,19.1v8.6c0,4.73,3.84,8.57,8.57,8.57s8.57-3.84,8.57-8.57v-8.6c0-10.55,8.81-19.1,19.36-19.1v5.83Z"/><path class="h" d="M.02,15.75c4.82,0,8.72,3.89,8.72,8.7v8.6c0,10.55,8.57,19.1,19.15,19.1s19.15-8.55,19.15-19.1v-8.6c0-4.73,3.85-8.57,8.59-8.57s8.59,3.84,8.59,8.57v8.6c0,10.55,8.57,19.1,19.15,19.1s19.69-8.48,19.69-19.03l.12-8.88c0-4.26,3.2-7.96,8.01-7.96v5.7c-1.34,.01-2.38,1.27-2.38,2.65v8.41c0,13.71-11.25,24.83-25.12,24.83s-25.12-11.12-25.12-24.83h-.02v-8.41c0-1.47-1.19-2.67-2.67-2.67s-2.67,1.19-2.67,2.67v8.41c0,13.71-11.25,24.83-25.12,24.83S2.96,46.75,2.96,33.04v-8.41c0-1.47-1.47-2.68-2.94-2.68v-6.2Z"/><path class="e" d="M.02,10.87c7.62,0,13.96,6.17,13.96,13.79v8.43c0,7.68,6.22,13.9,13.9,13.9s13.9-6.22,13.9-13.9v-8.43c0-7.62,6.17-13.79,13.79-13.79s13.79,6.17,13.79,13.79v8.05c0,7.71,6.25,13.96,13.96,13.96s13.96-6.25,13.96-13.96v-8.05c0-7.62,6.3-13.79,13.91-13.79v5.63c-4.82,0-8.01,3.7-8.01,7.96l-.12,8.88c0,10.55-9.12,19.03-19.69,19.03s-19.15-8.55-19.15-19.1v-8.6c0-4.73-3.85-8.57-8.59-8.57s-8.59,3.84-8.59,8.57v8.6c0,10.55-8.57,19.1-19.15,19.1s-19.15-8.55-19.15-19.1v-8.6C8.74,19.87,4.84,15.98,.02,15.98v-5.11Z"/><path class="f" d="M111.19,5.27c-10.55,0-19.36,8.57-19.36,19.11v8.6c0,4.73-3.84,8.57-8.57,8.57s-8.79-3.84-8.79-8.58l-.21-8.65c0-10.55-8.12-19.05-18.67-19.05s-19.1,8.55-19.1,19.1v8.6c0,4.8-3.89,8.7-8.7,8.7s-8.92-3.92-8.92-8.72l-.11-8.59C18.77,13.82,10.55,5.28,0,5.28L.02,0C13.77,.14,24.87,11.21,24.87,24.83v8.41c0,1.47,1.19,2.67,2.67,2.67s2.67-1.19,2.67-2.67v-8.41C30.21,11.12,41.46,0,55.33,0s25.12,11.12,25.12,24.83v8.41c0,1.47,1.19,2.67,2.67,2.67s2.67-1.19,2.67-2.67v-8.41h.02C85.81,11.12,97.32,0,111.19,0V5.27Z"/></g></g></g></g></svg>