<?xml version="1.0" encoding="UTF-8"?><svg xmlns="http://www.w3.org/2000/svg" viewBox="0 0 101.39 44.36"><defs><style>.f{fill:#fffefd;}</style></defs><g id="a"/><g id="b"><g id="c"><g id="d"><g id="e"><g><g><path class="f" d="M15.61,9.76h1.9l8.47,19h-2.77l-2.52-5.6H12.64l-2.36,5.6h-2.78L15.61,9.76Zm3.97,10.99l-3.05-6.84-2.83,6.84h5.87Z"/><path class="f" d="M42.67,9.87h2.53V28.76h-2.72V14.06l-5.81,7.31h-.5l-5.87-7.31v14.7h-2.7V9.87h2.56l6.28,7.76,6.24-7.76h0Z"/><path class="f" d="M54.83,28.76h-6.4V9.87h4.95c1.56,0,2.78,.21,3.65,.63s1.54,1,2,1.73,.69,1.58,.69,2.55c0,1.86-.96,3.19-2.88,3.99,1.38,.26,2.48,.83,3.3,1.7,.82,.88,1.23,1.92,1.23,3.14,0,.97-.25,1.82-.74,2.58s-1.23,1.38-2.19,1.85-2.16,.72-3.6,.72h0Zm-1.36-16.48h-2.32v5.68h1.8c1.44,0,2.47-.28,3.08-.83s.91-1.26,.91-2.14c0-1.81-1.15-2.72-3.46-2.72Zm.2,8.09h-2.53v5.99h2.66c1.48,0,2.48-.12,3.01-.34,.53-.23,.95-.59,1.27-1.07s.48-1.01,.48-1.57-.17-1.1-.51-1.58c-.34-.48-.82-.83-1.44-1.07-.62-.23-1.61-.35-2.95-.35Z"/><path class="f" d="M63.89,9.87h10.71v2.41h-8.01v5.76h7.73v2.42h-7.73v5.87h8.26v2.41h-10.97V9.87h0Z"/><path class="f" d="M78.37,28.76V9.87h4.73c1.91,0,3.43,.47,4.55,1.42s1.69,2.23,1.69,3.84c0,1.1-.28,2.05-.83,2.85-.55,.8-1.18,1.4-2.21,1.96l4.78,8.82h-3.22l-4.2-8.22h-2.6v8.22h-2.7Zm3.52-16.6h-.81v5.96h1.03c1.37,0,2.31-.12,2.82-.35,.51-.23,.91-.59,1.19-1.06s.42-1.01,.42-1.61-.16-1.14-.47-1.61c-.32-.48-.76-.82-1.33-1.02s-1.52-.3-2.85-.3h0Z"/></g><g><path class="f" d="M45.78,32.52v2.86h-.78v-2.19c0-.44-.06-.74-.17-.91-.12-.17-.32-.26-.61-.26-.16,0-.31,.04-.45,.11s-.29,.21-.46,.39v2.86h-.78v-3.94h.78v.52c.4-.4,.79-.59,1.17-.59,.5,0,.89,.24,1.16,.71,.42-.48,.85-.72,1.31-.72,.38,0,.7,.14,.94,.42,.25,.28,.37,.71,.37,1.28v2.32h-.78v-2.33c0-.33-.07-.58-.2-.76-.13-.17-.33-.26-.58-.26-.32,0-.63,.16-.9,.49h0Z"/><path class="f" d="M51.32,31.43c.6,0,1.1,.19,1.49,.58,.4,.39,.59,.87,.59,1.46s-.2,1.04-.6,1.42-.91,.56-1.52,.56-1.09-.19-1.48-.57c-.4-.38-.59-.86-.59-1.43s.2-1.06,.6-1.44,.9-.58,1.51-.58h0Zm-.04,.7c-.38,0-.68,.12-.92,.37s-.36,.56-.36,.94,.12,.68,.37,.93c.25,.24,.56,.36,.95,.36s.7-.12,.94-.36c.25-.24,.37-.55,.37-.93s-.13-.68-.38-.93-.57-.37-.96-.37h0Z"/><path class="f" d="M56.8,31.44h.85l-1.74,4.01h-.26l-1.78-4.01h.85l1.06,2.42,1.02-2.42h0Z"/><path class="f" d="M58.74,29.79c.13,0,.24,.04,.33,.13s.14,.2,.14,.33-.04,.23-.14,.33-.2,.14-.33,.14c-.12,0-.23-.04-.32-.14-.09-.09-.14-.2-.14-.32s.04-.23,.14-.32c.09-.09,.2-.14,.32-.14h0Zm-.38,1.65h.78v3.94h-.78v-3.94Z"/><path class="f" d="M61.16,31.44v.5c.35-.38,.74-.58,1.18-.58,.25,0,.47,.06,.68,.19s.37,.3,.48,.52,.17,.57,.17,1.05v2.25h-.78v-2.24c0-.4-.06-.69-.18-.86s-.33-.26-.62-.26c-.37,0-.68,.18-.94,.55v2.81h-.8v-3.94h.8Z"/><path class="f" d="M64.68,32.81c0-.42,.15-.75,.46-1s.72-.37,1.26-.37h1.62v.61h-.8c.15,.16,.26,.3,.32,.43s.09,.28,.09,.44c0,.21-.06,.41-.17,.61-.12,.2-.27,.35-.45,.46-.18,.11-.49,.19-.91,.25-.3,.04-.44,.14-.44,.3,0,.09,.05,.17,.17,.22s.31,.12,.6,.18c.48,.11,.79,.19,.93,.25s.26,.15,.38,.25c.19,.19,.28,.42,.28,.71,0,.38-.17,.67-.5,.89-.33,.22-.78,.34-1.33,.34s-1.01-.11-1.35-.34-.51-.52-.51-.9c0-.53,.33-.88,.99-1.03-.26-.17-.39-.34-.39-.5,0-.13,.06-.24,.17-.34s.26-.18,.46-.23c-.58-.25-.87-.67-.87-1.25h0Zm1.28,2.77c-.26,0-.48,.06-.64,.17-.17,.11-.25,.25-.25,.43,0,.41,.37,.61,1.1,.61,.34,0,.61-.05,.8-.15,.19-.1,.29-.25,.29-.43s-.12-.33-.36-.45c-.24-.12-.55-.17-.93-.17h0Zm.18-3.45c-.21,0-.39,.07-.54,.21s-.22,.31-.22,.51,.07,.37,.22,.51c.15,.13,.33,.2,.55,.2s.4-.07,.55-.2,.22-.3,.22-.51-.08-.38-.22-.51-.34-.21-.56-.21h0Z"/><path class="f" d="M74.51,32.52v2.86h-.78v-2.19c0-.44-.06-.74-.17-.91s-.32-.26-.61-.26c-.16,0-.31,.04-.45,.11s-.29,.21-.46,.39v2.86h-.78v-3.94h.78v.52c.4-.4,.79-.59,1.17-.59,.5,0,.89,.24,1.16,.71,.42-.48,.85-.72,1.31-.72,.38,0,.7,.14,.94,.42s.37,.71,.37,1.28v2.32h-.78v-2.33c0-.33-.07-.58-.2-.76s-.33-.26-.58-.26c-.32,0-.63,.16-.9,.49h0Z"/><path class="f" d="M80.67,35.38v-.51c-.17,.18-.35,.32-.57,.42s-.42,.15-.63,.15c-.25,0-.48-.06-.69-.19-.21-.13-.37-.29-.47-.51-.11-.21-.16-.57-.16-1.06v-2.26h.78v2.24c0,.41,.06,.7,.18,.87,.12,.17,.33,.25,.62,.25,.37,0,.69-.18,.95-.55v-2.81h.78v3.94h-.78Z"/><path class="f" d="M82.47,35.1v-.84c.22,.15,.45,.28,.68,.38,.23,.09,.42,.14,.58,.14s.3-.04,.42-.12c.12-.08,.17-.17,.17-.29s-.04-.21-.11-.29-.24-.18-.49-.33c-.5-.28-.83-.52-.99-.72-.16-.2-.23-.42-.23-.65,0-.3,.12-.55,.35-.74s.54-.29,.91-.29,.78,.11,1.18,.33v.77c-.46-.28-.84-.42-1.14-.42-.15,0-.27,.03-.37,.1-.09,.06-.14,.15-.14,.25,0,.09,.04,.18,.13,.26,.08,.08,.23,.18,.44,.3l.28,.16c.66,.37,.98,.78,.98,1.23,0,.32-.13,.59-.38,.8-.25,.21-.58,.31-.97,.31-.23,0-.44-.03-.63-.08-.18-.05-.41-.14-.69-.28h0Z"/><path class="f" d="M86.55,29.79c.13,0,.24,.04,.33,.13,.09,.09,.14,.2,.14,.33s-.04,.23-.14,.33c-.09,.09-.2,.14-.33,.14-.12,0-.23-.04-.32-.14-.09-.09-.14-.2-.14-.32s.04-.23,.14-.32c.09-.09,.2-.14,.32-.14h0Zm-.38,1.65h.78v3.94h-.78v-3.94Z"/><path class="f" d="M91.14,34.46v.77c-.39,.14-.77,.22-1.15,.22-.62,0-1.11-.18-1.48-.55s-.55-.85-.55-1.47,.18-1.12,.54-1.5,.83-.57,1.41-.57c.2,0,.38,.02,.55,.06s.36,.11,.6,.21v.83c-.39-.25-.76-.38-1.1-.38s-.64,.13-.86,.37c-.23,.25-.34,.56-.34,.94,0,.4,.12,.72,.37,.96s.57,.36,.99,.36c.3,0,.64-.08,1.03-.26h0Z"/></g><path class="f" d="M100.72,.67V43.69H.67V.67H100.72m.67-.67H0V44.36H101.39V0h0Z"/></g></g></g></g></g></svg>