<?xml version="1.0" encoding="utf-8"?>
<!-- Generator: Adobe Illustrator 26.0.1, SVG Export Plug-In . SVG Version: 6.00 Build 0)  -->
<svg version="1.1" id="Calque_1" xmlns="http://www.w3.org/2000/svg" xmlns:xlink="http://www.w3.org/1999/xlink" x="0px" y="0px"
	 viewBox="0 0 1500 1500" style="enable-background:new 0 0 1500 1500;" xml:space="preserve">
<style type="text/css">
	.st0{fill:#E0E0E0;}
</style>
<g id="Calque_4">
	<path class="st0" d="M703.1,1461.6c-43.9,0-82-11.9-114.3-35.8c-32.3-23.9-56.2-55.4-71.6-94.7c-15.4-39.2-30.6-69.8-45.6-91.8
		c-15-21.9-43.3-49.4-84.9-82.5c-50.8-40.8-87.3-84.3-109.7-130.4c-22.3-46.2-33.5-102.4-33.5-168.5c0-92.3,29.2-168,87.7-226.8
		c58.5-58.9,133.9-88.3,226.3-88.3c90.8,0,166,28.3,225.7,84.8c59.6,56.6,91.4,128.7,95.2,216.5h-69.3
		c-3.8-67.7-29-123.3-75.6-166.8c-46.6-43.5-105.2-65.2-176-65.2c-69.3,0-127.4,23.7-174.3,71S313,788.6,313,857.8
		c0,55.4,10.8,103.3,32.3,143.7c21.5,40.4,57.3,79.5,107.4,117.2c30,22.3,54,46.6,72.2,72.7c18.1,26.2,35.2,58.5,51.4,97
		c13.1,32.3,30.2,57.7,51.4,76.2c21.2,18.5,46.4,27.7,75.6,27.7c26.9,0,50.2-9.2,69.8-27.7s31.4-41.2,35.2-68.1h69.3
		c-3.9,46.2-22.3,85.2-55.4,117.2S749.3,1461.6,703.1,1461.6z M184.8,1206.5c-43.5-47.8-77.9-103.2-101.6-163.3
		c-23.9-60.4-35.8-123.7-35.8-189.9c-0.1-64.8,11.4-129.1,34.1-189.9c22.5-60.8,57.7-116.1,103.3-162.2l51.9,46.2
		c-39.5,40-70.1,87.7-90,140.3c-20,52.7-30,107.9-30,165.6c-0.1,56.3,10.2,112,30.6,164.5c20.3,52.5,50.7,100.6,89.5,141.4
		L184.8,1206.5z M557.7,965.2c-30,0-55.4-10.4-76.2-31.2s-31.2-46.2-31.2-76.2c0-30,10.4-55.8,31.2-77.3s46.2-32.3,76.2-32.3
		c30,0,55.8,10.8,77.3,32.3s32.3,47.3,32.3,77.3c0,30-10.8,55.4-32.3,76.2S587.7,965.2,557.7,965.2z"/>
</g>
</svg>
