<svg xmlns="http://www.w3.org/2000/svg" viewBox="0 0 1500 1500"><g id="Calque_4" data-name="Calque 4"><path d="M703.13,1461.58q-65.8,0-114.29-35.79t-71.57-94.66q-23.08-58.87-45.59-91.77t-84.85-82.54q-76.18-61.18-109.67-130.44T243.69,857.84q0-138.52,87.73-226.84t226.26-88.3q136.22,0,225.68,84.84T878.59,844H809.33q-5.77-101.6-75.61-166.81T557.68,612q-103.9,0-174.31,71T313,857.84q0,83.11,32.32,143.72t107.36,117.17q45,33.48,72.15,72.72t51.37,97q19.62,48.48,51.37,76.19t75.61,27.7q40.39,0,69.84-27.7t35.21-68.11h69.26q-5.78,69.27-55.41,117.17T703.13,1461.58ZM184.81,1206.46A534,534,0,0,1,83.23,1043.12q-35.79-90.63-35.79-189.9A541.62,541.62,0,0,1,81.5,663.33,454.26,454.26,0,0,1,184.81,501.14l51.95,46.17a402.06,402.06,0,0,0-90,140.26q-30,79.08-30,165.65a451.92,451.92,0,0,0,30.59,164.5,430.19,430.19,0,0,0,89.46,141.41ZM557.68,965.2q-45,0-76.19-31.17t-31.17-76.19q0-45,31.17-77.34t76.19-32.33q45,0,77.34,32.33t32.32,77.34q0,45-32.32,76.19T557.68,965.2Z" style="fill:#1d1d1b"/></g></svg>