<svg xmlns="http://www.w3.org/2000/svg" viewBox="0 0 1500 1500"><g id="Calque_5" data-name="Calque 5"><path d="M403.27,460.09q108,0,184.5,75.34T664.3,718.74a263.08,263.08,0,0,1-102,208.83H521.92V868.24a183.23,183.23,0,0,0,52.8-66.44,193,193,0,0,0,18.39-83.06q0-78.3-55.77-132.88T403.27,531.28q-78.3,0-134.07,54.58T213.43,718.74a193,193,0,0,0,18.39,83.06,183.23,183.23,0,0,0,52.8,66.44v85.43q-66.43-34.41-104.41-97.29t-38-137.64q0-108,76.53-183.31T403.27,460.09Zm-45.09,996.65a94.29,94.29,0,0,1-38-7.72,98.45,98.45,0,0,1-30.85-20.76L45,1183.85,111.4,1115a118.6,118.6,0,0,1,37.37-25.51,65.07,65.07,0,0,1,43.31-3l92.54,21.36V721.12q0-49.83,34.41-84.24t84.24-34.41q49.83,0,84.24,34.41t34.41,84.24V925.19h30.85a23.49,23.49,0,0,1,10.68,2.38q4.74,2.37,10.67,4.74l175.6,85.43q28.49,13,42.12,42.12t7.72,59.92l-42.72,258.65q-5.93,34.41-33.22,56.36t-61.7,22Zm-9.49-71.19h333.4l51-295.44h0L516,982.14H450.73v-261q0-21.36-13.05-34.41t-34.41-13.05q-21.36,0-34.41,13.05t-13.05,34.41v473.4l-182.72-39.15-27.29,27.29Zm333.4,0h0Z" style="fill:#1d1d1b"/></g></svg>