<?xml version="1.0" encoding="utf-8"?>
<!-- Generator: Adobe Illustrator 26.0.1, SVG Export Plug-In . SVG Version: 6.00 Build 0)  -->
<svg version="1.1" id="Calque_1" xmlns="http://www.w3.org/2000/svg" xmlns:xlink="http://www.w3.org/1999/xlink" x="0px" y="0px"
	 viewBox="0 0 1500 1500" style="enable-background:new 0 0 1500 1500;" xml:space="preserve">
<style type="text/css">
	.st0{fill:#E0E0E0;}
</style>
<g id="Calque_5">
	<path class="st0" d="M403.3,460.1c72,0,133.5,25.1,184.5,75.3s76.5,111.3,76.5,183.3c0.3,81.7-37.4,158.8-102,208.8h-40.4v-59.3
		c22.6-17.7,40.6-40.5,52.8-66.4c12.2-26,18.5-54.4,18.4-83.1c0-52.2-18.6-96.5-55.8-132.9s-81.9-54.6-134.1-54.6
		c-52.2,0-96.9,18.2-134.1,54.6c-37.2,36.4-55.8,80.7-55.8,132.9c-0.1,28.7,6.2,57.1,18.4,83.1c12.2,26,30.2,48.7,52.8,66.4v85.4
		c-44.3-22.9-79.1-55.4-104.4-97.3c-25.3-41.9-38-87.8-38-137.6c0-72,25.5-133.1,76.5-183.3S331.3,460.1,403.3,460.1z M358.2,1456.7
		c-13.1,0.1-26-2.5-38-7.7c-11.5-4.9-22-11.9-30.9-20.8L45,1183.8l66.4-68.8c10.7-10.8,23.4-19.5,37.4-25.5c13.7-5.9,29-7,43.3-3
		l92.5,21.4V721.1c0-33.2,11.5-61.3,34.4-84.2s51-34.4,84.2-34.4s61.3,11.5,84.2,34.4s34.4,51,34.4,84.2v204.1h30.8
		c3.7-0.1,7.4,0.8,10.7,2.4c3.2,1.6,6.7,3.2,10.7,4.7l175.6,85.4c19,8.7,33,22.7,42.1,42.1c9.1,19.4,11.7,39.4,7.7,59.9l-42.7,258.7
		c-4,22.9-15,41.7-33.2,56.4s-38.8,22-61.7,22L358.2,1456.7z M348.7,1385.6h333.4l51-295.4l0,0L516,982.1h-65.3v-261
		c0-14.2-4.4-25.7-13-34.4c-8.7-8.7-20.2-13-34.4-13s-25.7,4.3-34.4,13c-8.7,8.7-13,20.2-13,34.4v473.4l-182.7-39.2l-27.3,27.3
		L348.7,1385.6z M682.1,1385.6L682.1,1385.6z"/>
</g>
</svg>
