<svg xmlns="http://www.w3.org/2000/svg" viewBox="0 0 1500 1500"><g id="Calque_3" data-name="Calque 3"><path d="M1250.83,79.06q13.22,16.06,28.82,31.64c46.68,46.58,110.49,90.79,189.65,131.39,80.59,41.34,160.46,70.55,210.94,87.16a896.57,896.57,0,0,1-70.07,302.17c-38.28,90.47-91.85,177-159.23,257.2a1163.25,1163.25,0,0,1-161.82,158c-14.76,11.8-27.95,21.68-39,29.62-10.92-7.63-24-17.13-38.52-28.47a1107.27,1107.27,0,0,1-161.32-154.82c-67.2-79.19-120.64-165.39-158.83-256.21a910.9,910.9,0,0,1-51.83-166.1,931.43,931.43,0,0,1-18.3-141.34c50.48-16.61,130.39-45.82,211-87.18,79.16-40.6,143-84.81,189.65-131.39q15.59-15.56,28.81-31.64m0-179.43c0,242.75-500.83,378.3-500.83,378.3,0,595.29,500.83,882.23,500.83,882.23s500.83-299.57,500.83-882.23c0,0-500.83-135.55-500.83-378.3Z" style="fill:#1d1d1b"/><path d="M1250.83,744.44c-77.89,0-141.25-63.36-141.25-141.25,0-32.07,30-97.16,82.29-178.57,21.28-33.13,42.74-63.58,59-85.87,16.23,22.29,37.68,52.74,59,85.87,52.3,81.41,82.29,146.5,82.29,178.57C1392.08,681.08,1328.72,744.44,1250.83,744.44Z" style="fill:#1d1d1b"/><path d="M1250.83,399.26c9.4,13.63,19.33,28.43,29.25,43.86,74.84,116.43,77,156,77,160.07a106.25,106.25,0,0,1-212.5,0c0-4.1,2.14-43.44,76.46-159.23,10.09-15.7,20.22-30.81,29.79-44.7m0-118.92s-176.25,225.51-176.25,322.85a176.25,176.25,0,0,0,352.5,0c0-97.34-176.25-322.85-176.25-322.85Z" style="fill:#1d1d1b"/></g></svg>