<?xml version="1.0" encoding="utf-8"?>
<!-- Generator: Adobe Illustrator 26.0.1, SVG Export Plug-In . SVG Version: 6.00 Build 0)  -->
<svg version="1.1" id="Calque_1" xmlns="http://www.w3.org/2000/svg" xmlns:xlink="http://www.w3.org/1999/xlink" x="0px" y="0px"
	 viewBox="0 0 1500 1500" style="enable-background:new 0 0 1500 1500;" xml:space="preserve">
<style type="text/css">
	.st0{fill:#E0E0E0;}
</style>
<g id="Calque_3">
	<path class="st0" d="M1250.8,79.1c8.8,10.7,18.4,21.3,28.8,31.6c46.7,46.6,110.5,90.8,189.7,131.4c80.6,41.3,160.5,70.6,210.9,87.2
		c-5.6,104-29.3,206.3-70.1,302.2c-38.3,90.5-91.8,177-159.2,257.2c-48.7,57.8-102.9,110.7-161.8,158c-14.8,11.8-27.9,21.7-39,29.6
		c-10.9-7.6-24-17.1-38.5-28.5c-58.9-46-112.9-97.9-161.3-154.8c-67.2-79.2-120.6-165.4-158.8-256.2
		c-22.5-53.6-39.9-109.2-51.8-166.1c-9.7-46.6-15.8-93.8-18.3-141.3c50.5-16.6,130.4-45.8,211-87.2c79.2-40.6,143-84.8,189.7-131.4
		C1232.4,100.4,1242,89.8,1250.8,79.1 M1250.8-100.3C1250.8,142.4,750,278,750,278c0,595.3,500.8,882.2,500.8,882.2
		s500.8-299.6,500.8-882.2C1751.6,278,1250.8,142.4,1250.8-100.3L1250.8-100.3z"/>
	<path class="st0" d="M1250.8,744.4c-77.9,0-141.2-63.4-141.2-141.2c0-32.1,30-97.2,82.3-178.6c21.3-33.1,42.7-63.6,59-85.9
		c16.2,22.3,37.7,52.7,59,85.9c52.3,81.4,82.3,146.5,82.3,178.6C1392.1,681.1,1328.7,744.4,1250.8,744.4z"/>
	<path class="st0" d="M1250.8,399.3c9.4,13.6,19.3,28.4,29.2,43.9c74.8,116.4,77,156,77,160.1c0,58.7-47.6,106.2-106.2,106.2
		s-106.2-47.6-106.2-106.2c0-4.1,2.1-43.4,76.5-159.2C1231.1,428.3,1241.3,413.2,1250.8,399.3 M1250.8,280.3
		c0,0-176.2,225.5-176.2,322.9c0,97.3,78.9,176.2,176.2,176.2s176.2-78.9,176.2-176.2C1427.1,505.9,1250.8,280.3,1250.8,280.3
		L1250.8,280.3z"/>
</g>
</svg>
