<?xml version="1.0" encoding="UTF-8"?><svg xmlns="http://www.w3.org/2000/svg" viewBox="0 0 190 190"><defs><style>.d{fill:#93ff71;}.e{fill:none;stroke:#fff;stroke-miterlimit:10;}</style></defs><g id="a"/><g id="b"><g id="c"><circle class="e" cx="95" cy="95" r="94.5"/><g><path class="d" d="M49.22,148.12c-17.9-27.3-20.99-54.53-11.5-85.65-2.6,.9-3.87,1.38-6.31,2.38,1.72-3.63,2.71-5.38,4.92-8.7,2.35-1.77,4.92-4.05,7.67-6.92,2.74-2.86,5.47-6.13,8.26-9.67,1.87-1.35,2.84-1.98,4.83-3.18-18.05,38.25-18.05,78.97,0,117.22-3.3-1.99-4.88-3.1-7.86-5.49Z"/><path class="d" d="M74.79,27.59c2.71-.81,4.81-.32,6.44,1.49,1.64,1.81,2.86,4.67,3.63,8.62s1.09,8.75,.83,14.46c-1.25,27.3-1.29,54.67-.16,81.98,.21,4.99,.13,9.35-.18,13.14-.31,3.8-.91,6.9-1.75,9.37-.84,2.47-1.98,4.2-3.41,5.22-1.43,1.02-3.2,1.2-5.4,.54-2.2-.66-4.19-1.92-6.11-3.68-1.92-1.77-3.76-3.97-5.5-6.62-1.74-2.65-3.41-5.67-4.87-9.16-1.46-3.49-2.74-7.37-3.69-11.77-.52-2.4-.75-3.63-1.19-6.1,4.58,.77,6.93,1.11,11.76,1.67,.49,4.25,1.09,7.87,1.72,10.93,.62,3.05,1.35,5.39,2.12,7.07,.77,1.69,1.65,2.62,2.65,2.82,1.01,.19,1.64-.34,1.92-1.62,.28-1.28,.35-3.05,.21-5.32-.14-2.26-.35-4.73-.61-7.41-.82-8.24-1.14-12.57-1.51-21.46-.51,1.22-1.33,2.3-2.45,3.24-1.12,.93-2.54,1.33-4.24,1.21-2.05-.15-3.92-.9-5.64-2.21-1.71-1.31-3.22-3.14-4.51-5.48-1.28-2.34-2.32-5.21-3.01-8.64-.69-3.44-1.01-7.4-.84-11.76,.76-10.76,1.64-21.27,4.17-31.79,1.19-5.11,2.99-9.56,5.12-13.56,2.13-3.99,4.48-7.28,6.93-9.94,2.45-2.66,4.9-4.46,7.56-5.26Zm-3.11,14.85c-1.14,.22-2.15,1.33-3.04,3.34-.89,2.01-1.54,4.1-1.89,6.29-1.98,12.26-3.04,24.66-3.29,37.08-.05,2.37,.24,4.59,.86,6.66,.62,2.07,1.62,3.11,2.99,3.13,1.4,.02,2.42-.99,3.06-3.06,.64-2.07,.98-4.43,1.02-7.06,.19-12.62,.97-25.24,2.44-37.78,.26-2.25,.28-4.31,.07-6.18-.21-1.86-.93-2.65-2.21-2.41Z"/><path class="d" d="M106.23,164.47c-2.61,.42-4.71-.17-6.41-1.71-1.69-1.54-3.08-3.92-4.12-7.2-1.04-3.28-1.85-7.34-2.35-12.28-.5-4.94-.81-10.64-.86-17.17,5.27,.05,7.95,0,13.12-.18-.08,2.24-.12,3.35-.21,5.54-.22,5.16-.25,9.4-.1,12.82,.15,3.42,1.01,4.99,2.62,4.82,1.05-.11,1.9-1.01,2.56-2.72,.67-1.71,1.22-3.89,1.62-6.59,.4-2.7,.72-5.57,.95-8.61,.84-10.72,1.1-21.43,1.31-32.18,.03-3.21-.22-5.88-.71-7.97-.49-2.09-1.46-3.14-2.91-3.15-1.41-.02-2.52,1.07-3.35,3.27-.83,2.2-1.35,4.86-1.57,7.9-4.96,.02-7.51,.03-12.56,.02,0-24.39,.1-48.78,.44-73.17,10.03-.17,15.02,.63,24.08,3.57,1.73,6.35,2.5,9.78,3.81,16.98-6.87-1.34-10.45-1.81-17.8-2.27,.57,9.93,.93,19.9,1.12,29.84,.75-1.51,1.73-2.85,2.92-4.01,1.19-1.17,2.84-1.7,4.95-1.59,2.98,.15,5.52,1.49,7.69,3.95,2.17,2.46,3.92,5.89,5.14,10.35,1.23,4.47,1.89,9.87,1.8,16.13-.08,10.29-.82,20.83-2.23,31.03-.62,4.66-1.55,8.95-2.7,12.93-1.15,3.99-2.57,7.46-4.15,10.51-1.58,3.05-3.38,5.54-5.35,7.5-1.97,1.96-4.17,3.21-6.75,3.62Z"/><path class="d" d="M135,152.89c-2.23,1.55-3.68,1.87-4.56,.82-.87-1.05-1.25-3.23-1.14-6.6s.63-7.59,1.64-12.6c4.53-26.93,4.53-52.09,0-79.02-1.03-5.06-1.54-9.29-1.61-12.62-.07-3.33,.33-5.49,1.21-6.52,.88-1.04,2.3-.73,4.46,.77,2.18,1.51,4.55,3.77,7.3,6.58,2.75,2.81,5.64,5.88,8.48,9.31,2.84,3.43,5.39,6.94,7.31,10.81,8.76,22.2,8.71,40.32,0,62.39-1.92,3.87-4.48,7.39-7.35,10.85-2.87,3.46-5.76,6.53-8.49,9.32-2.73,2.79-5.08,5.03-7.24,6.52Zm7.25-14.03c1.12-.46,2.25-1.57,3.4-3.31,1.15-1.74,2.14-3.63,2.91-5.74,7.99-22.21,7.99-47.4,0-69.61-.78-2.16-1.78-4.06-2.92-5.78-1.14-1.72-2.27-2.82-3.39-3.28-1.12-.46-1.61,.02-1.53,1.51,.07,1.49,.42,3.31,1.04,5.46,6.15,25.49,6.15,48.3,0,73.79-.65,2.25-1.01,4.09-1.06,5.53-.06,1.44,.44,1.9,1.56,1.44Z"/></g></g></g></svg>