<?xml version="1.0" encoding="UTF-8"?><svg xmlns="http://www.w3.org/2000/svg" viewBox="0 0 190 190"><defs><style>.d{fill:#da136c;}.e{fill:none;stroke:#fff;stroke-miterlimit:10;}</style></defs><g id="a"/><g id="b"><g id="c"><circle class="e" cx="95" cy="95" r="94.5"/><g><path class="d" d="M49.22,148.12c-17.9-27.3-20.99-54.53-11.5-85.65-2.6,.9-3.87,1.38-6.31,2.38,1.72-3.63,2.71-5.37,4.92-8.69,2.35-1.77,4.93-4.06,7.67-6.92,2.74-2.86,5.47-6.13,8.26-9.67,1.87-1.35,2.84-1.98,4.83-3.18-18.05,38.25-18.05,78.97,0,117.22-3.3-1.99-4.88-3.1-7.86-5.49Z"/><path class="d" d="M74.79,27.59c2.71-.81,4.81-.32,6.44,1.49s2.86,4.67,3.63,8.62c.77,3.95,1.09,8.75,.83,14.46-1.25,27.3-1.29,54.67-.16,81.98,.21,4.99,.13,9.36-.18,13.14-.31,3.79-.91,6.9-1.75,9.37-.84,2.47-1.98,4.21-3.41,5.23-1.43,1.02-3.2,1.2-5.4,.54-2.2-.66-4.19-1.92-6.11-3.69-1.92-1.76-3.76-3.97-5.5-6.62-1.75-2.65-3.41-5.67-4.87-9.16-1.46-3.49-2.74-7.37-3.69-11.77-.52-2.4-.75-3.63-1.19-6.1,4.57,.77,6.93,1.11,11.76,1.67,.49,4.25,1.09,7.87,1.72,10.93,.62,3.06,1.35,5.39,2.12,7.08,.76,1.68,1.64,2.62,2.65,2.81,1.01,.19,1.64-.34,1.92-1.62,.28-1.28,.35-3.05,.21-5.31-.14-2.26-.35-4.73-.61-7.41-.82-8.24-1.14-12.57-1.51-21.46-.51,1.22-1.33,2.3-2.45,3.24-1.13,.94-2.54,1.33-4.24,1.21-2.05-.15-3.93-.89-5.64-2.2-1.71-1.31-3.22-3.14-4.51-5.48-1.28-2.34-2.32-5.21-3.01-8.65-.69-3.44-1.01-7.39-.84-11.75,.76-10.76,1.64-21.27,4.18-31.79,1.18-5.11,2.99-9.55,5.12-13.55,2.13-4,4.48-7.28,6.93-9.94,2.45-2.66,4.9-4.46,7.56-5.26Zm-3.11,14.84c-1.14,.22-2.15,1.34-3.04,3.34-.89,2.01-1.54,4.1-1.89,6.29-1.98,12.26-3.04,24.66-3.29,37.08-.05,2.37,.24,4.59,.86,6.66,.62,2.07,1.62,3.11,2.99,3.13,1.4,.02,2.42-.99,3.06-3.06,.64-2.06,.98-4.44,1.02-7.06,.19-12.62,.97-25.24,2.44-37.78,.26-2.25,.28-4.31,.07-6.18-.21-1.86-.93-2.66-2.21-2.41Z"/><path class="d" d="M106.23,164.47c-2.82,.45-5.12-.38-7.07-2.47-1.95-2.08-3.53-5.16-4.66-9.28-1.14-4.12-1.82-8.98-1.89-14.66-.32-27.46-.29-54.93-.04-82.39,.05-5.01,.42-9.42,1.02-13.28,.61-3.86,1.5-7.08,2.62-9.7,1.12-2.62,2.51-4.55,4.14-5.8,1.64-1.26,3.57-1.72,5.88-1.35,2.33,.37,4.37,1.43,6.23,3.06,1.86,1.64,3.57,3.79,5.15,6.47,1.57,2.68,3.01,5.8,4.23,9.45,1.21,3.65,2.23,7.75,2.91,12.4,.37,2.54,.54,3.83,.86,6.45-4.81-.58-7.28-.81-12.3-1.16-.3-4.46-.7-8.23-1.13-11.35-.44-3.13-1.01-5.51-1.67-7.22-.67-1.71-1.51-2.61-2.56-2.72-1.05-.11-1.77,.51-2.17,1.87-.4,1.36-.61,3.2-.63,5.54-.01,2.34,.03,4.87,.16,7.6,.38,8.45,.53,12.87,.7,21.96,.55-1.26,1.45-2.39,2.66-3.38,1.21-.98,2.69-1.44,4.41-1.37,2.13,.09,4.06,.81,5.81,2.13,1.75,1.32,3.28,3.19,4.57,5.62,1.29,2.43,2.31,5.4,3.01,8.98,.7,3.56,1.02,7.75,.9,12.39-.55,11.36-1.5,22.24-3.01,33.5-.85,5.41-2.33,10.07-4.18,14.16-1.85,4.1-3.99,7.41-6.33,9.98-2.34,2.57-4.8,4.15-7.59,4.6Zm1.69-15.36c1.23-.13,2.2-1.22,2.96-3.28,.76-2.06,1.26-4.2,1.47-6.42,1.2-12.75,1.83-25.56,1.99-38.36,.03-2.45-.27-4.74-.89-6.87-.62-2.13-1.66-3.2-3.12-3.21-1.41,0-2.46,1.03-3.15,3.15-.69,2.12-1.04,4.53-1.06,7.22-.09,12.89-.45,25.79-1.13,38.67-.12,2.25,.03,4.37,.42,6.35s1.21,2.89,2.51,2.76Z"/><path class="d" d="M135,152.89c-2.23,1.55-3.68,1.87-4.56,.82-.88-1.05-1.25-3.23-1.14-6.6,.11-3.37,.63-7.59,1.64-12.6,4.53-26.93,4.53-52.09,0-79.02-1.03-5.06-1.54-9.29-1.61-12.62-.07-3.34,.32-5.49,1.21-6.53,.88-1.04,2.3-.72,4.46,.77,2.18,1.51,4.55,3.77,7.3,6.58,2.75,2.81,5.63,5.87,8.48,9.31,2.84,3.43,5.39,6.94,7.31,10.81,8.76,22.2,8.71,40.32,0,62.39-1.92,3.87-4.48,7.39-7.35,10.85-2.87,3.46-5.76,6.53-8.49,9.32-2.73,2.79-5.08,5.03-7.24,6.53Zm7.25-14.03c1.12-.46,2.25-1.57,3.4-3.31,1.15-1.74,2.15-3.64,2.91-5.75,7.99-22.21,7.99-47.4,0-69.61-.78-2.16-1.78-4.06-2.92-5.78-1.14-1.72-2.27-2.82-3.39-3.28-1.12-.46-1.61,.03-1.53,1.51,.07,1.49,.41,3.31,1.04,5.45,6.15,25.49,6.15,48.3,0,73.79-.65,2.25-1.01,4.1-1.07,5.53-.06,1.44,.44,1.89,1.56,1.43Z"/></g></g></g></svg>