<?xml version="1.0" encoding="UTF-8"?><svg xmlns="http://www.w3.org/2000/svg" viewBox="0 0 190 190"><defs><style>.d{fill:#da0000;}.e{fill:none;stroke:#fff;stroke-miterlimit:10;}</style></defs><g id="a"/><g id="b"><g id="c"><circle class="e" cx="95" cy="95" r="94.5"/><g><path class="d" d="M49.37,148.24c-17.83-27.38-20.9-54.66-11.45-85.83-2.68,.93-3.99,1.42-6.5,2.44,1.72-3.63,2.71-5.38,4.92-8.7,2.41-1.8,5.04-4.12,7.82-7.01,2.79-2.89,5.54-6.19,8.35-9.75,1.94-1.38,2.94-2.03,4.99-3.25-17.83,38.44-17.83,79.26,0,117.7-3.41-2.03-5.04-3.16-8.12-5.61Z"/><path class="d" d="M75.79,27.3c2.81-.8,5-.27,6.74,1.57s3.06,4.73,3.92,8.7c.86,3.97,1.25,8.79,1.04,14.51-1.01,27.36-1.04,54.77-.13,82.13,.17,5,.04,9.38-.34,13.18-.37,3.81-1.04,6.93-1.96,9.42-.92,2.49-2.13,4.25-3.64,5.29-1.51,1.04-3.36,1.25-5.63,.61-2.28-.64-4.33-1.91-6.29-3.68-1.96-1.77-3.83-3.99-5.59-6.65-1.76-2.67-3.43-5.71-4.89-9.21-1.46-3.5-2.73-7.41-3.65-11.83-.51-2.42-.74-3.64-1.16-6.13,4.73,.78,7.17,1.12,12.16,1.67,.47,4.27,1.05,7.91,1.66,10.98,.61,3.07,1.33,5.42,2.1,7.1,.77,1.69,1.67,2.63,2.71,2.82,1.04,.19,1.71-.35,2.01-1.64,.31-1.29,.4-3.06,.29-5.34-.12-2.28-.3-4.76-.55-7.44-.77-8.28-1.06-12.62-1.41-21.54-.53,1.23-1.39,2.32-2.55,3.25-1.17,.94-2.63,1.34-4.39,1.22-2.12-.15-4.05-.9-5.82-2.21-1.76-1.31-3.32-3.15-4.64-5.5-1.32-2.35-2.38-5.23-3.09-8.69-.71-3.45-1.03-7.43-.87-11.8,.74-10.8,1.61-21.36,4.09-31.93,1.16-5.13,2.96-9.6,5.1-13.62,2.14-4.02,4.51-7.32,7.01-9.99,2.5-2.67,5.01-4.48,7.76-5.26Zm-2.95,14.92c-1.18,.22-2.21,1.33-3.11,3.34-.9,2.02-1.54,4.12-1.88,6.32-1.9,12.32-2.92,24.77-3.16,37.24-.05,2.38,.26,4.61,.9,6.68,.64,2.08,1.67,3.13,3.08,3.14,1.45,.02,2.5-1,3.17-3.08,.67-2.07,1.01-4.45,1.05-7.08,.18-12.67,.91-25.33,2.27-37.92,.25-2.26,.24-4.33,0-6.21-.24-1.87-1-2.67-2.32-2.43Z"/><path class="d" d="M98.6,164.01c5.87-39.6,12-79.02,12.89-119.12-7.11-.84-10.84-1.04-18.28-.95,.08-7.62,.13-11.25,.25-18.03,10.75-.22,16.12,.7,25.75,4.04,1.86,6.36,2.7,9.79,4.1,17.02,3.25,38.65-4.1,78.48-13.95,115.73-4.2,.83-6.36,1.1-10.75,1.31Z"/><path class="d" d="M134.7,153.1c-2.31,1.58-3.83,1.92-4.78,.87-.95-1.04-1.39-3.23-1.35-6.63,.04-3.39,.51-7.63,1.5-12.66,4.41-27.02,4.41-52.35,0-79.37-1-5.09-1.46-9.33-1.47-12.68,0-3.35,.46-5.52,1.42-6.55,.96-1.03,2.44-.71,4.67,.82,2.25,1.54,4.67,3.85,7.47,6.69,2.8,2.85,5.71,5.94,8.58,9.39,2.87,3.45,5.43,6.97,7.34,10.83,8.76,22.19,8.71,40.32,0,62.38-1.92,3.87-4.49,7.4-7.38,10.87-2.89,3.48-5.82,6.58-8.59,9.4-2.78,2.82-5.18,5.11-7.41,6.63Zm7.18-14.09c1.15-.47,2.31-1.59,3.47-3.34,1.16-1.75,2.16-3.65,2.92-5.77,7.94-22.29,7.94-47.52,0-69.8-.78-2.16-1.78-4.08-2.93-5.8-1.15-1.73-2.3-2.84-3.46-3.31-1.15-.47-1.67,.01-1.62,1.5,.05,1.49,.37,3.32,.99,5.47,6.07,25.57,6.07,48.5,0,74.08-.65,2.26-.98,4.11-1.02,5.55-.03,1.44,.5,1.9,1.65,1.43Z"/></g></g></g></svg>