<?xml version="1.0" encoding="UTF-8"?><svg xmlns="http://www.w3.org/2000/svg" viewBox="0 0 293.44 415.17"><defs><style>.e{fill:#fdfffb;font-size:40px;}.e,.f{font-family:Essence-Sans-Bold, Essence Sans;}.g{fill:#37ad00;}.h{letter-spacing:.08em;}.i{letter-spacing:.08em;}.j{letter-spacing:.08em;}.k{letter-spacing:-.02em;}.l{letter-spacing:.03em;}.m{letter-spacing:.03em;}.n{fill:none;stroke:#f7f7f7;stroke-miterlimit:10;}.o{letter-spacing:-.05em;}.p{letter-spacing:-.05em;}.f{fill:#fff;font-size:27.72px;}</style></defs><g id="a"/><g id="b"><g id="c"><rect class="g" x="5.94" y="10.17" width="287.5" height="405"/><text class="f" transform="translate(46.25 244.02)"><tspan x="0" y="0">- Noise Canceling</tspan><tspan x="0" y="33.27">- Buil</tspan><tspan class="k" x="61.88" y="33.27">t</tspan><tspan x="68.39" y="33.27">-In Mic</tspan><tspan class="p" x="147.82" y="33.27">r</tspan><tspan x="153.84" y="33.27">ophone</tspan><tspan x="0" y="66.54">- </tspan><tspan class="o" x="28.42" y="66.54">Wat</tspan><tspan x="70" y="66.54">er-</tspan><tspan class="o" x="104.24" y="66.54">R</tspan><tspan x="116.58" y="66.54">esi</tspan><tspan class="p" x="141.67" y="66.54">st</tspan><tspan x="154.09" y="66.54">a</tspan><tspan class="p" x="167.26" y="66.54">n</tspan><tspan x="179.04" y="66.54">t</tspan><tspan x="0" y="99.8">- True </tspan><tspan class="o" x="89.27" y="99.8">W</tspan><tspan x="113.25" y="99.8">i</tspan><tspan class="o" x="118.07" y="99.8">r</tspan><tspan x="124.09" y="99.8">eless</tspan></text><rect class="n" x=".5" y=".5" width="287.5" height="405"/></g><g id="d"><text class="e" transform="translate(81.54 63.58)"><tspan class="j" x="0" y="0">wi</tspan><tspan class="m" x="38.44" y="0">r</tspan><tspan class="h" x="50.32" y="0">eless</tspan><tspan class="j" x="37.84" y="48">y</tspan><tspan class="l" x="60.04" y="48">e</tspan><tspan class="j" x="78.96" y="48">t</tspan><tspan class="i" x="-24.72" y="96">conne</tspan><tspan class="l" x="82.6" y="96">ct</tspan><tspan class="h" x="112" y="96">ed</tspan></text></g></g></svg>