<?xml version="1.0" encoding="UTF-8"?><svg xmlns="http://www.w3.org/2000/svg" viewBox="0 0 294.79 415.23"><defs><style>.e{fill:#fdfffb;font-size:40px;}.e,.f{font-family:Essence-Sans-Bold, Essence Sans;}.g{fill:#af0000;}.h{letter-spacing:.08em;}.i{letter-spacing:.08em;}.j{letter-spacing:.08em;}.k{letter-spacing:-.02em;}.l{letter-spacing:.06em;}.m{fill:none;stroke:#f7f7f7;stroke-miterlimit:10;}.n{letter-spacing:-.05em;}.o{letter-spacing:-.05em;}.f{fill:#fff;font-size:27.72px;}</style></defs><g id="a"/><g id="b"><g id="c"><rect class="g" x="7.29" y="10.23" width="287.5" height="405"/><text class="f" transform="translate(36.67 243.68)"><tspan x="0" y="0">- Noise Canceling</tspan><tspan x="0" y="33.27">- Buil</tspan><tspan class="k" x="61.88" y="33.27">t</tspan><tspan x="68.39" y="33.27">-In Mic</tspan><tspan class="o" x="147.82" y="33.27">r</tspan><tspan x="153.84" y="33.27">ophone</tspan><tspan x="0" y="66.54">- </tspan><tspan class="n" x="28.42" y="66.54">Wat</tspan><tspan x="70" y="66.54">er-</tspan><tspan class="n" x="104.24" y="66.54">R</tspan><tspan x="116.58" y="66.54">esi</tspan><tspan class="o" x="141.67" y="66.54">st</tspan><tspan x="154.09" y="66.54">a</tspan><tspan class="o" x="167.26" y="66.54">n</tspan><tspan x="179.04" y="66.54">t</tspan><tspan x="0" y="99.8">- True </tspan><tspan class="n" x="89.27" y="99.8">W</tspan><tspan x="113.25" y="99.8">i</tspan><tspan class="n" x="118.07" y="99.8">r</tspan><tspan x="124.09" y="99.8">eless</tspan></text><rect class="m" x=".5" y=".5" width="287.5" height="405"/></g><g id="d"><text class="e" transform="translate(140.16 45.62)"><tspan class="j"><tspan x="0" y="0">A</tspan></tspan><tspan class="i" x="-67.54" y="48">pa</tspan><tspan class="l" x="-23.14" y="48">w</tspan><tspan class="h" x="4.14" y="48">some</tspan><tspan class="j"><tspan x="-50.94" y="96">melody</tspan></tspan></text></g></g></svg>