<?xml version="1.0" encoding="UTF-8"?><svg xmlns="http://www.w3.org/2000/svg" viewBox="0 0 294.94 414.93"><defs><style>.e{fill:#fdfffb;font-size:40px;}.e,.f{font-family:Essence-Sans-Bold, Essence Sans;}.g{fill:#9e005a;}.h{letter-spacing:.08em;}.i{letter-spacing:.08em;}.j{letter-spacing:.01em;}.k{letter-spacing:-.02em;}.l{letter-spacing:.03em;}.m{letter-spacing:.03em;}.n{fill:none;stroke:#f7f7f7;stroke-miterlimit:10;}.o{letter-spacing:-.05em;}.p{letter-spacing:-.05em;}.f{fill:#fff;font-size:27.72px;}</style></defs><g id="a"/><g id="b"><g id="c"><rect class="g" x="7.44" y="9.93" width="287.5" height="405"/><text class="f" transform="translate(27.07 243.19)"><tspan x="0" y="0">- Noise Canceling</tspan><tspan x="0" y="33.27">- Buil</tspan><tspan class="k" x="61.88" y="33.27">t</tspan><tspan x="68.39" y="33.27">-In Mic</tspan><tspan class="p" x="147.82" y="33.27">r</tspan><tspan x="153.84" y="33.27">ophone</tspan><tspan x="0" y="66.54">- </tspan><tspan class="o" x="28.42" y="66.54">Wat</tspan><tspan x="70" y="66.54">er-</tspan><tspan class="o" x="104.24" y="66.54">R</tspan><tspan x="116.58" y="66.54">esi</tspan><tspan class="p" x="141.67" y="66.54">st</tspan><tspan x="154.09" y="66.54">a</tspan><tspan class="p" x="167.26" y="66.54">n</tspan><tspan x="179.04" y="66.54">t</tspan><tspan x="0" y="99.8">- True </tspan><tspan class="o" x="89.27" y="99.8">W</tspan><tspan x="113.25" y="99.8">i</tspan><tspan class="o" x="118.07" y="99.8">r</tspan><tspan x="124.09" y="99.8">eless</tspan></text><rect class="n" x=".5" y=".5" width="287.5" height="405"/></g><g id="d"><text class="e" transform="translate(131.88 54.42)"><tspan class="i"><tspan x="0" y="0">101</tspan></tspan><tspan class="h" x="-54.68" y="48">bea</tspan><tspan class="m" x="10.64" y="48">u</tspan><tspan class="i" x="30.84" y="48">ti</tspan><tspan class="m" x="54.6" y="48">f</tspan><tspan class="i" x="69.48" y="48">ul</tspan><tspan class="i" x="-21.52" y="96">n</tspan><tspan class="j" x=".68" y="96">o</tspan><tspan class="l" x="20.08" y="96">t</tspan><tspan class="i" x="31.68" y="96">es</tspan></text></g></g></svg>