<?xml version="1.0" encoding="UTF-8"?><svg xmlns="http://www.w3.org/2000/svg" viewBox="0 0 237.24 109.04"><defs><style>.e{font-family:Essence-Sans-Bold, Essence Sans;font-size:40px;}.e,.f{fill:#fff;}</style></defs><g id="a"/><g id="b"><g id="c"><path class="f" d="M2.89,74.84c7.65-10.07,22.4-12.85,33.1-6.15,5.1,3.19,9.13,8.21,10.92,13.98,.47,1.53,.67,3.21,1.73,4.48,.93,1.11,2.27,1.62,3.67,1.77,1.51,.17,3.01-.09,4.52-.17s3.01,.14,4.43,.7c3.18,1.24,5.67,4,6.4,7.36s-.38,7.16-2.84,9.66c-1.36,1.38,.76,3.5,2.12,2.12,4.93-5.01,5.28-13.32,.45-18.51-2.35-2.52-5.67-4.09-9.1-4.32-1.66-.11-3.3,.24-4.96,.22-1.87-.01-2.62-.72-3.09-2.51-3.48-13.36-16.45-23.05-30.39-21.32-7.75,.96-14.82,4.94-19.55,11.17-1.17,1.54,1.44,3.03,2.59,1.51h0Z"/><path class="f" d="M234.36,34.2c-7.65,10.07-22.4,12.85-33.1,6.15-5.1-3.19-9.13-8.21-10.92-13.98-.47-1.53-.67-3.21-1.73-4.48-.93-1.11-2.27-1.62-3.67-1.77-1.51-.17-3.01,.09-4.52,.17s-3.01-.14-4.43-.7c-3.18-1.24-5.67-4-6.4-7.36s.38-7.16,2.84-9.66c1.36-1.38-.76-3.5-2.12-2.12-4.93,5.01-5.28,13.32-.45,18.51,2.35,2.52,5.67,4.09,9.1,4.32,1.66,.11,3.3-.24,4.96-.22,1.87,.01,2.62,.72,3.09,2.51,3.48,13.36,16.45,23.05,30.39,21.32,7.75-.96,14.82-4.94,19.55-11.17,1.17-1.54-1.44-3.03-2.59-1.51h0Z"/></g><g id="d"><text class="e" transform="translate(50.65 63.22)"><tspan x="0" y="0">ABOUT</tspan></text></g></g></svg>