<?xml version="1.0" encoding="UTF-8"?><svg xmlns="http://www.w3.org/2000/svg" viewBox="0 0 281.61 34.23"><defs><style>.d{fill:#fff;font-family:Essence-Sans-Bold, Essence Sans;font-size:19.04px;}.e{fill:none;stroke:#fff;stroke-miterlimit:10;}.f{letter-spacing:-.05em;}.g{letter-spacing:-.05em;}</style></defs><g id="a"/><g id="b"><g id="c"><path class="e" d="M65.9,33.55H6.85c-3.49,0-6.35-2.86-6.35-6.35V3.8c0-3.49,2.86-6.35,7.35,3.15h59.05c2.49-9.5,5.35-6.64,5.35-3.15V27.2c0,3.49-2.86,6.35-6.35,6.35Z"/><path class="e" d="M168.42,33.73h-59.05c-3.49,0-6.35-2.86-6.35-6.35V3.98c0-3.49,2.86-6.35,7.35,3.15h59.05c2.49-9.5,5.35-6.64,5.35-3.15V27.38c0,3.49-2.86,6.35-6.35,6.35Z"/><path class="e" d="M274.76,33.73h-59.05c-3.49,0-6.35-2.86-6.35-6.35V3.98c0-3.49,2.86-6.35,7.35,3.15h59.05c2.49-9.5,5.35-6.64,5.35-3.15V27.38c0,3.49-2.86,6.35-6.35,6.35Z"/><text class="d" transform="translate(113.09 27.58)"><tspan x="0" y="0">P</tspan><tspan class="g" x="8.43" y="0">r</tspan><tspan x="12.57" y="0">odu</tspan><tspan class="f" x="39.7" y="0">c</tspan><tspan x="46.65" y="0">t</tspan></text><text class="d" transform="translate(14.42 27.58)"><tspan x="0" y="0">Abo</tspan><tspan class="f" x="30.86" y="0">u</tspan><tspan x="38.96" y="0">t</tspan></text><text class="d" transform="translate(227.23 27.58)"><tspan x="0" y="0">Shop</tspan></text></g></g></svg>