<?xml version="1.0" encoding="UTF-8"?><svg xmlns="http://www.w3.org/2000/svg" viewBox="0 0 175.29 109.85"><defs><style>.e{fill:#da0000;}.f{fill:none;stroke:#fff;stroke-miterlimit:10;stroke-width:2px;}.g{fill:#fff;font-family:Essence-Sans, Essence Sans;font-size:36.57px;}</style></defs><g id="a"/><g id="b"><g id="c"><path class="e" d="M143.74,48.87c20.6,5.67,28.85,30.85,15.76,48.25-6.1,8.11-14.28,12.42-24.54,12.42-33.83,.01-67.66,.17-101.49-.07-14.42-.1-24.72-7.5-30.27-20.6C-2.31,75.84-.05,63.68,9.6,53.15c3.11-3.4,6.93-5.9,11.22-7.57,1.5-.58,2.07-1.46,2.51-2.94,2.66-8.91,8.37-14.75,17.6-16.7,4.59-.97,9.05-.17,13.39,1.93C64.3,8.05,84.43,.43,101.74,4.09c18.36,3.88,34.85,20.97,34.44,43.46,2.53,.43,5.1,.65,7.56,1.32Z"/><path class="f" d="M66.22,24.92C75.89,5.7,95.4-1.69,112.18,1.86c17.81,3.76,33.79,20.33,33.39,42.13,2.45,.42,4.95,.63,7.33,1.28,19.97,5.5,27.96,29.91,15.28,46.78-5.91,7.86-13.84,12.04-23.79,12.04-32.79,.01-65.59,.16-98.39-.07-13.97-.1-23.97-7.27-29.35-19.97-5.34-12.62-3.14-24.4,6.21-34.61,3.02-3.3,6.72-5.72,10.88-7.34,1.46-.57,2.01-1.42,2.44-2.85,2.58-8.64,8.11-14.3,17.07-16.19,4.45-.94,8.77-.17,12.98,1.87Z"/></g><g id="d"><text class="g" transform="translate(66.96 82.8)"><tspan x="0" y="0">89.-</tspan></text></g></g></svg>