<?xml version="1.0" encoding="UTF-8"?><svg xmlns="http://www.w3.org/2000/svg" viewBox="0 0 170.3 109.46"><defs><style>.d{fill:#93ff71;}.e{fill:none;stroke:#fff;stroke-miterlimit:10;stroke-width:2px;}</style></defs><g id="a"/><g id="b"><g id="c"><path class="d" d="M116.98,31.09c8.66,1.82,14,7.3,16.49,15.64,.41,1.39,.95,2.21,2.36,2.75,4.02,1.56,7.59,3.91,10.51,7.09,9.04,9.86,11.16,21.25,6,33.44-5.2,12.27-14.85,19.21-28.36,19.3-31.69,.23-63.38,.08-95.08,.07-9.61,0-17.27-4.04-22.99-11.64C-6.35,81.47,1.38,57.87,20.67,52.56c2.3-.63,4.71-.83,7.08-1.24-.38-21.07,15.06-37.08,32.27-40.72,16.21-3.43,35.07,3.72,44.41,22.28,4.07-1.97,8.24-2.71,12.54-1.81Z"/><path class="e" d="M129.85,23.05c8.96,1.89,14.49,7.55,17.07,16.19,.43,1.43,.98,2.28,2.44,2.85,4.16,1.62,7.86,4.05,10.88,7.34,9.35,10.21,11.55,21.99,6.21,34.61-5.38,12.7-15.37,19.88-29.35,19.98-32.79,.24-65.59,.08-98.39,.07-9.95,0-17.87-4.18-23.79-12.04-12.68-16.86-4.69-41.28,15.28-46.77,2.38-.65,4.88-.86,7.33-1.28-.4-21.8,15.59-38.37,33.39-42.14,16.78-3.55,36.29,3.85,45.96,23.06,4.21-2.04,8.53-2.81,12.98-1.87Z"/></g></g></svg>