<?xml version="1.0" encoding="UTF-8"?><svg xmlns="http://www.w3.org/2000/svg" viewBox="0 0 172.21 115.4"><defs><style>.e{fill:#93ff71;}.f{fill:none;stroke:#fff;stroke-miterlimit:10;stroke-width:2px;}.g{fill:#fff;font-family:Essence-Sans, Essence Sans;font-size:36.57px;}</style></defs><g id="a"/><g id="b"><g id="c"><g><path class="e" d="M143.74,54.43c20.6,5.67,28.85,30.85,15.76,48.25-6.1,8.11-14.28,12.42-24.54,12.42-33.83,.01-67.66,.17-101.49-.07-14.42-.1-24.73-7.51-30.27-20.61C-2.32,81.4-.05,69.24,9.6,58.71c3.11-3.4,6.93-5.9,11.22-7.57,1.5-.58,2.07-1.46,2.51-2.94,2.66-8.91,8.37-14.75,17.6-16.7,4.59-.97,9.05-.17,13.39,1.93,9.97-19.82,30.1-27.44,47.41-23.79,18.36,3.88,34.85,20.97,34.44,43.46,2.53,.43,5.1,.65,7.56,1.32Zm3.28,51.45c9.36-5.37,14.36-16.08,12.42-26.84-1.86-10.34-10.02-18.31-20.65-19.84-2.76-.4-5.63-.06-8.73-.06,0-1.1,.02-1.71,0-2.31-.13-3.74,.04-7.53-.46-11.22-2.84-20.77-24.79-35.33-45.11-30-11.73,3.07-20.06,10.29-25.31,21.15-.68,1.41-1.36,2.83-2.09,4.33-1.84-.92-3.42-1.9-5.14-2.51-2.12-.75-4.33-1.58-6.54-1.68-8.08-.37-15.17,5.58-16.67,14.23-.49,2.83-1.73,3.91-4.22,4.79-12.76,4.48-20.04,16.96-17.7,30.02,2.37,13.28,13.77,23.2,26.9,23.22,33.22,.05,66.44,.03,99.66,0,4.78,0,9.4-.85,13.64-3.28Z"/><path class="e" d="M159.44,79.04c1.94,10.76-3.06,21.48-12.42,26.84-4.25,2.43-8.86,3.28-13.64,3.28-33.22,.03-66.44,.05-99.66,0-13.13-.02-24.53-9.94-26.9-23.22-2.33-13.06,4.95-25.54,17.7-30.02,2.49-.88,3.73-1.96,4.22-4.79,1.51-8.65,8.6-14.6,16.67-14.23,2.2,.1,4.42,.93,6.54,1.68,1.72,.61,3.3,1.59,5.14,2.51,.72-1.5,1.4-2.92,2.09-4.33,5.25-10.86,13.58-18.08,25.31-21.15,20.32-5.32,42.27,9.24,45.11,30,.51,3.69,.33,7.48,.46,11.22,.02,.61,0,1.21,0,2.31,3.1,0,5.97-.34,8.73,.06,10.63,1.54,18.79,9.5,20.65,19.84Z"/></g><path class="f" d="M60.99,25.39C70.85,5.8,90.75-1.74,107.86,1.88c18.16,3.83,34.46,20.74,34.06,42.97,2.5,.42,5.05,.64,7.47,1.3,20.36,5.6,28.52,30.5,15.58,47.7-6.03,8.02-14.12,12.28-24.26,12.28-33.45,.01-66.89,.17-100.34-.07-14.25-.1-24.44-7.42-29.93-20.37-5.45-12.87-3.21-24.89,6.33-35.3,3.08-3.36,6.85-5.83,11.09-7.48,1.49-.58,2.05-1.44,2.49-2.91,2.63-8.81,8.27-14.58,17.4-16.51,4.54-.96,8.94-.17,13.24,1.91Z"/></g><g id="d"><text class="g" transform="translate(63.54 88.5)"><tspan x="0" y="0">89.-</tspan></text></g></g></svg>