<?xml version="1.0" encoding="UTF-8"?><svg xmlns="http://www.w3.org/2000/svg" viewBox="0 0 174.06 111.14"><defs><style>.e{fill:#db305d;}.f{fill:#da136c;}.g{fill:none;stroke:#fff;stroke-miterlimit:10;stroke-width:2px;}.h{fill:#fff;font-family:Essence-Sans, Essence Sans;font-size:36.57px;}</style></defs><g id="a"/><g id="b"><g id="c"><g><path class="e" d="M143.74,50.15c20.6,5.67,28.85,30.85,15.76,48.25-6.1,8.11-14.28,12.42-24.54,12.42-33.83,.01-67.66,.17-101.49-.07-14.42-.1-24.72-7.5-30.27-20.6C-2.31,77.13-.05,64.97,9.6,54.44c3.11-3.4,6.93-5.9,11.22-7.57,1.5-.58,2.07-1.46,2.51-2.94,2.66-8.91,8.37-14.75,17.6-16.7,4.59-.97,9.05-.17,13.39,1.93C64.3,9.34,84.43,1.72,101.74,5.38c18.36,3.88,34.85,20.97,34.44,43.46,2.53,.43,5.1,.65,7.56,1.32Zm3.28,51.45c9.36-5.36,14.36-16.08,12.42-26.84-1.86-10.34-10.02-18.31-20.65-19.84-2.76-.4-5.63-.06-8.73-.06,0-1.1,.02-1.71,0-2.31-.13-3.75,.04-7.53-.46-11.23-2.84-20.77-24.79-35.32-45.11-30-11.73,3.07-20.06,10.29-25.31,21.15-.68,1.41-1.37,2.83-2.09,4.33-1.84-.92-3.43-1.9-5.14-2.51-2.12-.75-4.33-1.57-6.54-1.67-8.08-.37-15.17,5.58-16.67,14.23-.49,2.83-1.73,3.92-4.22,4.79-12.76,4.48-20.04,16.96-17.7,30.02,2.37,13.28,13.77,23.2,26.9,23.22,33.22,.04,66.44,.03,99.66,0,4.78,0,9.4-.85,13.64-3.28Z"/><path class="f" d="M159.44,74.77c1.94,10.75-3.06,21.48-12.42,26.84-4.25,2.43-8.86,3.28-13.64,3.28-33.22,.04-66.44,.05-99.66,0-13.13-.02-24.54-9.94-26.9-23.22-2.33-13.06,4.95-25.54,17.7-30.02,2.49-.87,3.72-1.96,4.22-4.79,1.51-8.65,8.6-14.6,16.67-14.23,2.2,.1,4.42,.93,6.54,1.67,1.72,.61,3.3,1.59,5.14,2.51,.72-1.5,1.4-2.92,2.09-4.33,5.25-10.86,13.58-18.08,25.31-21.15,20.32-5.32,42.27,9.23,45.11,30,.51,3.69,.33,7.48,.46,11.23,.02,.6,0,1.21,0,2.31,3.1,0,5.97-.34,8.73,.06,10.63,1.54,18.79,9.5,20.65,19.84Z"/></g><path class="g" d="M64.99,24.92C74.66,5.7,94.17-1.69,110.95,1.86c17.8,3.76,33.79,20.34,33.39,42.14,2.45,.42,4.95,.62,7.33,1.28,19.97,5.49,27.96,29.91,15.28,46.77-5.91,7.87-13.84,12.04-23.79,12.04-32.8,.01-65.59,.16-98.39-.07-13.98-.1-23.97-7.27-29.35-19.98-5.35-12.61-3.15-24.4,6.21-34.61,3.02-3.3,6.72-5.72,10.88-7.34,1.45-.57,2.01-1.41,2.44-2.85,2.58-8.64,8.11-14.3,17.07-16.19,4.45-.94,8.77-.17,12.98,1.87Z"/></g><g id="d"><text class="h" transform="translate(67.25 86)"><tspan x="0" y="0">89.-</tspan></text></g></g></svg>