<?xml version="1.0" encoding="UTF-8"?><svg xmlns="http://www.w3.org/2000/svg" viewBox="0 0 163.24 109.25"><defs><style>.d{fill:#93ff71;}.e{fill:none;stroke:#fff;stroke-miterlimit:10;stroke-width:2px;}</style></defs><g id="a"/><g id="b"><g id="c"><path class="d" d="M125.12,30.88c8.66,1.82,14,7.3,16.49,15.64,.41,1.39,.95,2.21,2.36,2.75,4.02,1.56,7.59,3.91,10.51,7.09,9.04,9.86,11.16,21.25,6,33.44-5.2,12.27-14.85,19.21-28.36,19.3-31.69,.23-63.38,.08-95.08,.07-9.61,0-17.27-4.04-22.99-11.64-12.26-16.3-4.53-39.89,14.77-45.2,2.3-.63,4.71-.83,7.08-1.24-.38-21.07,15.06-37.08,32.27-40.72,16.21-3.43,35.07,3.72,44.41,22.28,4.07-1.97,8.24-2.71,12.54-1.81Z"/><path class="e" d="M116.74,22.08c8.56,1.8,13.86,7.22,16.32,15.48,.41,1.37,.94,2.19,2.33,2.73,3.98,1.55,7.51,3.87,10.4,7.02,8.94,9.76,11.04,21.03,5.94,33.09-5.14,12.14-14.7,19.01-28.06,19.1-31.36,.23-62.71,.08-94.07,.07-9.51,0-17.09-3.99-22.75-11.51-12.13-16.13-4.48-39.47,14.61-44.72,2.27-.63,4.66-.82,7-1.22-.38-20.84,14.91-36.69,31.93-40.28,16.04-3.39,34.7,3.68,43.94,22.05,4.03-1.95,8.16-2.69,12.41-1.79Z"/></g></g></svg>