<?xml version="1.0" encoding="UTF-8"?><svg xmlns="http://www.w3.org/2000/svg" viewBox="0 0 320 37"><defs><style>.d{fill:#fff;}.e{fill:#2e3346;}.f{fill:none;stroke:#fff;stroke-miterlimit:10;}</style></defs><g id="a"/><g id="b"><g id="c"><rect class="e" width="320" height="37"/><path class="d" d="M10.84,11.09c4.49-5.84,13.07-7.3,19.21-3.3,2.97,1.93,5.23,4.96,6.15,8.39,.45,1.68,1.16,3.13,3.01,3.54,1.72,.38,3.46-.3,5.16,.17,4.18,1.14,5.51,6.29,2.54,9.38-1.34,1.39,.78,3.51,2.12,2.12,3.01-3.13,3.4-8.12,.61-11.52-1.32-1.61-3.28-2.73-5.33-3.05-1.02-.16-1.99-.08-3.01,0s-1.75,.18-2.07-.93c-1.19-4.14-3.41-7.61-6.93-10.17s-7.64-3.61-11.8-3.11c-4.9,.58-9.25,3.07-12.25,6.98-1.18,1.53,1.43,3.03,2.59,1.51h0Z"/><line class="f" x1="211" y1="27.5" x2="319.85" y2="27.5"/><g><g><path class="d" d="M135.92,11.91h1.15l5.1,11.45h-1.67l-1.52-3.37h-4.86l-1.42,3.37h-1.67l4.89-11.45Zm2.39,6.62l-1.84-4.12-1.7,4.12h3.54Z"/><path class="d" d="M152.22,11.98h1.52v11.38h-1.64V14.5l-3.5,4.4h-.3l-3.54-4.4v8.86h-1.63V11.98h1.54l3.78,4.67,3.76-4.67Z"/><path class="d" d="M159.55,23.36h-3.85V11.98h2.98c.94,0,1.67,.13,2.2,.38s.93,.6,1.21,1.04c.28,.44,.42,.95,.42,1.54,0,1.12-.58,1.92-1.74,2.4,.83,.16,1.49,.5,1.98,1.03,.49,.53,.74,1.16,.74,1.89,0,.58-.15,1.1-.45,1.56s-.74,.83-1.32,1.12-1.3,.43-2.17,.43Zm-.82-9.93h-1.4v3.42h1.08c.87,0,1.49-.17,1.85-.5,.37-.33,.55-.76,.55-1.29,0-1.09-.7-1.64-2.09-1.64Zm.12,4.87h-1.52v3.61h1.6c.89,0,1.49-.07,1.81-.21s.57-.35,.77-.65,.29-.61,.29-.95-.1-.67-.31-.95c-.2-.29-.49-.5-.87-.64-.37-.14-.97-.21-1.78-.21Z"/><path class="d" d="M165,11.98h6.45v1.45h-4.82v3.47h4.66v1.46h-4.66v3.54h4.98v1.45h-6.61V11.98Z"/><path class="d" d="M173.73,23.36V11.98h2.85c1.15,0,2.07,.29,2.74,.86s1.01,1.34,1.01,2.31c0,.66-.17,1.24-.5,1.72-.33,.48-.71,.84-1.33,1.18l2.88,5.31h-1.94l-2.53-4.95s-.61,0-1.14,0h-.42v4.95h-1.63Zm2.12-10h-.49v3.59h.62c.83,0,1.39-.07,1.7-.21,.31-.14,.55-.35,.72-.64s.26-.61,.26-.97-.1-.68-.29-.97c-.19-.29-.46-.5-.8-.62-.34-.12-.92-.18-1.71-.18Z"/></g><g><path class="d" d="M154.1,25.62v1.72h-.47v-1.32c0-.26-.04-.45-.11-.55-.07-.1-.19-.16-.37-.16-.1,0-.19,.02-.27,.07-.08,.04-.18,.12-.28,.24v1.72h-.47v-2.37h.47v.31c.24-.24,.47-.36,.7-.36,.3,0,.53,.14,.7,.43,.25-.29,.51-.43,.79-.43,.23,0,.42,.08,.57,.25,.15,.17,.22,.43,.22,.77v1.4h-.47v-1.41c0-.2-.04-.35-.12-.45-.08-.1-.2-.16-.35-.16-.19,0-.38,.1-.54,.29Z"/><path class="d" d="M157.43,24.97c.36,0,.66,.12,.9,.35,.24,.23,.36,.53,.36,.88s-.12,.63-.36,.85-.55,.34-.92,.34-.65-.11-.89-.34c-.24-.23-.36-.52-.36-.86s.12-.64,.36-.87c.24-.23,.54-.35,.91-.35Zm-.03,.42c-.23,0-.41,.07-.55,.22s-.22,.34-.22,.56,.07,.41,.22,.56c.15,.14,.34,.22,.57,.22s.42-.07,.57-.22c.15-.15,.22-.33,.22-.56s-.08-.41-.23-.56c-.15-.15-.35-.22-.58-.22Z"/><path class="d" d="M160.73,24.97h.51l-1.05,2.41h-.16l-1.07-2.41h.51l.64,1.46,.62-1.46Z"/><path class="d" d="M161.9,23.98c.08,0,.14,.03,.2,.08s.08,.12,.08,.2-.03,.14-.08,.2-.12,.08-.2,.08c-.07,0-.14-.03-.19-.08-.06-.06-.08-.12-.08-.19s.03-.14,.08-.19c.05-.06,.12-.08,.19-.08Zm-.23,1h.47v2.37h-.47v-2.37Z"/><path class="d" d="M163.36,24.97v.3c.21-.23,.45-.35,.71-.35,.15,0,.29,.04,.41,.11s.22,.18,.29,.31,.1,.34,.1,.63v1.36h-.47v-1.35c0-.24-.04-.42-.11-.52s-.2-.16-.37-.16c-.22,0-.41,.11-.56,.33v1.7h-.48v-2.37h.48Z"/><path class="d" d="M165.48,25.79c0-.25,.09-.45,.28-.6,.18-.15,.44-.22,.76-.22h.98v.37h-.48c.09,.09,.16,.18,.19,.26s.05,.17,.05,.27c0,.12-.04,.25-.11,.36-.07,.12-.16,.21-.27,.27-.11,.06-.29,.11-.55,.15-.18,.03-.27,.09-.27,.18,0,.06,.03,.1,.1,.14,.07,.04,.19,.07,.36,.11,.29,.06,.48,.11,.56,.15s.16,.09,.23,.15c.11,.11,.17,.26,.17,.43,0,.23-.1,.4-.3,.54-.2,.13-.47,.2-.8,.2s-.61-.07-.81-.2c-.2-.14-.3-.32-.3-.54,0-.32,.2-.53,.6-.62-.16-.1-.24-.2-.24-.3,0-.08,.03-.14,.1-.21s.16-.11,.27-.14c-.35-.15-.52-.41-.52-.75Zm.77,1.66c-.16,0-.29,.03-.39,.1-.1,.07-.15,.15-.15,.26,0,.24,.22,.37,.66,.37,.21,0,.37-.03,.48-.09,.11-.06,.17-.15,.17-.26s-.07-.2-.22-.27c-.14-.07-.33-.1-.56-.1Zm.11-2.08c-.13,0-.24,.04-.33,.13s-.13,.19-.13,.31,.04,.22,.13,.3c.09,.08,.2,.12,.33,.12s.24-.04,.33-.12,.13-.18,.13-.31-.04-.23-.13-.31-.2-.12-.34-.12Z"/><path class="d" d="M171.4,25.62v1.72h-.47v-1.32c0-.26-.04-.45-.11-.55s-.19-.16-.37-.16c-.1,0-.19,.02-.27,.07s-.18,.12-.28,.24v1.72h-.47v-2.37h.47v.31c.24-.24,.47-.36,.7-.36,.3,0,.53,.14,.7,.43,.25-.29,.51-.43,.79-.43,.23,0,.42,.08,.57,.25s.22,.43,.22,.77v1.4h-.47v-1.41c0-.2-.04-.35-.12-.45-.08-.1-.2-.16-.35-.16-.19,0-.38,.1-.54,.29Z"/><path class="d" d="M175.11,27.35v-.3c-.1,.11-.21,.19-.34,.25s-.26,.09-.38,.09c-.15,0-.29-.04-.41-.11-.13-.07-.22-.18-.29-.3-.06-.13-.1-.34-.1-.64v-1.36h.47v1.35c0,.25,.04,.42,.11,.52,.07,.1,.2,.15,.38,.15,.22,0,.41-.11,.57-.33v-1.7h.47v2.37h-.47Z"/><path class="d" d="M176.19,27.18v-.51c.13,.09,.27,.17,.41,.23,.14,.06,.25,.09,.35,.09s.18-.02,.25-.07c.07-.05,.11-.11,.11-.17s-.02-.13-.07-.17-.14-.11-.3-.2c-.3-.17-.5-.31-.59-.43-.09-.12-.14-.25-.14-.39,0-.18,.07-.33,.21-.45,.14-.12,.32-.17,.55-.17s.47,.07,.71,.2v.46c-.28-.17-.51-.25-.68-.25-.09,0-.16,.02-.22,.06-.06,.04-.08,.09-.08,.15,0,.06,.03,.11,.08,.16,.05,.05,.14,.11,.27,.18l.17,.1c.4,.22,.59,.47,.59,.74,0,.19-.08,.35-.23,.48-.15,.12-.35,.19-.59,.19-.14,0-.27-.02-.38-.05-.11-.03-.25-.09-.42-.17Z"/><path class="d" d="M178.65,23.98c.08,0,.14,.03,.2,.08,.05,.05,.08,.12,.08,.2s-.03,.14-.08,.2c-.06,.06-.12,.08-.2,.08-.07,0-.14-.03-.19-.08-.06-.06-.08-.12-.08-.19s.03-.14,.08-.19c.05-.06,.12-.08,.19-.08Zm-.23,1h.47v2.37h-.47v-2.37Z"/><path class="d" d="M181.42,26.79v.46c-.24,.09-.47,.13-.69,.13-.37,0-.67-.11-.89-.33-.22-.22-.33-.52-.33-.88s.11-.67,.32-.9c.22-.23,.5-.34,.85-.34,.12,0,.23,.01,.33,.03,.1,.02,.22,.07,.36,.13v.5c-.24-.15-.46-.23-.66-.23s-.39,.07-.52,.22c-.14,.15-.2,.34-.2,.57,0,.24,.07,.44,.22,.58,.15,.14,.35,.21,.59,.21,.18,0,.39-.05,.62-.16Z"/></g><path class="d" d="M187.18,6.44v25.91h-60.26V6.44h60.26m.4-.4h-61.07v26.72h61.07V6.03h0Z"/></g></g></g></svg>