<?xml version="1.0" encoding="UTF-8"?><svg xmlns="http://www.w3.org/2000/svg" viewBox="0 0 226.37 47.27"><defs><style>.d{fill:#4a5388;}.e{fill:none;stroke:#4a5388;stroke-miterlimit:10;}</style></defs><g id="a"/><g id="b"><g id="c"><path class="d" d="M2.89,12.88C10.54,2.81,25.28,.04,35.99,6.73c5.1,3.19,9.13,8.21,10.92,13.98,.47,1.53,.67,3.21,1.73,4.48,.93,1.11,2.27,1.62,3.67,1.77,1.51,.17,3.01-.09,4.52-.17s3.01,.14,4.43,.7c3.18,1.24,5.67,4,6.4,7.36s-.38,7.16-2.84,9.66c-1.36,1.38,.76,3.5,2.12,2.12,4.93-5.01,5.28-13.32,.45-18.51-2.35-2.52-5.67-4.09-9.1-4.32-1.66-.11-3.3,.24-4.96,.22-1.87-.01-2.62-.72-3.09-2.51C46.76,8.16,33.78-1.53,19.85,.2,12.1,1.16,5.03,5.14,.29,11.37c-1.17,1.54,1.44,3.03,2.59,1.51h0Z"/><line class="e" x1="74.37" y1="46.77" x2="226.37" y2="46.77"/></g></g></svg>