<svg xmlns="http://www.w3.org/2000/svg" viewBox="0 0 200 33.25"><defs><style>.cls-1{fill:#fff;}</style></defs><g id="Calque_2" data-name="Calque 2"><g id="Calque_2-2" data-name="Calque 2"><path class="cls-1" d="M13.91,27.84c-6.82,0-11.2-7.4-8.22-13.9a9,9,0,0,1,10.63-5,9.73,9.73,0,0,1,6.57,10.47c-.63,4-2.69,6.89-6.7,8.16a3.9,3.9,0,0,1-.67.18C15,27.78,14.44,27.8,13.91,27.84Z"/><path class="cls-1" d="M58.2,20.17H53.68V17h8.2v3.29c0,1.85,0,3.71,0,5.56A1.53,1.53,0,0,1,61.36,27c-4.36,2.46-10.74,3-15-1a10.18,10.18,0,0,1-2.93-10.78,9.94,9.94,0,0,1,7.78-7.3,10.62,10.62,0,0,1,10.06,2.33,2.83,2.83,0,0,1,.24.25,2,2,0,0,1,.12.29l-2,2.17a24.64,24.64,0,0,0-4.15-1.82,6.8,6.8,0,0,0-7.37,2.69,6.88,6.88,0,0,0-.71,7.63,6.91,6.91,0,0,0,6.74,4.05C58.23,25.38,59,24.4,58.2,20.17Z"/><path class="cls-1" d="M131.28,28.46c-1.14,0-2.21.05-3.27,0-.27,0-.61-.4-.74-.69-.45-1.06-.78-2.18-1.26-3.23a1.36,1.36,0,0,0-1-.68q-3.6-.09-7.18,0c-.37,0-.79.42-1.06.75a3.61,3.61,0,0,0-.41,1.07c-1.16,3.13-1.2,3.16-4.82,2.7L115,19.53c1.39-3.59,2.79-7.17,4.14-10.77a1.19,1.19,0,0,1,1.34-.91c2.94,0,3,0,4,2.71,2.23,5.78,4.42,11.57,6.63,17.36C131.19,28.06,131.21,28.21,131.28,28.46ZM121.36,12l-3.06,8.41h6.11Z"/><path class="cls-1" d="M87.44,28.42c-3.76.16-3.81.18-4.94-3.15-.38-1.13-.86-1.58-2.1-1.51-2.08.13-4.17.07-6.25,0a1.08,1.08,0,0,0-1.25.87c-.34,1-.78,2-1.11,3a1,1,0,0,1-1.19.79c-.91-.06-1.83,0-2.88,0L71,20.08c1.47-3.81,3-7.61,4.38-11.43a1.05,1.05,0,0,1,1.17-.8c3.07,0,3.08,0,4.18,2.82q3.22,8.42,6.43,16.83C87.22,27.78,87.31,28.06,87.44,28.42Zm-6.81-8L77.55,12l-3.07,8.46Z"/><path class="cls-1" d="M161.91,7.91h3.42V9.29c0,3.93,0,7.87.06,11.81.07,3.38,2.61,5.17,5.86,4.23a3.75,3.75,0,0,0,2.72-3A11.78,11.78,0,0,0,174.2,20c0-3.6,0-7.19,0-10.78V7.93h3.39a6.46,6.46,0,0,1,.11.75c0,4.25,0,8.5,0,12.74a7.08,7.08,0,0,1-5.39,7.08c-3.46,1.05-7.36,0-9.1-2.8a8.5,8.5,0,0,1-1.31-4c-.18-4.38-.1-8.78-.11-13.18A3,3,0,0,1,161.91,7.91Z"/><path class="cls-1" d="M136.72,7.87c1.34,0,2.52,0,3.7,0,.31,0,.66.45.87.78,1.3,2.08,2.56,4.17,3.94,6.43,1.24-2,2.46-3.9,3.54-5.84a2.24,2.24,0,0,1,2.54-1.43,16.88,16.88,0,0,0,2.39,0c-1.49,2.35-2.87,4.51-4.24,6.68-.7,1.11-1.89,2.21-1.92,3.35s1.16,2.16,1.84,3.23c1.49,2.38,3,4.75,4.63,7.33-1.39,0-2.6,0-3.81,0-.28,0-.61-.4-.79-.7-1.43-2.28-2.83-4.59-4.33-7-.62,1-1.19,1.88-1.73,2.78-.85,1.38-1.7,2.76-2.49,4.17a1.39,1.39,0,0,1-1.46.85c-1-.07-1.92,0-3.09,0,1.33-2.11,2.56-4.09,3.8-6.06.78-1.24,1.55-2.49,2.37-3.7a1.34,1.34,0,0,0,0-1.75c-1.82-2.72-3.56-5.5-5.33-8.25C137,8.48,136.92,8.25,136.72,7.87Z"/><path class="cls-1" d="M196.89,13.61c-1.51-2.47-2.91-3.17-5.06-2.58A2.28,2.28,0,0,0,190,12.85a2.09,2.09,0,0,0,1.22,2.39c1.13.58,2.3,1.07,3.45,1.61.8.38,1.61.74,2.39,1.16A5.34,5.34,0,0,1,200,23.57a5.19,5.19,0,0,1-3.53,4.59c-2.65,1.1-7.34,1.08-9.53-2.21-.41-.6-.69-1.28-1.11-2.06l2.89-1.3a18.88,18.88,0,0,0,2.66,2.47,3.72,3.72,0,0,0,3.87-.14,2.11,2.11,0,0,0,.31-3.64,22.48,22.48,0,0,0-3.17-1.62c-1-.5-2.12-.93-3.11-1.52a5.41,5.41,0,0,1-2.91-5.71,5.47,5.47,0,0,1,4.54-4.66c4-1,7.61.68,9.05,4.45Z"/><path class="cls-1" d="M97.65,25.13h8.79v3.26H94.24V7.94h3.41Z"/><path class="cls-1" d="M16.63,7.08c-1.78.1-3.57.16-5.36.31-.84.06-.83-.37-.81-1,0-.82-.1-1.65-.07-2.46a2.16,2.16,0,0,1,.41-1.26c.76-.81,1.66-1.48,2.42-2.28.55-.58.93-.5,1.43,0,.75.77,1.58,1.45,2.3,2.24a2.18,2.18,0,0,1,.48,1.23,17,17,0,0,1-.07,2.57,4,4,0,0,1-.4,1Z"/><path class="cls-1" d="M23.62,13.31,21.16,9.82A9.25,9.25,0,0,1,27,8.06a1.07,1.07,0,0,1,.7.76,11.64,11.64,0,0,1-.59,3.12c-.18.49-.93.84-1.5,1.06A9.83,9.83,0,0,1,23.62,13.31Z"/><path class="cls-1" d="M4.07,13.31c-.37-.09-.77-.2-1.19-.27C.71,12.65.16,12,0,9.82-.09,8,.13,7.81,2,8.1A9.57,9.57,0,0,1,6.54,9.82Z"/><path class="cls-1" d="M23.7,22.86a6.68,6.68,0,0,1,3.23,5.61,1,1,0,0,1-.65.7A12.14,12.14,0,0,1,23.2,29a2.2,2.2,0,0,1-1.13-3.64C22.65,24.57,23.13,23.74,23.7,22.86Z"/><path class="cls-1" d="M4,22.74c.74,1.05,1.45,2,2.14,3a2.23,2.23,0,0,1-1,2.89,15.4,15.4,0,0,1-3.6.39c-.2,0-.61-.52-.59-.78A6.63,6.63,0,0,1,4,22.74Z"/><path class="cls-1" d="M12.16,29.36H15.4c-.05,1.64.34,3,2.08,3.59A3.81,3.81,0,0,1,12.16,29.36Z"/></g></g></svg>