<?xml version="1.0" encoding="UTF-8"?><svg xmlns="http://www.w3.org/2000/svg" viewBox="0 0 59.82 59.86"><defs><style>.e{fill:#d780ac;}.f{fill:#36373c;}</style></defs><g id="a"/><g id="b"><g id="c"><g id="d"><g><path class="e" d="M29.88,0c16.58,0,29.96,13.39,29.94,29.98-.02,16.56-13.48,29.95-30.06,29.89C13.32,59.8-.04,46.34,0,29.86,.04,13.36,13.39,0,29.88,0Z"/><path class="f" d="M30,12.12c3.79,0,7.58-.02,11.37,0,3.92,.03,6.37,2.45,6.38,6.37,.03,7.64,.03,15.29,0,22.93-.02,3.83-2.44,6.26-6.27,6.27-7.71,.03-15.41,.03-23.12,0-3.85-.02-6.26-2.41-6.29-6.26-.05-7.64-.04-15.28,0-22.93,.02-3.94,2.46-6.33,6.38-6.38,.13,0,.26,0,.39,0,3.73,0,7.45,0,11.18,0Z"/><path class="e" d="M29.74,45.74c-3.72,0-7.45,.02-11.17,0-2.98-.02-4.53-1.51-4.54-4.49-.03-7.57-.04-15.15,0-22.72,.01-2.93,1.61-4.44,4.59-4.45,7.57-.02,15.15-.02,22.72,0,2.83,0,4.43,1.56,4.44,4.4,.03,7.64,.04,15.27,0,22.91-.01,2.82-1.62,4.32-4.49,4.34-3.85,.02-7.7,0-11.55,0Z"/><path class="f" d="M39.03,29.98c-.03,5.09-4.17,9.17-9.23,9.11-5.06-.06-9.07-4.2-9.01-9.32,.06-4.98,4.15-9.03,9.13-9.02,5.06,.01,9.14,4.14,9.11,9.23Z"/><path class="f" d="M41.27,18.8c-1.18-.08-1.77-.76-1.77-1.73,0-1.08,.7-1.81,1.83-1.75,1.12,.06,1.74,.8,1.65,1.92-.09,1.03-.77,1.55-1.71,1.56Z"/><path class="e" d="M37.08,30c-.04,3.96-3.38,7.22-7.29,7.12-3.9-.1-7.04-3.3-7.04-7.18,0-3.97,3.26-7.25,7.2-7.21,3.98,.04,7.17,3.29,7.14,7.27Z"/></g></g></g></g></svg>