<svg xmlns="http://www.w3.org/2000/svg" viewBox="0 0 200 70.46"><defs><style>.cls-1{fill:#fff;}</style></defs><g id="Calque_2" data-name="Calque 2"><g id="Calque_2-2" data-name="Calque 2"><path class="cls-1" d="M0,70.46V57.16H199.93v13.3Z"/><path class="cls-1" d="M23.6,54.82V3.64c1.66.18,3.29.25,4.86.56,8.23,1.61,14.73,5.85,19,13.13a23.7,23.7,0,0,1-2.54,27.39A27.5,27.5,0,0,1,24.49,54.9c-.22,0-.44,0-.66,0Z"/><path class="cls-1" d="M0,25H21.54V54.87H0Z"/><path class="cls-1" d="M52.43,55.11V31a.88.88,0,0,1,.3-.1c4.39,0,8.8-.14,13.18.1a12.11,12.11,0,0,1,11,15.21,12,12,0,0,1-5,7.42,9.46,9.46,0,0,1-5.24,1.51c-4.56,0-9.12,0-13.67,0A3.75,3.75,0,0,1,52.43,55.11Zm8.69-6.18c2.59.26,4.94.16,6.43-2.34a6.9,6.9,0,0,0-.28-7.44c-1.38-1.8-3-2.44-6.15-1.86Z"/><path class="cls-1" d="M0,1.93V0H199.91V1.93Z"/><path class="cls-1" d="M21.29,13.81A10.51,10.51,0,1,1,10.76,3.26,10.52,10.52,0,0,1,21.29,13.81Z"/><path class="cls-1" d="M153.45,36.31h7.91v.89c0,3.79,0,7.59,0,11.38,0,.83.11,1.55,1.21,1.54v5.27c-2.19,0-4.38.16-6.4-.77a8.64,8.64,0,0,1-1.87-1.54,27.78,27.78,0,0,1-3.41,2.06,7,7,0,0,1-7-.5,5.71,5.71,0,0,1-2.65-5c0-4.33,0-8.67,0-13a2.15,2.15,0,0,1,.06-.37h7.87c0,.31.06.63.06.94,0,3.25,0,6.5,0,9.75a2,2,0,0,0,.87,2,2.32,2.32,0,0,0,3.34-1.85c0-3.28,0-6.56,0-9.83Z"/><path class="cls-1" d="M175.73,55.11c0-3.26,0-6.46,0-9.65a6.18,6.18,0,0,0-.07-1.14,1.8,1.8,0,0,0-2.43-1.58A3.55,3.55,0,0,0,171,45.6v9.5h-7.41V36.44H171v2.22c.33-.27.53-.42.72-.59a7.06,7.06,0,0,1,7.14-1.49,5.5,5.5,0,0,1,4.16,5c.2,2,.12,4,.13,5.92,0,2.52,0,5,0,7.62Z"/><path class="cls-1" d="M129.79,55.62a11.07,11.07,0,0,1-8.89-4.16,9,9,0,0,1,1.35-12.68,11.85,11.85,0,0,1,15.26.09c5,4.35,4.1,11.8-1.73,15.17A11.5,11.5,0,0,1,129.79,55.62ZM133,46a3.42,3.42,0,0,0-3-3.58,3.22,3.22,0,0,0-3.27,3,3.58,3.58,0,0,0,2.35,4C131.12,50,133,48.25,133,46Z"/><path class="cls-1" d="M62.66,9.93h7.45v2.26l.73-.6a7.12,7.12,0,0,1,7.45-1.39,5.28,5.28,0,0,1,3.85,4.88c.18,4.49,0,9,0,13.55H74.82V19A7.31,7.31,0,0,0,74.76,18a1.9,1.9,0,0,0-3.24-1.31,3.47,3.47,0,0,0-1.53,3c.12,2.68,0,5.37,0,8v.91H62.66Z"/><path class="cls-1" d="M118.42,20.42H107.2c-.14,1.84,1.07,3.12,3.09,3.45,2.46.39,4.73-.35,7-1l.61-.2s0,0,.14,0c0,1.51,0,3,0,4.54a.8.8,0,0,1-.45.55,17.29,17.29,0,0,1-12.16.71,7.77,7.77,0,0,1-5-5,11.89,11.89,0,0,1,.15-8.74c1.59-3.86,5.63-5.87,10.22-5.15,4.32.69,6.93,3.55,7.45,8.2C118.3,18.63,118.34,19.46,118.42,20.42ZM111,17.2a2.46,2.46,0,0,0-.92-2.49,1.64,1.64,0,0,0-1.91-.06A2.79,2.79,0,0,0,107,17.2Z"/><path class="cls-1" d="M85.33,14.91H82.6c0-1.12,0-2.14,0-3.16a1.15,1.15,0,0,1,.43-.64c2.66-2.26,5.31-4.55,8-6.73.5-.4,1.37-.34,2.19-.52v6h5.45v4.94H93.22V20.9a1.42,1.42,0,0,0,1.23,1.64A4.72,4.72,0,0,0,98,22.15c.36-.18.7-.39,1.13-.63a5.9,5.9,0,0,1,.07.64c0,1.36,0,2.72,0,4.07a1.54,1.54,0,0,1-1,1.68,11.3,11.3,0,0,1-8.53.81,5.83,5.83,0,0,1-4.36-5.94V14.91Z"/><path class="cls-1" d="M194.1,36.51h5.43v4.86H194v1.11c0,1.68,0,3.36,0,5a1.46,1.46,0,0,0,1.14,1.56,4.64,4.64,0,0,0,3.49-.25c.43-.21.85-.46,1.39-.75,0,1.93,0,3.78,0,5.64,0,.13-.18.31-.33.4a11,11,0,0,1-9.54,1.06,5.65,5.65,0,0,1-4-5.72V41.54H183.4c0-1.15,0-2.17,0-3.2a1.14,1.14,0,0,1,.41-.63c2.65-2.25,5.27-4.52,8-6.68a6.33,6.33,0,0,1,2.28-.58Z"/><path class="cls-1" d="M118.5,48.69c0,1.88,0,3.79,0,5.71,0,.17-.28.45-.47.51a14,14,0,0,1-11.2-.85,8.94,8.94,0,0,1-4.47-9c.48-4.68,3.25-7.62,8.12-8.68a13.91,13.91,0,0,1,7.46.47c.23.08.55.34.56.52,0,2,0,4.1,0,6.17-.88-.32-1.67-.67-2.5-.89a6,6,0,0,0-4,.28,3.13,3.13,0,0,0-.73,5.39c2,1.58,4.11,1.4,6.31.59.26-.09.5-.2.76-.3Z"/><path class="cls-1" d="M87.13,48.43l1.6,1a7.66,7.66,0,0,0,3.9,1.25c.59,0,1.31-.06,1.36-.73a1.75,1.75,0,0,0-.75-1.27c-1-.68-2.14-1.18-3.17-1.82a5.7,5.7,0,0,1-2.83-5.25A4.62,4.62,0,0,1,89,37.88,9.41,9.41,0,0,1,96,36.13a8.34,8.34,0,0,1,4.68,1.66,1.75,1.75,0,0,1,.56,1.14c.06,1.37,0,2.75,0,4.25a5.87,5.87,0,0,0-.6-.36c-1.21-.55-2.4-1.11-3.62-1.61a1.69,1.69,0,0,0-1.11,0c-.37.14-.84.44-.93.77a1.42,1.42,0,0,0,.43,1.11,5.14,5.14,0,0,0,1.38.82A11,11,0,0,1,101,47a4.84,4.84,0,0,1-1.56,7.42,10.21,10.21,0,0,1-3.39,1,17.7,17.7,0,0,1-8-.74,1.07,1.07,0,0,1-.87-1.22C87.17,51.85,87.13,50.21,87.13,48.43Z"/><path class="cls-1" d="M52.54,28.64V4.5H61V28.64Z"/><path class="cls-1" d="M126.63,10v3c.59-.76,1-1.41,1.54-2a4.91,4.91,0,0,1,6.29-.67,1.63,1.63,0,0,1,.77,1.64c-.2,1.94-.27,3.89-.39,5.79-1-.27-2-.52-2.9-.79-2.35-.69-5.14,2.32-5,4.36.09,2.22,0,4.44,0,6.67,0,.18,0,.37,0,.63h-7.54V10Z"/><path class="cls-1" d="M78.33,36.51h7c.24,0,.48,0,.78,0V55.13H78.33Z"/><path class="cls-1" d="M85,33.12a2.74,2.74,0,1,1-2.73-2.74A2.77,2.77,0,0,1,85,33.12Z"/></g></g></svg>