<?xml version="1.0" encoding="UTF-8"?><svg xmlns="http://www.w3.org/2000/svg" viewBox="0 0 61.02 61"><defs><style>.e{fill:#d780ac;}.f{fill:#36373c;}</style></defs><g id="a"/><g id="b"><g id="c"><g id="d"><g><path class="e" d="M30.58,0c16.83,.02,30.43,13.63,30.44,30.47,.01,16.9-13.66,30.53-30.61,30.52C13.53,60.99-.07,47.27,0,30.3,.07,13.48,13.69-.02,30.58,0Z"/><path class="f" d="M41.51,51.19c-2.39,.03-4.7-.48-6.9-1.34-9.05-3.57-16.2-9.47-21.32-17.76-1.7-2.75-2.84-5.73-2.83-9.05,0-2.91,1.15-5.36,3.06-7.43,2.58-2.8,5.9-2.2,7.46,1.25,.75,1.67,1.4,3.39,2.31,4.97,1.21,2.11,.9,3.92-.8,5.46-1.22,1.11-1.37,2.97-.41,4.31,3.29,4.61,7.3,8.16,12.63,10.19,1.4,.53,2.38,.26,3.22-.9,.23-.32,.48-.62,.72-.93,2.82-3.65,1.72-3.93,6.91-1.73,1.38,.59,2.72,1.25,4.09,1.86,1.64,.74,2.5,2.6,1.92,4.29-1.47,4.29-5.21,6.81-10.06,6.81Z"/><path class="f" d="M47.91,31.46c.05,.68-.05,1.11-.92,1.14-.92,.03-1.01-.39-1.11-1.16-.99-7.7-5.78-13.03-12.92-14.38-.61-.12-1.24-.14-1.86-.16-.82-.03-.94-.5-.93-1.24,.01-1,.68-.73,1.23-.73,7.39,.08,14.64,6.38,16.11,14.01,.16,.83,.26,1.68,.39,2.52Z"/><path class="f" d="M32.29,18.9c5.52,.18,11.04,5.74,11.25,11.26,.03,.66,.05,1.16-.85,1.13-.65-.02-1.02-.07-1.15-.9-.82-5.51-3.95-8.79-9.54-9.51-.96-.12-.97-.61-.95-1.31,.03-1.03,.79-.58,1.23-.67Z"/><path class="f" d="M33.47,23.59c2.62,.18,5.38,2.97,5.67,5.69,.05,.47,.17,1-.53,.98-.5-.01-1.21,.39-1.4-.55-.48-2.34-1.82-3.82-4.26-4.22-.86-.14-.57-.92-.54-1.45,.04-.71,.63-.46,1.06-.46Z"/></g></g></g></g></svg>