<svg xmlns="http://www.w3.org/2000/svg" viewBox="0 0 200 69.82"><defs><style>.cls-1{fill:#fff;}</style></defs><g id="Calque_2" data-name="Calque 2"><g id="Calque_2-2" data-name="Calque 2"><path class="cls-1" d="M117.57,0h71.78a1.52,1.52,0,0,0,.33.18C196.84,1.52,201,7.33,199.8,14.51a101.63,101.63,0,0,1-2.56,10c-2.59,9.68-5.35,19.32-7.79,29a21,21,0,0,1-20.58,16.24H12.74c-.3,0-.6,0-.9,0A12,12,0,0,1,.34,60.73c-.07-.3,0-.68-.34-.88V55.06a4.6,4.6,0,0,0,.53-1.77Q5.14,36.34,9.7,19.38c.83-3.08,1.5-6.21,3.19-9C16.9,3.84,22.6.19,30.45.2c6.57,0,13.13,0,19.69,0L116.49.1A2.34,2.34,0,0,0,117.57,0ZM91.42,67.37h77.37a13.55,13.55,0,0,0,2.78-.2C179.34,65.5,184.81,61,187,53.38c3.54-12.18,6.68-24.48,10-36.73a11.29,11.29,0,0,0-1.13-9.3c-2.24-3.57-5.65-5-9.75-5q-77.37,0-154.73,0c-8.2,0-16.44,6.38-18.45,14-.53,2-1.09,4-1.64,6.05C8.51,32.75,5.67,43.06,3,53.41a10.86,10.86,0,0,0,2.1,10.22c2.35,2.77,5.49,3.73,9,3.73Z"/><path class="cls-1" d="M91.58,64.89h-77A13.39,13.39,0,0,1,11,64.56a8,8,0,0,1-5.95-9.22c.69-3.92,2-7.7,3-11.54,2.34-8.81,4.75-17.59,7.12-26.39A17.09,17.09,0,0,1,31.66,4.79H185.51c2.56,0,5,.41,6.93,2.24,2.61,2.45,3.08,5.56,2.21,8.82-3.26,12.32-6.48,24.67-10,36.92-1.94,6.73-6.8,10.66-13.7,12a14.15,14.15,0,0,1-2.69.12Q129.92,64.91,91.58,64.89Zm62-52.77H143.27l-33.38,0c-.54,0-1,0-1.14.72Q103,35.05,97.16,57.21c-.22.81,0,.91.74.91q22,0,44.08,0c.24,0,.53.14.74-.16a3.33,3.33,0,0,0-.32-.24,17.15,17.15,0,0,1-7.92-11c-.16-.68-.42-.87-1.12-.87-5.36,0-10.72,0-16.09.09-.71,0-.82-.22-.68-.84.31-1.39.64-2.78.87-4.18.11-.67.38-.83,1-.82,2.43,0,4.86,0,7.3,0,.4,0,.77.06.92-.49.79-3.07,1.62-6.14,2.46-9.32H128.1c-2.27,0-4.53,0-6.8,0-.75,0-1.1-.05-.8-1a41.76,41.76,0,0,0,1.08-4.13,1,1,0,0,1,1.2-.92c5,0,9.93,0,14.9,0a1.52,1.52,0,0,0,1.4-.7,32.82,32.82,0,0,1,5.39-5.72A41.36,41.36,0,0,1,153.53,12.12ZM30.16,57.83h11A37.55,37.55,0,0,0,49.28,57c4.68-1,8.56-3.19,10.92-7.57,2.66-4.93,2.26-9.7-1.2-13.58a19.25,19.25,0,0,0-3.89-3.25,56.27,56.27,0,0,0-8.63-4.09,11,11,0,0,1-3-1.57c-1-.86-.76-1.88.48-2.25a12.79,12.79,0,0,1,3.65-.41c3.2,0,6.4,0,9.6,0a.86.86,0,0,0,1-.78c.92-3.56,1.89-7.1,2.87-10.65.19-.68,0-.85-.68-.84-4.16,0-8.33,0-12.49,0a63.82,63.82,0,0,0-9.16.55,20.13,20.13,0,0,0-9.5,3.55c-4.13,3.14-5.76,9.13-3.66,13.57a14.4,14.4,0,0,0,5.61,5.79A64.24,64.24,0,0,0,38.17,39a22.07,22.07,0,0,1,5,2.92c.59.5,1.17,1,1,1.93s-.93,1.3-1.79,1.49a13.14,13.14,0,0,1-3.06.37q-9.49,0-19,0c-.69,0-1,.13-1.23.89q-1.29,5.16-2.74,10.27c-.23.81-.11,1,.75,1C21.43,57.81,25.8,57.83,30.16,57.83Zm131.78,0c3.6,0,6.57,0,9.53,0,.7,0,1-.14,1.23-.89q2.78-10.58,5.66-21.12c.24-.85-.06-.89-.76-.88-4.06,0-8.12,0-12.19,0-.75,0-1,.25-1.2.94-.78,3.08-1.65,6.15-2.43,9.23-.17.69-.48.86-1.17.83a7.56,7.56,0,0,1-7.25-7.46c-.3-7.21,6.44-14.16,13.81-14.21,4.46,0,8.93,0,13.39,0,.46,0,.88.09,1.05-.59.95-3.69,1.95-7.36,3-11,.14-.51,0-.64-.48-.64-5.89.07-11.79-.16-17.68.12a30,30,0,0,0-20.94,9.58c-5.21,5.49-8.41,11.9-8.35,19.64a16.33,16.33,0,0,0,15,16.3C155.59,58,159.09,57.71,161.94,57.83ZM73.76,24.73c-.06.25-.09.43-.14.62C70.79,35.94,68,46.53,65.12,57.11c-.22.83-.11,1,.75,1,4.73,0,9.46,0,14.19,0,.72,0,1-.19,1.2-.92C84.07,46.6,86.94,36,89.75,25.43c.2-.74.48-1,1.27-1,3.56.05,7.13,0,10.69,0,.66,0,.91-.22,1.07-.84,1-3.58,1.94-7.16,2.94-10.73.18-.66.11-.91-.68-.91q-19.89,0-39.77,0c-.59,0-.89.14-1,.75-.93,3.62-1.87,7.24-2.88,10.84-.21.78,0,.87.68.88C65.92,24.54,69.81,24.64,73.76,24.73Z"/></g></g></svg>