<?xml version="1.0" encoding="UTF-8"?><svg xmlns="http://www.w3.org/2000/svg" viewBox="0 0 67.25 67.3"><defs><style>.e{fill:#d780ac;}.f{fill:#36373c;}</style></defs><g id="a"/><g id="b"><g id="c"><g id="d"><g><path class="e" d="M33.57,0c18.48-.07,33.65,15.01,33.68,33.49,.03,18.65-14.98,33.76-33.6,33.81C15.16,67.35,.09,52.35,0,33.79-.09,15.15,14.89,.07,33.57,0Z"/><path class="f" d="M51.26,18.14c-.04,2.09-1.44,2.73-2.03,4.03l2.34,.2c0,.18,.05,.4,0,.44-2.4,1.64-2.68,4.11-3.03,6.77-1.51,11.51-12.29,20.79-23.14,20.12-3.72-.23-6.9-1.72-9.98-4.38,3.83-.24,7.23-.88,10.37-3.32-3.14-.75-5.6-2.13-6.72-5.14,.63-.63,1.45-.05,2.29-.64-1.18-.85-2.51-1.42-3.35-2.54-.47-.63-.96-1.28-1.25-2-.34-.84-.98-1.87-.42-2.65,.5-.7,1.38,.54,2.43,.04-2.38-2.92-3.55-6.1-1.5-9.98,3.86,4.65,8.87,6.96,14.49,8.22,1.4,.31,1.9,.08,1.64-1.41-.53-3.04,.75-5.37,3.16-7.06,2.37-1.66,5.08-1.97,7.56-.48,2.4,1.44,4.58,1.99,7.16-.21Z"/></g></g></g></g></svg>