<?xml version="1.0" encoding="utf-8"?>
<!-- Generator: Adobe Illustrator 26.0.1, SVG Export Plug-In . SVG Version: 6.00 Build 0)  -->
<svg version="1.1"
	 id="svg2" inkscape:output_extension="org.inkscape.output.svg.inkscape" inkscape:version="0.46" sodipodi:docname="Logo Manor.svg" sodipodi:version="0.32" xmlns:cc="http://creativecommons.org/ns#" xmlns:dc="http://purl.org/dc/elements/1.1/" xmlns:inkscape="http://www.inkscape.org/namespaces/inkscape" xmlns:rdf="http://www.w3.org/1999/02/22-rdf-syntax-ns#" xmlns:sodipodi="http://sodipodi.sourceforge.net/DTD/sodipodi-0.dtd" xmlns:svg="http://www.w3.org/2000/svg"
	 xmlns="http://www.w3.org/2000/svg" xmlns:xlink="http://www.w3.org/1999/xlink" x="0px" y="0px" viewBox="0 0 500 124.4"
	 style="enable-background:new 0 0 500 124.4;" xml:space="preserve">
<style type="text/css">
	.st0{fill:#1D1B1B;}
</style>
<defs>
	
		<inkscape:perspective  id="perspective10" inkscape:persp3d-origin="372.04724 : 350.78739 : 1" inkscape:vp_x="0 : 526.18109 : 1" inkscape:vp_y="0 : 1000 : 0" inkscape:vp_z="744.09448 : 526.18109 : 1" sodipodi:type="inkscape:persp3d">
		</inkscape:perspective>
	
		<inkscape:perspective  id="perspective2410" inkscape:persp3d-origin="372.04724 : 350.78739 : 1" inkscape:vp_x="0 : 526.18109 : 1" inkscape:vp_y="0 : 1000 : 0" inkscape:vp_z="744.09448 : 526.18109 : 1" sodipodi:type="inkscape:persp3d">
		</inkscape:perspective>
</defs>
<sodipodi:namedview  bordercolor="#666666" borderopacity="1.0" id="base" inkscape:current-layer="layer1" inkscape:cx="-663.63638" inkscape:cy="343.27435" inkscape:document-units="px" inkscape:pageopacity="0.0" inkscape:pageshadow="2" inkscape:window-height="750" inkscape:window-width="1280" inkscape:window-x="-8" inkscape:window-y="-8" inkscape:zoom="0.175" pagecolor="#ffffff" showgrid="false">
	</sodipodi:namedview>
<g id="layer1" transform="translate(-331.87884,-417.43605)" inkscape:groupmode="layer" inkscape:label="Ebene 1">
	<g id="g3680" transform="matrix(4.2333549,0,0,4.2333549,-1063.0819,-1677.2796)">
		<path id="path2764" class="st0" d="M439.8,503.9l-0.9,1.5l0.9,1.5h1.7l0.9-1.5l-0.9-1.5H439.8z M442.7,502.3l-0.9,1.5l0.9,1.5h1.7
			l0.9-1.5l-0.9-1.5H442.7z M438.5,502.3h-1.7l-0.9,1.5l0.9,1.5h1.7l0.9-1.5L438.5,502.3z M442.7,501.8h1.7l0.9-1.5l-0.9-1.5h-1.7
			l-0.9,1.5L442.7,501.8z M438.5,501.8l0.9-1.5l-0.9-1.5h-1.7l-0.9,1.5l0.9,1.5H438.5z M441.5,500.1l0.9-1.5l-0.9-1.5h-1.7l-0.9,1.5
			l0.9,1.5H441.5z"/>
		<g id="g2774" transform="matrix(1.25,0,0,-1.25,406.19593,502.36324)">
			<path id="path2776" class="st0" d="M0,0c-4.2,0-6.6-3.4-6.6-7.6c0-4.2,2.4-7.6,6.6-7.6c4.2,0,6.6,3.4,6.6,7.6C6.6-3.4,4.2,0,0,0
				 M0-13.6c-3.3,0-5,2.7-5,6c0,3.3,1.6,6,5,6c3.4,0,5-2.7,5-6C5-10.9,3.3-13.6,0-13.6"/>
		</g>
		<path id="path2780" class="st0" d="M391.2,516.9l-14.3-14.9V521h2v-14.1l14.3,14.9v-19.1h-2V516.9z"/>
		<g id="g2790" transform="matrix(1.25,0,0,-1.25,430.9083,521.01134)">
			<path id="path2792" class="st0" d="M0,0h2l-4.5,6c2.3,0.4,4,1.8,4,4.3v0c0,1.2-0.4,2.2-1.1,2.9c-0.9,0.9-2.4,1.5-4.2,1.5h-5.8V0
				H-8v13.2h4.1c2.4,0,3.8-1.1,3.8-2.9v0c0-1.9-1.5-3-3.7-3v0l-1.5-0.1L0,0z"/>
		</g>
		<path id="path2796" class="st0" d="M356.2,521h2.2l1.5-3.5l9.3,0l1.4,3.5h2.3l-8.2-19.2L356.2,521z M360.7,515.7l3.9-9.1l3.8,9.1
			H360.7z"/>
		<path id="path2800" class="st0" d="M342.2,514l-6.6-12.3l-3.7,19.3h2.1l2.4-13l0-0.6l5.9,10.7l5.9-10.1l0-0.6l2.4,13.6h2.1
			l-3.7-19.3L342.2,514z"/>
	</g>
</g>
</svg>
