<?xml version="1.0" encoding="utf-8"?>
<!-- Generator: Adobe Illustrator 26.0.1, SVG Export Plug-In . SVG Version: 6.00 Build 0)  -->
<svg version="1.1" id="Calque_1" xmlns="http://www.w3.org/2000/svg" xmlns:xlink="http://www.w3.org/1999/xlink" x="0px" y="0px"
	 viewBox="0 0 900 300" style="enable-background:new 0 0 900 300;" xml:space="preserve">
<style type="text/css">
	.st0{fill-rule:evenodd;clip-rule:evenodd;fill:#1D1B1B;}
</style>
<g id="Page-1">
	<g id="Artboard">
		<g id="Media_Markt-1-Copy" transform="translate(20.000000, 93.000000)">
			<path id="Fill-2" class="st0" d="M751.4,42.1l0.3-1.6c0.1-0.7-0.1-1.3-0.5-1.9c-0.4-0.5-1.1-0.8-1.7-0.8h-11.7
				c-1.1,0-2,0.8-2.2,1.8l-0.3,1.8L722.6,110c-0.1,0.7,0.1,1.4,0.5,1.9c0.4,0.5,1.1,0.8,1.8,0.8l5.8-0.1h5.4c1.1,0,2-0.8,2.2-1.8
				l8.6-42.6c2.8-10.8,10-14,16.3-14.9c0.3,0,1.6,0,1.9-0.2c-4.3,25.8-9.5,56.4-9.5,56.9c-0.1,0.6,0.1,1.3,0.5,1.8
				c0.4,0.5,1.1,0.8,1.7,0.8h12.6c1,0,1.9-0.6,2.1-1.6c0.4-1.2,3.4-18.8,5.2-29.3c4.7,7.1,19.6,29.9,19.6,29.9c0.4,0.6,1.1,1,1.9,1
				l15.1,0c0.3,0,0.5-0.1,0.8-0.1c0.3,0.1,0.7,0.2,1,0.2l12.8-0.1c1.1,0,2-0.8,2.2-1.9c0,0,9.2-53.4,9.9-56.9c3,0,14.7,0,14.7,0
				c1.1,0,2-0.8,2.2-1.9l2-11.5c0-0.1,0-0.2,0-0.4c0-0.5-0.2-1-0.5-1.4c-0.4-0.5-1.1-0.8-1.7-0.8h-14.4c0.7-4.1,3.3-19,3.3-19
				c0-0.1,0-0.3,0-0.4c0-0.5-0.2-1.1-0.5-1.5c-0.4-0.5-1.1-0.8-1.7-0.8h-12.7c-1.1,0-2,0.8-2.2,1.9c0,0-2.8,16.7-3.3,19.8
				c-1.1,0-2.3,0.1-2.3,0.1l-2,0l-2.1,0c-0.8,0-1.5,0.4-1.9,1c-0.4-0.6-1.1-1-1.9-1l-11.6,0h-3.4c-0.6,0-1.2,0.3-1.7,0.7
				c0,0-11.7,13.4-17.9,20.1c1.8-10.6,6.8-39.9,6.8-39.9c0-0.1,0-0.3,0-0.4c0-0.5-0.2-1-0.5-1.4c-0.4-0.5-1.1-0.8-1.7-0.8l-12.6,0
				c-1.1,0-2.1,0.8-2.2,1.9c-0.3,1.7-1.6,9.5-3.4,19.9c0,0,0-0.1-0.1-0.1c-0.4-0.5-1.1-0.8-1.8-0.8
				C760.5,37.2,755.6,39.4,751.4,42.1z M814.7,106.3c-5.2-8.4-20.4-32.8-21.7-34.9c1.8-2.1,20.3-24.6,24-29l-1.7,8.7
				c-0.1,0.7,0.1,1.4,0.5,1.9c0.4,0.5,1.1,0.8,1.7,0.8h5.8C822.6,57.8,816.6,94.5,814.7,106.3z M380.8,77.1
				c-2.6,9.2-11.4,18-19.9,20c-6.5,0.9-11.3,0.2-14.6-1.9c-3.5-2.4-5.3-6.6-6.6-10.4c-0.2-1.4-0.4-2.7-0.4-4
				c0-8.4,4.5-16.5,12.7-22.7c4.7-3.3,11.2-4.6,16.8-3.3c3.2,0.7,7.6,2.6,10.3,7.6c1.5,2.7,2.3,6.1,2.3,9.4
				C381.6,73.7,381.3,75.5,380.8,77.1z M316.5,17.9l-2.7,14.8c-0.1,0.7,0.1,1.4,0.5,1.9c0.4,0.5,1.1,0.8,1.8,0.8h13.2
				c1.1,0,2-0.8,2.2-1.9l2.5-14.7c0.1-0.7-0.1-1.3-0.5-1.9c-0.4-0.5-1.1-0.8-1.7-0.8l-13-0.1C317.6,16.1,316.7,16.9,316.5,17.9z
				 M288,77.1L288,77.1c0.5-1.6,0.7-3.4,0.7-5.3c0-3.3-0.8-6.7-2.3-9.4c-2.7-4.9-7.1-6.8-10.3-7.6c-5.6-1.3-12.1,0-16.8,3.3
				c-8.2,6.2-12.7,14.3-12.7,22.7c0,1.3,0.1,2.7,0.4,4c1.4,3.8,3.1,8,6.6,10.4c3.3,2.2,8.1,2.8,14.6,1.9
				C276.6,95.1,285.3,86.3,288,77.1z M179.7,66.5L179.7,66.5c5.4,0,31.3-0.3,35-0.3c-0.3-2.5-1.6-4.9-4.4-7.6
				c-3.1-2.6-7.2-3.8-13.2-3.9C190.8,55.6,183.2,59.9,179.7,66.5z M710.1,77.1c-2.6,9.2-11.3,18-19.9,20c-6.5,0.9-11.3,0.2-14.6-1.9
				c-3.5-2.4-5.3-6.6-6.6-10.4c-0.2-1.4-0.4-2.7-0.4-4c0-8.4,4.5-16.5,12.8-22.7c4.7-3.3,11.2-4.6,16.8-3.3
				c3.2,0.7,7.6,2.6,10.3,7.6c1.5,2.7,2.3,6.1,2.3,9.4C710.9,73.7,710.6,75.5,710.1,77.1z M0,111.4V110c0.1-0.1,0.2-0.3,0.3-0.4
				l94-108.4c0.3-0.4,0.8-0.6,1.3-0.6h15.2c0.5,0,1,0.2,1.3,0.6c0.2,0.3,0.4,0.7,0.4,1.1c0,0.1,0,0.2,0,0.3c0,0-11.8,58.2-14,68.7
				c7.4-8.4,62.2-70.2,62.2-70.2c0.3-0.4,0.8-0.6,1.3-0.6h14.3c0.5,0,1,0.2,1.3,0.6c0.3,0.4,0.4,1,0.3,1.5l-15,60.9
				c0.1-0.2,0.2-0.4,0.3-0.7c7.1-13.9,20.7-23.6,35.4-25.4c0,0,0.1,0,0.2,0c13.3-0.7,23.5,4.4,29.7,14.5c0,0.1,0.1,0.1,0.1,0.2
				c2.2,4.4,3.9,10.4,4.1,16.5c2.5-7.3,7-14.1,13.1-19.8c10.5-9.8,23.3-13.6,36-10.8c0.1,0,0.3,0.1,0.4,0.1l1.2,0.5
				c2.8,1.2,5.9,2.6,8.5,4.9c1.4-6.5,5.4-25.7,5.4-25.7c0.2-1,1.1-1.8,2.2-1.8h11.7c0.7,0,1.3,0.3,1.7,0.8c0.4,0.5,0.6,1.2,0.5,1.9
				L296.4,111c-0.2,1.1-1.1,1.9-2.2,1.9l-11.6,0c-0.7,0-1.3-0.3-1.8-0.8c-0.3-0.4-0.5-0.9-0.5-1.4c0-0.1,0-0.3,0-0.4
				c0,0,0.3-1.5,0.5-2.6c-9.5,5.9-19.1,8.1-28.1,6.5c-10.3-2-19.9-12.1-21.8-22.9c-0.5-2.9-0.8-5.8-0.7-8.6
				c-0.4,0.4-0.9,0.6-1.5,0.6c0,0-51.4,0-54,0c-0.1,0.2-0.1,0.4-0.1,0.7c0,0.8,0.3,1.9,0.7,3.1c0,0,0.2,0.6,0.2,0.8
				c2.6,6.3,8.7,10.2,15.7,10.1c6.9-0.2,13.4-3.5,19.1-9.9c0.4-0.5,1-0.8,1.7-0.8h12c0.8,0,1.5,0.4,1.9,1.1c0.4,0.7,0.5,1.5,0.1,2.2
				c-6.8,14.4-22.2,24-38.3,24c-11.2-0.4-20.6-5.9-25.8-15c-2.6-4.9-3.8-10.9-3.8-17l-7.1,28.7c-0.2,0.8-0.9,1.3-1.7,1.3h-15.2
				c-0.5,0-1-0.2-1.3-0.7c-0.2-0.3-0.4-0.7-0.4-1c0-0.1,0-0.3,0-0.4c6-24.8,14.3-60,17.3-73.9c-7.3,8.5-64.4,75.3-64.4,75.3
				c-0.3,0.4-0.8,0.6-1.3,0.6l-12.9,0.1c-0.5,0-1-0.2-1.3-0.6c-0.2-0.3-0.4-0.7-0.4-1.1c0-0.1,0-0.2,0-0.4
				c5.4-25.1,13.1-60.8,15.7-74.7c-7,8.4-63.6,76.1-63.6,76.1c-0.3,0.4-0.8,0.6-1.4,0.6c-4.4-0.2-7.7-0.1-11.6-0.1H1.5
				C0.9,112.4,0.3,112,0,111.4z M731,38.6c-0.4-0.5-1.1-0.8-1.7-0.8h-11.7c-1.1,0-2,0.7-2.2,1.8l-0.9,4.4c-2.6-2.3-5.2-3.8-8.9-5.3
				l-1.2-0.5c-0.1-0.1-0.3-0.1-0.4-0.1c-12.7-2.8-25.5,1-36,10.8c-5.2,4.8-9.2,10.4-11.8,16.4l15.4-62.6c0.1-0.5,0-1-0.3-1.5
				c-0.3-0.4-0.8-0.6-1.3-0.6h-14.3c-0.5,0-0.9,0.2-1.3,0.6c0,0-54.7,61.8-62.1,70.2c2.2-10.5,14.4-68.7,14.4-68.7
				c0-0.1,0-0.2,0-0.3c0-0.4-0.1-0.8-0.4-1.1c-0.3-0.4-0.8-0.6-1.3-0.6h-15.8c-0.5,0-1,0.2-1.3,0.6l-78.8,91
				c-1.3-13.3-7.6-27.7-7.6-27.7c-10.6-21.6-34.1-28.7-47.4-16.2l-0.1,0l-2.1,1.5c9.7-15.4,34.2-14.7,50,3.4c0,0,7,8.4,12,21
				c1.3-4.4,2.1-9,2.4-13.7c-8.2-11.1-17.5-17.7-17.5-17.7c-20-13.5-43.8-7.8-49.2,9.6l-0.1,0.1l-1,2.4c0.7-18.2,22.2-29.9,45-22
				c0,0,10.7,3.9,21.5,12.6c-0.1-0.7-0.3-1.4-0.5-2.1c-1.2-4.6-2.9-9-5-13C496.7,25,485.6,24,485.6,24c-24-1.7-41.8,15.2-37.8,32.9
				l0,0.1l0.3,2.6c-8.5-16.1,4.3-37,27.9-41.6c0,0,11-1.9,24.5,0.1c-3.4-3.6-7.3-6.8-11.7-9.5c-13.5,1.6-23.6,6.3-23.6,6.3
				c-21.6,10.6-28.6,34.1-16.2,47.4l0,0.1l1.5,2.1c-15.4-9.7-14.7-34.2,3.4-50c0,0,8.5-7.1,21.1-12.1C469.8,0.8,464.4,0,459,0
				c-10.6,8-16.7,16.8-16.7,16.8c-13.5,20-7.8,43.8,9.6,49.2l0.1,0.1l2.4,1.1c-18.2-0.7-29.9-22.2-22-45c0,0,3.6-9.8,11.6-20.1
				c-4.6,1.2-8.9,2.9-12.9,5.1c-5.1,12.3-6.1,22.9-6.1,22.9c-1.7,24,15.2,41.9,32.9,37.8l0.1,0l2.6-0.3c-16.1,8.6-37-4.3-41.6-27.9
				c0,0-1.8-10.6,0-23.7c-3.8,3.6-7.2,7.8-10,12.5c1.7,13,6.1,22.5,6.1,22.5c10.6,21.6,34.1,28.7,47.4,16.2l0.1,0l2.1-1.5
				c-9.7,15.4-34.2,14.7-50-3.4c0,0-8.1-10.1-12.3-21.9c0-0.6-0.2-1.1-0.5-1.5c-0.4-0.5-1.1-0.8-1.8-0.8h-11.7c-1.1,0-2,0.7-2.2,1.8
				c0,0-0.9,1.4-1.3,4.1c-2.6-2.3-5.7-3.7-8.5-4.9l-1.2-0.5c-0.1-0.1-0.3-0.1-0.4-0.1c-12.7-2.8-25.5,1-36,10.8
				c-6.2,5.7-10.6,12.5-13.2,19.8c0,0-0.1,0.2-0.2,0.5l5-28.7c0.1-0.7-0.1-1.3-0.5-1.8c-0.4-0.5-1.1-0.8-1.7-0.8l-12.5,0
				c-1.1,0-2,0.8-2.2,1.9l-12.9,70.5c-0.1,0.7,0.1,1.3,0.5,1.9c0.4,0.5,1.1,0.8,1.7,0.8l13.2,0c1.1,0,2.1-0.8,2.2-1.9l5-28.7
				c0.1,0.2,0.1,0.3,0.1,0.3c0,2.8,0.2,5.7,0.7,8.6c1.9,10.8,11.5,20.8,21.8,22.9c9,1.6,18.6-0.7,28.1-6.5c-0.2,1-0.5,2.6-0.5,2.6
				c0,0.1,0,0.3,0,0.4c0,0.5,0.2,1,0.5,1.4c0.4,0.5,1.1,0.8,1.8,0.8l11.6,0c1.1,0,2-0.8,2.2-1.9l10.2-55.5
				c7.7,9.1,17.7,16.9,17.7,16.9c19.9,13.5,43.8,7.8,49.2-9.6l0.1-0.1l1-2.4c-0.7,18.2-22.2,29.9-45,22c0,0-9.8-3.6-20.2-11.6
				c0.1,0.4,0.2,0.8,0.3,1.2c1.2,4.8,3,9.3,5.3,13.5c12,5,22.4,5.9,22.4,5.9c24,1.7,41.8-15.2,37.8-32.9l0-0.1l-0.3-2.6
				c8.5,16.1-4.3,37-27.9,41.6c0,0-10.3,1.8-23.3,0.1c3.1,3.3,6.6,6.2,10.4,8.7c13.4-1.6,23.4-6.2,23.4-6.2
				C472,89.3,479,65.8,466.6,52.5l0-0.1l-1.5-2.1c15.4,9.7,14.7,34.2-3.4,50c0,0-8.7,7.2-21.5,12.2c3.5,1.2,7.2,2,10.8,2.5h5.2
				c10.8-8.1,17-17,17-17c13.5-20,7.8-43.8-9.6-49.2l-0.1-0.1l-2.4-1c18.2,0.7,29.9,22.2,22,45c0,0-3.9,10.7-12.6,21.5
				c0.7-0.2,1.4-0.3,2.1-0.5c4.4-1.1,8.5-2.7,12.4-4.7c5.4-12.5,6.4-23.6,6.4-23.6c1.7-24-15.2-41.8-32.9-37.8l-0.1,0l-2.6,0.3
				c16.1-8.5,37,4.3,41.6,28c0,0,2.7,10.9,0.7,23.7c-0.4,1.9-1.2,4.5-2.7,7.4c-0.5,0.8-1,1.7-1.7,2.8c0,0,0,0,0,0c0,0,0,0.1-0.1,0.1
				c0,0,0,0,0,0.1c-0.3,0.5-0.3,1-0.1,1.5c0.3,0.6,0.9,1,1.5,1h7.3c3.8,0,7.2,0,11.6,0.1c0.5,0,1-0.2,1.4-0.6
				c0,0,56.6-67.7,63.6-76.1c-2.7,13.9-10.3,49.6-15.8,74.7c0,0.1,0,0.2,0,0.4c0,0.4,0.1,0.8,0.4,1.1c0.3,0.4,0.8,0.6,1.3,0.6
				l12.9-0.1c0.5,0,1-0.2,1.3-0.6c0,0,57.1-66.8,64.4-75.3c-3,13.9-11.4,49.2-17.3,73.9c0,0.1-0.1,0.3-0.1,0.4c0,0.4,0.1,0.7,0.4,1
				c0.3,0.4,0.8,0.7,1.3,0.7h15.2c0.8,0,1.5-0.5,1.7-1.3l6.6-26.7l0.9-3.8c0,1.1,0,1.9,0,1.9c0,2.8,0.2,5.7,0.7,8.6
				c1.9,10.8,11.5,20.8,21.8,22.9c9,1.6,18.6-0.7,28.1-6.5c-0.2,1-0.5,2.6-0.5,2.6c0,0.1,0,0.3,0,0.4c0,0.5,0.2,1,0.5,1.4
				c0.4,0.5,1.1,0.8,1.8,0.8l11.6,0c1.1,0,2-0.8,2.2-1.9L729,55.2l2.5-15.1C731.6,39.6,731.4,39,731,38.6L731,38.6z"/>
		</g>
	</g>
</g>
</svg>
