<svg xmlns="http://www.w3.org/2000/svg" viewBox="0 0 648.06 76.5"><defs><style>.cls-1{fill:#c7c8bb;}.cls-2{fill:#97adac;}.cls-3{fill:#8f3225;}.cls-4{fill:none;stroke:#8f3225;stroke-miterlimit:10;stroke-width:1.78px;}.cls-5{fill:#dcdcd6;}</style></defs><g id="Calque_2" data-name="Calque 2"><g id="Calque_1-2" data-name="Calque 1"><path class="cls-1" d="M0,26.18s74.15,56.89,147.92,8C147.92,34.21,81.61-23.38,0,26.18Z"/><circle class="cls-2" cx="61.95" cy="28.98" r="12.29"/><line class="cls-3" x1="24.43" y1="14.66" x2="22.61" y2="38.52"/><path class="cls-3" d="M129.88,44.17,115.72,66.06l76.62-15.21s-66.61,9.93-51.81-11.92Z"/><path class="cls-3" d="M130.76,23,118.44,0l75.11,21.46S128,6.08,140.94,29.08Z"/><line class="cls-4" x1="133.82" y1="43.09" x2="135.3" y2="23.75"/><path class="cls-3" d="M24.44,14.22,22.53,39.39S.09,27.57,0,26.18,24.44,14.22,24.44,14.22Z"/><path class="cls-5" d="M52.38,28.45s-1.55,6.46,3.08,8.29.26-3.47.26-3.47-3-4.15-1.86-6.19S52.18,27,52.38,28.45Z"/><path class="cls-1" d="M232.17,29.32s74.15,56.89,147.92,8C380.09,37.35,313.78-20.24,232.17,29.32Z"/><circle class="cls-2" cx="294.12" cy="32.12" r="12.29"/><line class="cls-3" x1="256.6" y1="17.8" x2="254.78" y2="41.66"/><path class="cls-3" d="M362.05,47.31,347.89,69.2,424.51,54S357.9,63.92,372.7,42.07Z"/><path class="cls-3" d="M362.93,26.12l-12.32-23L425.72,24.6s-65.57-15.38-52.61,7.62Z"/><line class="cls-4" x1="365.99" y1="46.24" x2="367.47" y2="26.89"/><path class="cls-3" d="M256.61,17.36,254.7,42.53s-22.44-11.82-22.53-13.21S256.61,17.36,256.61,17.36Z"/><path class="cls-5" d="M284.55,31.59s-1.55,6.46,3.08,8.3.26-3.48.26-3.48-3-4.15-1.86-6.19S284.35,30.1,284.55,31.59Z"/><path class="cls-1" d="M454.51,36.63s74.15,56.88,147.92,8C602.43,44.65,536.12-12.94,454.51,36.63Z"/><circle class="cls-2" cx="516.46" cy="39.42" r="12.29"/><line class="cls-3" x1="478.94" y1="25.1" x2="477.12" y2="48.96"/><path class="cls-3" d="M584.39,54.61,570.23,76.5l76.62-15.21S580.24,71.22,595,49.37Z"/><path class="cls-3" d="M585.27,33.42,573,10.44l75.11,21.47s-65.57-15.38-52.61,7.61Z"/><line class="cls-4" x1="588.33" y1="53.54" x2="589.81" y2="34.19"/><path class="cls-3" d="M479,24.66,477,49.83S454.6,38,454.51,36.63,479,24.66,479,24.66Z"/><path class="cls-5" d="M506.89,38.9s-1.55,6.45,3.08,8.29.26-3.48.26-3.48-3-4.15-1.86-6.19S506.69,37.4,506.89,38.9Z"/></g></g></svg>