<svg xmlns="http://www.w3.org/2000/svg" viewBox="0 0 634.23 65.34"><defs><style>.cls-1{fill:#c7c8bb;}.cls-2{fill:#54a6a9;}.cls-3{fill:#97adac;}.cls-4{fill:#dcdcd6;}.cls-5{fill:none;stroke:#54a6a9;stroke-miterlimit:10;stroke-width:3.44px;}</style></defs><g id="Calque_2" data-name="Calque 2"><g id="Calque_1-2" data-name="Calque 1"><path class="cls-1" d="M1.41,28.2c13.68,5,65.83,23.07,82.33,16.54,0,0,65.91-5.87,71.65-9.48s2.52-15.47-1.79-16c-1.86-.22-72.89-9.39-73.19-9.44S61.49,1.73,1.13,25.09C-.23,25.62,0,27.7,1.41,28.2Z"/><path class="cls-2" d="M93.59,43.66l96.64,13s-15-19.33-22.13-21.47S93.59,43.66,93.59,43.66Z"/><path class="cls-2" d="M93.56,11.51,190.4,0s-15.35,19.09-22.47,21.12S93.56,11.51,93.56,11.51Z"/><path class="cls-2" d="M12.75,32.17S8.48,26,12.31,21L.87,24.9s-2.15,1.51.31,3.23Z"/><circle class="cls-3" cx="66.15" cy="28.18" r="9.19"/><path class="cls-4" d="M60.38,30.39s1.69,5.08,5.84,4.21-1.33-2.47-1.33-2.47-4-1.46-4-3.34S59.58,29.47,60.38,30.39Z"/><circle class="cls-3" cx="36.26" cy="26.69" r="6.64"/><path class="cls-4" d="M31.43,28.24s1.48,4.44,5.11,3.69-1.16-2.17-1.16-2.17-3.46-1.28-3.53-2.93S30.73,27.43,31.43,28.24Z"/><path class="cls-5" d="M141.11,48.06s14-21.33-3.13-36"/><path class="cls-1" d="M224.26,33.19c13.69,5,65.84,23.08,82.33,16.55,0,0,65.91-5.87,71.66-9.49s2.52-15.46-1.79-16c-1.87-.22-72.9-9.39-73.19-9.45S284.34,6.73,224,30.09C222.63,30.61,222.9,32.7,224.26,33.19Z"/><path class="cls-2" d="M316.44,48.65l96.65,13S398,42.34,391,40.2,316.44,48.65,316.44,48.65Z"/><path class="cls-2" d="M316.42,16.5,413.25,5S397.9,24.09,390.79,26.12,316.42,16.5,316.42,16.5Z"/><path class="cls-2" d="M235.6,37.16S231.34,31,235.16,26l-11.44,3.94s-2.15,1.52.32,3.24Z"/><circle class="cls-3" cx="289" cy="33.18" r="9.19"/><path class="cls-4" d="M283.24,35.39s1.69,5.08,5.83,4.21-1.32-2.47-1.32-2.47-3.95-1.46-4-3.35S282.44,34.46,283.24,35.39Z"/><circle class="cls-3" cx="259.12" cy="31.69" r="6.64"/><path class="cls-4" d="M254.29,33.23s1.48,4.45,5.11,3.7-1.16-2.17-1.16-2.17-3.46-1.28-3.54-2.93S253.59,32.43,254.29,33.23Z"/><path class="cls-5" d="M364,53.06s14-21.33-3.14-36"/><path class="cls-1" d="M445.24,36.88c13.69,5,65.84,23.07,82.33,16.54,0,0,65.92-5.87,71.66-9.48s2.52-15.47-1.79-16c-1.87-.22-72.9-9.39-73.19-9.44S505.32,10.41,445,33.77C443.61,34.29,443.88,36.38,445.24,36.88Z"/><path class="cls-2" d="M537.43,52.34l96.64,13S619,46,611.94,43.88,537.43,52.34,537.43,52.34Z"/><path class="cls-2" d="M537.4,20.19,634.23,8.68S618.88,27.77,611.77,29.8,537.4,20.19,537.4,20.19Z"/><path class="cls-2" d="M456.58,40.85s-4.26-6.16-.44-11.22l-11.43,3.95s-2.16,1.51.31,3.23Z"/><circle class="cls-3" cx="509.98" cy="36.86" r="9.19"/><path class="cls-4" d="M504.22,39.07s1.69,5.08,5.83,4.21-1.32-2.47-1.32-2.47-4-1.46-4-3.34S503.42,38.15,504.22,39.07Z"/><circle class="cls-3" cx="480.1" cy="35.37" r="6.64"/><path class="cls-4" d="M475.27,36.92s1.48,4.44,5.11,3.69-1.16-2.17-1.16-2.17-3.46-1.28-3.53-2.93S474.57,36.11,475.27,36.92Z"/><path class="cls-5" d="M585,56.74s14-21.33-3.14-36"/></g></g></svg>