<svg xmlns="http://www.w3.org/2000/svg" viewBox="0 0 454.4 152.29"><defs><style>.cls-1{fill:#79893b;}.cls-2{fill:#c7c8bb;}.cls-3{fill:#97adac;}.cls-4{fill:none;stroke:#79893b;stroke-miterlimit:10;stroke-width:0.9px;}.cls-5{fill:#dcdcd6;}</style></defs><g id="Calque_2" data-name="Calque 2"><g id="Calque_1-2" data-name="Calque 1"><path class="cls-1" d="M74.22,42,84.59,0l4.72.29L92,62.2,52,59.81,66,52.54A16.26,16.26,0,0,0,74.22,42Z"/><path class="cls-1" d="M74.17,149.53l-1.63-41.16a15.62,15.62,0,0,0-5.65-11.44L50.63,83.45l39.79,5L79.83,147.23Z"/><path class="cls-2" d="M1.54,73.12A2.24,2.24,0,0,1,.08,70.63c.35-2,1-5.19,2.18-6.69.9-1.19,25.07-4.71,49.77-4.13,22.23.53,43.17,1.26,43.17,1.26l11.31,5.57s10-2.51,9.3,9.3-10.16,9-10.16,9-9.62,6.8-14.6,6.24C86.36,90.64,14.83,77.76,1.54,73.12Z"/><ellipse class="cls-3" cx="50.62" cy="72" rx="4.54" ry="4.55" transform="matrix(0.96, -0.28, 0.28, 0.96, -18.12, 17.04)"/><ellipse class="cls-3" cx="35" cy="70.64" rx="4.96" ry="4.97" transform="translate(-18.37 12.61) rotate(-16.25)"/><path class="cls-4" d="M75.48,99.75s21.27-24,2.64-45.43"/><path class="cls-1" d="M8.76,75.14S-.08,73,0,71.8s.67-7.27,2.26-7.86,8.08-1.77,8.08-1.77S5.54,68.35,8.76,75.14Z"/><path class="cls-5" d="M47.6,73.27s.75,2.6,2.76,2.32-.61-1.29-.61-1.29-1.88-.87-1.9-1.82S47.23,72.78,47.6,73.27Z"/><path class="cls-5" d="M31.41,71.63s1.09,3.78,4,3.37-.88-1.87-.88-1.87-2.74-1.26-2.77-2.64S30.87,70.92,31.41,71.63Z"/><path class="cls-1" d="M243.5,42.52l10.36-42,4.73.28,2.66,61.92-39.94-2.39,13.92-7.27A16.29,16.29,0,0,0,243.5,42.52Z"/><path class="cls-1" d="M243.44,150l-1.62-41.16a15.66,15.66,0,0,0-5.65-11.45L219.91,84l39.79,5-10.59,58.74Z"/><path class="cls-2" d="M170.81,73.63a2.25,2.25,0,0,1-1.45-2.49c.35-2,1-5.2,2.17-6.69.91-1.2,25.08-4.71,49.78-4.13,22.23.53,43.17,1.26,43.17,1.26l11.31,5.57s10-2.51,9.3,9.3-10.16,9-10.16,9-9.63,6.81-14.6,6.25C255.63,91.15,184.11,78.27,170.81,73.63Z"/><ellipse class="cls-3" cx="219.89" cy="72.51" rx="4.54" ry="4.55" transform="translate(-11.51 64.42) rotate(-16.25)"/><ellipse class="cls-3" cx="204.28" cy="71.15" rx="4.96" ry="4.97" transform="translate(-11.75 59.99) rotate(-16.25)"/><path class="cls-4" d="M244.75,100.26s21.28-24,2.65-45.43"/><path class="cls-1" d="M178,75.65s-8.85-2.17-8.76-3.34.67-7.27,2.25-7.86,8.08-1.77,8.08-1.77S174.82,68.86,178,75.65Z"/><path class="cls-5" d="M216.88,73.78s.75,2.6,2.76,2.31-.61-1.28-.61-1.28-1.88-.87-1.9-1.82S216.51,73.29,216.88,73.78Z"/><path class="cls-5" d="M200.69,72.14s1.09,3.78,4,3.37-.88-1.87-.88-1.87-2.74-1.27-2.76-2.64S200.14,71.43,200.69,72.14Z"/><path class="cls-1" d="M412.78,44.77l10.36-42,4.73.29L430.53,65l-39.94-2.39,13.92-7.27A16.26,16.26,0,0,0,412.78,44.77Z"/><path class="cls-1" d="M412.72,152.29l-1.62-41.16a15.65,15.65,0,0,0-5.66-11.44L389.19,86.21l39.79,5L418.39,150Z"/><path class="cls-2" d="M340.09,75.88a2.23,2.23,0,0,1-1.45-2.49c.34-2,1-5.19,2.17-6.69.91-1.19,25.08-4.71,49.78-4.13,22.22.53,43.17,1.26,43.17,1.26l11.31,5.57s10-2.51,9.3,9.3-10.16,9-10.16,9-9.63,6.81-14.6,6.24C424.91,93.4,353.38,80.52,340.09,75.88Z"/><ellipse class="cls-3" cx="389.17" cy="74.76" rx="4.54" ry="4.55" transform="translate(-5.38 111.87) rotate(-16.25)"/><ellipse class="cls-3" cx="373.55" cy="73.4" rx="4.96" ry="4.97" transform="matrix(0.96, -0.28, 0.28, 0.96, -5.62, 107.45)"/><path class="cls-4" d="M414,102.51s21.27-24,2.64-45.43"/><path class="cls-1" d="M347.32,77.91s-8.85-2.18-8.76-3.35.67-7.27,2.25-7.86,8.08-1.77,8.08-1.77S344.09,71.11,347.32,77.91Z"/><path class="cls-5" d="M386.16,76s.75,2.6,2.76,2.32-.61-1.29-.61-1.29-1.89-.87-1.9-1.81S385.78,75.54,386.16,76Z"/><path class="cls-5" d="M370,74.39s1.1,3.78,4,3.37-.88-1.87-.88-1.87-2.74-1.26-2.76-2.64S369.42,73.68,370,74.39Z"/></g></g></svg>