<svg xmlns="http://www.w3.org/2000/svg" viewBox="0 0 398.48 228.19"><defs><style>.cls-1{fill:#5a8886;}.cls-2{fill:#74b3ad;}.cls-3{fill:#456664;}.cls-10,.cls-4,.cls-5,.cls-6,.cls-7,.cls-8,.cls-9{fill:none;stroke-miterlimit:10;}.cls-4,.cls-5,.cls-6,.cls-7,.cls-8,.cls-9{stroke:#456664;}.cls-4{stroke-width:0.89px;}.cls-5{stroke-width:1.33px;}.cls-6{stroke-width:0.44px;}.cls-7{stroke-width:0.5px;}.cls-8{stroke-width:0.75px;}.cls-9{stroke-width:0.25px;}.cls-10{stroke:#74b3ad;}</style></defs><g id="Calque_2" data-name="Calque 2"><g id="Calque_1-2" data-name="Calque 1"><rect class="cls-1" width="398.48" height="228.19"/><path class="cls-2" d="M50.71,7.19s130.41,96.62,120,129.19-137-36.88-137-36.88-6.47-9.15,11.87-2.3,52.54,13.74,59.86-5.4-49.63-76-49.63-76S44.14,8.5,50.71,7.19Z"/><path class="cls-3" d="M251.86,71.59s-25.66-7.09-27-14.76,12.42-37.18,12.42-37.18,1.32-11-14.24,1S186.55,66.2,188.24,70.31s24.76,18,58.68,9.45C246.92,79.76,256.28,77.88,251.86,71.59Z"/><path class="cls-3" d="M302.19,155.21s35.52-8.47,41.4-.39,5,51.65,5,51.65,4.4,13.76,17-10.51,20-77.13,15.7-80.84-40.36-4.86-77.5,27.29C303.81,142.41,293.3,150.73,302.19,155.21Z"/><path class="cls-2" d="M352.21,142.69s-123,78.37-147,59.13,75-103.09,75-103.09,9.76-2.49-1.88,10.7-28.44,39.68-14.73,52,79.79-17.19,79.79-17.19S353.21,136.75,352.21,142.69Z"/><line class="cls-4" x1="29.92" y1="134.14" x2="44.92" y2="166.26"/><line class="cls-4" x1="39.15" y1="170.26" x2="35.98" y2="131.63"/><line class="cls-5" x1="22.42" y1="150.57" x2="55.88" y2="150.72"/><line class="cls-5" x1="26.46" y1="159.16" x2="47.51" y2="142.58"/><line class="cls-6" x1="29.12" y1="146.31" x2="46.87" y2="154.99"/><line class="cls-6" x1="33.81" y1="157.98" x2="40.74" y2="143.17"/><line class="cls-7" x1="280.77" y1="218.36" x2="272.45" y2="200.39"/><line class="cls-7" x1="275.77" y1="198.21" x2="277.3" y2="219.71"/><line class="cls-8" x1="285.17" y1="209.28" x2="266.09" y2="208.95"/><line class="cls-8" x1="282.93" y1="204.48" x2="270.8" y2="213.54"/><line class="cls-9" x1="281.32" y1="211.6" x2="271.25" y2="206.65"/><line class="cls-9" x1="278.73" y1="205.08" x2="274.67" y2="213.26"/><polygon class="cls-3" points="23.49 11.59 27.74 17.26 22.32 17.74 28.3 18.34 26.57 23.54 29.12 18.56 34.23 22.11 30.29 18.34 35.44 16.7 29.73 16.66 31.68 11.68 28.39 15.57 23.49 11.59"/><path class="cls-2" d="M45.47,143.18s-2.18-11.13,9.71-8.8c0,0-8.67-1.7-9.37-9.21,0,0-2.13,9.15-8.9,8.85A9.84,9.84,0,0,1,45.47,143.18Z"/><path class="cls-3" d="M189.71,35.57s-2.18-11.12,9.71-8.8c0,0-8.67-1.69-9.37-9.21,0,0-2.13,9.16-8.9,8.85A9.85,9.85,0,0,1,189.71,35.57Z"/><polygon class="cls-2" points="359.47 199.71 348.57 184.72 362.74 183.66 347.13 181.87 351.84 168.34 344.99 181.28 331.75 171.81 341.92 181.8 328.39 185.93 343.34 186.24 338.07 199.2 346.81 189.12 359.47 199.71"/><line class="cls-10" x1="242.41" y1="51.28" x2="250.96" y2="69.14"/><line class="cls-10" x1="247.67" y1="71.36" x2="245.86" y2="49.88"/><line class="cls-10" x1="238.13" y1="60.42" x2="257.22" y2="60.5"/><line class="cls-10" x1="240.43" y1="65.19" x2="252.44" y2="55.97"/><line class="cls-10" x1="241.95" y1="58.04" x2="252.08" y2="62.87"/><line class="cls-10" x1="244.63" y1="64.53" x2="248.58" y2="56.3"/><polygon class="cls-3" points="359.71 40.24 366.87 49.82 357.73 50.63 367.82 51.65 364.9 60.42 369.21 52.02 377.84 58.01 371.19 51.65 379.89 48.87 370.24 48.8 373.53 40.39 367.97 46.97 359.71 40.24"/><path class="cls-2" d="M345,39.14s-2.17-11.13,9.72-8.8c0,0-8.67-1.7-9.38-9.21,0,0-2.13,9.15-8.89,8.85A9.83,9.83,0,0,1,345,39.14Z"/><path class="cls-3" d="M212.83,191.61s-2.17-11.13,9.72-8.8c0,0-8.67-1.7-9.38-9.21,0,0-2.13,9.15-8.89,8.85A9.83,9.83,0,0,1,212.83,191.61Z"/><path class="cls-3" d="M99.79,36.83s3.48,16.64-14.4,13.39c0,0,13,2.37,14.25,13.62,0,0,3-13.77,13.16-13.45A14.75,14.75,0,0,1,99.79,36.83Z"/><polygon class="cls-2" points="109.05 210.35 98.15 195.37 112.32 194.31 96.72 192.52 101.42 178.99 94.57 191.93 81.33 182.46 91.5 192.45 77.97 196.58 92.92 196.89 87.65 209.85 96.39 199.77 109.05 210.35"/><path class="cls-3" d="M107.65,191.61s-2.18-11.13,9.71-8.8c0,0-8.66-1.7-9.37-9.21,0,0-2.13,9.15-8.89,8.85A9.83,9.83,0,0,1,107.65,191.61Z"/><path class="cls-2" d="M226.1,44.58s-2.17-11.13,9.72-8.8c0,0-8.67-1.7-9.38-9.21,0,0-2.12,9.15-8.89,8.85A9.83,9.83,0,0,1,226.1,44.58Z"/><polygon class="cls-2" points="204.19 98.16 193.29 83.18 207.46 82.12 191.85 80.33 196.56 66.8 189.71 79.73 176.47 70.27 186.65 80.26 173.11 84.39 188.06 84.7 182.79 97.66 191.53 87.58 204.19 98.16"/></g></g></svg>