<?xml version="1.0" encoding="utf-8"?>
<!-- Generator: Adobe Illustrator 25.4.1, SVG Export Plug-In . SVG Version: 6.00 Build 0)  -->
<svg version="1.1" id="Calque_1" xmlns="http://www.w3.org/2000/svg" xmlns:xlink="http://www.w3.org/1999/xlink" x="0px" y="0px"
	 viewBox="0 0 405.1 227.5" style="enable-background:new 0 0 405.1 227.5;" xml:space="preserve">
<style type="text/css">
	.st0{fill:#CA6D33;}
	.st1{fill:#DA8B42;}
	.st2{fill:#E4AC78;}
</style>
<g id="Calque_2_00000150788398250574689140000017905541603482402238_">
	<g id="Calque_1-2">
		<polygon class="st0" points="-6.4,-8.6 413.6,-8.9 412.6,239.4 -6.2,239.6 		"/>
		<path class="st1" d="M435.2,232.5c0,0-7.8,13.7-43.1-70.2C368.8,106.9,486-44.5,279.5,52.3c-23.1,10.9-72.4,7.5-75.1-58.9
			l20.2-1.2c-8.7-5.5,6.7,55.9,37,40.2c25.4-13.1,67-56,147.1-12.4c42.7,23.2,14.3,96.2,6.8,117.9c-3.4,9.8-4.1,20.4-1.9,30.5
			c6,27.8,11.1,14.7,21.4,23.1"/>
		<path class="st2" d="M295.3,29.8c-21.5-22.6-105.6-7.5-103.2-3.6c-8.3,8,3.7,64.2,12,80.8s80.4,4.9,91.1,3.7
			C306,109.4,314.5,49.9,295.3,29.8z M281.3,25.7c23,1.7,27.1,60.6-0.4,67.2c-25.9,6.2-63.3,15.9-71.3,9.4c-8.6-7-3.8-40.5-1.4-53.1
			c1.3-6.9,2.2-17.5,12.9-24.7c6.4-4.4,29.3-2.9,38.9-2.3"/>
		<path class="st2" d="M377.3,160.8c0,0-0.8,18.2,10.6,18.6c0,0-11.2,1-10.3,15.6c0,0-0.1-13.6-10.9-16.1
			C366.6,178.9,376.7,181.3,377.3,160.8z"/>
		<path class="st1" d="M-11.9,89.3c0,0,27.3-13.3,56.4,38.2c19.2,33.9-46.4,100.1,79.7,60.7c15.5-4.9,46.1-12,53.3,31.3l-3.5,24.2
			c-5.3-19.5,0.3-27.1-21.9-32c-26.8-5.9-78.7,38.4-106.2,10.9c-22-22-17-61.6-14.1-76.7c1.3-6.7,0.9-13.7-1.3-20.2
			c-6.1-17.6-12.7-42.1-45.1-17.8"/>
		<path class="st2" d="M113.4,205.1c-22.3-27.5-109.5-9.1-107-4.4c-8.6,9.7,1.9,15.8,10.5,35.9l90.9,2.1
			C118.9,237.3,133.3,229.6,113.4,205.1z M98.9,200.2c23.9,2.1,21.2,35.8,0,38.6c-2.9,0.4-66.3-2-66.3-2s-14.1,5.3-9.6-8.1
			c2.6-7.9,2.2-21.2,13.3-30.1c6.7-5.3,30.4-3.5,40.3-2.8"/>
		<path class="st1" d="M185.1,33.2c0,0-0.8,17.8,10.4,18.2c0,0-11,1-10.1,15.3c0,0-0.1-13.3-10.7-15.8
			C174.6,51,184.5,53.3,185.1,33.2z"/>
		<path class="st2" d="M43.6,17.7c0,0-1.2,26.1,15.1,26.6c0,0-16,1.4-14.8,22.4c0,0-0.2-19.5-15.7-23.1C28.3,43.6,42.7,47,43.6,17.7
			z"/>
		<path class="st1" d="M58.8,46.4c0,0-0.8,17.8,10.4,18.2c0,0-11,1-10.1,15.3c0,0-0.1-13.3-10.7-15.8C48.3,64.1,58.2,66.4,58.8,46.4
			z"/>
		<path class="st2" d="M351.9,167.9c0,0-1.7,36.2,21,36.9c0,0-22.2,2-20.5,31c0,0-0.2-27-21.7-32
			C330.7,203.8,350.7,208.5,351.9,167.9z"/>
		<path class="st1" d="M10.7,172.4c0,0-1.1,24.1,14,24.6c0,0-14.8,1.3-13.7,20.6c0,0-0.2-18-14.5-21.3
			C-3.4,196.4,9.9,199.5,10.7,172.4z"/>
		<path class="st1" d="M319.9,75.3c0,0-0.8,17.8,10.4,18.2c0,0-11,1-10.1,15.3c0,0-0.1-13.3-10.7-15.8
			C309.4,93,319.3,95.3,319.9,75.3z"/>
		<path class="st2" d="M326.7,83.4c-10.8-11.3-52.8-3.7-51.6-1.8c-4.2,4,1.8,32.1,6,40.4c4.2,8.3,40.2,2.5,45.5,1.8
			S336.3,93.4,326.7,83.4z M319.7,81.3c11.5,0.9,13.5,30.3-0.2,33.6c-12.9,3.1-31.7,7.9-35.6,4.7c-4.3-3.5-1.9-20.2-0.7-26.5
			c0.6-3.5,1.1-8.7,6.4-12.4c3.2-2.2,14.7-1.4,19.5-1.1"/>
	</g>
</g>
</svg>
