<svg xmlns="http://www.w3.org/2000/svg" viewBox="0 0 405.13 227.54"><defs><style>.cls-1{fill:#ca6d33;}.cls-2{fill:#da8b42;}.cls-3{fill:#e4ac78;}</style></defs><g id="Calque_2" data-name="Calque 2"><g id="Calque_1-2" data-name="Calque 1"><polygon class="cls-1" points="7.3 0.28 385.65 0 384.78 223.72 7.48 223.86 7.3 0.28"/><path class="cls-2" d="M405.13,217.45s-7,12.32-38.81-63.27c-21-49.81,84.58-186.23-101.43-99C244.06,65,199.7,61.91,197.27,2.11L215.49,1c-7.87-4.95,6,50.36,33.35,36.21C271.68,25.43,309.15-13.21,381.33,26c38.43,20.88,12.89,86.62,6.11,106.23a50.9,50.9,0,0,0-1.73,27.48c5.42,25,10,13.28,19.29,20.77"/><path class="cls-3" d="M279.08,34.91c-19.4-20.35-95.09-6.72-92.91-3.25-7.51,7.17,3.31,57.87,10.82,72.76s72.43,4.42,82.09,3.31S296.35,53,279.08,34.91Zm-12.57-3.67c20.72,1.55,24.4,54.56-.39,60.52-23.31,5.61-57,14.28-64.23,8.44-7.76-6.3-3.44-36.46-1.3-47.81,1.17-6.21,2-15.72,11.61-22.27,5.76-3.92,26.39-2.57,35-2.1"/><path class="cls-3" d="M352.92,152.92s-.76,16.42,9.52,16.76c0,0-10.06.9-9.3,14.06,0,0-.11-12.26-9.84-14.51C343.3,169.23,352.38,171.37,352.92,152.92Z"/><path class="cls-2" d="M2.36,88.5s24.6-12,50.84,34.4c17.29,30.56-41.8,90.16,71.82,54.67,14-4.38,41.5-10.83,48,28.16l-3.19,21.81c-4.74-17.55.3-24.45-19.71-28.84-24.16-5.29-70.87,34.62-95.65,9.8C34.69,188.67,39.19,153,41.8,139.42a35.23,35.23,0,0,0-1.21-18.21c-5.48-15.84-11.46-37.95-40.59-16"/><path class="cls-3" d="M115.22,192.82c-20.13-24.77-98.65-8.18-96.38-4-7.79,8.73,1.68,14.24,9.47,32.37l81.86,1.89C120.19,221.78,133.13,214.86,115.22,192.82Zm-13-4.47c21.5,1.89,19.08,32.28,0,34.77-2.57.34-59.69-1.76-59.69-1.76s-12.74,4.81-8.67-7.26C36.2,207,35.86,195,45.84,187c6-4.77,27.38-3.13,36.33-2.56"/><path class="cls-2" d="M179.81,38s-.76,16,9.35,16.38c0,0-9.89.88-9.14,13.75,0,0-.11-12-9.67-14.19C170.35,54,179.27,56.06,179.81,38Z"/><path class="cls-3" d="M52.4,24S51.3,47.52,66,48c0,0-14.43,1.29-13.33,20.16,0,0-.16-17.58-14.11-20.8C38.6,47.36,51.61,50.42,52.4,24Z"/><path class="cls-2" d="M66.1,49.81s-.76,16,9.35,16.38c0,0-9.89.88-9.14,13.75,0,0-.11-12-9.67-14.19C56.64,65.75,65.56,67.84,66.1,49.81Z"/><path class="cls-3" d="M330.05,159.28s-1.52,32.59,18.89,33.26c0,0-20,1.79-18.45,27.91,0,0-.22-24.34-19.54-28.8C311,191.65,329,195.89,330.05,159.28Z"/><path class="cls-2" d="M22.74,163.37s-1,21.71,12.64,22.15c0,0-13.37,1.19-12.35,18.59,0,0-.15-16.21-13.08-19.18C10,184.93,22,187.75,22.74,163.37Z"/><path class="cls-2" d="M301.26,75.9s-.75,16,9.35,16.38c0,0-9.89.88-9.14,13.75,0,0-.1-12-9.67-14.19C291.8,91.84,300.72,93.93,301.26,75.9Z"/><path class="cls-3" d="M307.35,83.15c-9.7-10.17-47.54-3.36-46.45-1.63-3.76,3.59,1.65,28.94,5.41,36.38s36.21,2.21,41,1.66S316,92.2,307.35,83.15Zm-6.28-1.84c10.36.78,12.2,27.28-.2,30.26-11.65,2.81-28.52,7.14-32.11,4.22-3.88-3.14-1.72-18.23-.65-23.9.58-3.11,1-7.86,5.8-11.14,2.88-2,13.2-1.28,17.52-1"/></g></g></svg>