<svg xmlns="http://www.w3.org/2000/svg" viewBox="0 0 381.74 226.18"><defs><style>.cls-1{fill:#87492a;}.cls-2{fill:#7a381e;}.cls-3{fill:#8f583d;}</style></defs><g id="Calque_2" data-name="Calque 2"><g id="Calque_1-2" data-name="Calque 1"><polygon class="cls-1" points="0 0.38 378.37 0.14 377.56 226.07 0.25 226.18 0 0.38"/><path class="cls-2" d="M132.61,1.33S246.54-5,261.69,15.26c29,38.78-61.5,136.9,115,73.1l-.3,21.61.17,67,0-21.65c-30.92-21.77-98.42,32.46-136.14-2.45C210.34,125,231,79.55,236,62.64c1-3.27,2.32-15.52,1.52-22.12-1.51-12.54-7-24.3-16-32.72-14.21-13.3-52.82-5.56-52.82-5.56"/><ellipse class="cls-3" cx="58.35" cy="165" rx="29.6" ry="30.62"/><ellipse class="cls-2" cx="58.35" cy="165" rx="18.97" ry="19.62"/><path class="cls-3" d="M381.74,173.77c-17.25-2.26-92-30.82-49.3,52.41l-13.94-1h-9.43l-24.21.61c40.08-21.38,13.92-74.11,41.36-91.18,16.24-10.11,38.07-7.92,46.78-2.6,7.39,4.5,7.59,6.37,8.36,7.7"/><ellipse class="cls-2" cx="350.89" cy="172.56" rx="18.13" ry="18.76"/><ellipse class="cls-3" cx="350.89" cy="172.56" rx="11.62" ry="12.02"/><path class="cls-3" d="M38.31,22s-.76,16.42,9.46,16.76c0,0-10,.9-9.24,14.06,0,0-.11-12.26-9.78-14.51C28.75,38.28,37.77,40.42,38.31,22Z"/><path class="cls-2" d="M24.24,87.89S22.69,121.33,43.46,122c0,0-20.33,1.83-18.78,28.62,0,0-.22-25-19.89-29.54C4.79,121.1,23.13,125.45,24.24,87.89Z"/><path class="cls-3" d="M280.53,22s-1.47,24.36,18.28,24.86c0,0-19.33,1.33-17.86,20.85,0,0-.21-18.18-18.91-21.52C262,46.16,279.48,49.33,280.53,22Z"/><ellipse class="cls-2" cx="103.02" cy="95.9" rx="18.13" ry="18.76"/><ellipse class="cls-3" cx="103.02" cy="95.9" rx="11.62" ry="12.02"/><path class="cls-3" d="M241.15,114.56s-.76,16.42,9.46,16.76c0,0-10,.9-9.24,14.05,0,0-.11-12.25-9.79-14.5C231.58,130.87,240.61,133,241.15,114.56Z"/><path class="cls-2" d="M298.86,48.56s-.7,15.23,8.76,15.54c0,0-9.26.84-8.55,13,0,0-.1-11.37-9.06-13.45C290,63.69,298.36,65.67,298.86,48.56Z"/><path class="cls-2" d="M142.93,145.61s-1.55,33.43,19.22,34.12c0,0-20.33,1.83-18.78,28.63,0,0-.22-25-19.89-29.55C123.48,178.81,141.82,183.17,142.93,145.61Z"/><path class="cls-3" d="M159.87,131s-1.47,24.36,18.28,24.86c0,0-19.33,1.33-17.86,20.85,0,0-.21-18.18-18.92-21.52C141.37,155.14,158.82,158.31,159.87,131Z"/><ellipse class="cls-3" cx="223.49" cy="62.88" rx="29.6" ry="30.62"/><ellipse class="cls-2" cx="223.49" cy="62.88" rx="18.97" ry="19.62"/></g></g></svg>