<?xml version="1.0" encoding="utf-8"?>
<!-- Generator: Adobe Illustrator 25.4.1, SVG Export Plug-In . SVG Version: 6.00 Build 0)  -->
<svg version="1.1" id="Calque_1" xmlns="http://www.w3.org/2000/svg" xmlns:xlink="http://www.w3.org/1999/xlink" x="0px" y="0px"
	 viewBox="0 0 381.7 226.2" style="enable-background:new 0 0 381.7 226.2;" xml:space="preserve">
<style type="text/css">
	.st0{fill:#87492A;}
	.st1{fill:#7A381E;}
	.st2{fill:#8F583D;}
</style>
<g id="Calque_2_00000021821628313994365020000010735452947915259533_">
	<g id="Calque_1-2">
		<polygon class="st0" points="0,0.4 390.5,0.1 389.7,233.3 0.3,233.4 		"/>
		<path class="st1" d="M136.9,1.4c0,0,117.6-6.5,133.2,14.4c29.9,40-63.5,141.3,118.7,75.4l-0.3,22.3l0.2,69.2v-22.3
			c-31.9-22.5-101.6,33.5-140.5-2.5c-31-28.8-9.7-75.7-4.6-93.1c1-3.4,2.4-16,1.6-22.8c-1.6-12.9-7.2-25.1-16.5-33.8
			C214-5.7,174.1,2.3,174.1,2.3"/>
		<ellipse class="st2" cx="60.2" cy="170.3" rx="30.6" ry="31.6"/>
		<ellipse class="st1" cx="60.2" cy="170.3" rx="19.6" ry="20.3"/>
		<path class="st2" d="M394,179.4c-17.8-2.3-95-31.8-50.9,54.1l-14.4-1H319l-25,0.6c41.4-22.1,14.4-76.5,42.7-94.1
			c16.8-10.4,39.3-8.2,48.3-2.7c7.6,4.6,7.8,6.6,8.6,7.9"/>
		<ellipse class="st1" cx="362.2" cy="178.1" rx="18.7" ry="19.4"/>
		<ellipse class="st2" cx="362.2" cy="178.1" rx="12" ry="12.4"/>
		<path class="st2" d="M39.5,22.7c0,0-0.8,16.9,9.8,17.3c0,0-10.3,0.9-9.5,14.5c0,0-0.1-12.7-10.1-15C29.7,39.5,39,41.7,39.5,22.7z"
			/>
		<path class="st1" d="M25,90.7c0,0-1.6,34.5,19.8,35.2c0,0-21,1.9-19.4,29.5c0,0-0.2-25.8-20.5-30.5C4.9,125,23.9,129.5,25,90.7z"
			/>
		<path class="st2" d="M289.5,22.7c0,0-1.5,25.1,18.9,25.7c0,0-20,1.4-18.4,21.5c0,0-0.2-18.8-19.5-22.2
			C270.4,47.6,288.5,50.9,289.5,22.7z"/>
		<ellipse class="st1" cx="106.3" cy="99" rx="18.7" ry="19.4"/>
		<ellipse class="st2" cx="106.3" cy="99" rx="12" ry="12.4"/>
		<path class="st2" d="M248.9,118.2c0,0-0.8,16.9,9.8,17.3c0,0-10.3,0.9-9.5,14.5c0,0-0.1-12.6-10.1-15
			C239,135.1,248.3,137.3,248.9,118.2z"/>
		<path class="st1" d="M308.5,50.1c0,0-0.7,15.7,9,16c0,0-9.6,0.9-8.8,13.4c0,0-0.1-11.7-9.4-13.9C299.3,65.7,307.9,67.8,308.5,50.1
			z"/>
		<path class="st1" d="M147.5,150.3c0,0-1.6,34.5,19.8,35.2c0,0-21,1.9-19.4,29.5c0,0-0.2-25.8-20.5-30.5
			C127.4,184.6,146.4,189.1,147.5,150.3z"/>
		<path class="st2" d="M165,135.2c0,0-1.5,25.1,18.9,25.7c0,0-20,1.4-18.4,21.5c0,0-0.2-18.8-19.5-22.2
			C145.9,160.1,163.9,163.4,165,135.2z"/>
		<ellipse class="st2" cx="230.7" cy="64.9" rx="30.6" ry="31.6"/>
		<ellipse class="st1" cx="230.7" cy="64.9" rx="19.6" ry="20.3"/>
	</g>
</g>
</svg>
