<svg xmlns="http://www.w3.org/2000/svg" viewBox="0 0 555.08 149.53"><defs><style>.cls-1{fill:#c7c8bb;}.cls-2{fill:#97adac;}.cls-3{fill:#8f3225;}.cls-4,.cls-7,.cls-9{fill:none;stroke-miterlimit:10;}.cls-4{stroke:#8f3225;stroke-width:1.78px;}.cls-5{fill:#dcdcd6;}.cls-6{fill:#54a6a9;}.cls-7{stroke:#54a6a9;stroke-width:3.16px;}.cls-8{fill:#79893b;}.cls-9{stroke:#79893b;stroke-width:0.9px;}</style></defs><g id="Calque_2" data-name="Calque 2"><g id="Calque_1-2" data-name="Calque 1"><path class="cls-1" d="M0,59.68s74.15,56.88,147.92,8C147.92,67.7,81.61,10.11,0,59.68Z"/><circle class="cls-2" cx="61.95" cy="62.48" r="12.29"/><line class="cls-3" x1="24.43" y1="48.15" x2="22.61" y2="72.01"/><path class="cls-3" d="M129.88,77.66,115.72,99.55l76.62-15.2s-66.61,9.92-51.81-11.93Z"/><path class="cls-3" d="M130.76,56.48l-12.32-23L193.55,55S128,39.58,140.94,62.58Z"/><line class="cls-4" x1="133.82" y1="76.59" x2="135.3" y2="57.24"/><path class="cls-3" d="M24.44,47.71,22.53,72.88S.09,61.06,0,59.68,24.44,47.71,24.44,47.71Z"/><path class="cls-5" d="M52.38,62s-1.55,6.45,3.08,8.29.26-3.48.26-3.48-3-4.15-1.86-6.18S52.18,60.45,52.38,62Z"/><path class="cls-1" d="M220.36,69.21C232.69,74,279.69,91.46,294.25,85.4c0,0,58.66-5.09,63.69-8.46s1.86-14.58-2-15.09c-1.67-.22-65.29-9.37-65.56-9.42S273.29,44.64,220,66.28C218.83,66.76,219.12,68.73,220.36,69.21Z"/><path class="cls-6" d="M303,84.44l86.57,13S375.66,79,369.28,77,303,84.44,303,84.44Z"/><path class="cls-6" d="M302.16,54.09l86.11-10.2s-13.2,17.92-19.5,19.79S302.16,54.09,302.16,54.09Z"/><path class="cls-6" d="M230.58,73s-4-5.84-.69-10.59l-10.1,3.64s-1.88,1.42.37,3.06Z"/><ellipse class="cls-2" cx="278.12" cy="69.64" rx="8.15" ry="8.72" transform="translate(-8.36 81.12) rotate(-16.35)"/><path class="cls-5" d="M273,71.69s1.64,4.81,5.31,4-1.24-2.35-1.24-2.35-3.56-1.4-3.69-3.18S272.3,70.81,273,71.69Z"/><ellipse class="cls-2" cx="251.42" cy="68.03" rx="5.89" ry="6.3" transform="translate(-8.98 73.54) rotate(-16.35)"/><path class="cls-5" d="M247.15,69.46s1.44,4.21,4.65,3.52-1.09-2.06-1.09-2.06-3.12-1.23-3.22-2.79S246.51,68.69,247.15,69.46Z"/><path class="cls-7" d="M345.53,88.93s11.94-20.05-3.72-34"/><path class="cls-8" d="M513.45,42,523.82,0l4.72.29,2.67,61.91-40-2.39,13.92-7.27A16.26,16.26,0,0,0,513.45,42Z"/><path class="cls-8" d="M513.4,149.53l-1.62-41.16a15.67,15.67,0,0,0-5.66-11.44L489.86,83.45l39.79,5-10.58,58.74Z"/><path class="cls-1" d="M440.77,73.12a2.24,2.24,0,0,1-1.46-2.49c.35-2,1.05-5.19,2.18-6.69.9-1.19,25.07-4.71,49.77-4.13,22.23.53,43.17,1.26,43.17,1.26l11.31,5.57s10-2.51,9.3,9.3-10.16,9-10.16,9-9.62,6.8-14.6,6.24C525.59,90.64,454.06,77.76,440.77,73.12Z"/><ellipse class="cls-2" cx="489.85" cy="72" rx="4.54" ry="4.55" transform="translate(-0.58 139.93) rotate(-16.25)"/><ellipse class="cls-2" cx="474.23" cy="70.64" rx="4.96" ry="4.97" transform="translate(-0.82 135.5) rotate(-16.25)"/><path class="cls-9" d="M514.71,99.75s21.27-24,2.64-45.43"/><path class="cls-8" d="M448,75.14s-8.84-2.17-8.76-3.34.67-7.27,2.26-7.86,8.08-1.77,8.08-1.77S444.77,68.35,448,75.14Z"/><path class="cls-5" d="M486.83,73.27s.75,2.6,2.76,2.32S489,74.3,489,74.3s-1.88-.87-1.9-1.82S486.46,72.78,486.83,73.27Z"/><path class="cls-5" d="M470.64,71.63s1.09,3.78,4,3.37-.88-1.87-.88-1.87S471,71.87,471,70.49,470.1,70.92,470.64,71.63Z"/></g></g></svg>