<?xml version="1.0" encoding="UTF-8"?><svg xmlns="http://www.w3.org/2000/svg" xmlns:xlink="http://www.w3.org/1999/xlink" viewBox="0 0 45.95 25.27"><defs><style>.f{fill:none;}.g{fill:#231f20;}.h{clip-path:url(#e);}.i{clip-path:url(#d);}</style><clipPath id="d"><rect class="f" y="0" width="45.95" height="25.27"/></clipPath><clipPath id="e"><rect class="f" y="0" width="45.95" height="25.27"/></clipPath></defs><g id="a"/><g id="b"><g id="c"><g class="i"><path class="g" d="M10.26,8.13h.69l3.07,6.89h-1l-.91-2.03h-2.92l-.86,2.03h-1.01l2.94-6.89Zm1.44,3.99l-1.11-2.48-1.02,2.48h2.13Z"/><polygon class="g" points="20.07 8.17 20.99 8.17 20.99 15.02 20 15.02 20 9.69 17.9 12.34 17.71 12.34 15.58 9.69 15.58 15.02 14.6 15.02 14.6 8.17 15.53 8.17 17.81 10.98 20.07 8.17"/><g class="h"><path class="g" d="M24.48,15.02h-2.32v-6.85h1.79c.57,0,1.01,.08,1.32,.23,.32,.15,.56,.36,.73,.63,.17,.27,.25,.57,.25,.92,0,.67-.35,1.16-1.04,1.45,.5,.09,.9,.3,1.19,.62,.3,.32,.44,.7,.44,1.14,0,.35-.09,.66-.27,.94-.18,.27-.44,.5-.79,.67-.35,.17-.78,.26-1.31,.26m-.5-5.98h-.84v2.06h.65c.52,0,.89-.1,1.12-.3,.22-.2,.33-.46,.33-.77,0-.66-.42-.99-1.26-.99m.07,2.93h-.92v2.17h.97c.54,0,.9-.04,1.09-.12,.19-.08,.34-.21,.46-.39,.12-.18,.17-.37,.17-.57s-.06-.4-.18-.57c-.12-.17-.3-.3-.52-.39-.23-.09-.58-.13-1.07-.13"/><polygon class="g" points="27.76 8.17 31.65 8.17 31.65 9.04 28.75 9.04 28.75 11.13 31.55 11.13 31.55 12.01 28.75 12.01 28.75 14.14 31.74 14.14 31.74 15.01 27.76 15.01 27.76 8.17"/><path class="g" d="M33.02,15.02v-6.85h1.72c.69,0,1.24,.17,1.65,.51,.41,.34,.61,.81,.61,1.39,0,.4-.1,.74-.3,1.03-.2,.29-.43,.51-.8,.71l1.74,3.2h-1.17l-1.52-2.98s-.36,0-.68,0h-.26v2.98h-.98Zm1.27-6.02h-.29v2.16h.37c.5,0,.84-.04,1.02-.13,.18-.08,.33-.21,.43-.38,.1-.17,.15-.37,.15-.59s-.06-.41-.17-.59c-.11-.17-.28-.3-.48-.37-.21-.07-.55-.11-1.03-.11"/><path class="g" d="M21.2,16.38v1.04h-.28v-.8c0-.16-.02-.27-.06-.33-.04-.06-.12-.09-.22-.09-.06,0-.11,.01-.16,.04-.05,.03-.11,.07-.17,.14v1.04h-.28v-1.43h.28v.19c.14-.14,.28-.22,.42-.22,.18,0,.32,.09,.42,.26,.15-.17,.31-.26,.47-.26,.14,0,.25,.05,.34,.15,.09,.1,.13,.26,.13,.46v.84h-.28v-.85c0-.12-.02-.21-.07-.27-.05-.06-.12-.09-.21-.09-.12,0-.23,.06-.33,.18"/><path class="g" d="M23.21,15.99c.22,0,.4,.07,.54,.21,.14,.14,.22,.32,.22,.53s-.07,.38-.22,.51c-.15,.14-.33,.2-.55,.2s-.39-.07-.54-.21c-.14-.14-.22-.31-.22-.52s.07-.38,.22-.52,.33-.21,.55-.21m-.02,.25c-.14,0-.25,.04-.33,.13-.09,.09-.13,.2-.13,.34s.04,.25,.13,.33c.09,.09,.2,.13,.34,.13s.25-.04,.34-.13c.09-.09,.13-.2,.13-.34s-.05-.25-.14-.34c-.09-.09-.21-.13-.35-.13"/><polygon class="g" points="25.19 15.99 25.5 15.99 24.87 17.44 24.77 17.44 24.13 15.99 24.44 15.99 24.82 16.87 25.19 15.99"/><path class="g" d="M25.9,15.39s.09,.02,.12,.05c.03,.03,.05,.07,.05,.12s-.02,.08-.05,.12c-.03,.03-.07,.05-.12,.05-.04,0-.08-.02-.11-.05-.03-.03-.05-.07-.05-.12s.02-.08,.05-.12c.03-.03,.07-.05,.11-.05m-.14,.6h.28v1.43h-.28v-1.43Z"/><path class="g" d="M26.77,15.99v.18c.13-.14,.27-.21,.43-.21,.09,0,.17,.02,.25,.07,.08,.05,.13,.11,.17,.19,.04,.08,.06,.21,.06,.38v.82h-.28v-.81c0-.15-.02-.25-.07-.31-.04-.06-.12-.09-.22-.09-.13,0-.25,.07-.34,.2v1.02h-.29v-1.43h.29Z"/><path class="g" d="M28.05,16.48c0-.15,.06-.27,.17-.36,.11-.09,.26-.13,.46-.13h.59v.22h-.29c.06,.06,.09,.11,.12,.16,.02,.05,.03,.1,.03,.16,0,.07-.02,.15-.06,.22-.04,.07-.1,.13-.16,.17-.07,.04-.18,.07-.33,.09-.11,.02-.16,.05-.16,.11,0,.03,.02,.06,.06,.08,.04,.02,.11,.04,.22,.07,.17,.04,.29,.07,.34,.09,.05,.02,.1,.05,.14,.09,.07,.07,.1,.15,.1,.26,0,.14-.06,.24-.18,.32-.12,.08-.28,.12-.48,.12s-.37-.04-.49-.12c-.12-.08-.18-.19-.18-.33,0-.19,.12-.32,.36-.37-.1-.06-.14-.12-.14-.18,0-.05,.02-.09,.06-.12,.04-.04,.1-.06,.17-.08-.21-.09-.32-.24-.32-.45m.46,1c-.1,0-.17,.02-.23,.06-.06,.04-.09,.09-.09,.16,0,.15,.13,.22,.4,.22,.13,0,.22-.02,.29-.06,.07-.04,.1-.09,.1-.16s-.04-.12-.13-.16c-.09-.04-.2-.06-.34-.06m.07-1.25c-.08,0-.14,.03-.2,.08-.05,.05-.08,.11-.08,.19s.03,.13,.08,.18c.05,.05,.12,.07,.2,.07s.15-.02,.2-.07c.05-.05,.08-.11,.08-.18s-.03-.14-.08-.19c-.05-.05-.12-.07-.2-.07"/><path class="g" d="M31.62,16.38v1.04h-.28v-.8c0-.16-.02-.27-.06-.33-.04-.06-.12-.09-.22-.09-.06,0-.11,.01-.16,.04-.05,.03-.11,.07-.17,.14v1.04h-.28v-1.43h.28v.19c.14-.14,.28-.22,.42-.22,.18,0,.32,.09,.42,.26,.15-.17,.31-.26,.47-.26,.14,0,.25,.05,.34,.15,.09,.1,.13,.26,.13,.46v.84h-.28v-.85c0-.12-.02-.21-.07-.27-.05-.06-.12-.09-.21-.09-.12,0-.23,.06-.33,.18"/><path class="g" d="M33.85,17.42v-.18c-.06,.07-.13,.12-.21,.15-.08,.04-.15,.05-.23,.05-.09,0-.17-.02-.25-.07-.08-.05-.13-.11-.17-.18-.04-.08-.06-.21-.06-.38v-.82h.28v.81c0,.15,.02,.25,.06,.31,.04,.06,.12,.09,.23,.09,.13,0,.25-.07,.34-.2v-1.02h.28v1.43h-.28Z"/><path class="g" d="M34.5,17.32v-.3c.08,.06,.16,.1,.24,.14,.08,.03,.15,.05,.21,.05s.11-.01,.15-.04c.04-.03,.06-.06,.06-.1s-.01-.08-.04-.1c-.03-.03-.09-.07-.18-.12-.18-.1-.3-.19-.36-.26-.06-.07-.08-.15-.08-.24,0-.11,.04-.2,.13-.27,.09-.07,.2-.1,.33-.1s.28,.04,.43,.12v.28c-.17-.1-.3-.15-.41-.15-.05,0-.1,.01-.13,.04-.03,.02-.05,.05-.05,.09,0,.03,.02,.06,.05,.09,.03,.03,.08,.07,.16,.11l.1,.06c.24,.13,.36,.28,.36,.45,0,.12-.05,.21-.14,.29-.09,.08-.21,.11-.35,.11-.08,0-.16,0-.23-.03-.07-.02-.15-.05-.25-.1"/><path class="g" d="M35.98,15.39s.09,.02,.12,.05c.03,.03,.05,.07,.05,.12s-.02,.08-.05,.12c-.03,.03-.07,.05-.12,.05-.04,0-.08-.02-.11-.05-.03-.03-.05-.07-.05-.12s.02-.08,.05-.12c.03-.03,.07-.05,.11-.05m-.14,.6h.28v1.43h-.28v-1.43Z"/><path class="g" d="M37.64,17.09v.28c-.14,.05-.28,.08-.42,.08-.22,0-.4-.07-.53-.2-.13-.13-.2-.31-.2-.53s.06-.41,.19-.54c.13-.14,.3-.21,.51-.21,.07,0,.14,0,.2,.02,.06,.01,.13,.04,.22,.08v.3c-.14-.09-.28-.14-.4-.14s-.23,.04-.31,.13c-.08,.09-.12,.2-.12,.34,0,.15,.04,.26,.13,.35,.09,.09,.21,.13,.36,.13,.11,0,.23-.03,.37-.09"/><path class="g" d="M41.12,20.43H4.84V4.83H41.12v15.6Zm.24-15.84H4.6V20.67H41.36V4.59Z"/></g></g></g></g></svg>