<?xml version="1.0" encoding="utf-8"?>
<!-- Generator: Adobe Illustrator 26.2.1, SVG Export Plug-In . SVG Version: 6.00 Build 0)  -->
<svg version="1.1" id="Calque_1" xmlns="http://www.w3.org/2000/svg" xmlns:xlink="http://www.w3.org/1999/xlink" x="0px" y="0px"
	 viewBox="0 0 226.8 99.2" style="enable-background:new 0 0 226.8 99.2;" xml:space="preserve">
<style type="text/css">
	.st0{fill:#0A1348;}
</style>
<g id="a">
</g>
<g id="b">
	<g id="c">
		<g>
			<g>
				<path class="st0" d="M34.9,21.8h4.2l19,42.5h-6.2l-5.6-12.5h-18L23,64.3h-6.2L34.9,21.8z M43.8,46.4L37,31.1l-6.3,15.3H43.8z"/>
				<path class="st0" d="M95.4,22.1h5.7v42.3H95V31.5L82,47.8h-1.1L67.8,31.5v32.9h-6V22.1h5.7l14,17.4L95.4,22.1L95.4,22.1z"/>
				<path class="st0" d="M122.6,64.3h-14.3V22.1h11.1c3.5,0,6.2,0.5,8.2,1.4s3.5,2.2,4.5,3.9s1.5,3.5,1.5,5.7c0,4.2-2.1,7.1-6.4,8.9
					c3.1,0.6,5.5,1.9,7.4,3.8c1.8,2,2.7,4.3,2.7,7c0,2.2-0.6,4.1-1.7,5.8s-2.7,3.1-4.9,4.1S125.9,64.3,122.6,64.3L122.6,64.3z
					 M119.6,27.5h-5.2v12.7h4c3.2,0,5.5-0.6,6.9-1.8s2-2.8,2-4.8C127.3,29.5,124.7,27.5,119.6,27.5z M120,45.5h-5.7v13.4h6
					c3.3,0,5.6-0.3,6.7-0.8c1.2-0.5,2.1-1.3,2.8-2.4s1.1-2.3,1.1-3.5s-0.4-2.5-1.1-3.5c-0.8-1.1-1.8-1.9-3.2-2.4
					C125.2,45.8,123,45.5,120,45.5z"/>
				<path class="st0" d="M142.9,22.1h24v5.4h-17.9v12.9h17.3v5.4h-17.3v13.1h18.5v5.4h-24.5L142.9,22.1L142.9,22.1z"/>
				<path class="st0" d="M175.3,64.3V22.1h10.6c4.3,0,7.7,1.1,10.2,3.2s3.8,5,3.8,8.6c0,2.5-0.6,4.6-1.9,6.4
					c-1.2,1.8-2.6,3.1-4.9,4.4l10.7,19.7h-7.2l-9.4-18.4c0,0-2.2,0-4.2,0h-1.6v18.4H175.3L175.3,64.3z M183.2,27.2h-1.8v13.3h2.3
					c3.1,0,5.2-0.3,6.3-0.8c1.1-0.5,2-1.3,2.7-2.4s0.9-2.3,0.9-3.6s-0.4-2.5-1.1-3.6c-0.7-1.1-1.7-1.8-3-2.3S186.1,27.2,183.2,27.2
					L183.2,27.2z"/>
			</g>
			<g>
				<path class="st0" d="M102.4,72.7v6.4h-1.8v-4.9c0-1-0.1-1.7-0.4-2c-0.3-0.4-0.7-0.6-1.4-0.6c-0.4,0-0.7,0.1-1,0.2
					s-0.7,0.5-1,0.9v6.4h-1.7v-8.8h1.7v1.2c0.9-0.9,1.8-1.3,2.6-1.3c1.1,0,2,0.5,2.6,1.6c0.9-1.1,1.9-1.6,2.9-1.6
					c0.9,0,1.6,0.3,2.1,0.9c0.6,0.6,0.8,1.6,0.8,2.9v5.2h-1.7v-5.2c0-0.7-0.2-1.3-0.4-1.7c-0.3-0.4-0.7-0.6-1.3-0.6
					C103.7,71.7,103,72,102.4,72.7L102.4,72.7z"/>
				<path class="st0" d="M114.8,70.3c1.3,0,2.5,0.4,3.3,1.3c0.9,0.9,1.3,1.9,1.3,3.3s-0.4,2.3-1.3,3.2s-2,1.3-3.4,1.3
					s-2.4-0.4-3.3-1.3c-0.9-0.8-1.3-1.9-1.3-3.2s0.4-2.4,1.3-3.2S113.4,70.3,114.8,70.3L114.8,70.3z M114.7,71.9
					c-0.8,0-1.5,0.3-2.1,0.8s-0.8,1.2-0.8,2.1s0.3,1.5,0.8,2.1c0.6,0.5,1.2,0.8,2.1,0.8s1.6-0.3,2.1-0.8c0.6-0.5,0.8-1.2,0.8-2.1
					s-0.3-1.5-0.8-2.1S115.6,71.9,114.7,71.9L114.7,71.9z"/>
				<path class="st0" d="M127,70.3h1.9l-3.9,9h-0.6l-4-9h1.9l2.4,5.4L127,70.3L127,70.3z"/>
				<path class="st0" d="M131.4,66.6c0.3,0,0.5,0.1,0.7,0.3s0.3,0.4,0.3,0.7s-0.1,0.5-0.3,0.7s-0.4,0.3-0.7,0.3
					c-0.3,0-0.5-0.1-0.7-0.3c-0.2-0.2-0.3-0.4-0.3-0.7s0.1-0.5,0.3-0.7C130.9,66.7,131.1,66.6,131.4,66.6L131.4,66.6z M130.5,70.3
					h1.7v8.8h-1.7V70.3z"/>
				<path class="st0" d="M136.8,70.3v1.1c0.8-0.9,1.7-1.3,2.6-1.3c0.6,0,1.1,0.1,1.5,0.4s0.8,0.7,1.1,1.2s0.4,1.3,0.4,2.3v5h-1.7v-5
					c0-0.9-0.1-1.5-0.4-1.9s-0.7-0.6-1.4-0.6c-0.8,0-1.5,0.4-2.1,1.2v6.3H135v-8.8L136.8,70.3L136.8,70.3z"/>
				<path class="st0" d="M144.7,73.4c0-0.9,0.3-1.7,1-2.2s1.6-0.8,2.8-0.8h3.6v1.4h-1.8c0.3,0.3,0.6,0.7,0.7,1s0.2,0.6,0.2,1
					c0,0.5-0.1,0.9-0.4,1.4c-0.3,0.4-0.6,0.8-1,1c-0.4,0.2-1.1,0.4-2,0.6c-0.7,0.1-1,0.3-1,0.7c0,0.2,0.1,0.4,0.4,0.5
					s0.7,0.3,1.3,0.4c1.1,0.2,1.8,0.4,2.1,0.6s0.6,0.3,0.8,0.6c0.4,0.4,0.6,0.9,0.6,1.6c0,0.8-0.4,1.5-1.1,2c-0.7,0.5-1.7,0.8-3,0.8
					s-2.3-0.2-3-0.8s-1.1-1.2-1.1-2c0-1.2,0.7-2,2.2-2.3c-0.6-0.4-0.9-0.8-0.9-1.1c0-0.3,0.1-0.5,0.4-0.8s0.6-0.4,1-0.5
					C145.3,75.6,144.7,74.7,144.7,73.4L144.7,73.4z M147.5,79.6c-0.6,0-1.1,0.1-1.4,0.4c-0.4,0.2-0.6,0.6-0.6,1
					c0,0.9,0.8,1.4,2.4,1.4c0.8,0,1.4-0.1,1.8-0.3c0.4-0.2,0.6-0.6,0.6-1s-0.3-0.7-0.8-1C149.1,79.7,148.4,79.6,147.5,79.6
					L147.5,79.6z M147.9,71.8c-0.5,0-0.9,0.2-1.2,0.5s-0.5,0.7-0.5,1.2s0.2,0.8,0.5,1.1c0.3,0.3,0.7,0.4,1.2,0.4s0.9-0.2,1.2-0.4
					s0.5-0.7,0.5-1.1s-0.2-0.8-0.5-1.2S148.4,71.9,147.9,71.8L147.9,71.8z"/>
				<path class="st0" d="M166.7,72.7v6.4h-1.8v-4.9c0-1-0.1-1.7-0.4-2s-0.7-0.6-1.4-0.6c-0.4,0-0.7,0.1-1,0.2s-0.6,0.5-1,0.9v6.4
					h-1.7v-8.8h1.7v1.2c0.9-0.9,1.8-1.3,2.6-1.3c1.1,0,2,0.5,2.6,1.6c0.9-1.1,1.9-1.6,2.9-1.6c0.9,0,1.6,0.3,2.1,0.9
					s0.8,1.6,0.8,2.9v5.2h-1.7v-5.2c0-0.7-0.1-1.3-0.4-1.7s-0.7-0.6-1.3-0.6C168,71.7,167.3,72,166.7,72.7L166.7,72.7z"/>
				<path class="st0" d="M180.4,79.1V78c-0.4,0.4-0.8,0.7-1.3,0.9s-0.9,0.3-1.4,0.3c-0.6,0-1.1-0.1-1.5-0.4
					c-0.5-0.3-0.8-0.7-1.1-1.1c-0.2-0.5-0.4-1.3-0.4-2.4v-5.1h1.7v5c0,0.9,0.1,1.6,0.4,1.9c0.3,0.4,0.7,0.6,1.4,0.6
					c0.8,0,1.5-0.4,2.1-1.2v-6.3h1.7v8.8C182.2,79.1,180.4,79.1,180.4,79.1z"/>
				<path class="st0" d="M184.5,78.5v-1.9c0.5,0.3,1,0.6,1.5,0.8c0.5,0.2,0.9,0.3,1.3,0.3s0.7-0.1,0.9-0.3c0.3-0.2,0.4-0.4,0.4-0.6
					s-0.1-0.5-0.2-0.6s-0.5-0.4-1.1-0.7c-1.1-0.6-1.9-1.2-2.2-1.6c-0.4-0.4-0.5-0.9-0.5-1.4c0-0.7,0.3-1.2,0.8-1.7s1.2-0.6,2-0.6
					s1.8,0.2,2.6,0.7v1.7c-1-0.6-1.9-0.9-2.5-0.9c-0.3,0-0.6,0.1-0.8,0.2c-0.2,0.1-0.3,0.3-0.3,0.6c0,0.2,0.1,0.4,0.3,0.6
					c0.2,0.2,0.5,0.4,1,0.7l0.6,0.3c1.5,0.8,2.2,1.8,2.2,2.8c0,0.7-0.3,1.3-0.9,1.8c-0.6,0.5-1.3,0.7-2.2,0.7c-0.5,0-1-0.1-1.4-0.2
					C185.6,79,185.1,78.8,184.5,78.5L184.5,78.5z"/>
				<path class="st0" d="M193.6,66.6c0.3,0,0.5,0.1,0.7,0.3c0.2,0.2,0.3,0.4,0.3,0.7s-0.1,0.5-0.3,0.7c-0.2,0.2-0.4,0.3-0.7,0.3
					c-0.3,0-0.5-0.1-0.7-0.3c-0.2-0.2-0.3-0.4-0.3-0.7s0.1-0.5,0.3-0.7C193.1,66.7,193.3,66.6,193.6,66.6L193.6,66.6z M192.7,70.3
					h1.7v8.8h-1.7V70.3z"/>
				<path class="st0" d="M203.9,77.1v1.7c-0.9,0.3-1.7,0.5-2.6,0.5c-1.4,0-2.5-0.4-3.3-1.2s-1.2-1.9-1.2-3.3s0.4-2.5,1.2-3.3
					s1.9-1.3,3.1-1.3c0.4,0,0.9,0,1.2,0.1s0.8,0.2,1.3,0.5v1.9c-0.9-0.6-1.7-0.8-2.4-0.8s-1.4,0.3-1.9,0.8c-0.5,0.6-0.8,1.3-0.8,2.1
					c0,0.9,0.3,1.6,0.8,2.2s1.3,0.8,2.2,0.8C202.2,77.7,203,77.5,203.9,77.1L203.9,77.1z"/>
			</g>
			<path class="st0" d="M225.3,1.5v96.2H1.5V1.5H225.3 M226.8,0H0v99.2h226.8V0L226.8,0z"/>
		</g>
	</g>
</g>
</svg>
