<svg xmlns="http://www.w3.org/2000/svg" xmlns:xlink="http://www.w3.org/1999/xlink" viewBox="0 0 183.06 100.68"><defs><style>.cls-1{fill:none;}.cls-2{fill:#fff;}.cls-3{clip-path:url(#clip-path);}.cls-4{fill:#231f20;}</style><clipPath id="clip-path"><rect class="cls-1" width="183.06" height="100.68"/></clipPath></defs><g id="Calque_2" data-name="Calque 2"><g id="Calque_1-2" data-name="Calque 1"><rect class="cls-2" x="19.29" y="18.95" width="144.63" height="62.79" transform="translate(183.21 100.69) rotate(180)"/><g class="cls-3"><path class="cls-4" d="M40.88,32.39h2.75L55.87,59.83h-4l-3.64-8.08H36.59l-3.41,8.08h-4Zm5.74,15.88-4.4-9.89-4.08,9.89Z"/><polygon class="cls-4" points="79.96 32.54 83.61 32.54 83.61 59.83 79.69 59.83 79.69 38.6 71.3 49.15 70.57 49.15 62.09 38.6 62.09 59.83 58.18 59.83 58.18 32.54 61.88 32.54 70.94 43.75 79.96 32.54"/><g class="cls-3"><path class="cls-4" d="M97.53,59.83H88.29V32.54h7.15a12.4,12.4,0,0,1,5.28.91,6.51,6.51,0,0,1,3.88,6.18c0,2.69-1.38,4.61-4.16,5.77a8.34,8.34,0,0,1,4.76,2.46A6.39,6.39,0,0,1,107,52.39a6.63,6.63,0,0,1-1.08,3.73,7.77,7.77,0,0,1-3.15,2.68,11.65,11.65,0,0,1-5.21,1M95.56,36H92.2v8.2h2.6c2.08,0,3.56-.39,4.44-1.19A4,4,0,0,0,100.56,40q0-3.93-5-3.93m.29,11.68H92.2v8.66h3.85a12.55,12.55,0,0,0,4.34-.5A4.24,4.24,0,0,0,102.92,52a3.88,3.88,0,0,0-.73-2.29,4.34,4.34,0,0,0-2.08-1.54,13,13,0,0,0-4.26-.51"/><polygon class="cls-4" points="110.62 32.54 126.09 32.54 126.09 36.02 114.52 36.02 114.52 44.34 125.7 44.34 125.7 47.84 114.52 47.84 114.52 56.32 126.46 56.32 126.46 59.79 110.62 59.79 110.62 32.54"/><path class="cls-4" d="M131.54,59.83V32.54h6.84A9.9,9.9,0,0,1,145,34.59a6.89,6.89,0,0,1,2.43,5.55,7.06,7.06,0,0,1-1.19,4.12A8.54,8.54,0,0,1,143,47.09l6.91,12.74h-4.65L139.19,48h-3.74V59.83Zm5.08-24h-1.17v8.62h1.48A10.94,10.94,0,0,0,141,44a3.82,3.82,0,0,0,1.72-1.53,4.5,4.5,0,0,0,.62-2.34,4.18,4.18,0,0,0-.68-2.33,3.68,3.68,0,0,0-1.93-1.48,14.12,14.12,0,0,0-4.11-.43"/><path class="cls-4" d="M84.46,65.27V69.4H83.33V66.23a2.49,2.49,0,0,0-.25-1.32,1,1,0,0,0-.89-.37,1.27,1.27,0,0,0-.64.16,2.61,2.61,0,0,0-.68.57V69.4H79.75V63.71h1.12v.75a2.45,2.45,0,0,1,1.69-.86,1.84,1.84,0,0,1,1.67,1,2.56,2.56,0,0,1,1.89-1,1.74,1.74,0,0,1,1.36.61A2.71,2.71,0,0,1,88,66V69.4H86.89V66a1.71,1.71,0,0,0-.29-1.09,1,1,0,0,0-.83-.38,1.75,1.75,0,0,0-1.31.71"/><path class="cls-4" d="M92.45,63.69a3,3,0,0,1,2.16.84,2.83,2.83,0,0,1,.86,2.11,2.67,2.67,0,0,1-.87,2,3.06,3.06,0,0,1-2.2.82,3,3,0,0,1-2.14-.83,2.91,2.91,0,0,1,0-4.14,3,3,0,0,1,2.18-.84m-.06,1a1.8,1.8,0,0,0-1.33.53,1.86,1.86,0,0,0-.52,1.36,1.79,1.79,0,0,0,.53,1.33,1.91,1.91,0,0,0,1.37.52,1.85,1.85,0,0,0,1.36-.53,1.93,1.93,0,0,0,0-2.68,1.94,1.94,0,0,0-1.39-.53"/><polygon class="cls-4" points="100.37 63.71 101.59 63.71 99.08 69.5 98.7 69.5 96.13 63.71 97.36 63.71 98.89 67.21 100.37 63.71"/><path class="cls-4" d="M103.18,61.31a.69.69,0,0,1,.48.19.65.65,0,0,1,.2.47.63.63,0,0,1-.2.47.62.62,0,0,1-.48.2.61.61,0,0,1-.46-.2.64.64,0,0,1-.19-.47.67.67,0,0,1,.65-.66m-.56,2.4h1.13V69.4h-1.13Z"/><path class="cls-4" d="M106.67,63.71v.72a2.23,2.23,0,0,1,1.71-.83,1.89,1.89,0,0,1,1,.27,1.77,1.77,0,0,1,.7.76,3.55,3.55,0,0,1,.24,1.51V69.4h-1.13V66.16a2.21,2.21,0,0,0-.27-1.25,1,1,0,0,0-.89-.37,1.61,1.61,0,0,0-1.35.79V69.4h-1.15V63.71Z"/><path class="cls-4" d="M111.75,65.67a1.73,1.73,0,0,1,.66-1.43,2.82,2.82,0,0,1,1.82-.53h2.35v.88h-1.16a2.27,2.27,0,0,1,.47.61,1.47,1.47,0,0,1,.13.64,1.81,1.81,0,0,1-.25.88,1.9,1.9,0,0,1-.66.66,4,4,0,0,1-1.31.36c-.42.06-.63.21-.63.44a.37.37,0,0,0,.23.32,3.45,3.45,0,0,0,.87.27,8.31,8.31,0,0,1,1.34.36,1.63,1.63,0,0,1,.54.37,1.35,1.35,0,0,1,.41,1,1.48,1.48,0,0,1-.72,1.3,4.1,4.1,0,0,1-3.87,0,1.47,1.47,0,0,1-.73-1.3c0-.77.48-1.27,1.43-1.49q-.57-.36-.57-.72a.66.66,0,0,1,.25-.5,1.36,1.36,0,0,1,.66-.32,1.89,1.89,0,0,1-1.26-1.81m1.85,4a1.65,1.65,0,0,0-.93.25.71.71,0,0,0-.36.61c0,.59.53.88,1.58.88a2.44,2.44,0,0,0,1.16-.22.66.66,0,0,0,.41-.62c0-.26-.17-.48-.52-.65a3.17,3.17,0,0,0-1.34-.25m.27-5a1.1,1.1,0,0,0-.78.31,1,1,0,0,0-.33.75.93.93,0,0,0,.32.72,1.16,1.16,0,0,0,.8.29,1.13,1.13,0,0,0,.79-.29.94.94,0,0,0,.32-.74,1,1,0,0,0-.32-.74,1.12,1.12,0,0,0-.8-.3"/><path class="cls-4" d="M126,65.27V69.4h-1.13V66.23a2.49,2.49,0,0,0-.25-1.32,1,1,0,0,0-.89-.37,1.27,1.27,0,0,0-.64.16,2.61,2.61,0,0,0-.68.57V69.4h-1.12V63.71h1.12v.75a2.45,2.45,0,0,1,1.69-.86,1.84,1.84,0,0,1,1.67,1,2.56,2.56,0,0,1,1.89-1,1.74,1.74,0,0,1,1.36.61,2.71,2.71,0,0,1,.54,1.85V69.4h-1.13V66a1.71,1.71,0,0,0-.29-1.09,1,1,0,0,0-.83-.38,1.75,1.75,0,0,0-1.31.71"/><path class="cls-4" d="M134.86,69.4v-.73a2.83,2.83,0,0,1-.82.61,2.25,2.25,0,0,1-.92.22,2,2,0,0,1-1-.27,1.71,1.71,0,0,1-.68-.73,3.59,3.59,0,0,1-.23-1.53V63.71h1.12V67a2.21,2.21,0,0,0,.26,1.25,1,1,0,0,0,.9.36,1.66,1.66,0,0,0,1.37-.79V63.71H136V69.4Z"/><path class="cls-4" d="M137.45,69V67.78a5.25,5.25,0,0,0,1,.54,2.23,2.23,0,0,0,.83.21,1,1,0,0,0,.61-.18.48.48,0,0,0,.25-.41.54.54,0,0,0-.16-.41,4.07,4.07,0,0,0-.71-.48,4.85,4.85,0,0,1-1.42-1,1.47,1.47,0,0,1-.34-.94A1.32,1.32,0,0,1,138,64a2,2,0,0,1,1.31-.41,3.57,3.57,0,0,1,1.72.47v1.11a3.51,3.51,0,0,0-1.64-.61.92.92,0,0,0-.53.14.43.43,0,0,0-.2.37.54.54,0,0,0,.18.38,3,3,0,0,0,.64.43l.4.23c1,.54,1.43,1.13,1.43,1.78a1.44,1.44,0,0,1-.55,1.15,2.17,2.17,0,0,1-1.41.45,3.46,3.46,0,0,1-.9-.11,6.06,6.06,0,0,1-1-.4"/><path class="cls-4" d="M143.35,61.31a.69.69,0,0,1,.48.19.65.65,0,0,1,.2.47.63.63,0,0,1-.2.47.62.62,0,0,1-.48.2.61.61,0,0,1-.46-.2.64.64,0,0,1-.19-.47.67.67,0,0,1,.65-.66m-.56,2.4h1.13V69.4h-1.13Z"/><path class="cls-4" d="M150,68.07v1.11a4.74,4.74,0,0,1-1.66.32,2.92,2.92,0,0,1-2.13-.79,2.88,2.88,0,0,1-.79-2.13,3,3,0,0,1,.77-2.16,2.64,2.64,0,0,1,2-.82,3.15,3.15,0,0,1,.79.08,5.88,5.88,0,0,1,.87.31v1.2a3,3,0,0,0-1.59-.54,1.65,1.65,0,0,0-1.25.53,2,2,0,0,0-.49,1.37,1.84,1.84,0,0,0,.53,1.38,2,2,0,0,0,1.43.52,3.76,3.76,0,0,0,1.49-.38"/><path class="cls-4" d="M163.81,81.39H19.3V19.26H163.81Zm1-63.1H18.33V82.36H164.78Z"/></g></g></g></g></svg>