<svg xmlns="http://www.w3.org/2000/svg" xmlns:xlink="http://www.w3.org/1999/xlink" viewBox="0 0 183.06 100.68"><defs><style>.cls-1{fill:none;}.cls-2{clip-path:url(#clip-path);}.cls-3{fill:#e8a5ae;}</style><clipPath id="clip-path"><rect class="cls-1" width="183.06" height="100.68"/></clipPath></defs><g id="Calque_2" data-name="Calque 2"><g id="Calque_1-2" data-name="Calque 1"><g id="Calque_1-2-2" data-name="Calque 1-2"><g class="cls-2"><path class="cls-3" d="M40.88,32.39h2.75L55.87,59.83h-4l-3.64-8.08H36.59l-3.41,8.08h-4Zm5.74,15.88-4.4-9.89-4.08,9.89Z"/><polygon class="cls-3" points="79.96 32.54 83.61 32.54 83.61 59.83 79.69 59.83 79.69 38.6 71.3 49.15 70.57 49.15 62.09 38.6 62.09 59.83 58.18 59.83 58.18 32.54 61.88 32.54 70.94 43.75 79.96 32.54"/><g class="cls-2"><path class="cls-3" d="M97.53,59.83H88.29V32.54h7.15a12.37,12.37,0,0,1,5.28.91,6.52,6.52,0,0,1,3.88,6.18c0,2.69-1.38,4.61-4.16,5.77a8.33,8.33,0,0,1,4.76,2.46,6.37,6.37,0,0,1,1.8,4.53,6.68,6.68,0,0,1-1.08,3.73,7.79,7.79,0,0,1-3.15,2.68,11.68,11.68,0,0,1-5.21,1m-2-23.8H92.2v8.2h2.6c2.08,0,3.56-.39,4.44-1.19a4,4,0,0,0,1.32-3q0-3.93-5-3.93m.29,11.68H92.2v8.66h3.85a12.51,12.51,0,0,0,4.34-.5A4.24,4.24,0,0,0,102.92,52a3.85,3.85,0,0,0-.73-2.29,4.37,4.37,0,0,0-2.08-1.54,13,13,0,0,0-4.26-.51"/><polygon class="cls-3" points="110.62 32.54 126.09 32.54 126.09 36.02 114.52 36.02 114.52 44.34 125.7 44.34 125.7 47.84 114.52 47.84 114.52 56.32 126.46 56.32 126.46 59.79 110.62 59.79 110.62 32.54"/><path class="cls-3" d="M131.54,59.83V32.54h6.84A9.88,9.88,0,0,1,145,34.59a6.9,6.9,0,0,1,2.43,5.55,7.11,7.11,0,0,1-1.19,4.12A8.59,8.59,0,0,1,143,47.09l6.91,12.74h-4.65L139.19,48h-3.74V59.83Zm5.08-24h-1.17v8.62h1.48A11,11,0,0,0,141,44a3.81,3.81,0,0,0,1.72-1.53,4.48,4.48,0,0,0,.62-2.34,4.17,4.17,0,0,0-.68-2.33,3.69,3.69,0,0,0-1.93-1.48,14.24,14.24,0,0,0-4.11-.43"/><path class="cls-3" d="M84.46,65.27V69.4H83.33V66.23a2.52,2.52,0,0,0-.25-1.32,1,1,0,0,0-.89-.37,1.32,1.32,0,0,0-.64.16,2.49,2.49,0,0,0-.68.57V69.4H79.75V63.71h1.12v.75a2.47,2.47,0,0,1,1.69-.86,1.85,1.85,0,0,1,1.67,1,2.55,2.55,0,0,1,1.89-1,1.74,1.74,0,0,1,1.36.61A2.73,2.73,0,0,1,88,66v3.4H86.89V66a1.68,1.68,0,0,0-.29-1.09,1,1,0,0,0-.83-.38,1.75,1.75,0,0,0-1.31.71"/><path class="cls-3" d="M92.45,63.69a3,3,0,0,1,2.16.84,2.84,2.84,0,0,1,.86,2.11,2.66,2.66,0,0,1-.87,2,3.09,3.09,0,0,1-2.2.82,3,3,0,0,1-2.14-.83,2.92,2.92,0,0,1,0-4.12l0,0a3,3,0,0,1,2.18-.84m-.06,1a1.83,1.83,0,0,0-1.33.53,1.85,1.85,0,0,0-.52,1.36,1.79,1.79,0,0,0,.53,1.33,1.88,1.88,0,0,0,1.37.52,1.81,1.81,0,0,0,1.36-.53,1.87,1.87,0,0,0-1.39-3.21"/><polygon class="cls-3" points="100.37 63.71 101.59 63.71 99.08 69.5 98.7 69.5 96.13 63.71 97.36 63.71 98.89 67.21 100.37 63.71"/><path class="cls-3" d="M103.18,61.31a.71.71,0,0,1,.48.19.65.65,0,0,1,0,.94.62.62,0,0,1-.48.2.67.67,0,0,1-.65-.67.67.67,0,0,1,.65-.66m-.56,2.4h1.13V69.4h-1.13Z"/><path class="cls-3" d="M106.67,63.71v.72a2.23,2.23,0,0,1,1.71-.83,2,2,0,0,1,1,.27,1.77,1.77,0,0,1,.7.76,3.55,3.55,0,0,1,.24,1.51V69.4h-1.13V66.16a2.19,2.19,0,0,0-.27-1.25,1,1,0,0,0-.89-.37,1.59,1.59,0,0,0-1.35.79V69.4h-1.15V63.71Z"/><path class="cls-3" d="M111.75,65.67a1.73,1.73,0,0,1,.66-1.43,2.82,2.82,0,0,1,1.82-.53h2.35v.88h-1.16a2.32,2.32,0,0,1,.47.61,1.41,1.41,0,0,1,.13.64,1.83,1.83,0,0,1-.25.88,1.9,1.9,0,0,1-.66.66,4,4,0,0,1-1.31.36c-.42.06-.63.21-.63.44a.37.37,0,0,0,.23.32,3.37,3.37,0,0,0,.87.27,7.8,7.8,0,0,1,1.34.36,1.68,1.68,0,0,1,.54.37,1.34,1.34,0,0,1,.41,1,1.47,1.47,0,0,1-.72,1.3,4.08,4.08,0,0,1-3.87,0,1.48,1.48,0,0,1-.73-1.3c0-.77.48-1.27,1.43-1.49q-.57-.36-.57-.72a.68.68,0,0,1,.25-.5,1.28,1.28,0,0,1,.66-.32,1.9,1.9,0,0,1-1.26-1.81m1.85,4a1.69,1.69,0,0,0-.93.25.7.7,0,0,0-.36.61c0,.59.53.88,1.58.88a2.43,2.43,0,0,0,1.16-.22.67.67,0,0,0,.41-.62c0-.26-.17-.48-.52-.65a3.23,3.23,0,0,0-1.34-.25m.27-5a1.13,1.13,0,0,0-.78.31,1,1,0,0,0-.33.75.9.9,0,0,0,.32.72,1.18,1.18,0,0,0,.8.29,1.15,1.15,0,0,0,.79-.29,1,1,0,0,0,.32-.74,1,1,0,0,0-.32-.74,1.12,1.12,0,0,0-.8-.3"/><path class="cls-3" d="M126,65.27V69.4h-1.13V66.23a2.52,2.52,0,0,0-.25-1.32,1,1,0,0,0-.89-.37,1.32,1.32,0,0,0-.64.16,2.49,2.49,0,0,0-.68.57V69.4h-1.12V63.71h1.12v.75a2.47,2.47,0,0,1,1.69-.86,1.85,1.85,0,0,1,1.67,1,2.55,2.55,0,0,1,1.89-1,1.74,1.74,0,0,1,1.36.61,2.73,2.73,0,0,1,.54,1.85V69.4h-1.13V66a1.68,1.68,0,0,0-.29-1.09,1,1,0,0,0-.83-.38,1.75,1.75,0,0,0-1.31.71"/><path class="cls-3" d="M134.86,69.4v-.73a2.74,2.74,0,0,1-.82.61,2.26,2.26,0,0,1-.92.22,2,2,0,0,1-1-.27,1.71,1.71,0,0,1-.68-.73,3.48,3.48,0,0,1-.23-1.53V63.71h1.12V67a2.18,2.18,0,0,0,.26,1.25,1,1,0,0,0,.9.36,1.64,1.64,0,0,0,1.37-.79V63.71H136V69.4Z"/><path class="cls-3" d="M137.45,69V67.78a4.83,4.83,0,0,0,1,.54,2.36,2.36,0,0,0,.83.21,1,1,0,0,0,.61-.18.47.47,0,0,0,.25-.41.53.53,0,0,0-.16-.41,4.22,4.22,0,0,0-.71-.48,4.87,4.87,0,0,1-1.42-1,1.47,1.47,0,0,1-.34-.94A1.32,1.32,0,0,1,138,64a2,2,0,0,1,1.31-.41,3.58,3.58,0,0,1,1.72.47v1.11a3.49,3.49,0,0,0-1.64-.61.9.9,0,0,0-.53.14.43.43,0,0,0-.2.37.55.55,0,0,0,.18.38,3.12,3.12,0,0,0,.64.43l.4.23c1,.54,1.43,1.13,1.43,1.78a1.44,1.44,0,0,1-.55,1.15,2.16,2.16,0,0,1-1.41.45,3.41,3.41,0,0,1-.9-.11,6.14,6.14,0,0,1-1-.4"/><path class="cls-3" d="M143.35,61.31a.71.71,0,0,1,.48.19.65.65,0,0,1,0,.94.62.62,0,0,1-.48.2.67.67,0,0,1-.65-.67.67.67,0,0,1,.65-.66m-.56,2.4h1.13V69.4h-1.13Z"/><path class="cls-3" d="M150,68.07v1.11a4.71,4.71,0,0,1-1.66.32,2.93,2.93,0,0,1-2.13-.79,2.89,2.89,0,0,1-.79-2.13,3,3,0,0,1,.77-2.16,2.65,2.65,0,0,1,2-.82,3,3,0,0,1,.79.08,5.29,5.29,0,0,1,.87.31v1.2a3,3,0,0,0-1.59-.54,1.65,1.65,0,0,0-1.25.53,2,2,0,0,0-.49,1.37,1.87,1.87,0,0,0,.53,1.38,2,2,0,0,0,1.43.52,3.69,3.69,0,0,0,1.49-.38"/><path class="cls-3" d="M163.81,81.39H19.3V19.26H163.81Zm1-63.1H18.33V82.36H164.78Z"/></g></g></g></g></g></svg>