<?xml version="1.0" encoding="UTF-8"?><svg xmlns="http://www.w3.org/2000/svg" viewBox="0 0 226.77 99.21"><defs><style>.d{fill:#272425;}</style></defs><g id="a"/><g id="b"><g id="c"><g><g><path class="d" d="M34.92,21.83h4.25l18.95,42.5h-6.19l-5.63-12.52H28.27l-5.28,12.52h-6.22L34.92,21.83Zm8.89,24.59l-6.82-15.31-6.32,15.31h13.14Z"/><path class="d" d="M95.43,22.07h5.66v42.26h-6.08V31.45l-12.99,16.34h-1.12l-13.14-16.34v32.88h-6.05V22.07h5.73l14.04,17.36,13.96-17.36Z"/><path class="d" d="M122.64,64.33h-14.31V22.07h11.07c3.49,0,6.21,.47,8.17,1.41s3.45,2.23,4.48,3.87c1.03,1.64,1.54,3.54,1.54,5.7,0,4.15-2.15,7.13-6.44,8.92,3.09,.59,5.54,1.86,7.37,3.81,1.83,1.96,2.74,4.3,2.74,7.02,0,2.16-.55,4.08-1.66,5.78s-2.74,3.08-4.89,4.14-4.84,1.6-8.06,1.6Zm-3.05-36.88h-5.2v12.71h4.02c3.23,0,5.52-.62,6.88-1.85,1.36-1.23,2.04-2.82,2.04-4.78,0-4.05-2.58-6.08-7.74-6.08Zm.45,18.09h-5.66v13.4h5.96c3.31,0,5.55-.26,6.73-.77s2.13-1.32,2.84-2.4,1.07-2.26,1.07-3.51-.38-2.47-1.13-3.54c-.76-1.07-1.83-1.86-3.22-2.39-1.39-.52-3.59-.79-6.59-.79Z"/><path class="d" d="M142.9,22.07h23.96v5.38h-17.91v12.89h17.3v5.41h-17.3v13.13h18.48v5.38h-24.53V22.07Z"/><path class="d" d="M175.3,64.33V22.07h10.59c4.28,0,7.67,1.06,10.18,3.18s3.77,4.98,3.77,8.59c0,2.46-.62,4.59-1.85,6.38-1.23,1.8-2.65,3.13-4.94,4.38l10.7,19.73h-7.2l-9.4-18.39s-2.25,0-4.23,0h-1.58v18.39h-6.05Zm7.87-37.12h-1.82v13.34h2.3c3.07,0,5.17-.26,6.31-.79,1.14-.52,2.03-1.32,2.66-2.37s.95-2.26,.95-3.61-.35-2.54-1.06-3.61c-.71-1.08-1.7-1.84-2.98-2.28-1.28-.44-3.4-.67-6.37-.67Z"/></g><g><path class="d" d="M102.4,72.74v6.4h-1.75v-4.9c0-.98-.13-1.66-.39-2.04-.26-.39-.72-.58-1.37-.58-.36,0-.7,.08-1,.25-.3,.17-.65,.46-1.04,.88v6.4h-1.74v-8.81h1.74v1.16c.89-.89,1.76-1.33,2.61-1.33,1.12,0,1.98,.53,2.6,1.59,.93-1.07,1.91-1.61,2.92-1.61,.86,0,1.56,.31,2.11,.94,.55,.63,.83,1.58,.83,2.86v5.2h-1.74v-5.22c0-.73-.15-1.3-.45-1.69-.3-.39-.73-.58-1.29-.58-.72,0-1.4,.36-2.02,1.09Z"/><path class="d" d="M114.78,70.31c1.34,0,2.46,.43,3.34,1.3,.89,.87,1.33,1.95,1.33,3.26s-.45,2.33-1.35,3.17-2.03,1.26-3.4,1.26-2.43-.43-3.31-1.28c-.89-.85-1.33-1.92-1.33-3.19s.45-2.36,1.35-3.22c.9-.86,2.02-1.29,3.38-1.29Zm-.1,1.57c-.84,0-1.52,.27-2.06,.82s-.8,1.25-.8,2.1,.27,1.53,.82,2.07c.55,.53,1.25,.8,2.12,.8s1.56-.27,2.1-.81c.55-.54,.82-1.23,.82-2.07s-.28-1.53-.85-2.08c-.57-.55-1.28-.82-2.15-.82Z"/><path class="d" d="M127.04,70.33h1.89l-3.89,8.97h-.59l-3.99-8.97h1.91l2.38,5.42,2.29-5.42Z"/><path class="d" d="M131.39,66.62c.29,0,.53,.1,.74,.3s.31,.44,.31,.73-.1,.52-.31,.73-.45,.31-.74,.31c-.27,0-.51-.1-.71-.31-.2-.21-.31-.45-.31-.72s.1-.51,.31-.71c.2-.21,.44-.31,.71-.31Zm-.86,3.71h1.74v8.81h-1.74v-8.81Z"/><path class="d" d="M136.79,70.33v1.12c.78-.86,1.66-1.29,2.65-1.29,.55,0,1.06,.14,1.53,.43s.83,.67,1.08,1.17,.37,1.28,.37,2.35v5.04h-1.74v-5.02c0-.9-.14-1.54-.41-1.93s-.73-.58-1.38-.58c-.82,0-1.52,.41-2.1,1.24v6.29h-1.78v-8.81h1.78Z"/><path class="d" d="M144.66,73.38c0-.94,.34-1.68,1.03-2.23,.69-.55,1.62-.82,2.81-.82h3.63v1.36h-1.78c.34,.35,.58,.67,.72,.96s.2,.62,.2,.99c0,.46-.13,.91-.39,1.36-.26,.44-.6,.78-1.01,1.02-.41,.24-1.09,.42-2.03,.56-.66,.1-.99,.32-.99,.68,0,.2,.12,.37,.37,.5,.25,.13,.69,.27,1.34,.41,1.08,.24,1.77,.42,2.08,.56s.59,.33,.84,.57c.42,.42,.63,.95,.63,1.59,0,.84-.37,1.5-1.12,2-.74,.5-1.74,.75-2.98,.75s-2.26-.25-3.01-.75c-.75-.5-1.13-1.17-1.13-2.02,0-1.19,.74-1.96,2.21-2.31-.59-.38-.88-.75-.88-1.12,0-.28,.13-.54,.38-.77s.59-.4,1.02-.51c-1.3-.57-1.95-1.5-1.95-2.79Zm2.86,6.18c-.59,0-1.07,.13-1.44,.37-.37,.25-.56,.57-.56,.96,0,.91,.82,1.36,2.45,1.36,.77,0,1.37-.11,1.8-.34,.43-.23,.64-.55,.64-.96s-.27-.74-.8-1c-.54-.26-1.23-.39-2.08-.39Zm.41-7.71c-.47,0-.88,.16-1.21,.48s-.5,.7-.5,1.15,.16,.83,.49,1.13c.33,.3,.74,.45,1.24,.45s.9-.15,1.23-.45,.49-.68,.49-1.14-.17-.84-.5-1.15-.75-.46-1.25-.46Z"/><path class="d" d="M166.66,72.74v6.4h-1.75v-4.9c0-.98-.13-1.66-.39-2.04s-.72-.58-1.37-.58c-.36,0-.7,.08-1,.25s-.65,.46-1.04,.88v6.4h-1.74v-8.81h1.74v1.16c.89-.89,1.76-1.33,2.61-1.33,1.12,0,1.98,.53,2.6,1.59,.93-1.07,1.91-1.61,2.92-1.61,.86,0,1.56,.31,2.11,.94s.83,1.58,.83,2.86v5.2h-1.74v-5.22c0-.73-.15-1.3-.45-1.69-.3-.39-.73-.58-1.29-.58-.72,0-1.4,.36-2.02,1.09Z"/><path class="d" d="M180.44,79.14v-1.13c-.37,.41-.79,.72-1.27,.95s-.95,.34-1.42,.34c-.56,0-1.07-.14-1.54-.42-.47-.28-.82-.65-1.06-1.13-.24-.48-.36-1.27-.36-2.37v-5.05h1.74v5.02c0,.92,.13,1.57,.4,1.94,.27,.37,.73,.55,1.39,.55,.83,0,1.54-.41,2.12-1.22v-6.29h1.74v8.81h-1.74Z"/><path class="d" d="M184.46,78.51v-1.88c.49,.34,1,.62,1.51,.84,.51,.21,.95,.32,1.3,.32s.68-.09,.94-.27c.26-.18,.39-.39,.39-.64s-.08-.47-.25-.64-.53-.41-1.1-.73c-1.12-.63-1.86-1.16-2.21-1.61-.35-.44-.52-.93-.52-1.45,0-.68,.26-1.23,.79-1.66,.53-.43,1.2-.64,2.04-.64s1.75,.24,2.65,.73v1.72c-1.03-.63-1.88-.94-2.54-.94-.34,0-.61,.07-.82,.22-.21,.14-.31,.33-.31,.57,0,.2,.09,.4,.28,.58,.19,.19,.52,.41,.99,.67l.62,.35c1.47,.83,2.2,1.75,2.2,2.76,0,.72-.28,1.31-.85,1.78-.57,.46-1.29,.69-2.18,.69-.52,0-.99-.06-1.4-.17-.41-.11-.92-.32-1.54-.62Z"/><path class="d" d="M193.59,66.62c.29,0,.53,.1,.74,.3,.2,.2,.31,.44,.31,.73s-.1,.52-.31,.73c-.2,.2-.45,.31-.74,.31-.27,0-.51-.1-.71-.31-.2-.21-.31-.45-.31-.72s.1-.51,.31-.71c.2-.21,.44-.31,.71-.31Zm-.86,3.71h1.74v8.81h-1.74v-8.81Z"/><path class="d" d="M203.86,77.08v1.72c-.87,.32-1.73,.49-2.57,.49-1.38,0-2.48-.41-3.3-1.23-.82-.82-1.23-1.91-1.23-3.29s.4-2.5,1.2-3.35c.8-.85,1.85-1.27,3.15-1.27,.45,0,.86,.04,1.22,.13,.36,.09,.81,.25,1.34,.48v1.86c-.88-.56-1.7-.84-2.45-.84s-1.43,.28-1.93,.83c-.51,.55-.76,1.26-.76,2.11,0,.9,.27,1.62,.82,2.15,.55,.53,1.28,.8,2.21,.8,.67,0,1.44-.19,2.31-.58Z"/></g><path class="d" d="M225.27,1.5V97.71H1.5V1.5H225.27m1.5-1.5H0V99.21H226.77V0h0Z"/></g></g></g></svg>