<?xml version="1.0" encoding="UTF-8"?><svg xmlns="http://www.w3.org/2000/svg" viewBox="0 0 37.78 41.92"><defs><style>.d{fill:#0a1348;}</style></defs><g id="a"/><g id="b"><g id="c"><g><path class="d" d="M33.32,32.44c-.44-3.53-3.96-6.45-8.7-7.52,1.61-1.53,2.62-3.67,2.62-6.07,0-4.63-3.76-8.39-8.39-8.39s-8.39,3.76-8.39,8.39c0,2.39,1.01,4.54,2.62,6.06-4.75,1.07-8.26,3.99-8.7,7.52h-.06v9.47h29.07v-9.47h-.06Z"/><g><path class="d" d="M31.57,18.71c0-4.2,3.13-6.02,3.26-6.09,.39-.22,.53-.71,.32-1.11-.22-.4-.71-.54-1.11-.32-.17,.09-4.1,2.33-4.1,7.52,0,4.57,3.83,7.61,3.99,7.73,.15,.12,.33,.17,.5,.17,.24,0,.48-.11,.64-.31,.28-.36,.21-.87-.14-1.15-.03-.03-3.37-2.69-3.37-6.45Z"/><path class="d" d="M34.55,18.74c0-3.29,2.67-4.72,2.79-4.78,.4-.21,.56-.7,.35-1.1-.2-.4-.7-.56-1.1-.36-.15,.08-3.68,1.92-3.68,6.23,0,3.79,3.42,6.29,3.57,6.4,.14,.1,.31,.15,.47,.15,.25,0,.5-.12,.66-.34,.26-.37,.18-.88-.19-1.14-.03-.02-2.89-2.13-2.89-5.07Z"/></g><g><path class="d" d="M18.7,7.85c4.57,0,7.61-3.83,7.73-3.99,.28-.36,.21-.87-.14-1.15-.35-.28-.87-.22-1.15,.14-.03,.03-2.69,3.37-6.45,3.37-4.2,0-6.02-3.13-6.09-3.26-.22-.39-.72-.53-1.11-.32-.39,.22-.54,.72-.32,1.11,.09,.17,2.33,4.1,7.52,4.1Z"/><path class="d" d="M18.73,4.86c3.79,0,6.29-3.43,6.4-3.57,.26-.37,.18-.88-.19-1.14-.36-.26-.87-.18-1.14,.18-.02,.03-2.13,2.89-5.07,2.89-3.28,0-4.71-2.66-4.78-2.79-.2-.4-.7-.56-1.1-.35-.4,.21-.56,.7-.36,1.1,.08,.15,1.92,3.68,6.23,3.68Z"/></g><g><path class="d" d="M7.85,18.71c0-5.19-3.93-7.43-4.1-7.52-.39-.22-.89-.08-1.11,.32-.22,.39-.08,.89,.31,1.11,.13,.08,3.26,1.89,3.26,6.09,0,3.76-3.33,6.42-3.37,6.45-.35,.28-.42,.79-.14,1.15,.16,.21,.4,.31,.64,.31,.18,0,.35-.06,.5-.17,.16-.13,3.99-3.16,3.99-7.73Z"/><path class="d" d="M1.19,12.51c-.4-.21-.89-.05-1.09,.35-.21,.4-.05,.89,.35,1.1,.11,.06,2.79,1.49,2.79,4.78,0,2.94-2.86,5.05-2.89,5.07-.37,.26-.45,.77-.19,1.14,.16,.22,.41,.34,.66,.34,.16,0,.33-.05,.47-.15,.15-.1,3.57-2.61,3.57-6.4,0-4.31-3.53-6.15-3.68-6.23Z"/></g></g></g></g></svg>