<?xml version="1.0" encoding="utf-8"?>
<!-- Generator: Adobe Illustrator 26.2.1, SVG Export Plug-In . SVG Version: 6.00 Build 0)  -->
<svg version="1.1" id="Calque_1" xmlns="http://www.w3.org/2000/svg" xmlns:xlink="http://www.w3.org/1999/xlink" x="0px" y="0px"
	 viewBox="0 0 375 416.1" style="enable-background:new 0 0 375 416.1;" xml:space="preserve">
<style type="text/css">
	.st0{fill:#0A1348;}
</style>
<g id="a">
</g>
<g id="b">
	<g id="c">
		<g>
			<path class="st0" d="M330.7,322.2c-4.4-35-39.3-64-86.4-74.7c16-15.2,26-36.4,26-60.3c0-46-37.3-83.3-83.3-83.3
				s-83.3,37.3-83.3,83.3c0,23.7,10,45.1,26,60.2c-47.2,10.6-82,39.6-86.4,74.7h-0.6v94h288.6v-94L330.7,322.2L330.7,322.2z"/>
			<g>
				<path class="st0" d="M313.3,185.9c0-41.7,31.1-59.8,32.4-60.5c3.9-2.2,5.3-7,3.2-11c-2.2-4-7-5.4-11-3.2
					c-1.7,0.9-40.7,23.1-40.7,74.7c0,45.4,38,75.5,39.6,76.7c1.5,1.2,3.3,1.7,5,1.7c2.4,0,4.8-1.1,6.4-3.1c2.8-3.6,2.1-8.6-1.4-11.4
					C346.4,249.5,313.2,223.1,313.3,185.9L313.3,185.9z"/>
				<path class="st0" d="M342.9,186.2c0-32.7,26.5-46.9,27.7-47.5c4-2.1,5.6-6.9,3.5-10.9c-2-4-6.9-5.6-10.9-3.6
					c-1.5,0.8-36.5,19.1-36.5,61.8c0,37.6,34,62.4,35.4,63.5c1.4,1,3.1,1.5,4.7,1.5c2.5,0,5-1.2,6.6-3.4c2.6-3.7,1.8-8.7-1.9-11.3
					c-0.3-0.2-28.7-21.1-28.7-50.3L342.9,186.2z"/>
			</g>
			<g>
				<path class="st0" d="M185.6,78c45.4,0,75.5-38,76.7-39.6c2.8-3.6,2.1-8.6-1.4-11.4c-3.5-2.8-8.6-2.2-11.4,1.4
					c-0.3,0.3-26.7,33.5-64,33.5c-41.7,0-59.8-31.1-60.5-32.4c-2.2-3.9-7.1-5.3-11-3.2c-3.9,2.2-5.4,7.1-3.2,11
					C111.7,39,133.9,78,185.6,78L185.6,78z"/>
				<path class="st0" d="M185.9,48.4c37.6,0,62.4-34.1,63.5-35.4c2.6-3.7,1.8-8.7-1.9-11.3c-3.6-2.6-8.6-1.8-11.3,1.8
					c-0.2,0.3-21.1,28.7-50.3,28.7c-32.6,0-46.8-26.4-47.5-27.7c-2-4-6.9-5.6-10.9-3.5s-5.6,6.9-3.6,10.9
					C124.7,13.3,143,48.4,185.9,48.4L185.9,48.4z"/>
			</g>
			<g>
				<path class="st0" d="M77.9,185.9c0-51.5-39-73.8-40.7-74.7c-3.9-2.2-8.8-0.8-11,3.2c-2.2,3.9-0.8,8.8,3.1,11
					c1.3,0.8,32.4,18.8,32.4,60.5c0,37.3-33.1,63.7-33.5,64c-3.5,2.8-4.2,7.8-1.4,11.4c1.6,2.1,4,3.1,6.4,3.1c1.8,0,3.5-0.6,5-1.7
					c1.6-1.3,39.6-31.4,39.6-76.7L77.9,185.9z"/>
				<path class="st0" d="M11.7,124.3c-4-2.1-8.8-0.5-10.8,3.5c-2.1,4-0.5,8.8,3.5,10.9c1.1,0.6,27.7,14.8,27.7,47.5
					c0,29.2-28.4,50.1-28.7,50.3c-3.7,2.6-4.5,7.6-1.9,11.3c1.6,2.2,4.1,3.4,6.6,3.4c1.6,0,3.3-0.5,4.7-1.5
					c1.5-1,35.4-25.9,35.4-63.5C48.2,143.4,13.1,125.1,11.7,124.3L11.7,124.3z"/>
			</g>
		</g>
	</g>
</g>
</svg>
