<?xml version="1.0" encoding="utf-8"?>
<!-- Generator: Adobe Illustrator 26.0.1, SVG Export Plug-In . SVG Version: 6.00 Build 0)  -->
<svg version="1.1" id="Calque_1" xmlns="http://www.w3.org/2000/svg" xmlns:xlink="http://www.w3.org/1999/xlink" x="0px" y="0px"
	 viewBox="0 0 375 666" style="enable-background:new 0 0 375 666;" xml:space="preserve">
<style type="text/css">
	.st0{fill:none;stroke:#000000;}
	.st1{fill:none;stroke:#000000;stroke-miterlimit:10;}
	.st2{fill:none;stroke:#000000;stroke-dasharray:3.989,3.989;}
	.st3{fill:none;stroke:#000000;stroke-dasharray:3.996,3.996;}
	.st4{fill:none;stroke:#000000;stroke-dasharray:3.998,3.998;}
	.st5{fill:none;stroke:#000000;stroke-width:0.501;}
</style>
<g id="background" transform="translate(59.651 -21.776) rotate(7)">
	<path id="Tracé_20" class="st0" d="M87,369.4c94.3,140.7,208.9,225.7,256,189.6s8.9-179.3-85.4-320S48.7,13.4,1.6,49.4
		S-7.3,228.7,87,369.4z"/>
	<path id="Tracé_21" d="M363.4,497.1c-1.2-9.1-9.1-15.5-17.6-14.3c8.6-1.3,14.5-9.7,13.4-18.8c1.2,9.1,9.1,15.5,17.6,14.3
		C368.2,479.5,362.2,488,363.4,497.1"/>
	<path id="Tracé_22" class="st1" d="M363.4,497.1c-1.2-9.1-9.1-15.5-17.6-14.3c8.6-1.3,14.5-9.7,13.4-18.8
		c1.2,9.1,9.1,15.5,17.6,14.3C368.2,479.5,362.2,488,363.4,497.1z"/>
	<line id="Ligne_1" class="st2" x1="359.3" y1="69.8" x2="50.1" y2="637.1"/>
	<path id="Tracé_23" class="st3" d="M44.2,45.1C-29,75.9,0.9,428.1,10.8,473"/>
	<path id="Tracé_24" class="st4" d="M12.8,479.8c11.5,36.5,55.5,161,98.3,176.2"/>
	<path id="Tracé_25" class="st0" d="M112.4,656.4c0.4,0.1,0.9,0.2,1.3,0.4 M11.2,474.4c0.1,0.5,0.3,1,0.4,1.4
		c0.1,0.4,0.3,0.9,0.4,1.4 M48,43.8c-0.4,0.1-0.9,0.2-1.3,0.4"/>
	<path id="Tracé_26" class="st5" d="M1.7,472.3c0.7,5.3,5.3,9,10.2,8.3s8.4-5.6,7.7-10.9s-5.3-9-10.2-8.3S1,467,1.7,472.3z"/>
	<path id="Tracé_27" class="st5" d="M3.3,472.1c0.4,4.1,4,7.2,8.2,6.8c0.1,0,0.1,0,0.2,0c4.2-0.8,7-4.7,6.3-8.9
		c-0.4-4.1-4-7.2-8.2-6.8c-0.1,0-0.1,0-0.2,0C5.5,463.9,2.7,467.9,3.3,472.1z"/>
</g>
</svg>
