<?xml version="1.0" encoding="utf-8"?>
<!-- Generator: Adobe Illustrator 26.3.1, SVG Export Plug-In . SVG Version: 6.00 Build 0)  -->
<svg version="1.1" id="Calque_1" xmlns="http://www.w3.org/2000/svg" xmlns:xlink="http://www.w3.org/1999/xlink" x="0px" y="0px"
	 viewBox="0 0 50 50" style="enable-background:new 0 0 50 50;" xml:space="preserve">
<style type="text/css">
	.st0{fill:#FFFFFF;}
</style>
<g id="eWla3c.tif">
	<g>
		<g>
			<path class="st0" d="M19.6,26.4c0-3.4,0-6.8,0-10.2c0-0.6,0.2-0.8,0.8-0.8c1.7,0,1.7,0,1.7-1.7c0-1.1,0-1.1,1.1-1.1
				c1.2,0,2.4,0,3.6,0c0.5,0,0.7,0.2,0.6,0.7c0,0,0,0.1,0,0.2c0,0.6-0.2,1.4,0.2,1.8c0.3,0.3,1.1,0.1,1.7,0.2c0.2,0,0.5,0.3,0.5,0.5
				c0.1,0.6,0,1.3,0,1.9c0,6.2,0,12.4,0,18.6c0,1,0,1-1,1c-2.8,0-5.5,0-8.3,0c-0.7,0-0.9-0.2-0.9-0.9C19.7,33.2,19.7,29.8,19.6,26.4
				C19.7,26.4,19.7,26.4,19.6,26.4z M28.2,26.5c0-2.8,0-5.7,0-8.5c0-0.6-0.2-0.8-0.8-0.8c-1.8,0-3.6,0-5.4,0c-0.5,0-0.7,0.1-0.7,0.6
				c0,5.8,0,11.5,0,17.3c0,0.5,0.2,0.7,0.7,0.6c1.8,0,3.6,0,5.4,0c0.7,0,0.8-0.2,0.8-0.9C28.2,32.1,28.2,29.3,28.2,26.5z"/>
			<path class="st0" d="M26.6,24.2c-1.2-0.9-2.4-1.7-3.6-2.5c-0.1-0.1-0.2-0.4-0.3-0.6c0-0.6,0-1.3,0-1.9c0-0.5,0.2-0.6,0.6-0.6
				c0.9,0,1.9,0,2.8,0c0.2,0,0.5,0.3,0.5,0.5c0,1.6,0,3.2,0,4.8C26.8,23.9,26.7,24,26.6,24.2z"/>
			<path class="st0" d="M26.8,30c-1.4-1-2.6-1.8-3.8-2.7c-0.1-0.1-0.2-0.3-0.2-0.4c0-1.3,0-2.5,0-4c0.9,0.6,1.6,1.1,2.3,1.6
				c1.7,1.1,1.7,1.1,1.7,3.1C26.8,28.4,26.8,29.1,26.8,30z"/>
			<path class="st0" d="M22.8,28.6c1.4,1,2.6,1.8,3.8,2.7c0.2,0.1,0.2,0.6,0.2,0.9c0,2.1,0,2.1-2,2.1c-2,0-2,0-2-2
				C22.8,31.1,22.8,30,22.8,28.6z"/>
		</g>
	</g>
</g>
</svg>
