<?xml version="1.0" encoding="utf-8"?>
<!-- Generator: Adobe Illustrator 26.3.1, SVG Export Plug-In . SVG Version: 6.00 Build 0)  -->
<svg version="1.1" id="Calque_2_00000029017895411348874210000005381720724398934961_"
	 xmlns="http://www.w3.org/2000/svg" xmlns:xlink="http://www.w3.org/1999/xlink" x="0px" y="0px" viewBox="0 0 373.5 283.5"
	 style="enable-background:new 0 0 373.5 283.5;" xml:space="preserve">
<style type="text/css">
	.st0{fill:#E8A5AE;}
	.st1{fill:#FFFFFF;}
	.st2{font-family:'Jassin';}
	.st3{font-size:200px;}
	.st4{letter-spacing:-4;}
	.st5{clip-path:url(#SVGID_00000165225108174853667430000005591137183878454168_);}
	.st6{clip-path:url(#SVGID_00000039091937022303293080000010598296319393474482_);}
	.st7{clip-path:url(#SVGID_00000036226890123462115210000018365641502763271851_);}
</style>
<g>
	<rect y="0" class="st0" width="373.3" height="258.2"/>
	<text transform="matrix(1 0 0 1 54.792 187.2045)" class="st1 st2 st3 st4">5</text>
	<text transform="matrix(1 0 0 1 158.192 187.2045)" class="st1 st2 st3">0’</text>
	
		<image style="overflow:visible;enable-background:new    ;" width="418" height="1017" xlink:href="DC9E6130048448FE.png"  transform="matrix(0.2398 0 0 0.2398 273.1187 35.51)">
	</image>
	<g>
		<defs>
			<path id="SVGID_1_" d="M124.8,233.4c0,0,4.2-15.6,20.6-15.4c0,0,15.4-0.8,20.8,16.2c0,0,4.4-16.4,20.8-16.2
				c16.3,0.3,20.4,13.4,20.9,16.2c0,0,3.8-15.8,21-16.2c0,0,14.9-0.5,20.2,14.2v26.8H124.8V233.4z"/>
		</defs>
		<clipPath id="SVGID_00000091723088592250999740000003585332787404027064_">
			<use xlink:href="#SVGID_1_"  style="overflow:visible;"/>
		</clipPath>
		<g style="clip-path:url(#SVGID_00000091723088592250999740000003585332787404027064_);">
			<g id="YhZiwf">
				<g id="YhZiwf-2" transform="translate(124.77 134.98) scale(.22)">
					
						<image style="overflow:visible;enable-background:new    ;" width="565" height="563" id="image" xlink:href="DC9E613004844902.png"  transform="matrix(0.2196 0 0 0.2196 124.7704 134.98)">
					</image>
				</g>
			</g>
		</g>
	</g>
	<g>
		<defs>
			<path id="SVGID_00000027606215833266786520000002638701175125727423_" d="M0.4,233.4c0,0,4.2-15.6,20.6-15.4
				c0,0,15.4-0.8,20.8,16.2c0,0,4.5-16.4,20.8-16.2c16.3,0.3,20.4,13.4,20.9,16.2c0,0,3.8-15.8,21-16.2c0,0,14.9-0.5,20.2,14.2v26.8
				H0.4V233.4z"/>
		</defs>
		<clipPath id="SVGID_00000140695100790366313240000009526737751203165062_">
			<use xlink:href="#SVGID_00000027606215833266786520000002638701175125727423_"  style="overflow:visible;"/>
		</clipPath>
		<g style="clip-path:url(#SVGID_00000140695100790366313240000009526737751203165062_);">
			<g id="YhZiwf-3">
				<g id="YhZiwf-4" transform="translate(.45 134.98) scale(.22)">
					
						<image style="overflow:visible;enable-background:new    ;" width="565" height="563" id="image_00000086681776000159407340000002772357099145525125_" xlink:href="DC9E613004844905.png"  transform="matrix(0.2196 0 0 0.2196 0.4504 134.98)">
					</image>
				</g>
			</g>
		</g>
	</g>
	<g>
		<defs>
			<path id="SVGID_00000096058468509251824510000011223750171258022050_" d="M249.1,233.4c0,0,4.2-15.6,20.6-15.4
				c0,0,15.4-0.8,20.8,16.2c0,0,4.5-16.4,20.8-16.2c16.3,0.3,20.4,13.4,20.9,16.2c0,0,3.8-15.8,21-16.2c0,0,14.9-0.5,20.2,14.2v26.8
				H249.1L249.1,233.4L249.1,233.4z"/>
		</defs>
		<clipPath id="SVGID_00000021115645776382518780000016682724121483210380_">
			<use xlink:href="#SVGID_00000096058468509251824510000011223750171258022050_"  style="overflow:visible;"/>
		</clipPath>
		<g style="clip-path:url(#SVGID_00000021115645776382518780000016682724121483210380_);">
			<g id="YhZiwf-5">
				<g id="YhZiwf-6" transform="translate(249.11 134.98) scale(.22)">
					
						<image style="overflow:visible;enable-background:new    ;" width="565" height="563" id="image_00000130610110148205926320000007423093906303834034_" xlink:href="DC9E613004844906.png"  transform="matrix(0.2196 0 0 0.2196 249.1104 134.98)">
					</image>
				</g>
			</g>
		</g>
	</g>
</g>
</svg>
