<?xml version="1.0" encoding="utf-8"?>
<!-- Generator: Adobe Illustrator 26.3.1, SVG Export Plug-In . SVG Version: 6.00 Build 0)  -->
<svg version="1.1" id="Calque_1" xmlns="http://www.w3.org/2000/svg" xmlns:xlink="http://www.w3.org/1999/xlink" x="0px" y="0px"
	 viewBox="0 0 163 163" style="enable-background:new 0 0 163 163;" xml:space="preserve">
<style type="text/css">
	.st0{fill:#89AF96;}
	.st1{fill:none;}
	.st2{fill:#FFFFFF;}
	.st3{font-family:'AlbaMatter';}
	.st4{font-size:47.3292px;}
</style>
<g>
	<path class="st0" d="M91.7,3.7c2.9,0,5.7,0,8.6,0c4.4,2.5,8,5.8,10.6,10c2.3,3.7,4,7.6,4.2,12c0,0.6,0.2,1.3,0.2,1.9
		c0.2,3.1,0.5,6.2,0.4,9.3c0,1.9-0.6,3.7-1,5.9c3.2-0.6,5.8-1.7,8.4-1.5c4,0.3,8.1,1,11.9,2.4c6.1,2.3,11,6.1,15,11.3
		c3.9,5,6.9,10.3,9,16c1.2,3.2,2,6.5,2.8,9.9c0.2,1,0.1,2.2-0.1,3.2c-0.8,4.6-4.1,7.5-8,9.6c-3,1.6-6.4,2.3-9.9,3.6
		c0.5,0.5,1,1.1,1.6,1.6c3.2,2.8,6.4,5.6,9.6,8.5c0.8,0.7,1.5,1.4,2,2.3c2.6,4.9,0.5,10.6-3.5,13.8c-5.3,4.2-11.7,5.8-18.2,5.8
		c-5.5,0.1-11-1.4-16.8-2.2c0-0.1-0.3,0.3-0.3,0.7c0.3,2.1,0.1,4.5,1.1,6.2c1.6,3.1,0.1,5.9-0.5,8.5c-1.4,5.7-5.3,10-10.8,12.9
		c-4.9,2.6-10.1,3.1-15.6,3c-3.5-0.1-6.6-1.1-9.5-2.6c-5.9-3.1-10.7-7.2-13.9-13c-3-5.3-5.1-10.8-5.3-16.8c0-0.6-0.1-1.2-0.3-2.1
		c-2.7,1.7-4.9,3.3-7.4,4.6c-5.5,2.9-11.2,5.2-17.4,6.1c-3.2,0.5-6.3,1.5-9.5,1.6c-6.5,0.2-12.9-0.9-18.5-4.3
		c-4-2.4-8.2-4.9-8.1-10.4c0-0.2-0.5-0.3-0.8-0.5c0-2.5,0-4.9,0-7.4c0.3-0.2,0.8-0.4,0.9-0.7c0.4-1.3,0.6-2.6,0.9-3.9
		c1.2-3.8,3.2-7.2,5.7-10.3c0.7-0.9,1-2.1,1.7-2.9c2.9-3.2,5.9-6.3,8.9-9.4c0.2-0.3,0.4-0.6,0.6-0.9c-2.9-0.7-7.5-3-9.6-5.2
		c-1.9-1.9-4-3.9-5.3-6.2C3.6,71,2,67.5,2.4,63.7c0-0.4-0.6-0.9-0.9-1.3c0-2,0-4.1,0-6.1c0.3-0.3,0.9-0.6,0.9-0.9
		c-0.3-2.8,0.8-5.2,2.1-7.5c2.6-4.8,5.8-9.1,11.4-11.1c1.2-0.4,2.4-0.7,3.7-0.8c2.2-0.1,4.4-0.2,6.5,0c2.3,0.2,4.5,0.8,6.9,1.3
		c-0.9-2.5-2-4.7-2.6-7.1c-1-3.7-2-7.4-2.6-11.1c-0.2-1.3,0.8-2.7,0.9-4.1c0.4-3.7,2.4-6.3,5.7-7.7c3.8-1.7,7.4-3.2,12.1-1.9
		c3.4,0.9,6.7,2,9.7,3.7c6,3.4,10.7,8.2,14.6,13.8c1.1,1.6,2.5,3.1,3.6,4.4c0.8-2,1.6-4,2.3-6c2.2-6.1,5.8-11.1,11.1-15
		C88.9,5.3,90.3,4.5,91.7,3.7z"/>
</g>
<rect x="32.2" y="66.4" class="st1" width="109.3" height="82.1"/>
<text transform="matrix(1 0 0 1 41.6572 100.691)" class="st2 st3 st4">70’s</text>
</svg>
