<?xml version="1.0" encoding="utf-8"?>
<!-- Generator: Adobe Illustrator 26.3.1, SVG Export Plug-In . SVG Version: 6.00 Build 0)  -->
<svg version="1.1" id="Calque_1" xmlns="http://www.w3.org/2000/svg" xmlns:xlink="http://www.w3.org/1999/xlink" x="0px" y="0px"
	 viewBox="0 0 74 74" style="enable-background:new 0 0 74 74;" xml:space="preserve">
<style type="text/css">
	.st0{fill:#89AF96;}
	.st1{fill:#FFFFFF;stroke:#FFFFFF;stroke-width:2.5;stroke-miterlimit:10;}
</style>
<g>
	<path class="st0" d="M41.5,1.5c1.3,0,2.6,0,3.9,0c2,1.1,3.6,2.6,4.8,4.5c1,1.7,1.8,3.5,1.9,5.5c0,0.3,0.1,0.6,0.1,0.9
		c0.1,1.4,0.2,2.8,0.2,4.2c0,0.9-0.3,1.7-0.4,2.7c1.4-0.3,2.6-0.8,3.8-0.7c1.8,0.1,3.7,0.5,5.4,1.1c2.7,1,5,2.8,6.8,5.1
		c1.8,2.3,3.1,4.7,4.1,7.3c0.6,1.4,0.9,3,1.3,4.5c0.1,0.5,0,1,0,1.5c-0.4,2.1-1.9,3.4-3.6,4.4c-1.3,0.7-2.9,1.1-4.5,1.6
		c0.2,0.2,0.5,0.5,0.7,0.7c1.5,1.3,2.9,2.5,4.4,3.8c0.3,0.3,0.7,0.7,0.9,1.1c1.2,2.2,0.2,4.8-1.6,6.2c-2.4,1.9-5.3,2.6-8.3,2.7
		c-2.5,0-5-0.6-7.6-1c0,0-0.1,0.2-0.1,0.3c0.1,1,0.1,2,0.5,2.8c0.7,1.4,0,2.7-0.2,3.9c-0.6,2.6-2.4,4.5-4.9,5.8
		c-2.2,1.2-4.6,1.4-7.1,1.3c-1.6,0-3-0.5-4.3-1.2c-2.7-1.4-4.9-3.3-6.3-5.9c-1.3-2.4-2.3-4.9-2.4-7.6c0-0.3-0.1-0.6-0.1-1
		c-1.2,0.8-2.2,1.5-3.4,2.1c-2.5,1.3-5.1,2.4-7.9,2.8c-1.4,0.2-2.9,0.7-4.3,0.7c-3,0.1-5.9-0.4-8.4-2c-1.8-1.1-3.7-2.2-3.7-4.7
		c0-0.1-0.2-0.1-0.4-0.2c0-1.1,0-2.2,0-3.4C0.7,51.3,1,51.2,1,51.1c0.2-0.6,0.3-1.2,0.4-1.7C2,47.6,2.9,46,4,44.6
		c0.3-0.4,0.4-1,0.8-1.3c1.3-1.4,2.7-2.8,4-4.3c0.1-0.1,0.2-0.3,0.3-0.4c-1.3-0.3-3.4-1.4-4.4-2.4c-0.9-0.9-1.8-1.8-2.4-2.8
		c-0.8-1.5-1.5-3-1.3-4.8c0-0.2-0.3-0.4-0.4-0.6c0-0.9,0-1.8,0-2.8C0.7,25.2,1,25,1,24.9c-0.1-1.3,0.4-2.3,0.9-3.4
		c1.2-2.2,2.6-4.1,5.2-5c0.5-0.2,1.1-0.3,1.7-0.3c1-0.1,2-0.1,3,0c1,0.1,2,0.4,3.1,0.6c-0.4-1.1-0.9-2.1-1.2-3.2
		c-0.5-1.7-0.9-3.3-1.2-5c-0.1-0.6,0.3-1.2,0.4-1.9c0.2-1.7,1.1-2.9,2.6-3.5c1.7-0.8,3.4-1.5,5.5-0.9c1.6,0.4,3,0.9,4.4,1.7
		c2.7,1.6,4.9,3.7,6.6,6.3c0.5,0.7,1.1,1.4,1.6,2c0.3-0.9,0.7-1.8,1-2.7c1-2.8,2.6-5.1,5.1-6.8C40.2,2.2,40.9,1.8,41.5,1.5z"/>
</g>
<g id="AaANOe.tif_00000046333053424574820330000017490418774479139980_">
	<g>
		<path class="st1" d="M36.1,49.8c-4,0-7.9,0-11.9,0c-0.3,0-0.5-0.2-0.5-0.6c0.1-0.8,0.1-1.6,0.2-2.4c0.1-0.9,0.1-1.7,0.2-2.6
			c0.1-1.2,0.2-2.3,0.3-3.5c0.1-1.1,0.2-2.2,0.3-3.3c0.1-0.9,0.2-1.8,0.2-2.8c0.1-1,0.2-2,0.3-3.1c0.1-1,0.2-2,0.3-2.9
			c0-0.3,0.1-0.6,0.1-0.9c0-0.2,0.2-0.4,0.4-0.4c0,0,0.1,0,0.1,0c1.6,0,3.1,0,4.7,0c0.2,0,0.2,0,0.2-0.2c0-1.2,0-2.5,0-3.7
			c0.1-2,1-3.4,2.7-4.4c0.8-0.5,1.7-0.6,2.6-0.6c1.5,0.1,2.7,0.7,3.7,1.8c0.7,0.8,1.1,1.8,1.2,2.9c0,0.1,0,0.3,0,0.4
			c0,1.2,0,2.5,0,3.7c0,0.1,0,0.1,0.1,0.1c1.6,0,3.2,0,4.7,0c0.3,0,0.5,0.1,0.5,0.5c0.1,1.1,0.2,2.3,0.3,3.4
			c0.1,0.9,0.1,1.7,0.2,2.6c0.1,1.1,0.2,2.3,0.3,3.4c0.1,0.8,0.1,1.6,0.2,2.4c0.1,1.1,0.2,2.1,0.3,3.2c0.1,0.9,0.2,1.9,0.2,2.8
			c0.1,1.2,0.2,2.4,0.3,3.6c0,0.3-0.2,0.5-0.4,0.5c-2.8,0-5.6,0-8.4,0C38.5,49.8,37.3,49.8,36.1,49.8z M47.6,48.9c0-0.1,0-0.1,0-0.1
			c0-0.5-0.1-0.9-0.1-1.4c-0.1-1.1-0.2-2.1-0.3-3.2c-0.1-1.1-0.2-2.2-0.3-3.3c-0.1-1.1-0.2-2.1-0.3-3.2c-0.1-1-0.2-2.1-0.3-3.1
			c-0.1-1.1-0.2-2.1-0.3-3.2c-0.1-1.1-0.2-2.1-0.3-3.2c0-0.1,0-0.1-0.1-0.1c-0.1,0-0.2,0-0.4,0c-6.3,0-12.6,0-18.9,0
			c-0.1,0-0.1,0-0.1,0.1c-0.1,0.8-0.1,1.5-0.2,2.3c-0.1,0.9-0.2,1.8-0.2,2.6c-0.1,1.5-0.3,2.9-0.4,4.4c-0.1,1.3-0.2,2.6-0.3,3.9
			c-0.1,1.2-0.2,2.5-0.3,3.7c-0.1,1.2-0.2,2.4-0.3,3.6c0,0.2,0,0.2,0.1,0.2c7.6,0,15.2,0,22.8,0C47.5,48.9,47.6,48.9,47.6,48.9z
			 M40.4,27.4c0-0.1,0-0.1,0-0.2c0-1.2,0-2.3,0-3.5c0-0.7-0.1-1.5-0.5-2.1c-0.8-1.5-2.1-2.3-3.8-2.3c-1.2,0-2.3,0.4-3.2,1.3
			c-0.8,0.8-1.2,1.8-1.2,2.9c0,1.2,0,2.5,0,3.7c0,0.1,0,0.1,0.1,0.1c2.8,0,5.6,0,8.3,0C40.3,27.4,40.4,27.4,40.4,27.4z"/>
	</g>
</g>
</svg>
