<?xml version="1.0" encoding="utf-8"?>
<!-- Generator: Adobe Illustrator 26.3.1, SVG Export Plug-In . SVG Version: 6.00 Build 0)  -->
<svg version="1.1" id="Calque_1" xmlns="http://www.w3.org/2000/svg" xmlns:xlink="http://www.w3.org/1999/xlink" x="0px" y="0px"
	 viewBox="0 0 74 74" style="enable-background:new 0 0 74 74;" xml:space="preserve">
<style type="text/css">
	.st0{fill:#A6C8AA;}
	.st1{fill:none;stroke:#FFFFFF;stroke-width:2.5;stroke-miterlimit:10;}
</style>
<g>
	<path class="st0" d="M22.5,43.2c0,0-1.3,0.8-2.4,2c-0.1,0.1-0.2,0.2-0.3,0.3c-0.1,0.1-0.3,0.3-0.4,0.5l0,0c-1,1.7-2.4,3.1-4,4.2
		c-2.8,1.9-5.3,4-8.3,5.8c-2,1.2-3.7,2.8-4.6,5.1c-0.8,1.9-0.3,4,1.1,5.5c2.7,2.9,6.3,3.9,10,4.6c2.3,0.4,4.7,0.5,7.1,0.5
		c1.9,0,3.8-0.8,5-2.3c2.2-2.6,3.6-5.6,4.6-8.7c0.9-2.7,1.7-5.4,2.3-8.1l0,0c1.1-1.3,2.6,0.5,2.6,0.5c0.4,1.9,0.9,3.8,1.5,5.7
		c1,3.2,1.9,6.5,3.9,9.3c1.6,2.3,3.9,3.6,6.8,3.6c2.9,0.1,5.9,0,8.7-0.8c3.2-0.8,6.2-1.8,8.6-4.3c2.2-2.2,2.3-5.7,1.2-8
		c-0.6-1.2-1.8-2.6-3-3.7c-1.2-1.1-2.2-2.3-3.1-3.6l0,0L59.9,51c-0.2-0.8-0.6-1.4-1.1-2.1c-0.2-0.3-0.4-0.6-0.5-0.9
		c-0.7-1.5,0.7-3.2,2.4-3c0.4,0.1,0.8,0.1,1.2,0.2c0.9,0.2,1.8,0.1,2.8-0.1l0.5-0.1c0.8-0.2,1.6-0.4,2.5-0.5
		c1.4-0.2,3.6-0.7,4.3-1.8c1.3-1.9,1.7-4.1,1.8-6.2c0.1-3.7,0.5-7.4-0.3-11.1c-0.3-1.4-0.8-2.7-1.7-3.8c-1.5-1.9-4.6-1.8-6.6-1.2
		c-2.3,0.7-4.1,2.2-5.8,3.9c-0.4,0.4-0.7,0.7-1.1,1.1c-2.4,2.5-5.8,3.8-9.2,3.5l0,0c-1.3-0.1-1.3-1.3-1.3-1.3c0.1-4,0.1-4.3,0.2-8.3
		c0-2.2,0.1-4.4,0.2-6.6c0-0.2,0.1-0.3,0.1-0.5c0.1-1.6,0.4-3.2,0.2-4.7c-0.1-1.1-0.8-2.2-1.5-3.1c-2-2.5-5.1-2.8-7.9-2.9
		c-4.1-0.2-8.2-0.5-12.3,0.5c-3.9,0.9-6,3.1-6.1,7c0,1.3,0.3,2.6,0.9,3.7c1.8,3.4,3.7,6.7,5.7,9.9c1,1.7-1.3,3-3.3,3.7
		c-1.3,0.5-4,0.6-4,0.6l-0.8-0.1l-0.6-0.4c-0.8-0.5-1.5-1.2-2.2-1.9c-0.1-0.1-0.2-0.2-0.3-0.2c-2.2-2.1-4.7-3.8-7.8-4.3
		c-2-0.3-3.9,0-5.4,1.5C1,23,0.5,25.1,0.4,27.3c-0.1,2.9-0.1,5.8,0,8.7c0.1,1.7,0.4,3.4,0.9,5c0.6,1.9,1.9,3.2,3.9,3.4
		c2.5,0.3,4.9-0.1,7.3-0.7c2.5-0.7,5.1-1.2,7.6-1.7c1.2-0.2,1.9,0,1.9,0S22.8,42.5,22.5,43.2z"/>
</g>
<g id="AaANOe.tif_00000046333053424574820330000017490418774479139980_">
	<g>
		<path class="st1" d="M47.6,48.9C47.6,48.8,47.6,48.8,47.6,48.9c0-0.6-0.1-1-0.1-1.5c-0.1-1.1-0.2-2.1-0.3-3.2
			c-0.1-1.1-0.2-2.2-0.3-3.3s-0.2-2.1-0.3-3.2c-0.1-1-0.2-2.1-0.3-3.1c-0.1-1.1-0.2-2.1-0.3-3.2c-0.1-1.1-0.2-2.1-0.3-3.2
			c0-0.1,0-0.1-0.1-0.1s-0.2,0-0.4,0c-6.3,0-12.6,0-18.9,0c-0.1,0-0.1,0-0.1,0.1c-0.1,0.8-0.1,1.5-0.2,2.3c-0.1,0.9-0.2,1.8-0.2,2.6
			c-0.1,1.5-0.3,2.9-0.4,4.4c-0.1,1.3-0.2,2.6-0.3,3.9c-0.1,1.2-0.2,2.5-0.3,3.7c-0.1,1.2-0.2,2.4-0.3,3.6c0,0.2,0,0.2,0.1,0.2
			c7.6,0,15.2,0,22.8,0C47.5,48.9,47.6,48.9,47.6,48.9z M40.4,27.4c0-0.1,0-0.1,0-0.2c0-1.2,0-2.3,0-3.5c0-0.7-0.1-1.5-0.5-2.1
			c-0.8-1.5-2.1-2.3-3.8-2.3c-1.2,0-2.3,0.4-3.2,1.3c-0.8,0.8-1.2,1.8-1.2,2.9c0,1.2,0,2.5,0,3.7c0,0.1,0,0.1,0.1,0.1
			c2.8,0,5.6,0,8.3,0C40.3,27.4,40.4,27.4,40.4,27.4z"/>
	</g>
</g>
</svg>
