<?xml version="1.0" encoding="utf-8"?>
<!-- Generator: Adobe Illustrator 26.3.1, SVG Export Plug-In . SVG Version: 6.00 Build 0)  -->
<svg version="1.1" id="Calque_1" xmlns="http://www.w3.org/2000/svg" xmlns:xlink="http://www.w3.org/1999/xlink" x="0px" y="0px"
	 viewBox="0 0 74 74" style="enable-background:new 0 0 74 74;" xml:space="preserve">
<style type="text/css">
	.st0{fill:#B87A94;}
	.st1{fill:#FFFFFF;stroke:#FFFFFF;stroke-width:2.5;stroke-miterlimit:10;}
</style>
<path class="st0" d="M20.4,4.3c1.1-0.1,2.3-0.4,3.3-0.1c2.7,0.8,5.3,2,7.1,4.4c0.8,0.9,1.7,1.8,2.4,2.7c0.8,1.1,1.4,2.3,2.2,3.5
	c0.2-1.1,0.3-2.2,0.7-3.3C37.6,6.1,42,4,46.6,2.1c4.1-1.7,7.5,0.7,10.6,2.5c2.7,1.5,3.9,6.1,3.3,9.8c-0.5,3.5-3.2,5-5.2,8
	c4.7-2.3,8.7-1.1,12,1c0.5,0.7,0.8,1.1,1,1.4c1,1.2,2.2,2.2,2.8,3.5c0.9,1.9,1.7,3.9,1.9,5.9c0.7,5.4-2.9,10.1-8.4,11.2
	c-1.4,0.3-2.8,0.2-4.1,0.3c2.5,3.9,4.4,8,4.7,12.7c0.2,4-2,8.5-6.6,9.3c-1.5,0.3-3.1,0.3-4.6,0.2c-4.1-0.3-6.2-3.6-8.6-6.3
	c-1.4-1.5-2.4-3.4-3.6-5.1c-0.2-0.3-0.5-0.4-0.8-0.6c-0.1,0.3-0.2,0.5-0.3,0.8c-0.7,2.8-1.5,5.4-3.7,7.6c-2.6,2.6-5.6,4.5-8.9,5.9
	c-1.9,0.8-4,1.7-6.2,0.4c-1-0.6-2.2-1-3.3-1.3c-2-0.6-3.4-1.7-4.1-3.6c-0.8-2.3-2-4.5-1.1-7c0.9-2.4,2.2-4.6,4.2-6.4
	c1.4-1.3,2.5-2.8,3.6-4c-0.9,0.3-2,0.8-3.2,1.1c-0.7,0.2-1.6,0-2.4,0c-5.8-0.5-10.4-3.2-13.6-8c-1.4-2.1-2.4-4.7-1-7.4
	c0.7-1.3,1.1-2.7,1.6-4c1.2-3.1,4.6-5.1,8-4.7c0.9,0.1,1.7,0,2.6,0c-2.2-2.2-2.4-5-2.5-8c-0.1-3.3,0.6-6.3,2.6-8.8
	c1.1-1.5,3.1-2.4,4.7-3.4C19,4.5,19.8,4.5,20.4,4.3C20.4,4.3,20.4,4.3,20.4,4.3C20.5,4.3,20.5,4.3,20.4,4.3
	C20.5,4.3,20.4,4.3,20.4,4.3z"/>
<g id="AaANOe.tif_00000046333053424574820330000017490418774479139980_">
	<g>
		<path class="st1" d="M37.8,50.4c-4,0-7.9,0-11.9,0c-0.3,0-0.5-0.2-0.5-0.6c0.1-0.8,0.1-1.6,0.2-2.4c0.1-0.9,0.1-1.7,0.2-2.6
			c0.1-1.2,0.2-2.3,0.3-3.5c0.1-1.1,0.2-2.2,0.3-3.3c0.1-0.9,0.2-1.8,0.2-2.8c0.1-1,0.2-2,0.3-3.1c0.1-1,0.2-2,0.3-2.9
			c0-0.3,0.1-0.6,0.1-0.9c0-0.2,0.2-0.4,0.4-0.4h0.1c1.6,0,3.1,0,4.7,0c0.2,0,0.2,0,0.2-0.2c0-1.2,0-2.5,0-3.7c0.1-2,1-3.4,2.7-4.4
			c0.8-0.5,1.7-0.6,2.6-0.6c1.5,0.1,2.7,0.7,3.7,1.8c0.7,0.8,1.1,1.8,1.2,2.9c0,0.1,0,0.3,0,0.4c0,1.2,0,2.5,0,3.7
			c0,0.1,0,0.1,0.1,0.1c1.6,0,3.2,0,4.7,0c0.3,0,0.5,0.1,0.5,0.5c0.1,1.1,0.2,2.3,0.3,3.4c0.1,0.9,0.1,1.7,0.2,2.6
			c0.1,1.1,0.2,2.3,0.3,3.4c0.1,0.8,0.1,1.6,0.2,2.4c0.1,1.1,0.2,2.1,0.3,3.2c0.1,0.9,0.2,1.9,0.2,2.8c0.1,1.2,0.2,2.4,0.3,3.6
			c0,0.3-0.2,0.5-0.4,0.5c-2.8,0-5.6,0-8.4,0C40.2,50.4,39,50.4,37.8,50.4z M49.3,49.5C49.3,49.4,49.3,49.4,49.3,49.5
			c0-0.6-0.1-1-0.1-1.5c-0.1-1.1-0.2-2.1-0.3-3.2c-0.1-1.1-0.2-2.2-0.3-3.3s-0.2-2.1-0.3-3.2c-0.1-1-0.2-2.1-0.3-3.1
			c-0.1-1.1-0.2-2.1-0.3-3.2c-0.1-1.1-0.2-2.1-0.3-3.2c0-0.1,0-0.1-0.1-0.1s-0.2,0-0.4,0c-6.3,0-12.6,0-18.9,0c-0.1,0-0.1,0-0.1,0.1
			c-0.1,0.8-0.1,1.5-0.2,2.3c-0.1,0.9-0.2,1.8-0.2,2.6c-0.1,1.5-0.3,2.9-0.4,4.4c-0.1,1.3-0.2,2.6-0.3,3.9c-0.1,1.2-0.2,2.5-0.3,3.7
			c-0.1,1.2-0.2,2.4-0.3,3.6c0,0.2,0,0.2,0.1,0.2c7.6,0,15.2,0,22.8,0C49.2,49.5,49.3,49.5,49.3,49.5z M42.1,28c0-0.1,0-0.1,0-0.2
			c0-1.2,0-2.3,0-3.5c0-0.7-0.1-1.5-0.5-2.1c-0.8-1.5-2.1-2.3-3.8-2.3c-1.2,0-2.3,0.4-3.2,1.3c-0.8,0.8-1.2,1.8-1.2,2.9
			c0,1.2,0,2.5,0,3.7c0,0.1,0,0.1,0.1,0.1c2.8,0,5.6,0,8.3,0C42,28,42.1,28,42.1,28z"/>
	</g>
</g>
</svg>
