<?xml version="1.0" encoding="utf-8"?>
<!-- Generator: Adobe Illustrator 26.3.1, SVG Export Plug-In . SVG Version: 6.00 Build 0)  -->
<svg version="1.1" id="Calque_1" xmlns="http://www.w3.org/2000/svg" xmlns:xlink="http://www.w3.org/1999/xlink" x="0px" y="0px"
	 viewBox="0 0 163 163" style="enable-background:new 0 0 163 163;" xml:space="preserve">
<style type="text/css">
	.st0{fill:#A6C8AA;}
	.st1{fill:none;}
	.st2{fill:#FFFFFF;}
	.st3{font-family:'Jassin';}
	.st4{font-size:44.7627px;}
</style>
<g>
	<path class="st0" d="M75,111c-0.1,0.1-0.1,0.2-0.2,0.4c-0.5,1-2.6,5.5-2.6,5.6l0,0c-1.4,5.9-3.1,11.8-5.1,17.5
		c-2.3,6.5-5.1,12.9-9.5,18.3c-2.9,3.5-6.8,5.6-11.4,5.6c-5.1,0-10.3-0.1-15.3-1c-7.7-1.5-15.3-3.6-21.2-9.4
		c-3.9-3.9-4.6-9.2-2-14.1c2.1-4.1,5.4-7.1,9.2-9.4c6.5-4,12-8.4,18-12.6c3.4-2.4,6.3-5.4,8.4-8.9l0,0c0.2-0.4,0.5-0.7,0.8-1
		c0.2-0.2,0.4-0.4,0.6-0.6c2.3-2.6,6.8-5,6.8-5c1.4-0.5,1.3-1.6,1.1-1.8c-0.4-0.8-1.9-0.2-1.9-0.2c-2.6,0.6-3.4-0.4-6,0.1
		c-5.6,1-11.1,2.1-16.6,3.6c-5.2,1.4-10.5,2.2-15.8,1.6c-4.3-0.5-7.2-3.4-8.4-7.5c-1-3.5-1.8-7.2-2-10.9c-0.3-6.2-0.3-12.5,0-18.8
		c0.2-4.7,1.3-9.4,5-12.9c3.3-3.2,7.4-3.9,11.8-3.3c6.8,1,12.1,4.7,17,9.3c4,3.7,7.8,7.5,12,11c4.3,3.6,7.7,2.3,7.7,2.3
		s10.3-3.1,10.4-5.3c0.2-2.1-2.3-5.6-5.8-11.6c-4.2-7.1-8.4-14.2-12.2-21.4c-1.3-2.4-2.1-5.4-2.1-8.1c0-8.4,4.7-13.2,13.1-15.1
		c8.8-2,17.8-1.6,26.6-1.1c6.1,0.3,12.7,1,17.1,6.4c1.6,1.9,2.9,4.4,3.2,6.8c0.4,3.3-0.2,6.8-0.4,10.2c0,0.4-0.1,0.7-0.1,1.1
		c-0.2,4.8-0.4,9.5-0.5,14.3c-0.2,8.6-0.4,9.4-0.5,18c0,0,0,2.8,2.8,2.9c0,0,0.1,0,0.1,0c7.2,0.6,14.3-1.8,19.3-7c1-1,2-2.1,3-3.1
		c3.6-3.7,7.5-7,12.6-8.4c4.3-1.3,11-1.5,14.3,2.6c2,2.4,3,5.2,3.6,8.3c1.6,8,0.9,16.1,0.6,24c-0.2,4.5-1,9.3-3.8,13.4
		c-1.6,2.3-6.3,3.4-9.3,3.9c-2.2,0.3-4.3,0.8-6.5,1.3l-0.1,0c-2,0.5-4.1,0.5-6.1,0.2c-0.8-0.1-1.5-0.2-2.3-0.4
		c-3.7-0.5-6.7,3.3-5,6.7c0.3,0.5,0.6,1.1,0.9,1.6c1.1,1.6,2,3.3,2.6,5.1l0,0.1c0.6,1.8,1.7,3.4,3.1,4.7c3.1,2.6,8.2,7.3,10.1,11.2
		c2.5,5.1,2.2,12.7-2.5,17.4c-5.3,5.3-11.9,7.4-18.7,9.2c-6.2,1.7-12.6,1.8-19,1.7c-6.2-0.1-11.1-2.9-14.7-7.9
		c-4.3-6.1-6.4-13.2-8.5-20.2c-1.2-4.1-2.3-8.2-3.2-12.4c-0.7-3.1-0.9-6.3-1.3-9.5L75,111z"/>
</g>
<rect x="35.5" y="74.4" class="st1" width="106.4" height="79.9"/>
<text transform="matrix(1 0 0 1 47.8728 105.7026)" class="st2 st3 st4">50’s</text>
</svg>
