<?xml version="1.0" encoding="utf-8"?>
<!-- Generator: Adobe Illustrator 26.3.1, SVG Export Plug-In . SVG Version: 6.00 Build 0)  -->
<svg version="1.1" id="Calque_1" xmlns="http://www.w3.org/2000/svg" xmlns:xlink="http://www.w3.org/1999/xlink" x="0px" y="0px"
	 viewBox="0 0 163 163" style="enable-background:new 0 0 163 163;" xml:space="preserve">
<style type="text/css">
	.st0{fill:#D47B9E;}
	.st1{fill:#FEFDFD;}
	.st2{fill:none;}
	.st3{fill:#FFFFFF;}
	.st4{font-family:'RagsakFreeRegular';}
	.st5{font-size:45.6334px;}
	.st6{font-family:'VarentGrotesk-ExtLtIta';}
</style>
<g>
	<path class="st0" d="M45,12.8c2.5-0.1,5.1-0.9,7.3-0.2c6,1.8,11.6,4.5,15.7,9.7c1.7,2.1,3.7,3.9,5.3,6.1c1.8,2.4,3.2,5.1,4.8,7.7
		c0.5-2.4,0.7-5,1.5-7.4C83,16.9,92.7,12.2,103,8c9.2-3.8,16.7,1.6,23.6,5.4c5.9,3.3,8.6,13.5,7.4,21.7c-1.1,7.7-7.2,11-11.5,17.8
		c10.4-5.1,19.2-2.3,26.6,2.2c1.1,1.5,1.7,2.3,2.3,3.1c2.1,2.6,4.9,4.9,6.3,7.8c2,4.1,3.7,8.7,4.2,13.2c1.5,12-6.5,22.3-18.7,24.8
		c-3,0.6-6.2,0.5-9.2,0.7c5.6,8.6,9.8,17.8,10.4,28c0.5,8.9-4.5,18.9-14.7,20.6c-3.3,0.6-6.8,0.8-10.1,0.5c-9.1-0.7-13.7-8-18.9-14
		c-3-3.4-5.3-7.5-8-11.2c-0.4-0.6-1.1-0.9-1.7-1.3c-0.2,0.6-0.4,1.2-0.6,1.7c-1.6,6.2-3.4,12-8.2,16.9c-5.7,5.9-12.3,10.1-19.6,13.1
		c-4.2,1.7-8.9,3.7-13.8,0.8c-2.2-1.4-4.8-2.3-7.4-3c-4.4-1.2-7.4-3.8-9-8.1c-1.8-5-4.4-9.9-2.3-15.4c2-5.4,4.9-10.2,9.3-14.2
		c3.1-2.8,5.6-6.2,8-8.9c-1.9,0.7-4.4,1.8-7,2.3c-1.6,0.4-3.5,0.1-5.2-0.1c-12.9-1.1-23-7.2-30.1-17.8C1.9,90-0.2,84.3,2.9,78.3
		c1.5-2.9,2.5-6,3.7-9C9.3,62.5,16.7,58.1,24.2,59c1.9,0.2,3.9,0,5.8,0c-5-4.8-5.3-11.1-5.5-17.6c-0.2-7.2,1.4-14,5.7-19.6
		c2.5-3.3,6.9-5.3,10.5-7.6C41.9,13.4,43.5,13.3,45,12.8c0.1,0.1,0.1,0.1,0.2,0.2c0,0,0-0.1,0-0.1C45.1,12.9,45,12.9,45,12.8z"/>
	<path class="st1" d="M45,12.8c0.1,0,0.1,0,0.2,0.1c0,0,0,0.1,0,0.1C45.1,13,45,12.9,45,12.8C45,12.8,45,12.8,45,12.8z"/>
</g>
<rect x="34.3" y="66.9" class="st2" width="105.4" height="79.2"/>
<text transform="matrix(1 0 0 1 49.5867 101.1718)"><tspan x="0" y="0" class="st3 st4 st5">60</tspan><tspan x="43.5" y="0" class="st3 st6 st5">’</tspan><tspan x="53.5" y="0" class="st3 st4 st5">s</tspan></text>
</svg>
