<?xml version="1.0" encoding="utf-8"?>
<!-- Generator: Adobe Illustrator 26.3.1, SVG Export Plug-In . SVG Version: 6.00 Build 0)  -->
<svg version="1.1" id="Calque_1" xmlns="http://www.w3.org/2000/svg" xmlns:xlink="http://www.w3.org/1999/xlink" x="0px" y="0px"
	 viewBox="0 0 50 50" style="enable-background:new 0 0 50 50;" xml:space="preserve">
<style type="text/css">
	.st0{fill:#FFFFFF;}
</style>
<g id="FHOgA4.tif">
	<g>
		<g>
			<path class="st0" d="M59,2060.3c-0.5-1.5-1.3-2.6-3.1-2.8c-0.2,0-0.3-0.1-0.4-0.3c-0.2-0.2-0.4-0.4-0.5-0.5
				c-0.8-0.6-1.6-0.6-2.5-0.1c-0.2-0.7-0.7-1.2-1.3-1.5c-0.7-0.3-1.3-0.3-2,0.2v-0.6c0-0.4,0-0.8,0-1.2c0-0.6,0-1.2,0-1.9
				c0-1.1-1-2-2-2.1c-1.2-0.1-2,0.5-2.3,1.6c-0.1,0.4-0.2,0.8-0.2,1.2c0,0.8,0,1.6,0,2.3v6.2c-0.1-0.1-0.2-0.2-0.3-0.2
				c-0.6-0.4-1.1-1-1.8-1.1c-0.4-0.1-0.7-0.1-1-0.1c-1.1,0.1-1.7,1-1.5,2.3c0.2,0.9,0.5,1.8,0.9,2.6c1.7,3.3,3.5,6.5,5.2,9.8
				c0.1,0.2,0.3,0.3,0.5,0.3c2.5,0,5.1,0,7.6,0h1.6c0.3,0,0.4-0.1,0.5-0.4c0.2-0.5,0.4-1,0.6-1.5c0.1-0.1,0.1-0.3,0.2-0.4
				c0.9-2.4,2-4.7,2.1-7.3C59.3,2063.4,59.5,2061.8,59,2060.3z M57.8,2067.4c-0.6,2-1.5,3.8-2.2,5.7c-0.1,0.1-0.3,0.3-0.4,0.3
				c-2.6,0-5.2,0-7.9,0c-0.2,0-0.4-0.1-0.4-0.3c-1.7-3-3.4-6-5-9c-0.4-0.8-0.6-1.6-0.8-2.5c-0.1-0.7,0.4-1.1,1.1-0.9
				c0.5,0.2,0.9,0.5,1.3,0.8c0.8,0.6,1.2,1.4,1,2.5c-0.1,0.4,0,0.9,0,1.4h1.1v-0.5c0-1.2,0-2.4,0-3.7c0-2.3,0-4.6,0-7v-1.8
				c0-0.3,0-0.7,0.1-1c0.2-0.6,0.6-0.8,1.2-0.8c0.5,0,0.9,0.4,1,1c0,0.2,0,0.5,0,0.7v8.6h1.1c0-0.6,0-1.2,0-1.8c0-0.6,0-1.2,0.1-1.8
				c0.1-0.8,0.5-1.1,1.2-1.1c0.6,0,1,0.4,1,1.2c0,0.9,0,1.9,0,2.8v0.3c0,0.1,0,0.2,0,0.3h1.1c0-0.5,0-0.9,0-1.4v-0.4
				c0-0.3,0-0.5,0.1-0.8c0.2-0.7,0.6-1,1.2-0.9c0.2,0,0.4,0.1,0.6,0.2c0.2,0.2,0.4,0.5,0.4,0.9c0,0.9,0,1.9,0,2.8v0.6h1.1v-3.3
				c0.7,0.1,1.2,0.2,1.5,0.8c0.3,0.6,0.7,1.3,0.7,2C58.3,2063.5,58.4,2065.5,57.8,2067.4z"/>
		</g>
	</g>
</g>
<path class="st0" d="M39.9,2058.8c-1.8-1.9-2.9-4.3-2.9-7c0-5.5,4.5-9.9,9.9-9.9c5.5,0,9.9,4.4,9.9,9.9c0,1.3-0.2,2.6-0.7,3.8
	l-0.9-0.4c0.4-1.1,0.7-2.2,0.7-3.4c0-4.9-4-8.9-8.9-8.9c-4.9,0-8.9,4-8.9,8.9c0,2.4,0.9,4.6,2.6,6.3L39.9,2058.8z"/>
<g id="FHOgA4.tif_00000029734728984779796550000006570520069012143012_">
	<g>
		<g>
			<path class="st0" d="M35.9,26c-0.5-1.5-1.3-2.6-3.1-2.8c-0.2,0-0.3-0.1-0.4-0.3c-0.2-0.2-0.4-0.4-0.5-0.5
				c-0.8-0.6-1.6-0.6-2.5-0.1c-0.2-0.7-0.7-1.2-1.3-1.5c-0.7-0.3-1.3-0.3-2,0.2v-0.6c0-0.4,0-0.8,0-1.2c0-0.6,0-1.2,0-1.9
				c0-1.1-1-2-2-2.1c-1.2-0.1-2,0.5-2.3,1.6c-0.1,0.4-0.2,0.8-0.2,1.2c0,0.8,0,1.6,0,2.3v6.2c-0.1-0.1-0.2-0.2-0.3-0.2
				c-0.6-0.4-1.1-1-1.8-1.1c-0.4-0.1-0.7-0.1-1-0.1c-1.1,0.1-1.7,1-1.5,2.3c0.2,0.9,0.5,1.8,0.9,2.6c1.7,3.3,3.5,6.5,5.2,9.8
				c0.1,0.2,0.3,0.3,0.5,0.3c2.5,0,5.1,0,7.6,0h1.6c0.3,0,0.4-0.1,0.5-0.4c0.2-0.5,0.4-1,0.6-1.5c0.1-0.1,0.1-0.3,0.2-0.4
				c0.9-2.4,2-4.7,2.1-7.3C36.1,29,36.4,27.5,35.9,26z M34.7,33c-0.6,2-1.5,3.8-2.2,5.7C32.4,38.9,32.2,39,32,39c-2.6,0-5.2,0-7.9,0
				c-0.2,0-0.4-0.1-0.4-0.3c-1.7-3-3.4-6-5-9c-0.4-0.8-0.6-1.6-0.8-2.5c-0.1-0.7,0.4-1.1,1.1-0.9c0.5,0.2,0.9,0.5,1.3,0.8
				c0.8,0.6,1.2,1.4,1,2.5c-0.1,0.4,0,0.9,0,1.4h1.1v-0.5c0-1.2,0-2.4,0-3.7c0-2.3,0-4.6,0-7v-1.8c0-0.3,0-0.7,0.1-1
				c0.2-0.6,0.6-0.8,1.2-0.8c0.5,0,0.9,0.4,1,1c0,0.2,0,0.5,0,0.7v8.6h1.1c0-0.6,0-1.2,0-1.8c0-0.6,0-1.2,0.1-1.8
				c0.1-0.8,0.5-1.1,1.2-1.1c0.6,0,1,0.4,1,1.2c0,0.9,0,1.9,0,2.8v0.3c0,0.1,0,0.2,0,0.3h1.1c0-0.5,0-0.9,0-1.4v-0.4
				c0-0.3,0-0.5,0.1-0.8c0.2-0.7,0.6-1,1.2-0.9c0.2,0,0.4,0.1,0.6,0.2c0.2,0.2,0.4,0.5,0.4,0.9c0,0.9,0,1.9,0,2.8v0.6h1.1v-3.3
				c0.7,0.1,1.2,0.2,1.5,0.8c0.3,0.6,0.7,1.3,0.7,2C35.1,29.1,35.3,31.2,34.7,33z"/>
		</g>
	</g>
</g>
<path class="st0" d="M16.8,24.5c-1.8-1.9-2.9-4.3-2.9-7c0-5.5,4.5-9.9,9.9-9.9c5.5,0,9.9,4.4,9.9,9.9c0,1.3-0.2,2.6-0.7,3.8
	l-0.9-0.4c0.4-1.1,0.7-2.2,0.7-3.4c0-4.9-4-8.9-8.9-8.9c-4.9,0-8.9,4-8.9,8.9c0,2.4,0.9,4.6,2.6,6.3L16.8,24.5z"/>
</svg>
