<?xml version="1.0" encoding="UTF-8"?><svg xmlns="http://www.w3.org/2000/svg" viewBox="0 0 40.11 64.17"><defs><style>.d{fill:none;stroke:#65adb3;stroke-linecap:round;stroke-linejoin:round;stroke-width:2.11px;}</style></defs><g id="a"/><g id="b"><g id="c"><g><path class="d" d="M5.55,52.83s-5.24,1.68-4.41,2.79,4.15,8.02,10.65,7.47c6.5-.55,10.79-10.92,11.34-13.14,.55-2.21,11.89-14.1,13.27-15.9s2.07-2.9,2.63-12.31S30.6-.8,20.09,1.27C9.58,3.35,1.42,8.46,1.14,18.97"/><path class="d" d="M31.57,21.32c-.14-3.87-3.32-9.26-6.78-11.2-3.46-1.94-8.43-.69-9.68,.55s-2.49,5.39-3.04,9.54c-.55,4.15-5.12,4.29-4.7,6.78s1.11,6.31,3.46,5.09"/><path class="d" d="M15.08,36.41c-.62,3.09-8.15,14.14-8.4,15.2s1.77,4.5,3.18,4.5,6.64-11.41,7.52-11.41,7.41-3.18,6.88-7.41-4.06-8.74-7.41-8.47c-3.35,.26-6.18,2.38-5.3,3.97,.88,1.59,3.53,3.62,3.53,3.62Z"/><line class="d" x1="12.92" y1="52" x2="9.27" y2="47.18"/></g></g></g></svg>