<?xml version="1.0" encoding="UTF-8"?><svg xmlns="http://www.w3.org/2000/svg" viewBox="0 0 40.16 64.24"><defs><style>.d{fill:none;stroke:#87ac29;stroke-linecap:round;stroke-linejoin:round;stroke-width:2.11px;}</style></defs><g id="a"/><g id="b"><g id="c"><g><path class="d" d="M5.56,52.88s-5.24,1.68-4.41,2.79,4.15,8.03,10.66,7.47c6.51-.55,10.8-10.94,11.35-13.15,.55-2.21,11.9-14.12,13.29-15.92s2.08-2.91,2.63-12.32C39.63,12.35,30.63-.8,20.11,1.28,9.59,3.35,1.42,8.47,1.15,18.99"/><path class="d" d="M31.6,21.35c-.14-3.88-3.32-9.27-6.78-11.21-3.46-1.94-8.44-.69-9.69,.55s-2.49,5.4-3.05,9.55c-.55,4.15-5.12,4.29-4.71,6.78s1.11,6.32,3.46,5.1"/><path class="d" d="M15.1,36.45c-.62,3.09-8.16,14.15-8.41,15.22s1.77,4.51,3.18,4.51,6.64-11.42,7.53-11.42,7.42-3.18,6.89-7.42c-.53-4.24-4.06-8.75-7.42-8.48-3.36,.27-6.19,2.39-5.3,3.98s3.53,3.62,3.53,3.62Z"/><line class="d" x1="12.93" y1="52.06" x2="9.28" y2="47.23"/></g></g></g></svg>