<?xml version="1.0" encoding="utf-8"?>
<!-- Generator: Adobe Illustrator 26.2.1, SVG Export Plug-In . SVG Version: 6.00 Build 0)  -->
<svg version="1.1" id="Calque_1" xmlns="http://www.w3.org/2000/svg" xmlns:xlink="http://www.w3.org/1999/xlink" x="0px" y="0px"
	 viewBox="0 0 6 11.3" style="enable-background:new 0 0 6 11.3;" xml:space="preserve">
<style type="text/css">
	.st0{fill:#0A1348;}
</style>
<g>
	<path class="st0" d="M2.4,8.8c0,0-0.1-0.1-0.1-0.2c0-0.8,0-1.6,0-2.5c0,0,0,0,0-0.1c0,0,0,0-0.1,0C2,6,1.9,6,1.6,6
		C1.5,6,1.5,6,1.5,5.9c0-0.3,0-0.6,0-1c0-0.1,0-0.2,0.2-0.2c0.2,0,0.4,0,0.6,0c0,0,0,0,0.1,0c0,0,0,0,0-0.1c0-0.2,0-0.5,0-0.7
		c0-0.4,0.1-0.7,0.3-1c0.2-0.2,0.5-0.4,0.8-0.5c0.3,0,0.6,0,0.8,0c0.1,0,0.1,0,0.2,0c0.1,0,0.1,0,0.1,0.1c0,0.3,0,0.6,0,0.9
		c0,0.1,0,0.1-0.2,0.1c-0.2,0-0.4,0-0.6,0c-0.1,0-0.2,0-0.2,0.2c0,0,0,0.1,0,0.2c0,0.2,0,0.5,0,0.7c0,0,0,0,0.1,0c0.2,0,0.5,0,0.8,0
		c0.1,0,0.2,0,0.2,0.2c0,0.3,0,0.6,0,1C4.5,6,4.5,6,4.4,6C4.1,6,3.9,6,3.6,6c0,0,0,0-0.1,0c0,0,0,0,0,0.1c0,0.8,0,1.6,0,2.4
		c0,0.1,0,0.2-0.1,0.2C3.1,8.8,2.8,8.8,2.4,8.8z"/>
</g>
</svg>
