<?xml version="1.0" encoding="utf-8"?>
<!-- Generator: Adobe Illustrator 26.2.1, SVG Export Plug-In . SVG Version: 6.00 Build 0)  -->
<svg version="1.1" id="Calque_1" xmlns="http://www.w3.org/2000/svg" xmlns:xlink="http://www.w3.org/1999/xlink" x="0px" y="0px"
	 viewBox="0 0 23 23" style="enable-background:new 0 0 23 23;" xml:space="preserve">
<style type="text/css">
	.st0{fill:#FFFFFF;}
</style>
<g id="_x33_Yqmek.tif">
	<g>
		<path class="st0" d="M10.9,0.5c0.4,0,0.9,0,1.3,0c0,0,0.1,0,0.1,0c1.2,0.1,2.3,0.3,3.4,0.8c5.1,2.1,7.9,7.4,6.8,12.7
			c-0.9,4.2-4.3,7.6-8.5,8.5c-0.2,0-0.4,0.1-0.7,0.1c0-2.6,0-5.2,0-7.8c0.9,0,1.7,0,2.6,0c0.2-1.1,0.3-2.1,0.5-3.2c-1,0-2.1,0-3.1,0
			c0-0.8,0-1.6,0-2.4c0-0.6,0.3-1,0.9-1.3c0.2-0.1,0.4-0.1,0.6-0.1c0.5,0,1,0,1.5,0c0.1,0,0.1,0,0.2,0c0-0.9,0-1.8,0-2.8
			c-0.4,0-0.8-0.1-1.2-0.1c-0.8-0.1-1.5-0.1-2.3,0c-0.9,0.2-1.6,0.6-2.2,1.2c-0.6,0.7-0.9,1.6-0.9,2.6c0,0.9,0,1.8,0,2.7
			c0,0.1,0,0.1,0,0.2c-1,0-1.9,0-2.8,0c0,1.1,0,2.1,0,3.2c0.9,0,1.9,0,2.8,0c0,2.6,0,5.2,0,7.8c0,0,0,0-0.1,0
			c-0.5-0.1-1-0.2-1.5-0.4c-2.7-0.9-4.9-2.6-6.3-5c-0.8-1.3-1.3-2.8-1.4-4.3c0-0.2-0.1-0.4-0.1-0.6c0-0.5,0-1,0-1.4c0,0,0-0.1,0-0.1
			C0.5,10,0.6,9.3,0.9,8.5c0.8-2.8,2.5-5,5.1-6.5c1.3-0.8,2.8-1.3,4.4-1.5C10.5,0.5,10.7,0.5,10.9,0.5z"/>
	</g>
</g>
</svg>
