<?xml version="1.0" encoding="utf-8"?>
<!-- Generator: Adobe Illustrator 26.2.1, SVG Export Plug-In . SVG Version: 6.00 Build 0)  -->
<svg version="1.1" id="Calque_1" xmlns="http://www.w3.org/2000/svg" xmlns:xlink="http://www.w3.org/1999/xlink" x="0px" y="0px"
	 viewBox="0 0 43.7 79" style="enable-background:new 0 0 43.7 79;" xml:space="preserve">
<style type="text/css">
	.st0{fill:#0A1348;}
</style>
<g>
	<path class="st0" d="M13.9,77.3c-0.9-0.4-1.2-1.1-1.2-2.1c0-10.1,0-20.2,0-30.4c0-0.3,0-0.6,0-1c-0.3,0-0.6,0-0.9,0
		c-2.9,0-5.8,0-8.7,0c-1.5,0-2-0.5-2-2c0-3.9,0-7.9,0-11.8c0-1.4,0.6-1.9,2-1.9c2.9,0,5.8,0,8.7,0c0.3,0,0.5,0,0.9,0
		c0-0.3,0-0.6,0-0.9c0-3-0.1-6.1,0.1-9.1c0.2-4.4,1.5-8.4,4.4-11.8c2.7-3.1,6.2-5,10.3-5.4c3.7-0.4,7.4-0.3,11.1-0.3
		c0.8,0,1.5,0,2.3,0c1.1,0,1.7,0.6,1.7,1.7c0,3.8,0,7.6,0,11.4c0,1.2-0.6,1.7-1.8,1.7c-2.6,0-5.2,0-7.9,0.1
		c-1.4,0.1-2.7,0.5-3.4,1.8c-0.3,0.7-0.6,1.5-0.6,2.2c-0.1,2.8,0,5.6,0,8.6c0.3,0,0.5,0,0.8,0c3.4,0,6.9,0,10.3,0
		c1.5,0,2.1,0.5,2.1,2.1c0,3.9,0,7.8,0,11.7c0,1.5-0.5,2-2,2c-3.4,0-6.9,0-10.3,0c-0.3,0-0.5,0-0.9,0c0,0.4,0,0.6,0,0.9
		c0,10.1,0,20.2,0,30.3c0,1-0.2,1.8-1.2,2.2C23,77.3,18.4,77.3,13.9,77.3z"/>
</g>
</svg>
