<svg xmlns="http://www.w3.org/2000/svg" viewBox="0 0 20 19.95"><g id="Calque_2" data-name="Calque 2"><g id="Calque_2-2" data-name="Calque 2"><path d="M0,10.58V9.41a1.62,1.62,0,0,1,0-.19C.14,8.6.2,8,.36,7.37a10,10,0,0,1,19.37,4.86A9.74,9.74,0,0,1,13,19.52c-.57.19-1.18.29-1.78.43V12.08h2.39L14,9.29H11.22c0-.7,0-1.37,0-2a1,1,0,0,1,1.14-1.09c.5,0,1,0,1.48,0h.22V3.77s-.09-.12-.14-.13c-.79,0-1.58-.09-2.38-.07a3.16,3.16,0,0,0-2,.76,3.34,3.34,0,0,0-1.15,2.5c0,.74,0,1.48,0,2.22V9.3H5.93v2.79H8.32v7.74s-.05,0-.07,0A9.74,9.74,0,0,1,5.73,19,10,10,0,0,1,2,15.94a9.69,9.69,0,0,1-1.81-4.2C.09,11.36.05,11,0,10.58Z"/></g></g></svg>