<?xml version="1.0" encoding="UTF-8"?><svg xmlns="http://www.w3.org/2000/svg" viewBox="0 0 51.23 28.82"><defs><style>.e{fill:#fff;}</style></defs><g id="a"/><g id="b"><g id="c"><g id="d"><g><path class="e" d="M51.23,28.82H0V0H51.23V28.82ZM15.84,11.68c-.07,0-.11,0-.15,0-2.03,0-4.06,.01-6.08,.02-.18,0-.36,0-.53,0-.04,0-.11-.05-.11-.07,0-.27-.02-.54,.05-.8,.16-.65,.6-1.03,1.24-1.2,.61-.15,1.22-.13,1.83,.02,.62,.15,1.02,.52,1.2,1.12,.03,.08,.07,.11,.15,.11,.72,0,1.45,0,2.17-.01,.05,0,.09,0,.15,0-.02-.15-.03-.28-.06-.41-.19-.9-.78-1.47-1.56-1.88-.39-.21-.81-.31-1.24-.38-.6-.1-1.2-.21-1.81-.17-.58,.04-1.17,.07-1.75,.16-.8,.12-1.53,.44-2.1,1.04-.42,.43-.69,.95-.73,1.56-.02,.26-.02,.52-.02,.79,0,.11-.03,.15-.14,.15-.34,0-.68,.01-1.03,.01-.11,0-.13,.04-.13,.14,0,.47,0,.93,0,1.4,0,.03,0,.07,.01,.12h1.32c0,.08,0,.14,0,.2,0,2.11,0,4.22,0,6.32,0,.14,.03,.17,.17,.17,.72,0,1.43,0,2.15,0q.17,0,.17-.17c0-2.13-.02-4.27-.03-6.4,0-.12,.03-.15,.15-.15,1.34,0,2.68,0,4.02,0,.05,0,.09,0,.16,.01v6.67h2.57c0-.06,0-.11,0-.16,0-1.44,0-2.87-.01-4.31,0-.69,.28-1.25,.82-1.67,.38-.3,.82-.45,1.29-.55,.72-.16,1.43-.19,2.14,.09,.47,.18,.88,.44,1.15,.89,.24,.4,.32,.84,.32,1.3,.01,1.42,.03,2.85,.04,4.27,0,.05,0,.09,0,.15h2.51c0-.1,0-.19,0-.27-.01-1.36-.02-2.72-.03-4.08,0-.47-.01-.93-.04-1.4-.05-.93-.54-1.58-1.31-2.06-.49-.3-1.02-.5-1.58-.6-1.17-.21-2.33-.25-3.49,.05-.71,.18-1.33,.48-1.77,1.08,0,.01-.03,.01-.06,.03v-1.12Zm11.54,2.73c.02-.08,.03-.15,.05-.22,.08-.3,.19-.59,.48-.76,1.13-.68,2.3-.73,3.49-.2,.27,.12,.54,.26,.7,.53,.24,.4,.16,.83-.23,1.08-.21,.14-.46,.18-.71,.21-.52,.06-1.04,.11-1.56,.16-.96,.09-1.93,.19-2.89,.27-.55,.05-1.05,.22-1.5,.54-.15,.11-.29,.24-.39,.39-.43,.63-.39,1.32-.17,2,.19,.59,.66,.96,1.22,1.2,.65,.28,1.33,.43,2.04,.48,1.53,.11,2.93-.24,4.23-1.05,.02-.01,.05-.02,.1-.04v1.07c.06,0,.11,0,.16,0,.72,0,1.45,0,2.17,.01,.13,0,.16-.03,.16-.16-.01-1.44-.01-2.87-.03-4.31,0-.55-.03-1.09-.07-1.64-.06-.76-.51-1.29-1.13-1.66-.75-.44-1.58-.67-2.44-.74-.96-.08-1.92-.15-2.89,0-.61,.09-1.21,.2-1.77,.49-.71,.38-1.2,.94-1.46,1.69-.07,.2-.1,.42-.15,.65h2.6Zm18.7,.11c-.1-.25-.18-.49-.3-.7-.43-.77-1.1-1.27-1.9-1.59-.89-.35-1.82-.49-2.77-.53-1.24-.05-2.44,.15-3.61,.58-.97,.35-1.66,1.01-2.08,1.95-.2,.44-.26,.92-.29,1.4-.05,.7,0,1.38,.3,2.03,.34,.76,.9,1.3,1.6,1.71,.64,.37,1.34,.61,2.08,.72,.76,.12,1.52,.18,2.29,.15,1.06-.04,2.08-.24,3.02-.76,.61-.33,1.08-.8,1.39-1.41,.12-.23,.19-.48,.29-.73-.07,0-.1,0-.13,0-.8-.01-1.59-.02-2.39-.04-.1,0-.15,.03-.2,.11-.32,.52-.8,.83-1.38,1.01-.78,.23-1.57,.24-2.35,.03-.35-.09-.7-.2-.99-.42-.84-.64-1.2-1.7-.93-2.72,.16-.6,.49-1.11,1.03-1.42,.97-.57,2.02-.68,3.1-.4,.6,.15,1.08,.47,1.42,.99,.05,.08,.11,.11,.21,.11,.8-.01,1.6-.02,2.4-.03,.05,0,.1,0,.18,0Z"/><path d="M15.84,11.68v1.12s.05-.02,.06-.03c.44-.6,1.06-.9,1.77-1.08,1.16-.29,2.32-.26,3.49-.05,.56,.1,1.1,.3,1.58,.6,.76,.48,1.26,1.13,1.31,2.06,.03,.47,.03,.93,.04,1.4,.01,1.36,.02,2.72,.03,4.08,0,.09,0,.18,0,.27h-2.51c0-.06,0-.1,0-.15-.01-1.42-.03-2.85-.04-4.27,0-.46-.09-.9-.32-1.3-.26-.45-.68-.7-1.15-.89-.7-.28-1.42-.25-2.14-.09-.46,.1-.91,.26-1.29,.55-.54,.42-.83,.97-.82,1.67,0,1.44,0,2.87,.01,4.31,0,.05,0,.1,0,.16h-2.57v-6.67c-.06,0-.11-.01-.16-.01-1.34,0-2.68,0-4.02,0-.12,0-.15,.04-.15,.15,.01,2.13,.02,4.27,.03,6.4q0,.17-.17,.17c-.72,0-1.43-.01-2.15,0-.14,0-.17-.04-.17-.17,0-2.11,0-4.22,0-6.32,0-.06,0-.12,0-.2h-1.32c0-.05-.01-.09-.01-.12,0-.47,0-.93,0-1.4,0-.1,.03-.14,.13-.14,.34,0,.68-.01,1.03-.01,.11,0,.14-.04,.14-.15,0-.26,0-.52,.02-.79,.05-.61,.31-1.13,.73-1.56,.57-.6,1.3-.92,2.1-1.04,.58-.09,1.17-.12,1.75-.16,.61-.04,1.21,.07,1.81,.17,.43,.07,.86,.17,1.24,.38,.78,.41,1.37,.99,1.56,1.88,.03,.13,.04,.26,.06,.41-.05,0-.1,0-.15,0-.72,0-1.45,0-2.17,.01-.08,0-.13-.02-.15-.11-.19-.6-.59-.97-1.2-1.12-.61-.15-1.22-.17-1.83-.02-.64,.16-1.09,.54-1.24,1.2-.06,.25-.04,.53-.05,.8,0,.02,.07,.07,.11,.07,.18,0,.36,0,.53,0,2.03,0,4.06-.01,6.08-.02,.04,0,.09,0,.15,0Z"/><path d="M27.38,14.4h-2.6c.05-.22,.08-.44,.15-.65,.27-.75,.75-1.31,1.46-1.69,.56-.3,1.16-.4,1.77-.49,.96-.14,1.93-.07,2.89,0,.86,.07,1.69,.3,2.44,.74,.63,.37,1.07,.9,1.13,1.66,.04,.54,.07,1.09,.07,1.64,.02,1.44,.02,2.87,.03,4.31,0,.13-.04,.16-.16,.16-.72,0-1.45-.01-2.17-.01-.05,0-.1,0-.16,0v-1.07s-.07,.03-.1,.04c-1.3,.8-2.71,1.16-4.23,1.05-.71-.05-1.39-.2-2.04-.48-.56-.24-1.02-.61-1.22-1.2-.22-.68-.26-1.37,.17-2,.1-.15,.24-.29,.39-.39,.44-.32,.95-.49,1.5-.54,.97-.08,1.93-.18,2.89-.27,.52-.05,1.04-.1,1.56-.16,.25-.03,.49-.07,.71-.21,.39-.25,.47-.68,.23-1.08-.17-.27-.43-.41-.7-.53-1.2-.53-2.36-.48-3.49,.2-.29,.17-.4,.46-.48,.76-.02,.07-.03,.14-.05,.22Zm4.85,1.67l-.16,.08c-.26,.13-.53,.24-.82,.27-.92,.1-1.85,.2-2.77,.29-.29,.03-.57,.07-.84,.18-.29,.13-.5,.33-.52,.66-.02,.33,.12,.62,.39,.8,.53,.36,1.14,.53,1.78,.53,.97,0,1.81-.32,2.48-1.04,.14-.15,.27-.33,.36-.52,.18-.39,.08-.81,.11-1.25Z"/><path d="M46.08,14.52c-.08,0-.13,0-.18,0-.8,0-1.6,.02-2.4,.03-.1,0-.15-.03-.21-.11-.35-.51-.83-.83-1.42-.99-1.09-.28-2.13-.16-3.1,.4-.54,.31-.87,.82-1.03,1.42-.27,1.02,.09,2.08,.93,2.72,.29,.22,.64,.33,.99,.42,.79,.21,1.57,.2,2.35-.03,.58-.17,1.06-.48,1.38-1.01,.05-.08,.11-.11,.2-.11,.8,.02,1.59,.02,2.39,.04,.03,0,.06,0,.13,0-.1,.25-.17,.5-.29,.73-.31,.62-.78,1.08-1.39,1.41-.94,.52-1.96,.72-3.02,.76-.77,.03-1.53-.03-2.29-.15-.73-.12-1.43-.35-2.08-.72-.7-.41-1.26-.95-1.6-1.71-.3-.65-.35-1.33-.3-2.03,.03-.48,.09-.96,.29-1.4,.42-.94,1.11-1.6,2.08-1.95,1.16-.42,2.37-.63,3.61-.58,.95,.04,1.88,.18,2.77,.53,.81,.32,1.47,.83,1.9,1.59,.12,.21,.19,.45,.3,.7Z"/><path class="e" d="M32.24,16.07c-.03,.44,.07,.86-.11,1.25-.09,.19-.22,.37-.36,.52-.67,.71-1.51,1.04-2.48,1.04-.64,0-1.24-.17-1.78-.53-.27-.18-.4-.47-.39-.8,.02-.34,.23-.54,.52-.66,.27-.11,.55-.15,.84-.18,.92-.09,1.85-.19,2.77-.29,.29-.03,.56-.13,.82-.27l.16-.08Z"/></g></g></g></g></svg>