<?xml version="1.0" encoding="utf-8"?>
<!-- Generator: Adobe Illustrator 26.2.1, SVG Export Plug-In . SVG Version: 6.00 Build 0)  -->
<svg version="1.1" id="Calque_1" xmlns="http://www.w3.org/2000/svg" xmlns:xlink="http://www.w3.org/1999/xlink" x="0px" y="0px"
	 viewBox="0 0 32 9.7" style="enable-background:new 0 0 32 9.7;" xml:space="preserve">
<style type="text/css">
	.st0{fill:none;}
	.st1{fill:#0A1348;}
</style>
<path class="st0" d="M21.2,6.5c-0.2,0.3-1.3,0.3-1.3,0.3c-1.1,0.1-2.7,0-2.6,1c0,1,1.3,0.9,1.9,0.9c0.7,0,1.3-0.2,1.8-0.8
	C21.4,7.3,21.2,6.5,21.2,6.5C21.2,6.4,21.2,6.5,21.2,6.5z M0,2.9L0,2.9"/>
<path class="st1" d="M9.9,2.9c-1,0.3-1.5,0.7-1.6,0.9V2.9H2.8C2.7,1.2,4.5,1.2,4.5,1.2c1.8-0.1,1.8,1.1,1.8,1.1h2
	c0-2-2.8-2.3-2.8-2.3C2.7-0.2,1.7,0.8,1.7,0.8C0.9,1.5,0.9,2.7,0.9,2.9H0l0,1.3h0.9v5.3h2V4.3l3.4,0v5.3h2V5.9
	c0.1-0.6,0.5-1.5,2-1.6c0,0,2.2-0.4,2.5,1.6v3.7h2V5.1C14.3,1.9,9.9,2.9,9.9,2.9z M23.2,5.6C23.4,3.3,20.9,3,20.9,3
	c-2.2-0.4-3.4,0-3.4,0c-2.1,0.5-2.1,2.2-2.1,2.2h2c0,0,0-1.3,2.2-1.2c0,0,1.5,0.1,1.6,0.8c0,0,0.5,0.8-1.6,1
	c-2.2,0.1-4.7,0.1-4.4,2.1c0,0-0.1,1.9,3.5,1.9c0,0,1.9,0.1,2.7-0.9v0l0.1,0.7h1.9L23.2,5.6L23.2,5.6z M21,7.8
	c-0.5,0.6-1.1,0.8-1.8,0.8c-0.6,0-1.9,0.1-1.9-0.9c0-0.9,1.6-0.9,2.6-1c0,0,1.1,0,1.3-0.3c0,0,0,0,0,0C21.2,6.5,21.4,7.3,21,7.8z
	 M30,7.3c-0.3,0.6-0.8,1-2.1,1c-0.5,0-2.3-0.2-2.4-2.1l0-0.1c0.1-1.9,1.8-2.1,2.4-2.1c1.1,0,1.7,0.3,2,0.9l2,0
	c0-0.2-0.1-0.4-0.2-0.6c-0.4-0.8-1.4-1.7-4-1.6c-0.7,0-1.5,0.1-2.1,0.3c-0.9,0.3-2.4,1.3-2.3,3.2l0,0c0.1,2,1.5,2.6,2.3,3
	c0.5,0.2,1.2,0.3,2.1,0.3c2.6,0,3.5-0.9,3.9-1.7C32,7.7,32,7.6,32,7.3C32,7.3,30,7.4,30,7.3z"/>
</svg>
