<?xml version="1.0" encoding="utf-8"?>
<!-- Generator: Adobe Illustrator 26.2.1, SVG Export Plug-In . SVG Version: 6.00 Build 0)  -->
<svg version="1.1" id="Calque_1" xmlns="http://www.w3.org/2000/svg" xmlns:xlink="http://www.w3.org/1999/xlink" x="0px" y="0px"
	 viewBox="0 0 375 113.7" style="enable-background:new 0 0 375 113.7;" xml:space="preserve">
<style type="text/css">
	.st0{fill:none;}
	.st1{fill:#0A1348;}
</style>
<path class="st0" d="M192.7,58.5c-0.2,0.3-1.3,0.3-1.3,0.3c-1.1,0.1-2.7,0-2.6,1c0,1,1.3,0.9,1.9,0.9c0.7,0,1.3-0.2,1.8-0.8
	C192.9,59.3,192.7,58.5,192.7,58.5C192.7,58.4,192.7,58.5,192.7,58.5z M171.5,54.9L171.5,54.9"/>
<path class="st1" d="M88.2,54.3c-8.7,2.6-13.1,6.1-13.9,7.8v-7.8H26.3c-0.9-14.8,14.8-14.8,14.8-14.8c15.7-0.9,15.7,9.6,15.7,9.6
	h17.4c0-17.4-24.4-20-24.4-20c-24.4-1.7-33.1,7-33.1,7c-7,6.1-7,16.6-7,18.3H1.9v11.3h7.8v46.2h17.4V66.5h29.6v46.2h17.4V80.4
	c0.9-5.2,4.4-13.1,17.4-13.9c0,0,19.2-3.5,21.8,13.9v32.3h17.4V73.5C126.5,45.6,88.2,54.3,88.2,54.3z M204.1,77.8
	c1.7-20-20-22.7-20-22.7c-19.2-3.5-29.6,0-29.6,0c-18.3,4.4-18.3,19.2-18.3,19.2h17.4c0,0,0-11.3,19.2-10.5c0,0,13.1,0.9,13.9,7
	c0,0,4.4,7-13.9,8.7c-19.2,0.9-41,0.9-38.4,18.3c0,0-0.9,16.6,30.5,16.6c0,0,16.6,0.9,23.5-7.8l0,0l0.9,6.1h16.6L204.1,77.8
	L204.1,77.8z M184.9,97c-4.4,5.2-9.6,7-15.7,7c-5.2,0-16.6,0.9-16.6-7.8c0-7.8,13.9-7.8,22.7-8.7c0,0,9.6,0,11.3-2.6l0,0
	C186.7,85.7,188.4,92.7,184.9,97z M263.4,92.7c-2.6,5.2-7,8.7-18.3,8.7c-4.4,0-20-1.7-20.9-18.3v-0.9c0.9-16.6,15.7-18.3,20.9-18.3
	c9.6,0,14.8,2.6,17.4,7.8h17.4c0-1.7-0.9-3.5-1.7-5.2c-3.5-7-12.2-14.8-34.9-13.9c-6.1,0-13.1,0.9-18.3,2.6
	c-7.8,2.6-20.9,11.3-20,27.9l0,0c0.9,17.4,13.1,22.7,20,26.2c4.4,1.7,10.5,2.6,18.3,2.6c22.7,0,30.5-7.8,34-14.8
	c3.5-0.9,3.5-1.7,3.5-4.4C280.8,92.7,263.4,93.5,263.4,92.7z"/>
</svg>
