<svg xmlns="http://www.w3.org/2000/svg" viewBox="0 0 200 59.76"><defs><style>.cls-1{fill:#fff;}</style></defs><g id="Calque_2" data-name="Calque 2"><g id="Calque_2-2" data-name="Calque 2"><path class="cls-1" d="M6.5,26.21H.05c0-.26,0-.45,0-.64,0-2.26,0-4.52,0-6.78,0-.53.16-.67.67-.67,1.67,0,3.34-.06,5-.06.5,0,.68-.14.67-.67,0-1.3,0-2.61.12-3.91a12,12,0,0,1,3.63-7.66A17.47,17.47,0,0,1,20.46.77a86.61,86.61,0,0,1,9-.76,31.44,31.44,0,0,1,5.64.42,42.31,42.31,0,0,1,6.62,1.39,14.56,14.56,0,0,1,8.88,7.37,10.65,10.65,0,0,1,.78,2.13c.2.82.3,1.66.46,2.58l-.75,0C47.5,14,44,14,40.41,14a.64.64,0,0,1-.74-.53A7.65,7.65,0,0,0,33.77,8a18.36,18.36,0,0,0-9-.08c-3.12.79-5.3,2.62-6.06,5.79a21.61,21.61,0,0,0-.26,4c0,.45.36.35.62.35l6.39,0,25.9-.07h.74v5.37l.16.07.52-.6A14,14,0,0,1,60.4,18.1a38.79,38.79,0,0,1,15.39-.82A24.29,24.29,0,0,1,85.9,20.65c3.68,2.31,6.07,5.48,6.39,10,.07,1,.16,2,.17,3.06q.11,12.17.19,24.32v.87H80.36c0-.29,0-.52,0-.75q-.09-10.43-.19-20.87a12.51,12.51,0,0,0-1.55-6.31A10.44,10.44,0,0,0,73,26.55a17.55,17.55,0,0,0-10.51-.45,15.23,15.23,0,0,0-6.29,2.7,9.81,9.81,0,0,0-4,8.09q0,10.57.07,21.13v.78H39.65V26.21H18.55V27q.06,15.59.13,31.18c0,.89,0,.9-.86.89-3.5,0-7-.05-10.5,0-.61,0-.82-.14-.81-.8q0-15.45,0-30.91Z"/><path class="cls-1" d="M108.57,31.26H96c.08-.57.11-1.13.24-1.66a14.45,14.45,0,0,1,7.69-9.82,26.63,26.63,0,0,1,8.68-2.37,60.65,60.65,0,0,1,13.93,0,28,28,0,0,1,12.06,3.65c3,1.79,5.2,4.38,5.49,8.09q.32,4,.36,8.06c.08,7,.08,14,.14,21,0,.63-.16.8-.79.79-3.57,0-7.13,0-10.7-.07h-.72V53.71c-.24.12-.39.17-.52.25a33.59,33.59,0,0,1-16.93,5.18,32,32,0,0,1-13.75-2.45c-2.69-1.14-5-2.95-5.89-5.84-1.17-3.66-1.3-7.33,1.38-10.54a11.31,11.31,0,0,1,4.09-2.71c2-1,4.25-1,6.43-1.23l12.27-1.17c2.55-.24,5.11-.45,7.65-.81a9.72,9.72,0,0,0,3.33-1c2.1-1.15,2.5-3.41,1.2-5.42a7.24,7.24,0,0,0-3.36-2.48,17.62,17.62,0,0,0-17.08,1,5.61,5.61,0,0,0-2.34,3.69C108.72,30.51,108.66,30.85,108.57,31.26Zm23.74,8.12-.79.41a11.56,11.56,0,0,1-4.13,1.32l-13.48,1.4a13.79,13.79,0,0,0-4,.88,3.63,3.63,0,0,0-2.55,3.23,4.37,4.37,0,0,0,1.9,3.94,15.34,15.34,0,0,0,8.68,2.58A15.87,15.87,0,0,0,130,48.07a10,10,0,0,0,1.76-2.56C132.67,43.61,132.18,41.55,132.31,39.38Z"/><path class="cls-1" d="M200,31.79c-.37,0-.57.05-.78.05-4,.05-7.92.08-11.87.15a1,1,0,0,1-1-.51,11.55,11.55,0,0,0-6.95-4.83,19.53,19.53,0,0,0-15.17,2,11,11,0,0,0-5.05,6.86,12.58,12.58,0,0,0,4.53,13.42,13.66,13.66,0,0,0,4.77,2A20.85,20.85,0,0,0,180,50.77a11.44,11.44,0,0,0,6.79-4.93,1.07,1.07,0,0,1,.72-.5c4,0,8.09.09,12.13.15a2,2,0,0,1,.29,0,16,16,0,0,1-2.14,5.07c-2.46,3.82-6.15,5.91-10.31,7.32a39.18,39.18,0,0,1-15.44,1.71,48.12,48.12,0,0,1-9.34-1.33,24.28,24.28,0,0,1-12.14-7,15.61,15.61,0,0,1-3.79-7.6,23.1,23.1,0,0,1,1.08-13.39A16.7,16.7,0,0,1,158,20.79,46.1,46.1,0,0,1,175.66,18a41.17,41.17,0,0,1,13.57,2.61,17.75,17.75,0,0,1,9.31,7.77A33.24,33.24,0,0,1,200,31.79Z"/></g></g></svg>