<?xml version="1.0" encoding="utf-8"?>
<!-- Generator: Adobe Illustrator 26.2.1, SVG Export Plug-In . SVG Version: 6.00 Build 0)  -->
<svg version="1.1" id="Calque_1" xmlns="http://www.w3.org/2000/svg" xmlns:xlink="http://www.w3.org/1999/xlink" x="0px" y="0px"
	 viewBox="0 0 375 113.8" style="enable-background:new 0 0 375 113.8;" xml:space="preserve">
<style type="text/css">
	.st0{fill:none;}
	.st1{fill:#0A1348;}
</style>
<path class="st0" d="M192.7,58.5c-0.2,0.3-1.3,0.3-1.3,0.3c-1.1,0.1-2.7,0-2.6,1c0,1,1.3,0.9,1.9,0.9c0.7,0,1.3-0.2,1.8-0.8
	C192.9,59.3,192.7,58.6,192.7,58.5L192.7,58.5z M171.5,55L171.5,55"/>
<path class="st1" d="M69.8,65.8c-7.4,1.9-10.3,4.8-11.4,6.5V66H20.1C19,53.6,31.7,53.9,31.7,53.9c12.4-0.4,12.9,7.7,12.9,7.7h13.8
	c0-14.4-20-16.1-20-16.1c-19.5-1.5-26.2,5.1-26.2,5.1C6,55.8,6.2,64.2,6.3,66H0l0.1,9.5h6.2v37.3h13.8V75.5h24.3v37.3h13.8V86.6
	C59,82.1,62,76.1,72.8,75.1c0,0,15.7-2.6,17.8,11.5v26.2h13.8V81.3C101.3,58.8,69.8,65.8,69.8,65.8z M163.8,84.7
	c1.2-16.2-15.9-18.6-15.9-18.6c-15.3-2.6-24.1,0-24.2,0.1c-15,3.5-15,15.4-15,15.4h14.2c0,0,0.1-9.3,15.3-8.2c0,0,10.9,0.5,11.6,5.5
	c0,0,3.6,6-11.6,6.8c-15.3,0.9-33.3,0.7-31.4,14.9c0,0-0.4,13.6,24.5,13.2c0,0,13.2,0.4,18.7-6.4v0.2l0.5,5.3h13.7L163.8,84.7
	L163.8,84.7z M148.1,100.3c-3.5,4.2-7.7,5.6-12.5,5.8c-4.3,0.2-13.5,1-13.7-6.1c-0.2-6.6,11.1-6.3,18.7-6.8c0,0,7.6,0,9.1-2.1
	c0,0,0.1-0.2,0.1,0S151.1,96.5,148.1,100.3z M211.8,97.1c-2.1,4.4-5.7,7-14.6,7.1c-3.8,0-16.1-1.3-16.7-14.5v-0.5
	c0.4-13.2,13-14.6,17.1-14.7c7.6-0.2,11.9,2.2,14.1,6.7l14.2-0.1c-0.1-1.7-0.4-2.6-1.2-4.5c-2.9-5.3-10-11.9-27.9-11.3
	c-5.1,0.2-10.9,0.9-14.6,2.3c-6.1,2.4-16.7,8.9-16,22.7l0,0c0.8,14.4,10.7,18.6,16.3,21c3.7,1.5,8.6,2,14.7,2.1
	c18,0.4,25-6.6,27.6-12c0.9-1.9,1.1-2.8,1.2-4.5C225.9,97,211.8,97.1,211.8,97.1z"/>
</svg>
