<?xml version="1.0" encoding="utf-8"?>
<!-- Generator: Adobe Illustrator 26.2.1, SVG Export Plug-In . SVG Version: 6.00 Build 0)  -->
<svg version="1.1" id="Calque_1" xmlns="http://www.w3.org/2000/svg" xmlns:xlink="http://www.w3.org/1999/xlink" x="0px" y="0px"
	 viewBox="0 0 345.8 48.7" style="enable-background:new 0 0 345.8 48.7;" xml:space="preserve">
<style type="text/css">
	.st0{fill:#C8D2EA;}
</style>
<g id="B4yBOe.tif">
	<g>
		<path class="st0" d="M336.8,34c-0.1,6.2-3.2,11.7-7.7,14.7h-17.6c-4.8-3.1-8-8.8-7.9-15.2c0.2-9.8,7.7-17.6,16.8-17.4
			C329.6,16.3,337,24.3,336.8,34z"/>
		<path class="st0" d="M34.9,48.4c0,0.1,0,0.2-0.1,0.3H7.5c-5.7-4.6-8.3-12.3-6.4-19.9C3.5,19.4,13,13,22.8,14.3
			c4.4,0.6,8.4,2.1,11.7,5.6c-1.5,1.6-2.7,3-4.1,4.5c-4.1-3.7-8.7-5-13.9-3.5c-6.1,1.8-10,7.7-9.4,14.1S12.6,46.4,19,47.1
			c0.4,0,0.7,0.1,1.1,0.1c7.8,0.4,9.6-1.6,8.2-9.8h-8.2v-5.8h14.8C34.9,37.3,35,42.9,34.9,48.4z"/>
		<path class="st0" d="M67.8,16.2c-0.2-0.6-1.2-1.2-1.9-1.3c-1.1-0.2-2.3,0.1-3.4-0.1c-1.9-0.3-2.6,0.6-3.2,2.3
			c-4,10.6-8,21.1-12,31.7H54c0.1-0.4,0.3-0.8,0.4-1.2c0.2-0.4,0.4-0.8,0.4-1.2c0.4-1.8,1.4-2.6,3.4-2.4c1.9,0.2,3.9,0,5.9,0
			c2.5,0.1,5.5-0.7,7.3,0.5c1.2,0.8,1.7,2.6,2.2,4.4h6.7C76.1,37.9,72,27,67.8,16.2z M58,37.8c1.8-5,3.6-10,5.6-15.6
			c2,5.5,3.8,10.4,5.7,15.6H58z"/>
		<path class="st0" d="M147.9,16.4c-0.3-0.7-1.3-1.3-2.1-1.5c-1-0.3-2.1,0-3.2-0.1c-1.9-0.2-2.8,0.5-3.5,2.3
			c-3.2,8.7-6.5,17.3-9.8,25.9c-0.7,1.9-1.4,3.7-2.2,5.7h6.8c0.6-1.8,1.1-3.6,2.4-4.4c1.8-1.2,5-0.3,7.6-0.4c0.2,0,0.4,0,0.5,0
			c2.4,0.1,5.3-0.6,7,0.5c1.1,0.8,1.6,2.5,2.1,4.3h6.8C156.2,38,152.1,27.2,147.9,16.4z M137.9,37.9c1.8-5.1,3.6-10,5.7-15.7
			c2,5.6,3.8,10.5,5.7,15.7H137.9z"/>
		<path class="st0" d="M246.5,38.6c-0.1,4.1-1.4,7.6-3.6,10.2h-22.1c-1.9-2-2.9-4.6-3-7.7c-0.3-8.6-0.1-17.2-0.1-26.1h6.2v2.9
			c0,6.9-0.1,13.7,0,20.5c0.1,5.2,2.5,8.2,6.7,8.8c5.7,0.8,9.3-2.4,9.5-8.7c0.2-6.2,0.1-12.4,0.1-18.7V15h6.4v8.3
			C246.5,28.4,246.6,33.5,246.5,38.6z"/>
		<path class="st0" d="M287.1,43.3c-0.1,1.7-0.7,3.6-1.6,5c-0.1,0.2-0.3,0.4-0.4,0.5h-21.3c-1-1.2-1.7-2.7-2.3-4.5
			c2-0.9,3.6-1.7,5.5-2.5c1.7,3.3,3.9,5.8,8,5.5c3-0.2,5.3-1.7,5.7-3.9c0.4-2.8-1.5-4.2-3.7-5.2c-1.4-0.6-2.8-1-4.2-1.7
			c-2.3-1.2-4.7-2.2-6.7-3.8c-5.5-4.3-5-12.3,0.7-16.2c7.2-4.9,17.4-1.7,20.2,6.5c-1.7,0.8-3.4,1.6-5.2,2.4c-0.6-0.8-1-1.6-1.6-2.2
			c-2-2.5-5.2-3.6-8.1-2.2c-1.3,0.6-2.9,2.2-3.1,3.4c-0.2,1.3,1,3.4,2.2,4.1c3.1,1.8,6.6,3.1,9.8,4.6
			C285.2,35.1,287.5,38.5,287.1,43.3z"/>
		<path class="st0" d="M192.3,35.5c2.8,4.3,5.5,8.6,8.4,13.2h-7.4c-2.1-3.4-4.1-6.8-6.4-10.6c-2.3,3.8-4.4,7.1-6.3,10.6h-7.1
			c0.5-0.9,1-1.7,1.6-2.5c2.3-3.8,4.6-7.6,7.1-11.3c0.9-1.4,0.9-2.4,0-3.8c-3-4.5-5.9-9.1-8.8-13.7c-0.5-0.7-0.8-1.5-1.5-2.6
			c2.4,0,4.4-0.1,6.4,0.1c0.7,0.1,1.4,0.9,1.9,1.6c2.4,3.8,4.6,7.6,7.1,11.7c2.2-3.6,4.3-6.7,6-10c1.3-2.7,3.1-3.9,6-3.4
			c0.9,0.2,1.9,0,3.3,0c-3.6,5.7-6.8,11-10.2,16.1C191.1,32.7,191.2,33.9,192.3,35.5z"/>
		<polygon class="st0" points="116.2,46.6 116.2,48.8 94,48.8 94,15 100.2,15 100.2,46.6 		"/>
		<path class="st0" d="M319.9,0c2.3,2.1,4.4,3.9,6.4,5.7c0.3,0.3,0.6,0.8,0.6,1.1c-0.2,2.3-0.5,4.6-0.7,6.8c-3.8,0-7.7,0-12,0
			c0-0.3-0.1-0.9-0.1-1.5c0-0.5,0.4-1.1,0.3-1.5C311.9,4.5,318.4,3.8,319.9,0z"/>
		<path class="st0" d="M306.9,18.5c-0.9,1.1-1.7,2-2.4,3c-0.7,1-1.3,2.1-2,3.2c-0.7-0.1-1.3-0.3-1.9-0.4c-4.3-0.7-6.1-3.2-5.5-7.5
			c0.1-0.6,1.1-1.6,1.7-1.6C299.8,14.9,304.1,16.4,306.9,18.5z"/>
		<path class="st0" d="M338.1,24.7c-1.6-2.2-2.9-4.2-4.5-6.4c3.1-2.3,6.7-3.2,10.5-3.2c0.4,0,1,0.4,1.2,0.8c1.5,2.9-1.2,7.9-4.4,8.3
			C340,24.4,339,24.6,338.1,24.7z"/>
		<path class="st0" d="M306.3,48.8h-8.8c0.1-0.5,0.2-1,0.5-1.4c0.8-1.9,2.4-3.5,3.9-5.5c1.7,2.4,2.9,4.1,4.1,5.8
			C306.1,48,306.2,48.4,306.3,48.8z"/>
		<path class="st0" d="M343.3,48.8h-8.8c0.2-0.6,0.5-1.3,0.8-1.9c0.8-1.5,1.9-3,3-4.6C340.9,44,342.5,46.2,343.3,48.8z"/>
	</g>
</g>
</svg>
