<?xml version="1.0" encoding="utf-8"?>
<!-- Generator: Adobe Illustrator 26.2.1, SVG Export Plug-In . SVG Version: 6.00 Build 0)  -->
<svg version="1.1" id="Calque_1" xmlns="http://www.w3.org/2000/svg" xmlns:xlink="http://www.w3.org/1999/xlink" x="0px" y="0px"
	 viewBox="0 0 23 23" style="enable-background:new 0 0 23 23;" xml:space="preserve">
<style type="text/css">
	.st0{fill:#FFFFFF;}
</style>
<g id="RArkDh.tif_00000161595980780509452190000002161797306482263947_">
	<g>
		<path class="st0" d="M4.6,7.7v7.5c1.4-1.3,2.7-2.5,4.1-3.8C7.3,10.1,5.9,8.9,4.6,7.7z M13.5,12.1c-0.2,0.2-0.4,0.4-0.7,0.6
			c-0.8,0.7-2.1,0.7-2.9,0c-0.2-0.2-0.4-0.4-0.6-0.6c-1.4,1.2-2.7,2.5-4.1,3.7h12.3C16.2,14.6,14.9,13.3,13.5,12.1z M5.2,6.8
			C5.3,6.8,5.3,6.9,5.2,6.8C7,8.5,8.7,10,10.5,11.6c0.2,0.2,0.5,0.4,0.7,0.5c0.2,0.1,0.4,0.1,0.5,0c0.2-0.1,0.4-0.3,0.6-0.5
			c1.5-1.3,2.9-2.7,4.3-4c0.3-0.3,0.6-0.6,1-0.9H5.2z M14.2,11.4c1.4,1.3,2.7,2.5,4,3.8V7.7C16.9,8.9,15.6,10.1,14.2,11.4z
			 M14.2,11.4c1.4,1.3,2.7,2.5,4,3.8V7.7C16.9,8.9,15.6,10.1,14.2,11.4z M10.5,11.6c0.2,0.2,0.5,0.4,0.7,0.5c0.2,0.1,0.4,0.1,0.5,0
			c0.2-0.1,0.4-0.3,0.6-0.5c1.5-1.3,2.9-2.7,4.3-4c0.3-0.3,0.6-0.6,1-0.9H5.2c0,0,0.1,0.1,0.1,0.1C7,8.5,8.7,10,10.5,11.6z
			 M12.9,12.7c-0.8,0.7-2.1,0.7-2.9,0c-0.2-0.2-0.4-0.4-0.6-0.6c-1.4,1.2-2.7,2.5-4.1,3.7h12.3c-1.4-1.3-2.7-2.5-4.1-3.7
			C13.3,12.3,13.1,12.5,12.9,12.7z M4.6,7.7v7.5c1.4-1.3,2.7-2.5,4.1-3.8C7.3,10.1,5.9,8.9,4.6,7.7z M11.4,0.2
			c-6.2,0-11.1,5-11.1,11.1c0,6.1,5,11.1,11.1,11.1c6.1,0,11.1-5,11.1-11.1C22.6,5.2,17.6,0.2,11.4,0.2z M19.3,15.5
			c0,0.8-0.6,1.4-1.4,1.4c-2.2,0-4.3,0-6.5,0c-2.1,0-4.3,0-6.4,0c-0.9,0-1.4-0.7-1.4-1.4c0-2.7,0-5.5,0-8.2c0-0.7,0.4-1.3,1-1.4
			c0.1,0,0.2,0,0.3,0c4.3,0,8.6,0,12.9,0c0.8,0,1.4,0.6,1.4,1.4C19.3,9.9,19.3,12.7,19.3,15.5z M18.3,15.1V7.7
			c-1.4,1.2-2.7,2.5-4,3.7C15.6,12.6,16.9,13.9,18.3,15.1z M10.5,11.6c0.2,0.2,0.5,0.4,0.7,0.5c0.2,0.1,0.4,0.1,0.5,0
			c0.2-0.1,0.4-0.3,0.6-0.5c1.5-1.3,2.9-2.7,4.3-4c0.3-0.3,0.6-0.6,1-0.9H5.2c0,0,0.1,0.1,0.1,0.1C7,8.5,8.7,10,10.5,11.6z
			 M12.9,12.7c-0.8,0.7-2.1,0.7-2.9,0c-0.2-0.2-0.4-0.4-0.6-0.6c-1.4,1.2-2.7,2.5-4.1,3.7h12.3c-1.4-1.3-2.7-2.5-4.1-3.7
			C13.3,12.3,13.1,12.5,12.9,12.7z M4.6,7.7v7.5c1.4-1.3,2.7-2.5,4.1-3.8C7.3,10.1,5.9,8.9,4.6,7.7z"/>
	</g>
</g>
</svg>
