<svg xmlns="http://www.w3.org/2000/svg" viewBox="0 0 410.54 412.93"><defs><style>.cls-1{fill:#fff;}</style></defs><title>アセット 1</title><g id="レイヤー_2" data-name="レイヤー 2"><g id="レイヤー_1-2" data-name="レイヤー 1"><path class="cls-1" d="M410.41,238.43v-3.8l-.3-2.8a20.62,20.62,0,0,1-.2-2.1,40,40,0,0,0,.5-5.6v-2.2c-.1-.7-.1-1.4-.2-2.2l-.1-5.9v-.2a9.52,9.52,0,0,0,.1-4.1c0-.4-.1-.9-.1-1.3v-9.3L410,197a10.25,10.25,0,0,1,.2-3.8v-2.9a16,16,0,0,1,.1-6.6,7.26,7.26,0,0,0,0-3.6,4.48,4.48,0,0,1-.1-1.1l-.1-1.1a24.59,24.59,0,0,1,0-4.7,35.17,35.17,0,0,0-.2-10.7v-.4a9.69,9.69,0,0,0,0-3.4c0-.4-.1-.9-.1-1.3a12.31,12.31,0,0,1,.2-2l.1-1.4-.1-1.2a7.22,7.22,0,0,1,0-3.3l-.2-3,.1-.1a3.55,3.55,0,0,0,.2-1l-.1-.7a2.07,2.07,0,0,0-.2-.6l.2-5.6a9.7,9.7,0,0,1,.1-1.7,16.54,16.54,0,0,0-.4-7.4v-1.3a12,12,0,0,0,.3-5.4v-.1c0-.2.1-.3.1-.5v-2.6a1.85,1.85,0,0,1,0-1.2v-2.6a5.64,5.64,0,0,1-.1-.7l.1-4.1a.75.75,0,0,0-.1-.5l-.3-.9c-.5-1.3-.2-2.8.2-4.7,0-.2.1-.6.1-.8v-9.8a.6.6,0,0,0-.1-.4v-.5c0-.2.1-.3.1-.5v-3l-.1-3-.3-1.3.3-1.2a1.7,1.7,0,0,0,.1-.7v-4.1a.75.75,0,0,0-.1-.5,2,2,0,0,1-.1-1.3,2.44,2.44,0,0,0,0-1.2,8.39,8.39,0,0,1-.1-3.2,14.08,14.08,0,0,0,.1-2c0-.5.1-.9.1-1.4a9.69,9.69,0,0,0,0-3.4l.1-2.1a1.27,1.27,0,0,0,.1-.6v-8.4l-.3-1.5.1-2.7-.1-5.2a7.57,7.57,0,0,0-.1-1.5,9.82,9.82,0,0,1,.1-2.5l.2-.7c0-.2.1-.3.1-.5v-4a2.2,2.2,0,0,0-.1-.8l-.2-1,.3-1a.9.9,0,0,0,.1-.5v-8.2l-.1-1.1v-.3c0-.1.1-.4.1-.6v-5.2a.75.75,0,0,0-.1-.5l-.2-.9c0-.4.1-.8.1-1.2a9.66,9.66,0,0,0,.1-2.4,7.61,7.61,0,0,0-.3-2.1,7.72,7.72,0,0,1-.2-1.5c-.1-1.1,0-2.2,0-3.2V4.83a2,2,0,0,0-2-2h-.5l-3.1-.3a1.93,1.93,0,0,0-1,.3h-.2c-1.7-1.4-3.8-1.4-6,0h-1.1a2.77,2.77,0,0,0-.9-.1l-.9.1a.6.6,0,0,0-.4.1l-4.2-.4a2.2,2.2,0,0,0-.8.1l-.8.3-1-.1-1.1-.4a1.18,1.18,0,0,0-.8-.1l-1.6.1h-2.3a3.14,3.14,0,0,0-1.2.1l-2.1-.8a2,2,0,0,0-1.1-.1l-1.4.2a1.93,1.93,0,0,0-1-.3h-3a1.48,1.48,0,0,0-.7.1l-5.2-.1a2.39,2.39,0,0,0-.9.2,1.49,1.49,0,0,0-.9-.2h-2.3a1.75,1.75,0,0,0-1.2.4l-1.8.1h-1.3a12,12,0,0,0-1.9,0l-1-.3-.5-.3a1.49,1.49,0,0,0-.9-.2h-4.6a1.61,1.61,0,0,0-.9.3h-.3a3.64,3.64,0,0,0-3,.2,7,7,0,0,0-1.6.2,1,1,0,0,0-.4.1,2.38,2.38,0,0,0-1.1-.6l-4.1-.2a2.17,2.17,0,0,1-2.2,0h-9.7a3.36,3.36,0,0,0-1.4.5c-.3.2-.8.5-.8.3l-.4-.3a2.11,2.11,0,0,0-1.3-.5h-1.5a1.85,1.85,0,0,1-1.2,0h-3.7a3.91,3.91,0,0,0-3.4.6,5.12,5.12,0,0,0-5.2-.5l-2.6.6h-.6a6.31,6.31,0,0,0-.9-.4,1.94,1.94,0,0,0-1.5.2c-.1,0-.3-.1-.4-.1l-3.3-.3a2.2,2.2,0,0,0-.8.1l-1.6.5-2.1-.2a9.1,9.1,0,0,0-7.2-.3,6.61,6.61,0,0,1-1.9-.1l-3.2-.4a2,2,0,0,0-1.5.4c-.4.3-.9.6-2.1,0a1.39,1.39,0,0,0-1.1-.2l-3.7.4-.9-.1h-2.4l-3.3-.1a3.67,3.67,0,0,0-3.2.2h-2.2l-1.5-.5a1.09,1.09,0,0,0-.5-.1h-1.3a7.73,7.73,0,0,0-3.2.7l-2.2-.6a1.48,1.48,0,0,0-.7-.1h-5.9a2.28,2.28,0,0,0-1.1.3l-.5-.2a1.7,1.7,0,0,0-.7-.1h-4.7a1.9,1.9,0,0,0-1.3.5c-.3.3-.5.4-1,.1a2.92,2.92,0,0,0-.9-.2l-1.9.1L230,.93a1.27,1.27,0,0,0-.6-.1h-4.6a2.14,2.14,0,0,0-1.2.4l-.5-.1c-.6-.1-1.2-.2-2-.3l-2,.1a1.48,1.48,0,0,0-.7-.1h-2.2a.9.9,0,0,0-.5.1c-.2,0-.3-.1-.5-.1h-5.3a2,2,0,0,0-1.4.6c-.1,0-.3-.1-.4-.1l-.3-.1a2.14,2.14,0,0,0-1.2-.4h-.9a2.92,2.92,0,0,0-.9.2,2.92,2.92,0,0,0-.9-.2h-2a2,2,0,0,0-1.1.3l-.7-.1h-.5a1.49,1.49,0,0,0-.9-.2h-3.5l-.8.1-.3-.1c-.2,0-.3-.1-.5-.1h-5a1.27,1.27,0,0,0-.6.1c-.8.2-1.1.2-1.3.1a2.35,2.35,0,0,0-.8-.2h-6.4a1.27,1.27,0,0,0-.6.1l-.4.2c-.4.1-.8.2-1.3.3a3.8,3.8,0,0,1-1.7.2,6.9,6.9,0,0,0-2.3-.3h-.5a2,2,0,0,0-1.3-.4h-2.5l-2.1.1-2.6.7a10.15,10.15,0,0,1-2.5-.6,2.35,2.35,0,0,0-.8-.2h-2a2,2,0,0,0-1.1.3l-.9.6a4.57,4.57,0,0,1-.6-.4l-.4-.3a2,2,0,0,0-1.1-.3h-5.9c-1,.1-2,.2-3,.4a4.23,4.23,0,0,1-1.8-.3,1.7,1.7,0,0,0-.7-.1h-3.9l-1.6.1a1.7,1.7,0,0,0-.7-.1h-1.6a1.61,1.61,0,0,0-.9.3l-.4-.2a1.7,1.7,0,0,0-.7-.1h-2.7a1.7,1.7,0,0,0-.7.1l-5-.1h-.7l-2.3.4-2.9-.2-1.8.1-.9-.3a1.48,1.48,0,0,0-1.3,0l-1.9.6-6.3-.3-4.2.5a7.77,7.77,0,0,0-1.6-.2c-.8,0-.9-.1-1.1-.3a3,3,0,0,0-1.1-.6,1.39,1.39,0,0,0-.9,0l-1,.2a19.8,19.8,0,0,0-2.6.6l-1.6.2-.6-.5A7.84,7.84,0,0,0,91,.43a2.77,2.77,0,0,0-.9.1L89,.93c-.5.2-1.1.3-1.8.6l-.4-.1a1.41,1.41,0,0,0-.9-.1l-1.6.1-1.1-.3c-1-.2-1.9-.5-2.9-.6a3.75,3.75,0,0,0-1.1.1l-.7.3c-.4,0-.7-.1-1.1-.1a14.77,14.77,0,0,0-2.1-.1c-1.2,0-2.4.1-3.7.2l-1.2.1a4,4,0,0,0-3.9-.5l-1.7.5h-3.6L60,.93c-.2,0-.6.1-.8.1h-.3a1.69,1.69,0,0,0-.5-.2l-1.3-.2a1.8,1.8,0,0,0-1.6.4h-1.1a5.49,5.49,0,0,0-2.8-.2,3.4,3.4,0,0,0-1.4.2h-.4l-5.2-.5a4.25,4.25,0,0,0-1.1.2l-.3-.3a1.79,1.79,0,0,0-1.4-.4l-.7.1a1.61,1.61,0,0,0-.9.3l-.8.5h-.7a2.76,2.76,0,0,0-2.3-.5,1.33,1.33,0,0,0-.7.3.6.6,0,0,0-.4-.1l-1.9-.4a1.93,1.93,0,0,0-1.8.6h-.9a1.42,1.42,0,0,0-.6.2h-1.6l-3.1-.3a1.93,1.93,0,0,0-1,.3h-.2c-1.7-1.3-3.8-1.4-6,0h-1.3a1.41,1.41,0,0,0-.9-.1l-.9.1a.37.37,0,0,0-.3.1l-4.3-.4a2.2,2.2,0,0,0-.8.1l-.8.3-1-.1L6.81.63A2.49,2.49,0,0,0,6,.53l-1.6.1H3.11a1.45,1.45,0,0,0-1.4.6,2,2,0,0,0-.6,1.4v2a18.18,18.18,0,0,0,0,3.3L.81,10a8.55,8.55,0,0,0,0,1.6v1.8l.3,2.3a5.41,5.41,0,0,1-.1,2.5l-.1,3.4V25c0,.2-.1.3-.1.5v4.1c0,.2.1.6.1.8A11.4,11.4,0,0,1,.81,37a1.27,1.27,0,0,0-.1.6v2.7a1.85,1.85,0,0,0,.2.7l-.2,4.9.1,5.3a1.7,1.7,0,0,0-.1.7V53a1.48,1.48,0,0,0,.1.7l.2.5a7.64,7.64,0,0,0-.1,3l-.2.6c0,.2-.1.3-.1.5v1.4c0,.5,0,.8.4,1.1,0,.1-.1.6-.1.8s-.1.5-.2.7c0,0-.1.5-.1.6v3.6l.5,2v1a8.65,8.65,0,0,0-.2,4.6l-.1,3.8v1.8l-.2,2.7.1,4.3c0,1.1.1,2.1,0,3.1l-.1,4.5a1.27,1.27,0,0,0,.1.6l.2.5-.2,1.9a1.27,1.27,0,0,0-.1.6v12c.1,1.3.2,2.5.4,3.7a10.37,10.37,0,0,1-.3,4c0,.2-.1.8-.1,1l.1,3c.1,2,.1,4.1.1,6.1,0,1.1,0,2.2-.1,3.3s-.1,1.9,0,3.2l.3,1.6c-.1,1.6-.2,3.3-.3,4.9l-.2,2.7.1,2.8-.2,1.4v1.5c.1,1.2.2,2.5.3,3.7l.2,2.3-.6,2.6v3.6l.2,1.7c.2,1.3.2,2.7.3,4.1l.2,1a19.54,19.54,0,0,0-.6,4.7,21.05,21.05,0,0,1-.1,2.3,2.77,2.77,0,0,0,.1.9,6.36,6.36,0,0,1,0,2.4c0,.1-.1.6-.1.7l.2,2.1a4.35,4.35,0,0,1,0,2,21.75,21.75,0,0,0-.1,2.6v5.1a6.6,6.6,0,0,1-.1,1.4c0,.7-.1,1.5-.1,2.6a12.63,12.63,0,0,0,.4,3.8l-.3,2v3.8a17,17,0,0,1-.1,2.2v2.7l.1,1.7a25.28,25.28,0,0,1,.1,2.8l.1.2a7,7,0,0,0-.1,3.8v3.6l-.1,2.1.1,5.4-.2,3.2a1.49,1.49,0,0,0,.2.9v2.3a9.72,9.72,0,0,0,0,3.8l.1,7a24.63,24.63,0,0,0-.2,5.5c.1,1.3.2,2.7.2,4l.1,10.2-.1.6a11.14,11.14,0,0,0-.2,5.8l.3,4.1a33.13,33.13,0,0,0-.4,5.5v1l.2,2.1a7.57,7.57,0,0,0,.2,2.8v2.3a2.77,2.77,0,0,0-.1.9l.1,3.5-.2,1a24.37,24.37,0,0,0-.1,2.7,19.27,19.27,0,0,1-.1,2.4,23.38,23.38,0,0,0,.1,5.3c0,.6.1,1.3.1,2l.1,11.9a22.57,22.57,0,0,0,0,5.2v8.5L.41,335l.2,7.2-.2,1.7v1.4l-.1,2.3a2.77,2.77,0,0,0,.1.9l.2,3-.3,1.6v.5l.4,2.4c0,.1-.1.6-.1.7l-.2,1.5a2.77,2.77,0,0,1-.1.9,6.67,6.67,0,0,0,.3,3.6v2.4a5.85,5.85,0,0,0,0,3.7v2.4l-.1.6a1.1,1.1,0,0,0,0,.8l.2,4.1-.1,1.1.1,3.7c0,1-.1,2-.2,3l-.1,2.2.1.8a.9.9,0,0,0,.1.5l.1,7.8c-.2,1.3-.3,2.6-.4,3.9a13.4,13.4,0,0,0,.1,2,10.74,10.74,0,0,1,0,1.8,19.23,19.23,0,0,0,0,4.8s.1.5.1.6a2,2,0,0,0,2,1.5h.9a2.81,2.81,0,0,0,1.1-.1l2.1.8a2.08,2.08,0,0,0,1.1.1l1.4-.2a1.93,1.93,0,0,0,1,.3h3a.75.75,0,0,0,.5-.1l5.3.1a2.39,2.39,0,0,0,.9-.2,1.49,1.49,0,0,0,.9.2H23a1.92,1.92,0,0,0,1.2-.4l1.8-.1,1.2.1a13.28,13.28,0,0,0,2,0l.9-.1.5.3a2.92,2.92,0,0,0,.9.2h4.6a1.61,1.61,0,0,0,.9-.3h.3a3.64,3.64,0,0,0,3-.2,7.77,7.77,0,0,0,1.6-.2,1,1,0,0,0,.4-.1,2.28,2.28,0,0,0,1.2.6l4,.2a2,2,0,0,0,1.1-.3,2,2,0,0,0,1.1.3h9.6a3.94,3.94,0,0,0,1.4-.5c.3-.2.8-.5.9-.3l.4.3a2.11,2.11,0,0,0,1.3.5h1.5a1.27,1.27,0,0,0,.6-.1h0a1.27,1.27,0,0,0,.6.1h3.8a4.13,4.13,0,0,0,3.5-.6,5.12,5.12,0,0,0,5.2.5l2.6-.6h.5a5.9,5.9,0,0,0,.8.4,1.8,1.8,0,0,0,1.6-.2c.1,0,.2.1.3.1l3.3.3a2.2,2.2,0,0,0,.8-.1l1.6-.5,1.9.1a9,9,0,0,0,7.3.4,4.24,4.24,0,0,1,1.9.1l3.2.4a2.6,2.6,0,0,0,1.5-.4c.4-.3.9-.6,2.1,0a1.39,1.39,0,0,0,1.1.2l3.7-.4.9.1h2.1l3.5.1a3.67,3.67,0,0,0,3.2-.2h2.3l1.5.5c.2,0,.3.1.5.1l1.3.1a7.73,7.73,0,0,0,3.2-.7l2.2.6a1.48,1.48,0,0,0,.7.1H140a2.28,2.28,0,0,0,1.1-.3l.5.2a1.7,1.7,0,0,0,.7.1H147a1.9,1.9,0,0,0,1.3-.5c.3-.3.5-.4,1-.1a2.92,2.92,0,0,0,.9.2l2-.1,1.8.5a4.33,4.33,0,0,1,.5.1h4.6a2.14,2.14,0,0,0,1.2-.4l.6.1c.5.1,1.1.2,1.9.3l2-.1a1.27,1.27,0,0,0,.6.1h2.2a.9.9,0,0,0,.5-.1c.2,0,.3.1.5.1h5.3a2,2,0,0,0,1.4-.6c.1,0,.2.1.4.1l.4.2a2,2,0,0,0,1.1.3h.9a2.92,2.92,0,0,0,.9-.2,2.92,2.92,0,0,0,.9.2h2a2,2,0,0,0,1.1-.3l.7.1h.5a1.49,1.49,0,0,0,.9.2h10.2a1.27,1.27,0,0,0,.6-.1,2,2,0,0,1,1.3-.1,3.09,3.09,0,0,0,.8.2h6.4a1.27,1.27,0,0,0,.6-.1l.4-.2,1.2-.3a4.1,4.1,0,0,1,1.8-.2,4.78,4.78,0,0,0,2.3.2h.4a2,2,0,0,0,1.3.4H215l2.1-.1,2.6-.7a6.57,6.57,0,0,1,2.5.6,2.35,2.35,0,0,0,.8.2h1.9a2,2,0,0,0,1.1-.3l.7-.6c.1,0,.2.1.6.4a2.19,2.19,0,0,0,.5.3,2,2,0,0,0,1.1.3h6a15.67,15.67,0,0,0,3-.5,4.23,4.23,0,0,1,1.8.3,1.7,1.7,0,0,0,.7.1h3.9l1.6-.1a1.7,1.7,0,0,0,.7.1h1.6a1.61,1.61,0,0,0,.9-.3l.4.2a1.7,1.7,0,0,0,.7.1H253a1.7,1.7,0,0,0,.7-.1h.1l.3.1c.2,0,.3.1.5.1h4.8l2.2-.4,2.9.2,1.8-.1.9.4a1.7,1.7,0,0,0,1.4,0l1.9-.6,6.3.3,4.5-.4c.4.1.9.1,1.3.2.8.1.9.1,1.1.3a1.61,1.61,0,0,0,1.1.5,1.1,1.1,0,0,0,.8,0l.9-.2a19.8,19.8,0,0,0,2.6-.6l1.6-.2.6.5a5,5,0,0,0,1.3.5,2.72,2.72,0,0,0,.9,0l1.2-.4c.7-.2,1.3-.4,1.6-.5l.6.1a2.49,2.49,0,0,0,.8.1l1.6-.1.9.2c1,.2,2.1.5,3.2.7a2.08,2.08,0,0,0,1.1-.1l.7-.3c.4,0,.7.1,1.1.1a14.77,14.77,0,0,0,2.1.1c1.3,0,2.5-.1,3.8-.2l1.1-.1a4,4,0,0,0,3.9.5l1.7-.5h3.6l1.2.1a2,2,0,0,0,.8-.1h.3a1.42,1.42,0,0,0,.6.2l1.3.2a2.28,2.28,0,0,0,1.6-.4h1.1a6.5,6.5,0,0,0,2.7.2h.7a3.09,3.09,0,0,0,.8-.2h.4l5.2.5a5.16,5.16,0,0,0,1.1-.2c.1.1.2.2.3.2a1.91,1.91,0,0,0,1.5.4l.7-.1a1.61,1.61,0,0,0,.9-.3l.8-.5h.7a2.9,2.9,0,0,0,2.4.5,1.33,1.33,0,0,0,.7-.3.6.6,0,0,0,.4.1l1.8.4a1.93,1.93,0,0,0,1.8-.6h.9a1.42,1.42,0,0,0,.6-.2h1.6l3.1.3a1.31,1.31,0,0,0,1-.3h.2a4.81,4.81,0,0,0,6,0h1.1a1.41,1.41,0,0,0,.9.1l.9-.1a.37.37,0,0,0,.3-.1l4.4.4a2.2,2.2,0,0,0,.8-.1l.8-.3,1,.1,1.1.4a1.41,1.41,0,0,0,.9.1l1.6-.1h2.4a10.42,10.42,0,0,0,1.1-.1l2.1.8a2.08,2.08,0,0,0,1.1.1l1.4-.2a1.93,1.93,0,0,0,1,.3h3a1.48,1.48,0,0,0,.7-.1l5.2.1a2.39,2.39,0,0,0,.9-.2,1.49,1.49,0,0,0,.9.2h2.3a1.92,1.92,0,0,0,1.2-.4l1.8-.1a9,9,0,0,0,1.8-.2,2.77,2.77,0,0,1,.9-.1,2,2,0,0,0,2-2v-1.7c0-3,0-11.1.3-12.4.3-1-.1-11.1-.1-11.1l.2-2.4v-.6a3.19,3.19,0,0,1,.2-1.6c0-.1.1-.5.1-.7v-2.8a.76.76,0,0,0-.1-.4l.1-.6-.1-3.9-.2-.5a8.1,8.1,0,0,1,0-2.2c0-1,0-2-.1-3a22.88,22.88,0,0,1,.1-4.5,14.08,14.08,0,0,0,.1-2l.1-1.5v-11.5a17.41,17.41,0,0,1,0-4.6v-8.8l-.1-1,.1-2.3v-6l-.1-.7v-1.7l-.1-1.8.1-.2a1.7,1.7,0,0,0,.1-.7v-3.8l-.3-1.2.2-.9a1.27,1.27,0,0,0,.1-.6v-1.6c0-.2-.1-.5-.1-.7l-.1-1.1c0-.5-.1-1-.1-1.4-.1-.8-.1-1.1,0-1.3a2.14,2.14,0,0,0,.4-1.2v-3.3a2.35,2.35,0,0,0-.2-.8,1.91,1.91,0,0,1,0-1.5,1.7,1.7,0,0,0,.1-.7v-3a1.27,1.27,0,0,0-.1-.6l.1-9.5c-.1-1.1-.1-2.1-.2-3.1l-.2-2,.2-.7a1.48,1.48,0,0,0,.1-.7v-8c0-.1-.1-.6-.1-.7-.1-1.1-.2-2.1-.3-3.2a7.57,7.57,0,0,1,.1-1.5,11.29,11.29,0,0,0,0-2.6,12,12,0,0,1,.2-4.7,1.27,1.27,0,0,0,.1-.6v-8.4l-.3-2.4.2-.5a1.7,1.7,0,0,0,.1-.7v-2.8c0-.1-.1-.5-.1-.6a8.1,8.1,0,0,1,0-2.7C410.31,238.83,410.41,238.63,410.41,238.43Z"/><path d="M407.71,409.33c0-3.3-.1-12.8.4-14.6.1-.4-.1-8.8-.2-10.8l.2-2.4a6.2,6.2,0,0,1,.2-2.7V376l-.1-.2.1-.8v-3.3l-.2-.8c-.2-1.7.1-3.4-.1-5.2a40.08,40.08,0,0,1,.2-6.9l.1-1.3v-11.2a20.08,20.08,0,0,1,0-4.9v-8.7l-.1-1.2.1-2.2v-5.6l-.1-.5V321l-.1-2.3.3-.7v-3.5l-.3-1.6v-.6l.3-.8v-1.6l-.1-.5-.1-1.3c0-1.3-.6-2.6.3-3.9v-3.3a3.9,3.9,0,0,1,0-3v-3.1l-.1-.6.2-1v-3.8l-.1-.7.1-1.9v-2c-.1-1.7-.2-3.3-.3-5l.1-.9.2-.7v-8c-.1-1.2-.3-2.5-.3-3.8s.2-2.7.1-4a12.54,12.54,0,0,1,.3-5.5v-8.2a28.86,28.86,0,0,0-.4-2.9l.4-1V242a10.23,10.23,0,0,1,0-3.9v-3.6l-.2-1.7a15.83,15.83,0,0,1-.3-3.7,31.53,31.53,0,0,0,.4-5.3v-2c-.1-.9-.2-1.9-.3-3.2v-5.5c.6-1.7.1-3.4.1-5.1v-9.3l-.1-1.7a9.87,9.87,0,0,1,.2-4.2l.1-2.5a18.42,18.42,0,0,1,.1-7.4c.4-1.5-.1-2.8-.2-4.2a41.64,41.64,0,0,1-.1-6.1,32.32,32.32,0,0,0-.2-10.3l-.1-.7c.4-1.5,0-3,0-4.5,0-1.1.2-2.3.3-3.4V153a8.53,8.53,0,0,1-.1-3.9v-1.3l-.1-.6v-1.6l.2-.5-.1-.7-.2-.5v-3.3l.1-1.7c.1-1,0-2,.2-3a14.14,14.14,0,0,0-.4-6.8V127a10.48,10.48,0,0,0,.2-5l.1-.6v-2.6l-.1-.1-.1-.7.2-.4v-1.9l-.1-.4v-.7l.1-1.1v-2.6l-.2-.7c-.7-2-.3-3.9.1-5.8l.1-.3v-9.9l-.1-.2v-6.7l-.4-1.6v-1.1l.4-1.1v-4.1a3.87,3.87,0,0,1-.1-2.4c-.7-1.9-.1-3.9-.2-5.9,0-1.5.6-3,.1-4.7l.1-2.5.1-.4v-8l-.3-1.9.1-2.7c0-1.7,0-3.5-.1-5.2,0-1.5-.3-3.4.1-4.5l.2-.7v-4l-.3-.8v-1.3l.3-1.2v-8.1l-.1-1.4v-5.8l-.2-.7v-.9a19.4,19.4,0,0,0,.2-3.4c0-1.2-.4-2.4-.5-3.6-.1-1.6,0-3.2,0-4.9h-.7l-1.8-.2-1.2-.1-.2.3h-1.6l-.2-.2c-1.4-1.3-2.8-1-4.2,0l-.2.1h-2.4l-.1-.1-.9.1v.1h-1l-.7-.2-1.4-.1-1.8-.1-1.2.4h0l-1.7-.1-1.4-.5-1.8.1h-1.3a26.13,26.13,0,0,1-2.8,0l-2.1-.8-2,.4-.5-.1-.4-.3h-3l-.1.1-.3.1-.8-.1h-4.6l-.7.6-.7-.1-.4-.5h-2.3l-.4.4-2.6.1c-1,0-2-.1-3-.1l-1.5.2-1.1-.6h-4.6l-.2.2-1.4.2c-.9-.9-1.8.2-2.7.1-1.1,0-2.3.9-3.4-.3l-1.3-.2h-2.4l-.6.7h-.7l-.9-.7h-3.1l-.1.1h-.6l-.1-.1h-5.6l-.2.1c-1.1.7-2.2,1.5-3.4.2l-.4-.3h-1.5l-.6.2h-.4l-.2-.2h-1.2l-.2.4-.4-.2-.1-.1h-1.5l-.3.2c-1.1-.7-2-.3-2.9.4h-1.2a3.23,3.23,0,0,0-3.9-.7l-1.7.3-1,.3-.1.1h-1.8l-.3-.3-.4-.1-.3.4h-.9l-.3-.2h-.8l-2.2-.2h-.4l-1.9.6-2.6-.1-.4-.1c-1.9-1.2-3.9-.9-5.9-.3-1.1.4-2.3,0-3.5-.1l-2.4-.3c-1.4,1.1-2.8.9-4.3.2l-1.5.1-2.4.3-1-.1H265c-1-.1-2-.9-2.9.1h-3.2l-1.8-.6h-1.2a6.74,6.74,0,0,0-3,.8l-2.1-.5-1-.3h-5.9l-.6.6-1.7-.6h-4.7a2.61,2.61,0,0,1-3.1.5l-2.3.1-2.2-.6h-4.6l-.4.4-.5.1a29.31,29.31,0,0,0-2.9-.5h-1.1l-1.1.2-.4-.2h-2.2l-.6.3-.4-.2h-5.2c-.7,1.6-1.5.5-2.2.4l-.7-.2-.3-.2h-.9l-.5.5-.3.1-.9-.5h-2l-.4.5-1.3-.3h-1.2l-.3-.2h-3.2l-1.2.2-.7-.2h-5a3.86,3.86,0,0,1-2.8,0h-6.7l-.7.2c-1.3.2-2.7.8-4,.4-1-.4-2,.1-3-.2l-.4-.3h-2l-.5.1-.1-.1H167l-1.6.4-1.3.4a13,13,0,0,1-3.4-.8h-2l-.8.5c-1,.8-2,.3-2.8-.3l-.3-.2h-5.7c-.9.1-1.8.2-2.8.4a5.71,5.71,0,0,1-2.9-.4h-3.8l-2.3.2-.2-.2h-1.6l-.3.4-1-.1-.7-.3h-2.7l-.7.2-.9-.2h-4.4l-2.6.4h-.9l-1.8-.2-2.2.1-1.3-.5-2.3.7-2-.3-2.3-.1h-2.1l-1.6.1-1,.2-2.1.2h-.2c-1.2-.3-2.4.1-3.5-1h-.1a19.42,19.42,0,0,0-3.3.7l-1,.3h-2l-1.2-.9-.5-.1c-1.1.3-2.2.7-3.3,1h-.7l-.6-.3-1.3.1-.5.1c-1.4-.3-2.8-.7-4.3-.9l-1.1.5c-1.2,0-2.4-.2-3.6-.2-1.7,0-3.4.2-5.2.3H70c-.9-.6-1.8-1.1-2.8-.6l-2,.6h-4L60,3.63l-.4.1h-1.2l-.5-1-1.3-.2-.5.5H54l-.4-.1a6.61,6.61,0,0,0-2.8,0l-.1.1-.6.1h-.9l-1.5-.3-2.2-.1-1.3-.1c-.9,1-1.7.2-2.4-.4l-.7.1-1.3.9h-1.9c-.5-.2-1.2-1.2-1.8,0h-.8l-.6-.4-1.9-.4-.7.8h-.7l-.2-.2h-.8l-.3.2h-2.2L26.11,3l-1.2-.1-.2.3h-1.6l-.2-.2c-1.4-1.3-2.8-1-4.2,0l-.2.1h-2.4L16,3l-.9.1v.1h-1l-.7-.2L12,2.93l-1.8-.1L9,3.23H9l-1.7-.1-1.4-.5-1.8.1H2.81V5a10.75,10.75,0,0,0,.1,3.1l-.3,2.4a27.15,27.15,0,0,1-.1,2.9v.1l.2,2a6.51,6.51,0,0,1-.1,3.1L2.51,21l-.1,1.2h0v3.5l-.1.2V30l.1.3a13,13,0,0,1,0,7.3l-.1.3v2.7l.2.4v2.2c0,1-.1,2-.1,3v3.9l.1.4v1.4l-.1.3v1.1l.5,1.2a6.87,6.87,0,0,0-.2,3.2l-.3,1v1.4h0c.7,1,.2,2.2,0,3v3.4l.5,2.3V70a6,6,0,0,0-.2,4.2l-.1,2.3v3.8l-.2,2.6v2.7c0,1.6.1,3.3,0,4.9l-.1.6v3.7l.3.9L2.51,98l-.1.4v2.1h0v9.7c.1,1.2.2,2.4.3,3.5a12.72,12.72,0,0,1-.3,4.8v.4c.1,3.1.2,6.1.2,9.1,0,2.1-.1,4.1-.1,6.2l.3,2c-.1,2.5-.4,4.9-.5,7.4v3.1l-.1,1.1v1.4c.1,2,.4,3.9.6,5.8v.8l-.5,2.1v3.4l.2,1.7c.2,1.9.3,3.8.4,5.7v.2c-.6,1.9-.4,4.1-.6,6.2v.3a6.63,6.63,0,0,1,.1,3.7l.1,1.6a6.62,6.62,0,0,1,.1,2.8c-.1,1.2,0,2.4,0,3.6v4c0,1.2-.2,2.4-.1,3.5a10.71,10.71,0,0,0,.4,4l-.3,2.2v3.8c0,1.1-.1,2.1-.1,3.2v1.6c.1,1.5.2,3,.2,4.6v.7a5.11,5.11,0,0,0,0,3v4l-.1,1.6.1,1.1v4.8l-.2,1.2-.1,1.7.2.5v2.7l-.1.4a13.63,13.63,0,0,0,.1,4v6.5a21.59,21.59,0,0,0-.2,5.1c.1,1.6.2,3.2.2,4.8V266l-.1.6a10,10,0,0,0-.2,4.9l.3,1.4v3.4a58.23,58.23,0,0,0-.5,6l.2,2.3a6.2,6.2,0,0,0,.2,2.7v2.8l-.1.2.1.8v3.4l-.2.8c-.2,1.7.1,3.4-.1,5.1a40.08,40.08,0,0,0,.2,6.9l.1,1.3v11.2a20.08,20.08,0,0,0,0,4.9v8.6l-.1,1.2.1,2.2v5.6l-.1.5V345l-.1,2.3.3.7v3.4l-.3,1.6v.5l.3.9V356l-.1.5-.1,1.3c0,1.3-.6,2.6.3,3.9V365a3.9,3.9,0,0,0,0,3v3.1l-.1.6.2,1v3.8l-.1.7.1,1.9v2c-.1,1.7-.2,3.3-.3,5l.1.8.2.7v8c-.1,1.2-.3,2.5-.3,3.7s.2,2.7.1,4a14.76,14.76,0,0,0,0,4.2l.1.4a26.15,26.15,0,0,1,2.8,0l2.1.8,2-.4.5.1.4.3h3l.1-.1.3-.1.8.1h4.7l.7-.6h.7l.4.5h2.3l.4-.3,2.6-.2c1,0,2,.1,3,.1l1.5-.2,1.1.6h4.6l.2-.2,1.4-.2c.9.9,1.8-.1,2.7-.1,1.1,0,2.3-.9,3.4.3l1.4.2h2.4l.6-.7h.7l.9.7h3.1l.1-.1h.6l.1.1h5.6l.2-.1c1.1-.7,2.2-1.5,3.4-.2l.4.3h1.5l.6-.2h.4l.2.2h1.3l.2-.4.4.2.1.1h1.5l.3-.2c1.1.7,2,.3,2.9-.4h1.2a3.23,3.23,0,0,0,3.9.7l1.7-.3,1-.3.1-.1H83l.3.3.4.1.3-.5h.9l.3.2.8.1,2.2.2h.4l1.9-.6,2.6.1.4.1c2,1.2,3.9.9,5.9.3a10.36,10.36,0,0,1,3.5.1l2.4.3c1.4-1.1,2.8-.9,4.3-.2l1.4-.1,2.4-.3,1,.2h5.3c1,.1,2,.9,2.9-.1h3.2l1.8.6h1.2a6.74,6.74,0,0,0,3-.8l2.1.5,1,.3h5.9l.5-.6,1.7.6h4.7a2.61,2.61,0,0,1,3.1-.5l2.3-.1,2.2.6h4.6l.4-.4.5-.1a29.31,29.31,0,0,0,2.9.5h1.1l1.1-.2.4.2h2.2l.6-.3.4.2h5.3c.7-1.6,1.5-.5,2.2-.4l.7.3.3.2h.9l.5-.5.3-.1.9.5h2l.4-.5,1.3.3h.9l.4.1.3.2h3.2l1.2-.2.7.2h5a3.86,3.86,0,0,1,2.8,0h6.4l.7-.2c1.3-.2,2.7-.8,4-.4,1,.4,2-.1,3,.2l.4.3h2l.4-.1.1.1h1.6l1.6-.4,1.3-.4a15.94,15.94,0,0,1,3.5.8h1.9l.8-.5c1-.8,2-.3,2.8.3l.3.2h5.7c.9-.1,1.8-.2,2.8-.4a5.71,5.71,0,0,1,2.9.4h3.8l2.3-.2.2.2h1.6l.3-.4,1,.1.7.3h2.8l.7-.2.9.2h4.4l2.6-.4h.9l1.8.2,2.2-.1,1.3.5,2.3-.7,2,.3,2.3.1h2.1l1.6-.1,1-.2,2.1-.2h.2c1.2.3,2.4-.1,3.6,1h.1a19.42,19.42,0,0,0,3.3-.7l1-.3h2l1.2.9.5.1c1.1-.3,2.2-.7,3.3-1h.7l.6.2,1.3-.1.5-.1c1.4.3,2.8.7,4.3.9l1.1-.5c1.2,0,2.4.2,3.5.2,1.7,0,3.4-.2,5.2-.3h.2c.9.6,1.8,1.1,2.8.6l2-.6h4l1.2.1.4-.1h1.2l.2.2,1.3.2.5-.5h2.1l.4.1a6.61,6.61,0,0,0,2.8,0l.1-.1.6-.1h.9l1.5.3,2.2.1,1.3.1c.9-1,1.7-.2,2.4.4l.7-.1,1.3-.9h1.9c.5.3,1.2,1.2,1.8,0h.8l.6.4,1.8.4.7-.8h.7l.2.2h.8l.2-.2h2.3l1.8.2,1.2.1.2-.3H361l.2.2c1.4,1.3,2.8,1,4.2,0l.2-.1H368l.1.1.9-.1v-.1h1l.7.2,1.4.1,1.8.1,1.2-.4h0l1.7.1,1.4.5,1.8-.1h1.3a26.13,26.13,0,0,1,2.8,0l2.1.8,2-.4.5.1.4.3h3l.1-.1.3-.1.8.1H398l.7-.6.7.1.4.5h2.3l.4-.3,2.6-.2c1,1,1.6.7,2.6.7"/><path class="cls-1" d="M348.41,244.23l.1-1.1a9.45,9.45,0,0,0-1-7.5l-.2-1.9.2-1.8-.1-1.6-.5-1.8-.2-.3-.1-1.1.1-.2.1-1c0-.9-.8-1.8-.2-2.8l-.2-.6c-.1-1-.3-2.1-.4-3.1v-1.1c-.3-1.9-.6-3.8-.9-5.6v-1.2l-.3-2.5a10.23,10.23,0,0,0,0-3.9v-.8c0-1,.4-1.9-.2-2.9-1.1-1.9-.9-4-1.1-6l-.1-1.8v-.3c.1-1.2.7-2.3,0-3.5a4.54,4.54,0,0,1-.3-2.8v-.9c-.9-1.2-.7-2.7-.7-4.1a22,22,0,0,0-.4-3.6c-.1-1.1-.3-2.1-.4-3.2-.1-1.4.4-2.8-.6-4.1l-.1-.2-.2-2.3v-.3l-.1-1.8.1-1.2-.4.1h-9.6l-1.4-.4a29.66,29.66,0,0,0-4.2.3l-.7.2h-2.2l-.2-.2h-.1c-.9.5-1.7-.2-2.6-.2l-1.3.1-.7.4h-.9l-.3-.2h-.3l.3.7-.1,1-.1,1.2-.6,6v.1a18.69,18.69,0,0,0-.6,6.2v.4l-.1.3-.1.7.1.2-.1,1.2-.1.1-.1.5.1.2-.2,1.8-.2.9v2l-.3,3-.3.5-.1,1.4.2.6c-.1,1.3-.3,2.7-.4,4l-.1,1.3h0c-.2,2-.4,4.1-.6,6.1l-.2,2.2-.2,2.1-.1.3-.2,2-.1,2.2-.5,5.6-.1.7v1.4l-.1,1.2-.1,1.2-.2,1.6-.7.9-.1.4.4,1.5v.1l-.2,2.4-.1,1.1-.3,3-.1.1-.4.9.1,2.5-.2,2.6-.1.1v.8l.1.1-.2,1.7-.2,1.2c.9.3,1.7.6,2.5.8h.2c1.7-.3,2.8-.2,4.5-.5l1.2-.4h.1l1,.5a20.94,20.94,0,0,0,3.4.3,13.73,13.73,0,0,0,2.8-.5l.7-.4h.2l.1-2.4a6.47,6.47,0,0,0,.1-3.1c.1-1.9.2-3.7.3-5.6l.3-.5v-.2l-.1-2.4.1-2.2.1-.2.8-1.9.7-1.2.5-.2h1.2l.7,1.5.4,1.8c.1,1,.1,1.9.2,2.9l-.1.8v.4l.1.1v.9l-.2.3-.2.6c-.6,1.5.4,2.9.4,4.4l.4,1.6.1,2v2.2l.1.3v.4h.3l1.3.3,1.2-.3h1.8l2,.4c1,.1,2-.3,3.1-.3a8.78,8.78,0,0,1,2.8.1h.9l1-.1,1.4.3,1.3-.4h.6l-.5-1.6M328,215.73l-1.2.1c-1.3.3-1.7.1-1.5-.6a23.58,23.58,0,0,1,.4-2.8l.3-1.6c.2-1.4.5-2.1-.2-3.1h0v-.4l.1-.1.8-1.7-.5-1-.1-.2.5-1.2.2-.6.1-1.5.1-1.6-.3-1.8.1-1h0a15.53,15.53,0,0,0,.4-3.7l-.3-.2v-.3a18.16,18.16,0,0,1,.8-2.9l1.2,2,.3,2.4-.2.5.5,2.2.1.2c.4,3.3.7,6.5,1.1,9.8l.1.8.1.9-.7.9c.1.9.8,2.2.6,3.1l.2,1.4.5.8.2.3-.5-.4.6,1.7c-1.6-.2-2.7-.3-3.8-.4"/><path class="cls-1" d="M101.81,186.43l-.4-1.4v-1.6l-.1-1.7v-3.6l-.1-.5v-1l-.2-2.4-.1-1.2-.3-.4-.3-.8-.2-.7-.4-.5-.3-.6h0l-.3-.5-.4-.5-.1-.3-1.4-1.1-.9-.6-.4-.3-1.5-.8-1.1-.2-1.4-.4-.6-.1-.7-.1-.9-.2h-.1l-1.3-.2-.9-.1-.1-.1-1.5-.3-.2.1-1.3-.1c-1.2-.3-2.6-.8-2.9-.4h-4.8l-.6.3-1.3.4h-2.4l-.8.4-.8.1-.8.7a9.92,9.92,0,0,0-5.8,5l-.2.2-.2.5-.2.7-.2.6-.1.1-.1.2v.8a38.25,38.25,0,0,0-.7,5.8v1.3l-.3.5-.2,1.9.5,2.4v1.6l-.3,1.9V192l.3,1.4v4.1l-.2.2-.2,1.5c0,1.5,0,2.9.1,4.4.1.9-.3,1.9.3,2.7v2.1l-.3.4-.3,1,.4,2.8.2.2v4.4l-.1.4v1.8l.1,1.2v3.2L62,225v5.2l.4,1.1v3.6l.3,1.8.2.5.1.5.3,1.4v.2l.4,1.3a9.23,9.23,0,0,0,4.7,5.2l.7.4h0l.7.3a13.1,13.1,0,0,0,2.7.6l.2.2.2-.2,1.1.1.3.1c1.4.1,1.7.3,3.1.3l2.4-.6,1.5-1,1.1-.7.3.1,2-1.9.1-.1,1.1-.6,1.4,3.8,1-.2h1l1,.1,1.1-.1h4.3l1,.1,1.2-.1h.9l1.7.1.1-.1h.3v-.9a22,22,0,0,0,.1-3.5l.1-1.2v-6.3l-.2-.3v-6l.4-2.2a25.35,25.35,0,0,0-.4-2.9v-10.4a4.24,4.24,0,0,0,.3-2.7l-.3-1.3v-2l.1-.3v-2.7l-.1-.2v-.4h-.3l-.2-.1-1.3.1h-3.9l-.8-.1-1-.4-1.6.2c-1.1.1-2.1.2-3.2.4h-5.9v.7l-.2,2.4.2.9v2.1l-.2.7.1,1.4c.1,1-.1,2-.1,3l.2,1.3V217l2.1.3v.2a27.4,27.4,0,0,0,0,6.4v3.9a7.4,7.4,0,0,1-.8,2.9h.3l-.1.1-.5.3-.3.4-.3.1h0l-1.1.2h0l-1.2-.2-.2-.6-1-.3-.2-.3-.2-.9-.1-1.8v-2.4l.1-.2.3-.5-.4-1.2V218l.1-1.3c.1-1.4.1-2.8.2-4.2v-1.3l-.1-.5.1-.7-.1-2.3.1-1-.3-.9v-4.9l.2-1.5-.2-.2v-14.4l.1-.1-.1-.5v-1h0l.1-.3-.1-.1v-1.3l.3-1.5.5-.6L81,179v-.2h.4l1.6.2,1.1,1h.1l.3,1.5V186h0l-.1,1.5v.7l-.4,1.1.3,1.3.1.7v3.4l.1.4v.2h.1l.3.2,5.2-.1h4l.2-.1h1c.9.1,2,.5,2.4.5l2.6-.3h.4l.2-.1h.1v-.2a3.47,3.47,0,0,0,.2-2.5l-.2-.8v-1.5l.5-1.7v-2.3"/><path class="cls-1" d="M146.21,220.83l-.4-2.3v-1.4a4.51,4.51,0,0,0,0-3.6v-1a10.32,10.32,0,0,0,.4-3l-.4-2.2v-2.1h.1v-.4a3.86,3.86,0,0,0,.3-3V199a3.42,3.42,0,0,1,.1-2.8l-.1-1.3-.1-1.2-.3-1.7v-9.8c.2-1.1.3-2.2.5-3.3l-.1-.3-.1-1.2-.1-.8-.4-.6-.1-1.1-.2-1.1v-.1a3.28,3.28,0,0,0-1.4-3.7l-.7-1-1.1-1.3-.2-.1h0l-.5-.6-.5-.3h-.3a12.61,12.61,0,0,0-2.9-1.2l-.6-.1-1.7-.7-1.8.1-1.9-.2c-1,0-2-.1-3-.1l-1.3-.3h-.2l-.2.2h-4.5c-1-.1-2-.1-2.9-.2h-.1l-1.1.4-1.8-.1a6.08,6.08,0,0,0-5.2,1.9,7.65,7.65,0,0,0-3.1,2.5h-.1l-.9,1.4-.6,1.5-.5.9c-.3,1.2-.5,2.4-.7,3.6v.4l-.1,2-.2,1.9v2l.2,1.9v2.3a11,11,0,0,0-.2,3.1l.2,1.2v2l-.2.4v.2c0,1.3.1,2.6.1,3.9s-.5,2.6,0,3.6l.1.3v6.7l-.3,1.2.1.5.1.2v2.4l-.1.3v.7l.2.4v4.8l-.6,1.2c.1,1.4.4,2.7.6,4.1v8.6l.1.2c.1,1.1.2,2.2.4,3.3l.3,2.1v.7l.1.7c.6,1.1,1.2,2.1,1.8,3.1a4.28,4.28,0,0,0,2.9,2.5l1.6.9,1.6.3h.1l.9.2c1.1.3,2.2.6,3.3.8l2.2.1,1.9-.1h.4l1.1-.2h.5l1.5.1c1.6.1,3.2.7,4.8-.3l1.4-.1H134l.5-.3,2.1-.4c1.7-.1,3.3-.4,4.5-1.9l.4-.2.7-.7.7-.8a3,3,0,0,0,2-2.7,49,49,0,0,0,.4-5.4l.3-.8.3-.8a40.69,40.69,0,0,1,.2-7.8l-.1-2.2.2-2.1m-17.6-10.1.1.5v2.6l-.2.9v.6l.2.4v2l-.3.8v.5l.2.4v8.5l-.3.8-.1,1.1.3,1.4v.3c-.3,1.4-1.2,2-2.8,2l-.9-.1-1-.5-.2-.1c-.3-1-.6-2-.9-2.9v-1.6a22,22,0,0,0,.4-3.6l-.2-1.8v-1.2a15.16,15.16,0,0,0,.1-6l.1-.5-.2-1.6-.1-.2v-1.1c.2-1.8.4-3.5.6-5.3v-.1l-.5-2.3-.2-.8V202a18.4,18.4,0,0,0,.4-4.1l-.5-1.2v-1.3l.1-1.7-.1-.2v-2.4l.1-.5a25.61,25.61,0,0,0,.3-3.9l-.4-2.2h0v-.8l.1-.2a4.19,4.19,0,0,0,.6-3.9l1.6-1.7,1.4-.1,1,.7a5.44,5.44,0,0,1,1.1,3.9c-.1,1.3-.3,2.6-.4,3.9v.4a9.89,9.89,0,0,1,.4,4.5l.3,1v7.2l-.2,1.3a7,7,0,0,0,.2,2.9v4.2l-.1,2.9"/><path class="cls-1" d="M190.11,221.83l.1-.9a14.46,14.46,0,0,0-.5-3c-.4-1.2.8-2.4-.1-3.5v-.3a9.36,9.36,0,0,0,.1-4.4,20.44,20.44,0,0,1,0-3.5c0-1.2.2-2.5.1-3.7a6.44,6.44,0,0,1,.5-3.9V198l-.7-1.5V195l.3-1.5a6.15,6.15,0,0,1,.2-3.8,9.77,9.77,0,0,0-.4-4.5v-1.3l.5-2.4-.4-1.5-.1-.3v-1.3l.3-.5.1-.6c-.1-1.4-.8-2.8-.3-4.2l-.1-.3-1.2-1.5-.4-.5-.7-1.1v-.2l-.9-1.3-1.1-.4a11.07,11.07,0,0,0-2.7-1.2l-2.2-.5h0a7.87,7.87,0,0,0-4.5-.6h-1.7l-2-.5c-1.6,0-3.2,0-4.7-.1H164c-1.1,0-2.3.1-3.4.2h-.5l-1.8.2h-5l-1.5-.6-.1.6h-1v.2l-.1.1-.3,1.8v.6l.4.8v1l-.2.3.1.4.1,1.8v5.2a14,14,0,0,0-.5,5c.1,1.5.2,3,.4,4.5l.1,1.2v.8l-.5,1.7v.4l.6,1.8v1l-.2,1-.2,1.5c.1,1,.3,2,.3,3s-.4,1.8.1,2.7v11.4l-.1,1.7v2.4l.1.8v4.8l-.1.6.1,2.3v8.5l-.1.2v.4l.1.5v10.5l-.1.7c.9-.1,1.7-.3,2.4-.3a31.16,31.16,0,0,1,4.4.5,5.55,5.55,0,0,0,3.6-.3l1,.1h.7l.4-.2h1.1l.2.1,1.9.4a11.86,11.86,0,0,1,4.2.1l1.6-.1a5.7,5.7,0,0,1,3.2-.4l1.2-.1h1.8l1.7-.2,1.7-.2.5-.2,1.7-.9.3-.1,1.1-1a9.68,9.68,0,0,0,2.8-2.9l.6-.8.6-1,.3-1,.4-1.2v-.3l.1-1.9v-.8l.2-1.4c.2-1.2.3-2.4.4-3.6.1-1,.4-2.1-.3-3.1-1.3-2-.3-3.1-.4-4.3m-18.7,9.1-1.1,1-1.6.1h-1.5c1-1.6.4-3.3,0-4.9v-.9l.1-.4.3-1.5v-.4c.8-1,.1-1.8-.4-2.6v-1.5c.7-1.5.4-3,.2-4.6a13.71,13.71,0,0,1,.2-5.7l-.1-.8v-1.8l.1-.3.1-2.5a20.44,20.44,0,0,0,0-3.5c0-1.7.1-3.3.2-5l-.1-1a10.12,10.12,0,0,1-.2-3,19.93,19.93,0,0,0-.5-3.4v-1.4l.1-1.5v-2.5l.5-1,.1-.9-.3-.8.4-1.1h2.8l1.3.8.1.1.2,2.5v1.1l.1.5-.1,1.2.3,1.1v1.4a21.86,21.86,0,0,0-.3,3.6L172,193l.4,2.1.2.6v1.4a6.84,6.84,0,0,0-.2,4l.3,1.2v5.5l-.1.8.1,1.4v9.2l-.5,2.1.5,2.6V229l-1.3,1.9"/><path class="cls-1" d="M224.21,169.43c0-1,.1-1.9.1-2.9l-.5-1.1v-.1h-.2a16.68,16.68,0,0,0-3.1-.5l-2,.4a25.28,25.28,0,0,1-2.8-.1l-1.6.1h-3.4l-.4-.1a6.42,6.42,0,0,0-2.8-.2c-2.1,0-4.2.2-6.3.2l-1.9.1H198l-1.5-.1a24.37,24.37,0,0,0-2.7.1h-1l.3.4v4c0,1-.4,2-.5,3.1l.1,2.6.4,1.1v2.8h.1l-.2.2c1,.1,1.9.3,2.8.3,2.4.1,4.9,0,7.3.1l2.2-.3,1-.3h.2l-.1.5a28.06,28.06,0,0,0-.8,3.1c-1.3,1-1.1,2.5-1.3,3.8-.2,1.1-.4,2.3-.7,3.4l-.3,1.5c-.3,1.2-.6,2.3-1,3.5v.1l-.2.8h0l-.4,1.6a10.83,10.83,0,0,0-1.1,3l-.4,1.8.1.4-2.7,9.9-.1.2-.3,1.2-.4,1.3-.5,1.8c-.7,2.4-1.3,4.7-2,7.1a16,16,0,0,0-1,3.1l-.6,2.4v.1l-.1.6-.1.5-.2.3-.1.5.2,1.8v1.9l-.3.5v.3l.2,2V240a4.81,4.81,0,0,1-.4,2.9v.6l.5,1.9h0v1.2h.6c1.4.2,2.8.6,4.2.7l2.1-.4,1.9.3,1.3-.1,1.8-.3,2.6.2,1.4.1h1.2l.7-.2.7-.1.3-.2h.9c.8.7,1.7.3,2.6,0h6.7l1.8.2-.1-1.5a7.07,7.07,0,0,0,.3-4.3c-.1-1.3-.2-2.5-.4-3.8l-.1-1.5v-3.5h-1.8l-3.6-.3-.4.1-.6.3h-3.4a3.6,3.6,0,0,0-2.7,0h-.9l-.1-.6c.1-.9.9-1.7.7-2.7l.2-.7.6-2.3.6-2.2.3-.2.2-.2-.2-.8.4-1.4a10.11,10.11,0,0,0,1.4-3.9c.2-1.6.7-3.1.9-4.6l.7-2.5.7-.8.2-.9-.2-.9.2-.6.2-.3.2-.7.3-.8.3-1.6.1-.8.4-.7-.1-.6.3-1,.9-1.6a10.52,10.52,0,0,0,1-4.9v-.5l.1-.5.5-.6.2-.5.1-1.1.9-2.1c.2-1,0-2.1.7-3.1l-.2-.6.2-1.1.6-1a11.67,11.67,0,0,0,.8-3.7c.1-1.2,0-2.4.1-3.6l.2-1a4.45,4.45,0,0,0,.4-3.2l-.1-2"/><path class="cls-1" d="M276.11,241.33l-.1-1.2-.2-.5-.3-.4v-6.4l-.4-.6-.3-.3-.5-.1a6.89,6.89,0,0,1-3.5.1,13.73,13.73,0,0,0-3.5-.2l-1.3.2a4.25,4.25,0,0,0-.3-3.5v-1.5a6.41,6.41,0,0,0,.5-4.7l-.2-2.1-.2-1.2-.1-.1v-2.2l.2-.3.1-.5-.3-.4v-1.1l.2-.4V213a3.63,3.63,0,0,1,.2-2.7v-.5l-.4-2.4c0-1,.6-2.1.1-3.1l.1-.5a13.16,13.16,0,0,0,.2-7.1,19.67,19.67,0,0,1,.1-4.2c.1-1,.7-1.9.2-2.9a7.17,7.17,0,0,1-.1-5.2l-.1-1.8a4.16,4.16,0,0,1-.2-2.9l.1-1.2V172c.1-1.2.6-2.4-.1-3.5v-3.8c-1,.1-1.9.1-2.9.2h-10l-.4-.1H252l-.1.1h-2.4l-.8-.2.2.4v1.8l-.1.1-.2.5.2.3v1.5l-.2.3v.5l.1.7v1.8l-.2.5c-.9,1.3-.3,2.7.2,4l.1.2v3.3h0v3.5l-.1.1v.8l.1.1V189l-.5,1.1v.8l.5.7v2.9l-.2,1.6c-.8,1.3-.2,2.7-.2,4.1,0,1.1.7,2.1.1,3.2l.1,1.7.1.2v5.6l-.4,1.3.1,1.8c0,1.2-.1,2.4-.1,3.6s-.3,2.3.1,3.2l.2.5v2.8l-.4.5v.9l.4.9V232l-.1,1v4.1l-.2.5v.6l.3,2.4-.6,2.5c-.1,1.1,0,2.2,0,3.4q1.35-.3,2.4-.6h1.3l2.3.1.5-.2h1.7l.7.4,1.2.1a7.07,7.07,0,0,1,3.8-.3c1.9.2,3.8.3,5.7.4h1.5a3.56,3.56,0,0,0,3.3-.6H275l.1-.3v.2h.5l-.1-1.8v-1.5l.6-1.1"/><path class="cls-1" d="M305.91,236.13v-.6l.1-1.8-.1-.8v-.8h-.7l-1.3-.4h-.7l-.9.5h-5.5l-.3-.8c0-1.1-.2-2.1-.3-3.2v-1.1l.1-2.2v-2.7l.3-1.5a4.55,4.55,0,0,1-.5-2.8l.2-2.4v-5.3l-.1-2-.1-1.2-.1-2.6v-.2c.2-1.4-.1-3,.7-4.3v-.2c-.2-1.3-.2-2.7-.5-4l-.2-1.2v-2.4l.6-1.4.1-.6c-.2-1.3-.5-2.7-.7-4h0v-.9l.2-.8v-2.2c.2-1.7.5-3.4.6-5.2l-.3-1.3c0-1.4.2-2.9.1-4.3,0-2.1-.1-4.2-.2-6.3h-.3V165h-16.9v5.3l-.2,1.1.2.8v3.3l-.2.9-.1,1.2.3.4v1.9l-.1.3a6.72,6.72,0,0,0,.1,2.8v4.6a10.76,10.76,0,0,0-.3,3.6l.3,3.3v6.9l-.2.4a4,4,0,0,0-.2,3.4l.4,1v2.4a28.32,28.32,0,0,0-.6,4.2l.3,1.6.3,1.9v1.9l-.1.2.1.5v2.4l-.2.5c-.2,1.2.1,2.3-.2,3.6-.3,1.5.1,3.2.2,4.8l.2.9v7.8a7.8,7.8,0,0,0,0,3.4v3.6h.8l.3.1.8.1,2.4-.2.5-.1h2.1l1.3.5,1.8-.1.5-.1,2.1-.4h.8l.8.4H295c1.9.1,3.9,0,5.8,0h1.3c1.3,0,2.7,0,4-.1l.3-.3a25.72,25.72,0,0,0,.2-4.8c-.4-1.3.3-3.2-.7-4.8"/><path class="cls-1" d="M244.31,189.23a5.72,5.72,0,0,0,0-5.1l-.1-.2v-2.8l.1-.2v-1.1h0v-1.2h0l.1-.9.1-1.7.1-2.2-.3-1.4v-.1l.1-2.1.4-1.6-.1-2.1v-1.6h0l-.3.1-1.2.2h-2.7l-.6-.2-.9.2h-2.1l-.3-.2h-2.7l-.5.2h-2.6l-.2-.1-1-.1-1.1.2h-1.1v2.4l-.1.9.1,1.5v3.9l-.2.4v1.5l-.2,1.6.3.5v2.4l-.4,1.1v.4l.3.6v1.1l-.1.3-.2.9c0,.9-.8,1.8.3,2.7v6.5h0l-.2.4.2.7v2.6l-.1.5.1,1.3v1.4c-.1,1.2-.3,2.3-.4,3.5l.1.6.3.5V211l-.4,2.6c-.1.9.3,1.9.1,2.8a5.47,5.47,0,0,0,.3,3.8v5.7l-.4,2,.4.7v2a3.6,3.6,0,0,0,0,2.7v2.5l-.2,1.1-.4,2.6a22,22,0,0,1,.6,3.7v1.4c-.1.7-.2,1.3-.4,2.2,1.9-.8,3.4-.3,4.9.1h.9a12.68,12.68,0,0,1,3.3-.3,26.6,26.6,0,0,0,6.9-.2l1.1-.2h.2v-.5a5.25,5.25,0,0,0,.4-3.3l-.4-2.4v-6.8h0v-1.5l.1-.3.2-1.6-.3-.6v-2.5l.1-.4a19.3,19.3,0,0,0,0-3.4l-.1-.2-.1-.7v-1.1l.2-1.8v-2.6l.1-1.6c-.7-1.1-.1-2,.3-3v-.8l-.6-1.6v-4.4h0v-1l.3-.7.2-2.2-.6-.8v-.8l.1-.2v-1l-.1-.3v-2.7l.1-2.1.1-1.5-.2-.3v-1.9l.4-.4"/></g></g></svg>