<?xml version="1.0" encoding="utf-8"?>
<!-- Generator: Adobe Illustrator 26.2.1, SVG Export Plug-In . SVG Version: 6.00 Build 0)  -->
<svg version="1.1" id="Calque_1" xmlns="http://www.w3.org/2000/svg" xmlns:xlink="http://www.w3.org/1999/xlink" x="0px" y="0px"
	 viewBox="0 0 25.5 39.2" style="enable-background:new 0 0 25.5 39.2;" xml:space="preserve">
<style type="text/css">
	.st0{fill:#0A1348;}
</style>
<g id="a">
</g>
<g id="b">
	<g id="c">
		<path class="st0" d="M12.8,39.2c-5.2-0.1-9.4-4.4-9.4-9.6c0-1.4,0.3-2.8,0.9-4l0.1-0.2c0.2-0.4,0.4-0.8,0.7-1.2l7.7-13.7l7.7,13.7
			c0.2,0.3,0.5,0.8,0.7,1.2l0.1,0.1c0.6,1.3,0.9,2.7,0.9,4.1C22.2,34.8,18,39.1,12.8,39.2L12.8,39.2z M5.6,26.2
			c-0.5,1.1-0.7,2.2-0.7,3.4c-0.1,4.4,3.5,8,7.9,8.1c4.4-0.1,7.9-3.7,7.9-8.1c0-1.2-0.2-2.4-0.7-3.4L19.9,26c-0.2-0.4-0.4-0.7-0.6-1
			l-6.5-11.5L6.3,24.9c-0.2,0.4-0.4,0.7-0.6,1.1L5.6,26.2L5.6,26.2z"/>
	</g>
</g>
</svg>
