<?xml version="1.0" encoding="UTF-8"?><svg xmlns="http://www.w3.org/2000/svg" viewBox="0 0 25.54 39.16"><defs><style>.d{fill:#0a1348;}</style></defs><g id="a"/><g id="b"><g id="c"><path class="d" d="M12.79,39.16C5.64,39.07-.09,33.2,0,26.08c0-1.9,.4-3.76,1.2-5.5l.11-.22c.27-.57,.58-1.13,.93-1.65L12.77,0l10.57,18.77c.31,.47,.63,1.03,.9,1.6l.09,.18c.81,1.77,1.21,3.63,1.21,5.54,.09,7.11-5.63,12.98-12.76,13.07ZM3.02,21.42c-.67,1.47-1.01,3.04-1.01,4.67-.07,6.03,4.76,10.99,10.79,11.07,6-.08,10.83-5.03,10.76-11.05,0-1.64-.34-3.21-1.02-4.69l-.08-.17c-.24-.51-.51-.98-.8-1.43L12.77,4.08,3.94,19.75c-.33,.51-.6,.98-.83,1.47l-.1,.2Z"/></g></g></svg>