<svg xmlns="http://www.w3.org/2000/svg" viewBox="0 0 245.13 60.04"><defs><style>.cls-1{fill:#cb0e7d;}.cls-2{fill:#7f5017;}.cls-3{fill:#d86131;}.cls-4{fill:#e3d110;}.cls-5{fill:#80b6b7;}</style></defs><g id="Calque_2" data-name="Calque 2"><g id="page_accueil"><g id="header"><path class="cls-1" d="M40.6,58v1.27H20.85V54.74C17.14,57.9,13,60,8.61,60,3.48,60,0,57.11,0,52.14c0-7.27,7.74-12.09,20.85-13.51,0-8.69-3.47-13-9.47-13a13,13,0,0,0-8.69,3l-.4-.4C7.66,22.2,13.51,19,21.41,19c10,0,15.24,5.69,15.24,17.14V58ZM20.85,53.64v-14C16.11,41,14.3,44,14.3,48.19c0,3.71,1.58,5.68,4.74,5.68A8.56,8.56,0,0,0,20.85,53.64Z"/><path class="cls-2" d="M116.84,58v1.27H93.93V58h3.16V34.2c0-6.16-1-8.21-4.35-8.21a10.91,10.91,0,0,0-4.9,1.18,25.26,25.26,0,0,1,.24,3.64V58h3.16v1.27H69.12V58h3.16V34.2c0-6.16-1-8.21-4.34-8.21a10.82,10.82,0,0,0-4.66,1V58h3.16v1.27H43.53V58h3.95V29.15L43,25.28l20.3-7.11v7.9c6.4-5.14,10.58-7.51,15-7.51,5.37,0,8.37,2.69,9.4,7.82,6.63-5.37,10.9-7.82,15.4-7.82,6.72,0,9.8,4.19,9.8,12.25V58Z"/><path class="cls-3" d="M166.53,37.68c0,14.3-8.3,22.36-24.1,22.36a73.09,73.09,0,0,1-19.51-3V11l-4.5-3.87L138.72,0V26c4.19-4.27,9.09-7,13.75-7C160.45,19,166.53,25.44,166.53,37.68Zm-16.91,4.5c0-10.58-2.29-15.87-7.58-15.87a8.09,8.09,0,0,0-3.32.79V57.27a6.8,6.8,0,0,0,3.87,1.19C146.7,58.46,149.62,53.56,149.62,42.18Z"/><path class="cls-4" d="M208.32,52.14c-3.32,5-8.61,7.9-16,7.9-11.14,0-20.3-7.75-20.3-20,0-11.53,7.74-21.09,20.38-21.09C199.87,19,205,23.3,205,29.07,205,35.63,200,41.39,190.47,45c4.5,4.42,10.19,7.34,15.48,7.34a10.59,10.59,0,0,0,2.29-.23ZM181.86,26.38c0,6.56,3.39,13.2,8.13,18.09,2.21-2.84,3.08-6,3.08-10,0-6.87-4.58-12.72-8-12.72C183,21.72,181.86,23.46,181.86,26.38Z"/><path class="cls-5" d="M245.13,19.12V40.05h-.08c-8.21-9.08-11.92-11.14-14.69-10.66V58h5.93v1.27H210.61V58h3.95V29.31l-4.5-3.87,20.3-6.8v9.88c4.5-5.93,9.64-9.64,13.27-9.64A4.49,4.49,0,0,1,245.13,19.12Z"/></g></g></g></svg>