<?xml version="1.0" encoding="UTF-8"?><svg id="Calque_2" xmlns="http://www.w3.org/2000/svg" viewBox="0 0 259.64 298.46"><defs><style>.cls-1{stroke-width:1.47px;}.cls-1,.cls-2,.cls-3,.cls-4,.cls-5,.cls-6,.cls-7,.cls-8,.cls-9{fill:none;stroke-linecap:round;stroke-linejoin:round;}.cls-1,.cls-2,.cls-3,.cls-4,.cls-5,.cls-6,.cls-8,.cls-9{stroke:#65adb3;}.cls-10{letter-spacing:0em;}.cls-11{letter-spacing:0em;}.cls-2{stroke-width:1.85px;}.cls-3{stroke-width:1.17px;}.cls-12{letter-spacing:-.01em;}.cls-13{letter-spacing:0em;}.cls-4{stroke-width:1.99px;}.cls-5{stroke-width:2.06px;}.cls-14{letter-spacing:0em;}.cls-6,.cls-7{stroke-width:1.76px;}.cls-15{letter-spacing:0em;}.cls-7{stroke:#508a8e;}.cls-16{letter-spacing:0em;}.cls-17{letter-spacing:0em;}.cls-8{stroke-width:1.7px;}.cls-9{stroke-width:1.55px;}.cls-18{letter-spacing:-.07em;}.cls-19{letter-spacing:-.04em;}.cls-20{fill:#65adb3;font-family:Seravek-Light, Seravek;font-size:10.56px;}</style></defs><g id="Calque_1-2"><text class="cls-20" transform="translate(171.54 187.53)"><tspan x="0" y="0">Etanchéité ipx7</tspan></text><g><path class="cls-5" d="M201.27,117.33c-7.41,10.16-16.25,27.08-16.25,34.18,0,5.08,3.81,15.82,16.25,15.82s16.13-11.18,16.13-15.82c0-7.87-9.09-25.59-16.13-34.18Z"/><path class="cls-5" d="M219.68,118.39c-2.58,3.53-5.65,9.42-5.65,11.88,0,1.77,1.32,5.5,5.65,5.5s5.61-3.89,5.61-5.5c0-2.74-3.16-8.9-5.61-11.88Z"/><polyline class="cls-5" points="195.84 137.76 207.93 137.76 199.55 161.75"/></g><text class="cls-20" transform="translate(150.67 75.21)"><tspan x="0" y="0">Son clair et </tspan><tspan class="cls-17" x="51.43" y="0">b</tspan><tspan x="57.03" y="0">a</tspan><tspan class="cls-10" x="62.23" y="0">s</tspan><tspan class="cls-15" x="66.67" y="0">ses riches</tspan></text><g><path class="cls-3" d="M227.03,34.74c-.29,.29-.58,.55-.9,.79-.31,.24-.63,.46-.96,.66-.29,.18-.59,.35-.91,.49-.37,.18-.76,.34-1.16,.48-.4,.14-.81,.26-1.23,.36-.5,.12-1.01,.2-1.53,.26-.4,.05-.81,.07-1.22,.08-.57,.02-1.14,0-1.73-.05-.42-5.26-3.29-11.24-8.25-16.2-4.97-4.97-10.94-7.83-16.2-8.25-.05-.59-.07-1.16-.05-1.73,0-.41,.03-.82,.08-1.22,.05-.52,.14-1.03,.26-1.53,.09-.43,.21-.83,.36-1.23,.13-.4,.29-.79,.47-1.16,.15-.31,.31-.61,.49-.91,.21-.34,.43-.66,.67-.97,.24-.31,.51-.61,.79-.89,5.71-5.71,17.28-3.38,25.84,5.18,8.57,8.57,10.89,20.14,5.18,25.85Z"/><path class="cls-3" d="M217.38,37.82c-5.26-.42-11.23-3.29-16.2-8.26-4.97-4.97-7.83-10.94-8.25-16.2-.58-.05-1.16-.07-1.73-.05-.52,0-1.03,.05-1.52,.12-.78,5.91,2.16,13.43,8.18,19.45,6.03,6.03,13.54,8.96,19.45,8.19,.07-.5,.11-1.01,.12-1.53,.02-.57,0-1.14-.05-1.73Zm1.14-25.6c-7.71-7.71-17.88-10.36-23.98-6.64-.18,.29-.34,.59-.49,.91-.18,.38-.34,.77-.47,1.16-.14,.4-.26,.81-.36,1.23-.12,.5-.21,1.01-.26,1.53-.05,.4-.07,.81-.08,1.22-.02,.57,0,1.14,.05,1.73,5.26,.42,11.23,3.29,16.2,8.25,4.97,4.97,7.84,10.94,8.25,16.2,.59,.05,1.16,.07,1.73,.05,.42,0,.82-.03,1.22-.08,.52-.06,1.03-.14,1.53-.26,.42-.09,.84-.21,1.23-.36,.4-.14,.79-.29,1.16-.48,.31-.14,.61-.31,.91-.49,3.72-6.11,1.08-16.26-6.64-23.98Z"/><path class="cls-6" d="M217.38,37.82c-5.26-.42-11.23-3.29-16.2-8.26-4.97-4.97-7.83-10.94-8.25-16.2-.58-.05-1.16-.07-1.73-.05-.52,0-1.03,.05-1.52,.12-.41,.05-.8,.12-1.19,.21-.43,.09-.86,.22-1.27,.36-2.14,6.16,.71,15.01,7.61,21.91,6.9,6.9,15.75,9.75,21.91,7.62,.15-.42,.27-.84,.36-1.28,.09-.38,.16-.78,.21-1.18,.07-.5,.11-1.01,.12-1.53,.02-.57,0-1.14-.05-1.73Zm-1.89-22.56c-6.9-6.9-15.75-9.75-21.91-7.61-.14,.4-.26,.81-.36,1.23-.12,.5-.21,1.01-.26,1.53-.05,.4-.07,.81-.08,1.22-.02,.57,0,1.14,.05,1.73,5.26,.42,11.23,3.29,16.2,8.25,4.97,4.97,7.84,10.94,8.25,16.2,.59,.05,1.16,.07,1.73,.05,.42,0,.82-.03,1.22-.08,.52-.06,1.03-.14,1.53-.26,.42-.09,.84-.21,1.23-.36,2.14-6.16-.71-15.01-7.61-21.92Z"/><path class="cls-1" d="M217.38,37.82c-5.26-.42-11.23-3.29-16.2-8.26-4.97-4.97-7.83-10.94-8.25-16.2-.58-.05-1.16-.07-1.73-.05-.52,0-1.03,.05-1.52,.12-.41,.05-.8,.12-1.19,.21-.43,.09-.86,.22-1.27,.36-.39,.13-.77,.29-1.14,.46-.39,.18-.78,.4-1.14,.64-3.91,6.08-1.3,16.38,6.51,24.19,7.81,7.81,18.11,10.43,24.19,6.51,.23-.36,.44-.75,.63-1.14,.17-.36,.33-.74,.46-1.13,.15-.42,.27-.84,.36-1.28,.09-.38,.16-.78,.21-1.18,.07-.5,.11-1.01,.12-1.53,.02-.57,0-1.14-.05-1.73Zm-5.26-19.19c-5.93-5.93-13.29-8.86-19.15-8.22-.05,.4-.07,.81-.08,1.22-.02,.57,0,1.14,.05,1.73,5.26,.42,11.23,3.29,16.2,8.25,4.97,4.97,7.84,10.94,8.25,16.2,.59,.05,1.16,.07,1.73,.05,.42,0,.82-.03,1.22-.08,.65-5.86-2.3-13.23-8.22-19.15Z"/><path class="cls-3" d="M217.43,39.54c0,.52-.05,1.03-.12,1.53-.05,.4-.12,.8-.21,1.18-.09,.44-.22,.86-.36,1.28-.13,.39-.29,.76-.46,1.13-.19,.39-.4,.78-.63,1.14-.17,.27-.36,.52-.55,.77-.24,.31-.5,.61-.79,.89-5.7,5.7-17.27,3.38-25.84-5.18-8.57-8.56-10.89-20.14-5.18-25.84,.28-.28,.58-.55,.89-.79,.25-.19,.5-.37,.77-.54,.36-.24,.75-.45,1.14-.64,.37-.18,.75-.33,1.14-.46,.41-.15,.84-.27,1.27-.36,.39-.09,.78-.16,1.19-.21,.5-.07,1.01-.11,1.52-.12,.57-.02,1.15,0,1.73,.05,.42,5.25,3.29,11.23,8.25,16.2,4.97,4.97,10.94,7.84,16.2,8.26,.05,.58,.07,1.16,.05,1.73Z"/><path class="cls-7" d="M217.38,37.82c-5.26-.42-11.23-3.29-16.2-8.26-4.97-4.97-7.83-10.94-8.25-16.2,5.26,.42,11.23,3.29,16.2,8.25,4.97,4.97,7.84,10.94,8.25,16.2Z"/></g><text class="cls-20" transform="translate(174.02 295.4)"><tspan class="cls-16" x="0" y="0">A</tspan><tspan x="6.85" y="0">utonomie 15h</tspan></text><g><rect class="cls-9" x="178.54" y="246.81" width="42.26" height="24.52" rx="5.54" ry="5.54"/><path class="cls-9" d="M223.89,254.46h1.16c1.93,0,3.49,1.56,3.49,3.49v2.99c0,1.93-1.56,3.49-3.49,3.49h-1.16v-9.97h0Z"/><polygon class="cls-9" points="198.12 259.44 198.12 253.92 211.4 259.44 201.83 259.44 201.96 264.43 188.76 259.44 198.12 259.44"/></g><text class="cls-20" transform="translate(14.4 188.81)"><tspan x="0" y="0">Port co</tspan><tspan class="cls-14" x="31.26" y="0">n</tspan><tspan class="cls-12" x="36.97" y="0">f</tspan><tspan x="40.47" y="0">ortab</tspan><tspan class="cls-17" x="64.66" y="0">l</tspan><tspan x="67.54" y="0">e</tspan></text><g><path class="cls-8" d="M39.01,154.87s-4.22,1.36-3.55,2.25,3.34,6.46,8.58,6.02c5.24-.45,8.69-8.8,9.14-10.58,.45-1.78,9.58-11.36,10.69-12.81s1.67-2.34,2.12-9.92c.45-7.58-6.8-18.16-15.26-16.49s-15.04,5.79-15.26,14.26"/><path class="cls-8" d="M59.97,129.49c-.11-3.12-2.67-7.46-5.46-9.02-2.79-1.56-6.8-.56-7.8,.45-1,1-2.01,4.34-2.45,7.69s-4.12,3.45-3.79,5.46c.33,2.01,.89,5.09,2.79,4.1"/><path class="cls-8" d="M46.69,141.64c-.5,2.49-6.56,11.39-6.77,12.25s1.42,3.63,2.56,3.63,5.35-9.19,6.06-9.19,5.97-2.56,5.55-5.97-3.27-7.04-5.97-6.83c-2.7,.21-4.98,1.92-4.27,3.2s2.84,2.92,2.84,2.92Z"/><line class="cls-8" x1="44.94" y1="154.2" x2="42.01" y2="150.32"/></g><text class="cls-20" transform="translate(21.79 75.21)"><tspan x="0" y="0">B</tspan><tspan class="cls-17" x="5.82" y="0">l</tspan><tspan x="8.7" y="0">uetooth 5</tspan><tspan class="cls-19" x="52.03" y="0">.</tspan><tspan class="cls-15" x="54.28" y="0">1</tspan></text><g><polyline class="cls-4" points="26.8 42.4 55.34 14.83 41.07 4.02 41.07 54.02 55.34 41.05 26.8 14.83"/><path class="cls-4" d="M60.09,20.67c5.09,3.99,3.9,13.23,0,16.34"/><path class="cls-4" d="M70.17,15.03c6.13,5.64,5.65,22.47,0,27.53"/></g><g><path class="cls-2" d="M28.04,248.62c-8.01,.02-12.14-6.24-12.14-13.39s5.79-12.94,12.94-12.94,12.94,5.79,12.94,12.94"/><path class="cls-2" d="M71.02,251.94c-1.17-2.34-8.6-14.46-12.31-14.46-3.47,0-4.72,2.71-2.96,5.46-3.91-5.35-7.02-3.83-7.39-2.13-.09,.42,.06,.94,.34,1.49,1.64,1.74,3.03,3.6,3.16,3.78-.17-.15-2.29-2.1-3.16-3.78-1.67-1.78-3.58-3.44-4.64-3.05-1.55,.56-2.9,2.62-1.16,6.06-2.45-3.12-5.33-6.64-7.51-8.84-1.45-1.47-2.59-2.34-3.06-2.11-1.31,.66-2.48,4.06-2.13,6.17,.06,.41,.18,.77,.38,1.06,1.17,1.76,16.02,16.8,16.02,16.8-4.49-.59-10.75-.98-10.75,2.74s1.7,4.3,5.93,4.88c4.23,.59,13.6,5.67,16.73,6.25,3.13,.59,11.92-8.01,14.26-9.96,2.34-1.96-.59-8.01-1.76-10.35Zm-28.11-6.62c1.37,1.72,2.59,3.33,3.49,4.52-1.72-1.7-2.83-3.21-3.49-4.52Zm12.85-2.37c.14,.19,.28,.38,.41,.59-.15-.19-.3-.39-.41-.59Z"/><path class="cls-2" d="M42.91,245.32c1.37,1.72,2.59,3.33,3.49,4.52-1.72-1.7-2.83-3.21-3.49-4.52Z"/><path class="cls-2" d="M48.7,242.3c1.64,1.74,3.03,3.6,3.16,3.78-.17-.15-2.29-2.1-3.16-3.78Z"/><path class="cls-2" d="M56.17,243.54c-.15-.19-.3-.39-.41-.59,.14,.19,.28,.38,.41,.59Z"/><path class="cls-2" d="M35.78,234.33c0,.75-.13,1.48-.38,2.15-1.45-1.47-2.59-2.34-3.06-2.11-1.31,.66-2.48,4.06-2.13,6.17-.23,.03-.45,.04-.68,.04-3.46,0-6.25-2.8-6.25-6.25s2.8-6.25,6.25-6.25,6.25,2.8,6.25,6.25Z"/></g><text class="cls-20" transform="translate(0 295.4)"><tspan class="cls-18" x="0" y="0">T</tspan><tspan class="cls-11" x="4.73" y="0">oucher pour co</tspan><tspan class="cls-13" x="70.76" y="0">n</tspan><tspan x="76.46" y="0">t</tspan><tspan class="cls-13" x="80.47" y="0">r</tspan><tspan x="84.11" y="0">ô</tspan><tspan class="cls-17" x="89.79" y="0">l</tspan><tspan x="92.67" y="0">er</tspan></text></g></svg>