<?xml version="1.0" encoding="UTF-8"?><svg id="Calque_2" xmlns="http://www.w3.org/2000/svg" viewBox="0 0 259.92 303.91"><defs><style>.cls-1{letter-spacing:0em;}.cls-2{letter-spacing:-.01em;}.cls-3{letter-spacing:0em;}.cls-4{stroke:#66841f;}.cls-4,.cls-5{stroke-width:2.11px;}.cls-4,.cls-5,.cls-6,.cls-7{fill:none;stroke-linecap:round;stroke-linejoin:round;}.cls-8{letter-spacing:0em;}.cls-5,.cls-6,.cls-7{stroke:#87ac29;}.cls-6{stroke-width:1.76px;}.cls-9{letter-spacing:0em;}.cls-10{letter-spacing:0em;}.cls-7{stroke-width:1.41px;}.cls-11{letter-spacing:-.07em;}.cls-12{letter-spacing:-.04em;}.cls-13{fill:#87ac29;font-family:Seravek-Light, Seravek;font-size:10.57px;}</style></defs><g id="Calque_1-2"><text class="cls-13" transform="translate(171.73 192.87)"><tspan x="0" y="0">Etanchéité ipx7</tspan></text><g><path class="cls-5" d="M201.4,121.99c-7.6,10.41-16.66,27.75-16.66,35.02,0,5.21,3.9,16.21,16.66,16.21s16.53-11.46,16.53-16.21c0-8.07-9.31-26.22-16.53-35.02Z"/><path class="cls-5" d="M220.26,123.08c-2.64,3.62-5.79,9.65-5.79,12.18,0,1.81,1.36,5.64,5.79,5.64s5.75-3.98,5.75-5.64c0-2.8-3.24-9.12-5.75-12.18Z"/><polyline class="cls-5" points="195.83 142.93 208.22 142.93 199.64 167.52"/></g><text class="cls-13" transform="translate(150.83 80.43)"><tspan x="0" y="0">Son clair et </tspan><tspan class="cls-10" x="51.49" y="0">b</tspan><tspan x="57.09" y="0">a</tspan><tspan class="cls-1" x="62.3" y="0">s</tspan><tspan x="66.75" y="0">ses riches</tspan></text><g><path class="cls-7" d="M231.66,41.75c-.34,.34-.7,.66-1.08,.95-.37,.29-.75,.56-1.16,.8-.35,.22-.71,.42-1.09,.59-.45,.22-.92,.41-1.39,.57-.48,.17-.98,.31-1.48,.43-.6,.14-1.21,.24-1.84,.31-.48,.06-.97,.09-1.47,.1-.68,.02-1.37,0-2.08-.06-.5-6.32-3.95-13.5-9.91-19.47-5.97-5.97-13.15-9.41-19.46-9.92-.06-.71-.08-1.4-.06-2.08,0-.49,.04-.98,.1-1.47,.06-.63,.17-1.24,.31-1.84,.11-.51,.25-1,.43-1.48,.16-.48,.35-.94,.57-1.4,.18-.38,.38-.74,.59-1.09,.25-.4,.52-.79,.81-1.17,.29-.37,.61-.73,.95-1.07,6.86-6.86,20.76-4.07,31.05,6.22,10.3,10.3,13.08,24.2,6.23,31.06Z"/><path class="cls-7" d="M220.07,45.44c-6.32-.51-13.49-3.95-19.46-9.92-5.97-5.97-9.41-13.15-9.91-19.46-.7-.06-1.4-.08-2.08-.06-.62,.01-1.24,.06-1.83,.14-.94,7.11,2.59,16.13,9.83,23.37,7.24,7.24,16.27,10.77,23.37,9.84,.08-.6,.13-1.21,.14-1.84,.02-.68,0-1.37-.06-2.07Zm1.37-30.76c-9.27-9.27-21.48-12.45-28.82-7.98-.21,.35-.41,.71-.59,1.09-.22,.45-.41,.92-.57,1.4-.17,.48-.31,.97-.43,1.48-.14,.6-.25,1.21-.31,1.84-.06,.48-.09,.97-.1,1.47-.02,.68,0,1.37,.06,2.08,6.32,.51,13.49,3.95,19.46,9.92,5.97,5.97,9.42,13.15,9.91,19.47,.71,.06,1.4,.08,2.08,.06,.5,0,.99-.04,1.47-.1,.63-.07,1.24-.17,1.84-.31,.51-.11,1.01-.25,1.48-.43,.48-.16,.94-.35,1.39-.57,.38-.17,.74-.37,1.09-.59,4.47-7.34,1.29-19.54-7.98-28.82Z"/><path class="cls-5" d="M220.07,45.44c-6.32-.51-13.49-3.95-19.46-9.92-5.97-5.97-9.41-13.15-9.91-19.46-.7-.06-1.4-.08-2.08-.06-.62,.01-1.24,.06-1.83,.14-.49,.06-.96,.15-1.43,.25-.52,.11-1.03,.26-1.53,.44-2.57,7.4,.85,18.04,9.14,26.33,8.29,8.29,18.93,11.71,26.33,9.15,.18-.5,.33-1.01,.44-1.54,.11-.46,.19-.94,.25-1.42,.08-.6,.13-1.21,.14-1.84,.02-.68,0-1.37-.06-2.07Zm-2.28-27.11c-8.29-8.29-18.93-11.71-26.33-9.14-.17,.48-.31,.97-.43,1.48-.14,.6-.25,1.21-.31,1.84-.06,.48-.09,.97-.1,1.47-.02,.68,0,1.37,.06,2.08,6.32,.51,13.49,3.95,19.46,9.92,5.97,5.97,9.42,13.15,9.91,19.47,.71,.06,1.4,.08,2.08,.06,.5,0,.99-.04,1.47-.1,.63-.07,1.24-.17,1.84-.31,.51-.11,1.01-.25,1.48-.43,2.57-7.4-.85-18.04-9.15-26.34Z"/><path class="cls-6" d="M220.07,45.44c-6.32-.51-13.49-3.95-19.46-9.92-5.97-5.97-9.41-13.15-9.91-19.46-.7-.06-1.4-.08-2.08-.06-.62,.01-1.24,.06-1.83,.14-.49,.06-.96,.15-1.43,.25-.52,.11-1.03,.26-1.53,.44-.47,.16-.92,.34-1.37,.56-.47,.22-.93,.48-1.37,.76-4.7,7.31-1.56,19.68,7.83,29.07,9.38,9.39,21.76,12.53,29.07,7.82,.28-.44,.53-.9,.76-1.37,.21-.44,.39-.89,.55-1.35,.18-.5,.33-1.01,.44-1.54,.11-.46,.19-.94,.25-1.42,.08-.6,.13-1.21,.14-1.84,.02-.68,0-1.37-.06-2.07Zm-6.33-23.05c-7.12-7.12-15.97-10.65-23.02-9.88-.06,.48-.09,.97-.1,1.47-.02,.68,0,1.37,.06,2.08,6.32,.51,13.49,3.95,19.46,9.92,5.97,5.97,9.42,13.15,9.91,19.47,.71,.06,1.4,.08,2.08,.06,.5,0,.99-.04,1.47-.1,.78-7.04-2.76-15.89-9.88-23.02Z"/><path class="cls-7" d="M220.12,47.51c-.01,.62-.06,1.24-.14,1.84-.06,.48-.15,.96-.25,1.42-.11,.53-.26,1.04-.44,1.54-.16,.47-.34,.92-.55,1.35-.22,.47-.48,.93-.76,1.37-.21,.32-.43,.63-.66,.93-.29,.37-.61,.73-.94,1.07-6.85,6.85-20.76,4.07-31.05-6.23-10.3-10.29-13.08-24.19-6.22-31.05,.34-.34,.7-.66,1.07-.95,.3-.23,.6-.45,.92-.65,.44-.29,.9-.54,1.37-.76,.44-.21,.9-.4,1.37-.56,.49-.18,1.01-.33,1.53-.44,.47-.11,.94-.19,1.43-.25,.6-.08,1.21-.13,1.83-.14,.68-.02,1.38,0,2.08,.06,.51,6.31,3.95,13.5,9.91,19.46,5.97,5.97,13.15,9.42,19.46,9.92,.06,.7,.08,1.39,.06,2.07Z"/><path class="cls-4" d="M220.07,45.44c-6.32-.51-13.49-3.95-19.46-9.92-5.97-5.97-9.41-13.15-9.91-19.46,6.32,.51,13.49,3.95,19.46,9.92,5.97,5.97,9.42,13.15,9.91,19.47Z"/></g><text class="cls-13" transform="translate(174.21 300.85)"><tspan class="cls-9" x="0" y="0">A</tspan><tspan class="cls-8" x="6.86" y="0">utonomie 15h</tspan></text><g><rect class="cls-5" x="169.64" y="247.74" width="57.67" height="33.46" rx="7.56" ry="7.56"/><path class="cls-5" d="M231.53,258.19h1.58c2.63,0,4.76,2.13,4.76,4.76v4.08c0,2.63-2.13,4.76-4.76,4.76h-1.58v-13.61h0Z"/><polygon class="cls-5" points="196.37 264.99 196.37 257.45 214.48 264.99 201.43 264.99 201.61 271.79 183.59 264.99 196.37 264.99"/></g><text class="cls-13" transform="translate(14.42 194.14)"><tspan x="0" y="0">Port co</tspan><tspan class="cls-10" x="31.29" y="0">n</tspan><tspan class="cls-2" x="37.01" y="0">f</tspan><tspan x="40.52" y="0">ortab</tspan><tspan class="cls-10" x="64.73" y="0">l</tspan><tspan x="67.61" y="0">e</tspan></text><g><path class="cls-5" d="M36.23,164.2s-5.24,1.68-4.41,2.79c.83,1.11,4.15,8.03,10.66,7.47s10.8-10.94,11.35-13.15c.55-2.21,11.9-14.12,13.29-15.92s2.08-2.91,2.63-12.32-8.44-22.56-18.96-20.49-18.69,7.2-18.96,17.72"/><path class="cls-5" d="M62.27,132.66c-.14-3.88-3.32-9.27-6.78-11.21-3.46-1.94-8.44-.69-9.69,.55-1.25,1.25-2.49,5.4-3.05,9.55s-5.12,4.29-4.71,6.78c.42,2.49,1.11,6.32,3.46,5.1"/><path class="cls-5" d="M45.77,147.76c-.62,3.09-8.16,14.15-8.41,15.22s1.77,4.51,3.18,4.51,6.64-11.42,7.53-11.42,7.42-3.18,6.89-7.42c-.53-4.24-4.06-8.75-7.42-8.48-3.36,.27-6.19,2.39-5.3,3.98,.88,1.59,3.53,3.62,3.53,3.62Z"/><line class="cls-5" x1="43.6" y1="163.37" x2="39.95" y2="158.55"/></g><text class="cls-13" transform="translate(21.81 80.43)"><tspan x="0" y="0">B</tspan><tspan class="cls-10" x="5.82" y="0">l</tspan><tspan x="8.71" y="0">uetooth 5</tspan><tspan class="cls-12" x="52.09" y="0">.</tspan><tspan x="54.34" y="0">1</tspan></text><g><polyline class="cls-5" points="25.33 48.42 55.7 19.09 40.51 7.58 40.51 60.78 55.7 46.98 25.33 19.09"/><path class="cls-5" d="M60.74,25.3c5.41,4.24,4.15,14.07,0,17.39"/><path class="cls-5" d="M71.47,19.3c6.52,6,6.02,23.91,0,29.29"/></g><g><path class="cls-5" d="M25.73,254.21c-9.14,.02-13.85-7.12-13.85-15.28s6.61-14.76,14.76-14.76,14.76,6.61,14.76,14.76"/><path class="cls-5" d="M74.76,258c-1.34-2.67-9.81-16.49-14.04-16.49-3.95,0-5.38,3.1-3.38,6.22-4.46-6.1-8-4.37-8.43-2.43-.11,.48,.06,1.07,.39,1.7,1.87,1.99,3.46,4.11,3.61,4.31-.19-.17-2.61-2.39-3.61-4.31-1.9-2.03-4.09-3.92-5.3-3.48-1.77,.64-3.31,2.99-1.32,6.92-2.8-3.56-6.09-7.58-8.56-10.08-1.66-1.68-2.95-2.67-3.49-2.41-1.49,.75-2.83,4.63-2.43,7.04,.07,.47,.21,.88,.43,1.2,1.34,2.01,18.28,19.16,18.28,19.16-5.13-.67-12.26-1.12-12.26,3.12s1.94,4.9,6.77,5.57,15.52,6.46,19.08,7.13c3.57,.67,13.6-9.14,16.27-11.36,2.67-2.23-.67-9.14-2.01-11.81Zm-32.07-7.55c1.56,1.97,2.96,3.8,3.99,5.16-1.96-1.94-3.23-3.66-3.99-5.16Zm14.66-2.7c.16,.21,.32,.44,.47,.67-.18-.22-.34-.45-.47-.67Z"/><path class="cls-5" d="M42.69,250.44c1.56,1.97,2.96,3.8,3.99,5.16-1.96-1.94-3.23-3.66-3.99-5.16Z"/><path class="cls-5" d="M49.3,246.99c1.87,1.99,3.46,4.11,3.61,4.31-.19-.17-2.61-2.39-3.61-4.31Z"/><path class="cls-5" d="M57.82,248.41c-.18-.22-.34-.45-.47-.67,.16,.21,.32,.44,.47,.67Z"/><path class="cls-5" d="M34.56,237.9c0,.86-.15,1.68-.44,2.45-1.66-1.68-2.95-2.67-3.49-2.41-1.49,.75-2.83,4.63-2.43,7.04-.26,.03-.52,.04-.78,.04-3.94,0-7.13-3.19-7.13-7.13s3.19-7.13,7.13-7.13,7.13,3.19,7.13,7.13Z"/></g><text class="cls-13" transform="translate(0 300.85)"><tspan class="cls-11" x="0" y="0">T</tspan><tspan x="4.73" y="0">oucher pour co</tspan><tspan class="cls-3" x="70.84" y="0">n</tspan><tspan x="76.54" y="0">t</tspan><tspan class="cls-1" x="80.56" y="0">r</tspan><tspan x="84.2" y="0">ô</tspan><tspan class="cls-10" x="89.89" y="0">l</tspan><tspan x="92.77" y="0">er</tspan></text></g></svg>