<?xml version="1.0" encoding="utf-8"?>
<!-- Generator: Adobe Illustrator 26.2.1, SVG Export Plug-In . SVG Version: 6.00 Build 0)  -->
<svg version="1.1" id="Calque_1" xmlns="http://www.w3.org/2000/svg" xmlns:xlink="http://www.w3.org/1999/xlink" x="0px" y="0px"
	 viewBox="0 0 139.7 140.9" style="enable-background:new 0 0 139.7 140.9;" xml:space="preserve">
<style type="text/css">
	.st0{fill:#0A1348;}
</style>
<g>
	<path class="st0" d="M103.2,137.8c-22,0-43.9,0-65.9,0c-0.4-0.1-0.9-0.2-1.3-0.2c-3.7-0.4-7.3-1.2-10.6-2.8
		c-14.5-6.9-22.3-18.3-22.5-34.4c-0.3-20-0.1-40.1-0.1-60.1c0-6.5,1.4-12.7,4.7-18.3C15,9.4,26.1,2.9,40.8,2.8
		c19.7-0.1,39.4-0.1,59.1,0c2.5,0,5.1,0.1,7.6,0.7c15.3,3.4,25.1,12.7,29.3,27.8c0.5,2,0.7,4,1.1,6.1c0,22,0,43.9,0,65.9
		c-0.2,1.4-0.4,2.8-0.7,4.1c-3.4,15.3-12.7,25.1-27.8,29.3C107.3,137.2,105.3,137.4,103.2,137.8z M70.4,14.8c-9.8,0-19.6,0-29.4,0
		c-3.1,0-6.1,0.3-9.1,1.4c-10.7,3.8-17.1,13-17.2,24.6c0,19.7-0.1,39.4,0.1,59c0,2.9,0.4,6,1.4,8.8c3.6,10.7,12.9,17.2,24.5,17.2
		c19.7,0,39.4,0.1,59,0c2.9,0,6-0.4,8.8-1.4c10.7-3.6,17.2-12.8,17.2-24.4c0.1-19.8,0-39.6,0-59.4c0-8.8-3.6-16-10.8-21.2
		c-4.6-3.3-9.8-4.6-15.4-4.6C89.9,14.8,80.1,14.8,70.4,14.8z"/>
	<path class="st0" d="M105.1,70.3c0,19.1-15.8,34.8-34.8,34.8C51.1,105,35.4,89.3,35.5,70.2s15.7-34.7,34.8-34.7
		C89.4,35.5,105.1,51.2,105.1,70.3z M70.2,47.5c-12.6,0.1-22.8,10.3-22.7,22.8C47.6,83,57.8,93.2,70.3,93.1
		C83,93,93.2,82.7,93.1,70.2C93,57.6,82.7,47.4,70.2,47.5z"/>
	<path class="st0" d="M106.6,42.9c-4.8,0-8.9-3.9-8.8-8.8c0-4.8,3.9-8.7,8.7-8.7c4.8,0,8.8,3.9,8.8,8.7
		C115.3,38.9,111.4,42.9,106.6,42.9z"/>
</g>
</svg>
