<svg xmlns="http://www.w3.org/2000/svg" viewBox="0 0 20 19.95"><g id="Calque_2" data-name="Calque 2"><g id="Calque_2-2" data-name="Calque 2"><path d="M20,10c0,1.38-.05,2.77-.09,4.15a6.48,6.48,0,0,1-.73,3,5.13,5.13,0,0,1-3.63,2.63,12.48,12.48,0,0,1-2.73.22q-3.18,0-6.37,0a8.46,8.46,0,0,1-2.73-.38A5.12,5.12,0,0,1,.24,15.69,8.77,8.77,0,0,1,0,13.53Q0,10,0,6.42A8.76,8.76,0,0,1,.37,3.78,5.12,5.12,0,0,1,4.26.24,9.12,9.12,0,0,1,6.47,0h7a8.7,8.7,0,0,1,2.73.37,5.12,5.12,0,0,1,3.56,4A15.16,15.16,0,0,1,20,7.34c0,.88,0,1.77,0,2.65Zm-1.81,0h0c0-.64,0-1.29,0-1.93A23.49,23.49,0,0,0,18,5,3.4,3.4,0,0,0,15.1,2a14.58,14.58,0,0,0-2.19-.17c-1.65,0-3.31,0-5,0A26.14,26.14,0,0,0,5,1.94,3.37,3.37,0,0,0,2,4.72,9.54,9.54,0,0,0,1.8,6.85c0,2.07,0,4.13,0,6.2A10.36,10.36,0,0,0,2,15.27a3.3,3.3,0,0,0,2.46,2.61A6.74,6.74,0,0,0,6,18.1q3.6,0,7.19,0A9.19,9.19,0,0,0,15.28,18a3.33,3.33,0,0,0,2.59-2.38,6.46,6.46,0,0,0,.25-1.69C18.15,12.57,18.16,11.26,18.19,10Z"/><path d="M15.11,10A5.14,5.14,0,1,1,10,4.84,5.14,5.14,0,0,1,15.11,10ZM10,6.64A3.33,3.33,0,1,0,13.31,10,3.35,3.35,0,0,0,10,6.64Z"/><path d="M16.51,4.62a1.2,1.2,0,1,1-1.22-1.18A1.2,1.2,0,0,1,16.51,4.62Z"/></g></g></svg>