<?xml version="1.0" encoding="utf-8"?>
<!-- Generator: Adobe Illustrator 26.2.1, SVG Export Plug-In . SVG Version: 6.00 Build 0)  -->
<svg version="1.1" id="Calque_1" xmlns="http://www.w3.org/2000/svg" xmlns:xlink="http://www.w3.org/1999/xlink" x="0px" y="0px"
	 viewBox="0 0 59.7 60.2" style="enable-background:new 0 0 59.7 60.2;" xml:space="preserve">
<style type="text/css">
	.st0{fill:#0A1348;}
</style>
<g>
	<path class="st0" d="M42.7,55.1c-8.3,0-16.3,0-24.6,0c-0.3,0-0.3,0-0.5,0c-1.3-0.3-2.8-0.5-4-1c-5.3-2.5-8.3-6.8-8.3-12.8
		c0-7.5,0-14.8,0-22.4c0-2.5,0.5-4.8,1.8-6.8c2.8-4.8,7-7,12.3-7c7.3,0,14.6,0,21.9,0c1,0,2,0,2.8,0.3c5.8,1.3,9.3,4.8,10.8,10.3
		c0.3,0.8,0.3,1.5,0.5,2.3c0,8.3,0,16.3,0,24.6c0,0.5-0.3,1-0.3,1.5c-1.3,5.8-4.8,9.3-10.3,10.8C44.2,54.8,43.4,54.8,42.7,55.1z
		 M30.4,9.3c-3.8,0-7.3,0-11.1,0c-1.3,0-2.3,0-3.3,0.5c-4,1.5-6.3,4.8-6.3,9c0,7.3,0,14.6,0,21.9c0,1,0.3,2.3,0.5,3.3
		c1.3,4,4.8,6.3,9,6.3c7.3,0,14.6,0,21.9,0c1,0,2.3-0.3,3.3-0.5c4-1.3,6.3-4.8,6.3-9c0-7.3,0-14.8,0-22.1c0-3.3-1.3-6-4-7.8
		c-1.8-1.3-3.8-1.8-5.8-1.8C37.7,9.3,34.1,9.3,30.4,9.3z"/>
	<path class="st0" d="M43.4,29.9c0,7-5.8,12.8-12.8,12.8s-13.1-5.8-12.8-13.1c0-7,5.8-12.8,12.8-12.8C37.4,16.9,43.4,22.6,43.4,29.9
		z M30.4,21.4c-4.8,0-8.5,3.8-8.5,8.5s3.8,8.5,8.5,8.5s8.5-3.8,8.5-8.5S34.9,21.4,30.4,21.4z"/>
	<path class="st0" d="M43.9,19.6c-1.8,0-3.3-1.5-3.3-3.3s1.5-3.3,3.3-3.3s3.3,1.5,3.3,3.3C47.2,18.1,45.7,19.6,43.9,19.6z"/>
</g>
</svg>
