<?xml version="1.0" encoding="UTF-8" standalone="no"?>
<!-- Created with Inkscape (http://www.inkscape.org/) -->
<svg
   xmlns:svg="http://www.w3.org/2000/svg"
   xmlns="http://www.w3.org/2000/svg"
   version="1.0"
   width="400"
   height="151.91176"
   id="svg2"
   xml:space="preserve"><defs
     id="defs5"><clipPath
       id="clipPath387"><path
         d="M 70.02,258.668 L 128.896,258.668 L 128.896,289.134 L 70.02,289.134 L 70.02,258.668 z"
         id="path389" /></clipPath><clipPath
       id="clipPath395"><path
         d="M 71.101,263.647 L 122.8284,263.647 L 122.8284,283.292 L 71.101,283.292 L 71.101,263.647 z"
         id="path397" /></clipPath></defs><g
     transform="matrix(1.25,0,0,-1.25,246.93286,353.93718)"
     id="g11"><g
       id="g347"><g
         transform="matrix(6.1862765,0,0,6.1862765,-637.39673,-1469.3729)"
         id="g383"><g
           clip-path="url(#clipPath387)"
           id="g385"><g
             id="g391"><g
               clip-path="url(#clipPath395)"
               id="g393"><path
                 d="M 71.101,263.647 L 122.8284,263.647 L 122.8284,283.292 L 71.101,283.292 L 71.101,263.647 z"
                 id="path399"
                 style="fill:#ffffff;fill-opacity:1;fill-rule:nonzero;stroke:none" /><path
                 d="M 114.5992,272.6069 L 114.5992,273.1818 L 112.7181,273.1818 L 112.7181,268.5053 L 114.5729,268.5053 L 114.5729,271.0918 C 114.8341,271.3791 114.9126,271.6143 115.3045,271.6143 C 115.6963,271.6143 115.7486,271.2224 115.7486,271.0656 C 115.7486,270.9088 115.7486,268.5053 115.7486,268.5053 L 117.6034,268.5053 L 117.6034,271.6403 C 117.6034,272.5809 116.911,273.2209 116.0228,273.2209 C 115.1347,273.2209 114.8341,272.8159 114.5992,272.6069"
                 id="path401"
                 style="fill:#231f20;fill-opacity:1;fill-rule:nonzero;stroke:none" /><path
                 d="M 72.146,281.7246 L 121.7834,281.7246 L 121.7834,282.2471 L 72.146,282.2471 L 72.146,281.7246 z"
                 id="path403"
                 style="fill:#ed1c24;fill-opacity:1;fill-rule:nonzero;stroke:none" /><path
                 d="M 72.146,264.692 L 121.7834,264.692 L 121.7834,268.0352 L 72.146,268.0352 L 72.146,264.692 z"
                 id="path405"
                 style="fill:#ed1c24;fill-opacity:1;fill-rule:nonzero;stroke:none" /><path
                 d="M 85.1823,275.0889 L 87.3028,275.0889 L 87.3028,281.1237 L 85.1823,281.1237 L 85.1823,275.0889 z"
                 id="path407"
                 style="fill:#231f20;fill-opacity:1;fill-rule:nonzero;stroke:none" /><path
                 d="M 89.5713,279.1905 L 89.5713,279.7652 L 87.6904,279.7652 L 87.6904,275.0889 L 89.5452,275.0889 L 89.5452,277.6752 C 89.8065,277.9626 89.8848,278.1977 90.2767,278.1977 C 90.6686,278.1977 90.7208,277.8058 90.7208,277.649 C 90.7208,277.4923 90.7208,275.0889 90.7208,275.0889 L 92.5757,275.0889 L 92.5757,278.2238 C 92.5757,279.1643 91.8834,279.8044 90.995,279.8044 C 90.1069,279.8044 89.8065,279.3994 89.5713,279.1905"
                 id="path409"
                 style="fill:#231f20;fill-opacity:1;fill-rule:nonzero;stroke:none" /><path
                 d="M 95.2927,276.9176 L 95.2927,278.5373 L 96.6773,278.5373 L 96.6773,279.7652 L 95.3188,279.7652 L 95.3188,281.2282 L 94.8486,281.2282 L 92.6541,279.3734 L 92.6541,278.5112 L 93.3333,278.5112 L 93.3333,276.4213 C 93.3333,275.7419 93.9081,274.9582 95.2143,274.9582 C 95.9721,274.9582 96.5206,275.2718 96.7818,275.4285 L 96.7818,276.9176 C 96.599,276.7609 96.2593,276.578 95.9197,276.578 C 95.5801,276.578 95.2927,276.7085 95.2927,276.9176"
                 id="path411"
                 style="fill:#231f20;fill-opacity:1;fill-rule:nonzero;stroke:none" /><path
                 d="M 98.7151,277.9365 L 99.7079,277.9365 C 99.7601,278.276 99.5772,278.6418 99.2376,278.6418 C 98.898,278.6418 98.7151,278.3283 98.7151,277.9365 z M 99.9168,276.2644 C 100.3871,276.2644 101.2491,276.5257 101.4582,276.6302 L 101.4582,275.3762 C 101.3014,275.2979 100.6221,274.9582 99.4467,274.9582 C 97.853,274.9582 96.8863,275.8465 96.8863,277.4401 C 96.8863,278.8247 97.7223,279.8698 99.2115,279.8698 C 100.7006,279.8698 101.5367,278.9293 101.5367,277.1527 L 98.7412,277.1527 C 98.7412,276.369 99.4467,276.2644 99.9168,276.2644"
                 id="path413"
                 style="fill:#231f20;fill-opacity:1;fill-rule:nonzero;stroke:none" /><path
                 d="M 103.5743,279.7652 L 101.7456,279.7652 L 101.7456,275.0889 L 103.6526,275.0889 L 103.6526,276.996 C 103.6526,277.4401 104.2384,278.0203 104.6564,278.0203 C 105.0745,278.0203 105.4059,277.8895 105.6139,277.7505 L 105.7239,279.4401 C 105.5931,279.6752 105.2629,279.8698 104.7926,279.8698 C 104.3224,279.8698 104.0184,279.6978 103.5743,278.9663"
                 id="path415"
                 style="fill:#231f20;fill-opacity:1;fill-rule:nonzero;stroke:none" /><path
                 d="M 120.2942,270.3081 L 120.2942,271.9277 L 121.6789,271.9277 L 121.6789,273.1556 L 120.3204,273.1556 L 120.3204,274.6187 L 119.8501,274.6187 L 117.6557,272.7637 L 117.6557,271.9015 L 118.3349,271.9015 L 118.3349,269.8116 C 118.3349,269.1324 118.9096,268.3486 120.2159,268.3486 C 120.9734,268.3486 121.5221,268.6621 121.7834,268.819 L 121.7834,270.3081 C 121.6005,270.1512 121.2609,269.9684 120.9212,269.9684 C 120.5816,269.9684 120.2942,270.099 120.2942,270.3081"
                 id="path417"
                 style="fill:#231f20;fill-opacity:1;fill-rule:nonzero;stroke:none" /><path
                 d="M 87.3246,272.9728 L 87.3246,270.0468 L 87.9516,270.0468 C 88.5525,270.0468 89.1533,270.6215 89.1533,271.5359 C 89.1533,272.4503 88.5003,272.999 87.9255,272.999 C 87.3507,272.999 87.3246,272.9728 87.3246,272.9728 z M 91.3478,271.5619 C 91.3478,270.099 90.3812,268.5053 88.6831,268.5053 L 85.1563,268.5053 L 85.1563,274.5402 L 88.239,274.5402 C 90.0938,274.5402 91.3478,273.025 91.3478,271.5619"
                 id="path419"
                 style="fill:#231f20;fill-opacity:1;fill-rule:nonzero;stroke:none" /><path
                 d="M 91.583,268.5053 L 93.5423,268.5053 L 93.5423,273.1556 L 91.583,273.1556 L 91.583,268.5053 z"
                 id="path421"
                 style="fill:#231f20;fill-opacity:1;fill-rule:nonzero;stroke:none" /><path
                 d="M 97.2784,271.4575 L 97.2784,272.7115 C 97.0431,272.9728 96.5206,273.2602 95.6585,273.2602 C 94.6396,273.2602 93.8036,272.7115 93.8036,271.9277 C 93.8036,271.144 94.0404,270.7348 95.1621,270.2035 C 95.6585,269.9684 95.554,269.6287 95.1882,269.6287 C 94.8225,269.6287 94.4567,269.7071 93.7775,270.2035 L 93.7775,268.7144 C 94.1955,268.5053 94.718,268.4009 95.5018,268.4009 C 96.2855,268.4009 97.4872,268.5837 97.4872,269.864 C 97.4872,270.4124 96.8602,271.0393 96.1026,271.3528 C 95.4991,271.6027 95.6576,272.0061 96.0765,272.0061 C 96.2855,272.0061 96.9386,271.7709 97.2784,271.4575"
                 id="path423"
                 style="fill:#231f20;fill-opacity:1;fill-rule:nonzero;stroke:none" /><path
                 d="M 91.8792,273.9916 C 91.8792,274.3691 92.1851,274.6751 92.5627,274.6751 C 92.9402,274.6751 93.2462,274.3691 93.2462,273.9916 C 93.2462,273.6141 92.9402,273.3081 92.5627,273.3081 C 92.1851,273.3081 91.8792,273.6141 91.8792,273.9916"
                 id="path425"
                 style="fill:#231f20;fill-opacity:1;fill-rule:nonzero;stroke:none" /><path
                 d="M 101.5628,271.3528 L 101.5628,273.025 C 101.0924,273.1818 100.7266,273.2602 100.2043,273.2602 C 99.6817,273.2602 97.5396,272.9728 97.5396,270.8044 C 97.5396,268.636 99.6556,268.3747 100.2043,268.3747 C 100.7529,268.3747 101.3798,268.5315 101.5628,268.6099 L 101.5628,270.1774 C 101.3014,270.0206 100.9096,269.9161 100.5699,269.9161 C 100.2304,269.9161 99.4727,270.1512 99.4727,270.8306 C 99.4727,271.5097 100.1521,271.6665 100.5699,271.6665 C 100.9879,271.6665 101.3798,271.4836 101.5628,271.3528"
                 id="path427"
                 style="fill:#231f20;fill-opacity:1;fill-rule:nonzero;stroke:none" /><path
                 d="M 112.4509,269.7207 C 112.2256,269.7207 112.1391,269.8331 112.1391,270.1512 L 112.1391,273.1556 L 110.2843,273.1556 L 110.2843,270.4909 C 110.2843,269.9944 109.7619,269.9422 109.579,269.9422 C 109.3962,269.9422 109.1349,270.099 109.1349,270.4386 L 109.1349,273.1556 L 107.2538,273.1556 L 107.2538,269.89 C 107.2538,268.8712 108.142,268.4009 108.7952,268.4009 C 109.4483,268.4009 110.1276,268.7406 110.4411,269.2106 C 110.7284,268.636 111.0143,268.5062 112.4509,268.5062"
                 id="path429"
                 style="fill:#231f20;fill-opacity:1;fill-rule:nonzero;stroke:none" /><path
                 d="M 112.4509,269.7207 C 112.2256,269.7207 112.1391,269.8331 112.1391,270.1512 L 112.1391,273.1556 L 110.2843,273.1556 L 110.2843,270.4909 C 110.2843,269.9944 109.7619,269.9422 109.579,269.9422 C 109.3962,269.9422 109.1349,270.099 109.1349,270.4386 L 109.1349,273.1556 L 107.2538,273.1556 L 107.2538,269.89 C 107.2538,268.8712 108.142,268.4009 108.7952,268.4009 C 109.4483,268.4009 110.1276,268.7406 110.4411,269.2106 C 110.7284,268.636 111.0143,268.5062 112.4509,268.5062 L 112.4509,269.7207 z"
                 id="path431"
                 style="fill:none;stroke:#231f20;stroke-width:0.11;stroke-linecap:butt;stroke-linejoin:miter;stroke-miterlimit:3.86369991;stroke-dasharray:none;stroke-opacity:1" /><path
                 d="M 104.3841,269.9177 C 104.8127,269.9177 105.1601,270.3147 105.1601,270.8044 C 105.1601,271.2942 104.8127,271.691 104.3841,271.691 C 103.9558,271.691 103.6083,271.2942 103.6083,270.8044 C 103.6083,270.3147 103.9558,269.9177 104.3841,269.9177 z M 101.6557,270.8306 C 101.6557,272.1772 102.8714,273.269 104.3712,273.269 C 105.8709,273.269 107.0867,272.1772 107.0867,270.8306 C 107.0867,269.4837 105.8709,268.3919 104.3712,268.3919 C 102.8714,268.3919 101.6557,269.4837 101.6557,270.8306"
                 id="path433"
                 style="fill:#231f20;fill-opacity:1;fill-rule:nonzero;stroke:none" /><path
                 d="M 72.2189,278.7986 C 72.2189,280.2473 73.3934,281.4218 74.8422,281.4218 C 76.291,281.4218 77.4655,280.2473 77.4655,278.7986 C 77.4655,277.3497 76.291,276.1754 74.8422,276.1754 C 73.3934,276.1754 72.2189,277.3497 72.2189,278.7986"
                 id="path435"
                 style="fill:#ed1c24;fill-opacity:1;fill-rule:nonzero;stroke:none" /><path
                 d="M 72.1514,268.5575 L 77.5331,268.5575 L 77.5331,276.0293 L 72.1514,276.0293 L 72.1514,268.5575 z"
                 id="path437"
                 style="fill:#ed1c24;fill-opacity:1;fill-rule:nonzero;stroke:none" /><path
                 d="M 77.998,268.5575 C 81.5484,268.5575 84.7383,271.4358 84.7383,274.9863 C 84.7383,278.5366 81.5484,281.3065 77.998,281.3065"
                 id="path439"
                 style="fill:#ed1c24;fill-opacity:1;fill-rule:nonzero;stroke:none" /></g></g></g></g></g></g></svg>