<?xml version="1.0" encoding="utf-8"?>
<!-- Generator: Adobe Illustrator 26.3.1, SVG Export Plug-In . SVG Version: 6.00 Build 0)  -->
<svg version="1.1" id="Calque_1" xmlns="http://www.w3.org/2000/svg" xmlns:xlink="http://www.w3.org/1999/xlink" x="0px" y="0px"
	 viewBox="0 0 70 130" style="enable-background:new 0 0 70 130;" xml:space="preserve">
<style type="text/css">
	.st0{fill:#FFFFFF;}
</style>
<path class="st0" d="M14.1,69.5c-0.6-0.4-0.4-1.1-1-1.3c-0.6,0.4-0.4,1.2-0.6,1.8c-0.3,0.7-0.8,1.1-1.5,0.9
	c-0.9-0.2-0.4-0.9-0.3-1.4c0.8-2.6,0.9-5.4,2.5-7.6c2.1-3.1,3.8-6.4,6-9.4c2.3-3,4.7-6.2,4.9-10.3c0.1-1.4,1.2-2.3,2.1-3.3
	c1.5-1.6,1.6-2,0.5-4c-0.5-0.9-0.4-1.6-0.3-2.6c0.5-3.7,3.2-6.3,4.9-9.4c1-1.8,0.9-2.4-0.9-3.2c-2.4-1.1-3.6-3.4-3.1-6.1
	c0.4-1.9,2.5-3.9,4.4-4c3.1-0.1,5.2,1.3,6.1,3.8c0.5,1.4,0.3,2.6-0.4,3.9c-1,1.9-1.8,3.8-2.7,5.7c-0.4,0.9-0.2,1.3,0.7,1.7
	c1.4,0.6,2.6,1.5,3.2,3c0.7,1.8,0,3.7-1.7,5.2c-1.2,1-1.2,1.5-0.2,2.7c1,1,1.9,2.1,2.8,3.3c1,1.4,0.4,2.8-0.2,4c-2,4.3-3,8.8-4,13.4
	c-0.1,0.3-0.3,0.6,0.1,1c2.2,2.5,3.1,5.4,2.8,8.7c-0.3,2.9,0.7,5.6,1.6,8.3c0.3,0.8,0.5,1.6,0.7,2.4c0.6,2,1.8,3.6,3.9,4.2
	c2.1,0.7,3.9,1.7,5.2,3.6c1.3,1.7,3.2,2.7,4.9,3.9c0.2,0.2,0.5,0.2,0.7,0.4c2.1,2.4,4.8,2.9,7.8,2.7c0.8-0.1,1.3,0.4,1.2,1.1
	c-0.5,3.7-0.6,7.4-1.9,10.9c-0.2,0.5-0.2,1.3-1.1,1.2c-0.7-0.1-1-0.7-1.1-1.3c-0.2-1.3-0.9-2.5-1.5-3.6c-0.5-0.9-1-1.6-2.2-1.5
	c-0.7,0.1-1.2-0.5-1.3-1.1c-0.7-3.9-3.4-6.1-6.7-7.8c-3.2-1.6-6.2-3.6-9.5-5.1c-2.4-1.1-3.5-3.7-5.1-5.7c-0.6-0.8-1.1-1.7-1.6-2.6
	c-0.3-0.4-0.7-0.7-0.9-0.2c-1,2.8-3.7,4.8-4,8c-0.1,0.9,0,1.7,0.5,2.5c2.2,3.2,3.5,6.9,5.7,10c1.7,2.4,3.3,5.3,7,5.6
	c2.1,0.2,2.4,0.9,1.8,2.9c-0.6,2.3-1.2,4.6-1.6,6.9c-0.2,1.4-0.8,2.6-1.7,3.7c-0.7,0.9-1.4,0.8-1.9-0.2c-0.2-0.4-0.4-0.8-0.3-1.2
	c0.1-2.3-0.6-4.2-2.3-5.8c-1-0.9-1.4-2.3-1.7-3.4c-1.2-3.8-1.8-5.2-4.6-8.3c-2.3-2.5-4.2-5.3-6.1-8c-0.8-1.1-1-2.3-1-3.7
	c0-2.5-0.1-5-0.2-7.4c0-0.1,0-0.3,0-0.3c-1.5-1.4-0.5-3.1-0.1-4.5c0.5-1.8,0.7-3.6,1.5-5.3c0.4-0.9,0.4-1.8,0.1-2.6
	c-0.3-1.1-0.1-2.2,0.6-3c1.6-1.7,0.6-3.5,0.3-5.2c-0.1-0.6-0.6-0.6-0.9-0.1c-1.3,2.7-3.7,4.3-6,6c-1,0.8-0.6,1.8-0.6,2.8
	c0,0.5,0.2,1.1-0.5,0.9c-1.3-0.2-1.2,0.5-1,1.3C14.3,68.1,14.5,68.7,14.1,69.5z"/>
</svg>
