<?xml version="1.0" encoding="utf-8"?>
<!-- Generator: Adobe Illustrator 26.3.1, SVG Export Plug-In . SVG Version: 6.00 Build 0)  -->
<svg version="1.1" id="Calque_1" xmlns="http://www.w3.org/2000/svg" xmlns:xlink="http://www.w3.org/1999/xlink" x="0px" y="0px"
	 viewBox="0 0 70 130" style="enable-background:new 0 0 70 130;" xml:space="preserve">
<style type="text/css">
	.st0{fill:#FFFFFF;}
</style>
<path class="st0" d="M7.8,74.1c-0.7-0.5-0.5-1.3-1.2-1.5c-0.7,0.5-0.5,1.4-0.7,2.1C5.6,75.6,5,76,4.2,75.8c-1.1-0.2-0.5-1.1-0.4-1.6
	c0.9-3.1,1.1-6.3,2.9-8.9c2.5-3.6,4.5-7.5,7.1-11c2.7-3.5,5.5-7.3,5.8-12.1c0.1-1.6,1.4-2.7,2.5-3.9c1.8-1.9,1.9-2.4,0.6-4.7
	c-0.6-1.1-0.5-1.9-0.4-3.1c0.6-4.3,3.8-7.4,5.8-11c1.2-2.1,1.1-2.8-1.1-3.8c-2.8-1.3-4.2-4-3.6-7.2c0.5-2.2,2.9-4.6,5.2-4.7
	c3.6-0.1,6.1,1.5,7.2,4.5c0.6,1.6,0.4,3.1-0.5,4.6C34,15,33.1,17.3,32,19.5c-0.5,1.1-0.2,1.5,0.8,2c1.6,0.7,3.1,1.8,3.8,3.5
	c0.8,2.1,0,4.3-2,6.1c-1.4,1.2-1.4,1.8-0.2,3.2c1.2,1.2,2.2,2.5,3.3,3.9c1.2,1.6,0.5,3.3-0.2,4.7c-2.4,5.1-3.5,10.3-4.7,15.7
	c-0.1,0.4-0.4,0.7,0.1,1.2c2.6,2.9,3.6,6.3,3.3,10.2c-0.4,3.4,0.8,6.6,1.9,9.8c0.4,0.9,0.6,1.9,0.8,2.8c0.7,2.4,2.1,4.2,4.6,4.9
	c2.5,0.8,4.6,2,6.1,4.2c1.5,2,3.8,3.2,5.8,4.6c0.2,0.2,0.6,0.2,0.8,0.5c2.5,2.8,5.6,3.4,9.2,3.2c0.9-0.1,1.5,0.5,1.4,1.3
	c-0.6,4.3-0.7,8.7-2.2,12.8c-0.2,0.6-0.2,1.5-1.3,1.4c-0.8-0.1-1.2-0.8-1.3-1.5c-0.2-1.5-1.1-2.9-1.8-4.2c-0.6-1.1-1.2-1.9-2.6-1.8
	c-0.8,0.1-1.4-0.6-1.5-1.3c-0.8-4.6-4-7.2-7.9-9.2c-3.8-1.9-7.3-4.2-11.2-6c-2.8-1.3-4.1-4.3-6-6.7c-0.7-0.9-1.3-2-1.9-3.1
	c-0.4-0.5-0.8-0.8-1.1-0.2c-1.2,3.3-4.3,5.6-4.7,9.4c-0.1,1.1,0,2,0.6,2.9c2.6,3.8,4.1,8.1,6.7,11.8c2,2.8,3.9,6.2,8.2,6.6
	c2.5,0.2,2.8,1.1,2.1,3.4c-0.7,2.7-1.4,5.4-1.9,8.1c-0.2,1.6-0.9,3.1-2,4.3c-0.8,1.1-1.6,0.9-2.2-0.2c-0.2-0.5-0.5-0.9-0.4-1.4
	c0.1-2.7-0.7-4.9-2.7-6.8c-1.2-1.1-1.6-2.7-2-4c-1.4-4.5-2.1-6.1-5.4-9.8c-2.7-2.9-4.9-6.2-7.2-9.4c-0.9-1.3-1.2-2.7-1.2-4.3
	c0-2.9-0.1-5.9-0.2-8.7c0-0.1,0-0.4,0-0.4c-1.8-1.6-0.6-3.6-0.1-5.3c0.6-2.1,0.8-4.2,1.8-6.2c0.5-1.1,0.5-2.1,0.1-3.1
	c-0.4-1.3-0.1-2.6,0.7-3.5c1.9-2,0.7-4.1,0.4-6.1c-0.1-0.7-0.7-0.7-1.1-0.1c-1.5,3.2-4.3,5.1-7.1,7.1c-1.2,0.9-0.7,2.1-0.7,3.3
	c0,0.6,0.2,1.3-0.6,1.1c-1.5-0.2-1.4,0.6-1.2,1.5C8,72.5,8.3,73.2,7.8,74.1z"/>
</svg>
