<svg xmlns="http://www.w3.org/2000/svg" viewBox="0 0 89.46 108.43"><defs><style>.cls-1{fill:#141414;}</style></defs><g id="Calque_2" data-name="Calque 2"><g id="Calque_2-2" data-name="Calque 2"><path class="cls-1" d="M20,82.76c-1.14,2-3.65,7.24-4.76,9.38H15.1a1,1,0,0,0-.24,0c-.64-1.25-1.88-4.07-2.9-6.39-.48-1-.78-1.81-1-2.4a25.69,25.69,0,0,1-1,2.4c-1,2.36-2.28,5.09-2.9,6.39H6.6C5.46,89.91,3.22,84.87,2,82.76h.76c.33.83,2.06,4.26,3.05,6.42a22.92,22.92,0,0,1,1,2.4c.24-.58.56-1.36,1.08-2.5,1-2.32,2.3-5.09,2.8-6.32h.53c.49,1.22,1.82,4.15,2.73,6.32.53,1.11.87,1.92,1.09,2.52.24-.55.59-1.33,1.14-2.47,1-2.13,2.72-5.55,3-6.37Z"/><path class="cls-1" d="M21.81,81.33a.62.62,0,0,1-.69-.65.61.61,0,0,1,.69-.64c.47,0,.69.25.69.64A.61.61,0,0,1,21.81,81.33Zm-.33,10.81c0-1.73,0-2.8,0-4.83s0-3,0-4.55h.65c-.05,1.6-.05,2.59-.05,4.56s0,3.07.05,4.82Z"/><path class="cls-1" d="M26.18,85.37a4.23,4.23,0,0,1,4.35-2.8,7,7,0,0,1,2.87.57,6.27,6.27,0,0,0-.29.58,5.83,5.83,0,0,0-2.72-.59,4,4,0,0,0-4.23,4c0,1.79,0,4.1,0,5.06h-.63c0-1.28.05-2.64.05-4.59s0-3.41-.05-4.79h.61c0,.7,0,1.54-.1,2.59Z"/><path class="cls-1" d="M45.27,88.84c0,1.7-.89,3.59-5.47,3.59-3.91,0-6.26-1.68-6.26-5s2.34-5,6.23-5,5.5,1.59,5.5,4c0,.24,0,.66,0,1-1.11,0-2.79,0-6.2,0-1.62,0-3.44,0-5-.06,0,2.81,2.06,4.45,5.7,4.45,4.14,0,4.91-1.53,4.9-3.08ZM34.12,87c2.75,0,8.85,0,10.59,0v-.6c0-2-1.44-3.42-5-3.42S34.31,84.46,34.12,87Z"/><path class="cls-1" d="M47.8,92.14c0-2.18,0-3.89,0-6.1,0-2.67,0-4,0-6.29h.62c-.05,2.29,0,3.67,0,6.31,0,2.21,0,3.87,0,6.08Z"/><path class="cls-1" d="M62.41,88.84c0,1.7-.9,3.59-5.48,3.59-3.9,0-6.26-1.68-6.26-5s2.34-5,6.23-5,5.51,1.59,5.51,4c0,.24,0,.66,0,1-1.1,0-2.78,0-6.19,0-1.62,0-3.44,0-5-.06,0,2.81,2.07,4.45,5.7,4.45,4.15,0,4.92-1.53,4.9-3.08ZM51.25,87c2.75,0,8.85,0,10.6,0v-.6c0-2-1.44-3.42-5-3.42S51.44,84.46,51.25,87Z"/><path class="cls-1" d="M65,88.81a5.25,5.25,0,0,0,0,.54c0,1.93,1.76,2.5,5.32,2.5s5-.65,5-2.18c0-1.34-1-1.93-5.23-2.14s-5.33-1-5.33-2.53,1.65-2.56,5.35-2.56,5.31.83,5.31,2.86c0,.26,0,.42,0,.69h-.57c0-.22,0-.48,0-.64,0-1.71-1.2-2.41-4.72-2.41-3.34,0-4.8.7-4.8,2s.9,1.85,5.06,2,5.52.87,5.52,2.66-1.78,2.67-5.59,2.67-5.9-.73-5.9-3c0-.21,0-.37,0-.58H65Z"/><path class="cls-1" d="M78.56,88.81c0,.18,0,.4,0,.54,0,1.93,1.76,2.5,5.31,2.5s5-.65,5-2.18c0-1.34-1-1.93-5.24-2.14s-5.33-1-5.33-2.53,1.65-2.56,5.35-2.56S89,83.27,89,85.3c0,.26,0,.42,0,.69h-.58c0-.22,0-.48,0-.64,0-1.71-1.2-2.41-4.72-2.41-3.35,0-4.81.7-4.81,2s.9,1.85,5.06,2,5.52.87,5.52,2.66-1.77,2.67-5.58,2.67-5.91-.73-5.91-3c0-.21,0-.37,0-.58h.57Z"/><path class="cls-1" d="M14.7,104.84c0,1.7-.9,3.59-5.48,3.59-3.9,0-6.26-1.68-6.26-5s2.34-5,6.23-5,5.51,1.59,5.51,4c0,.24,0,.66,0,1-1.1,0-2.78,0-6.19,0-1.62,0-3.45,0-5-.06,0,2.81,2.07,4.45,5.7,4.45,4.15,0,4.92-1.53,4.9-3.08ZM3.54,103c2.75,0,8.85,0,10.6,0v-.6c0-2-1.44-3.42-5-3.42S3.73,100.46,3.54,103Z"/><path class="cls-1" d="M16.71,102c-.07-2.17,1.47-3.48,5.25-3.48,4.14,0,5.35,1.59,5.35,3.56,0,1,0,1.93,0,3.1a16,16,0,0,0,.19,2.93H27c-.22,0-.3-.1-.3-.35,0-.56,0-1.22,0-1.86l-.08,0c-.69,1.48-2.77,2.44-6,2.44s-4.47-.91-4.47-2.69,1.46-2.69,5.2-2.69a29.85,29.85,0,0,1,5.33.42c0-.5,0-.92,0-1.22,0-1.79-1-3.12-4.79-3.12-3.38,0-4.74,1-4.66,3h-.57Zm10,1.74a45.29,45.29,0,0,0-5.28-.3c-3.34,0-4.67.65-4.67,2.14s1,2.24,4,2.24c4.29,0,5.95-1.58,5.95-3.34Z"/><path class="cls-1" d="M30.53,101.37a4.25,4.25,0,0,1,4.36-2.8,7,7,0,0,1,2.86.57,6.27,6.27,0,0,0-.29.58,5.83,5.83,0,0,0-2.72-.59,4,4,0,0,0-4.22,4c0,1.79,0,4.1,0,5.06h-.63c0-1.28,0-2.64,0-4.59s0-3.41,0-4.79h.61c0,.7,0,1.54-.09,2.59Z"/><path class="cls-1" d="M39,101.29c.74-1.62,2.53-2.74,5.46-2.74,3.61,0,5.5,1.87,5.5,4.85s-2,4.95-5.58,4.95A8.49,8.49,0,0,1,39,106.79l-.05,0a5.72,5.72,0,0,1,0,.59v.74h-.6c0-1.49,0-3.33,0-5.7,0-2.93,0-5.46,0-6.69H39c0,1.07,0,1.94,0,3.23,0,.76,0,1.43,0,2.28Zm0,5a9.17,9.17,0,0,0,5.39,1.53c3.3,0,5-1.78,5-4.44s-1.73-4.34-5-4.34c-2.87,0-5.41,1.28-5.41,3.81Z"/><path class="cls-1" d="M62.7,98.76c0,1.2-.05,2.56-.05,4.45,0,2.1,0,3.7.05,4.93H62c0-.8,0-1.47.07-2.31l-.1,0c-.83,1.62-2.75,2.52-5.55,2.52-3.41,0-5.09-1.35-5.09-3.83,0-1.47,0-2.06,0-3s0-1.82-.05-2.72H52c0,1.47-.07,3.22-.07,5.67,0,2.22,1.38,3.39,4.65,3.39,3,0,5.53-1.23,5.53-3.76,0-3,0-4.39,0-5.3Z"/><path class="cls-1" d="M75.85,95.75c0,3.14-.07,4.66-.07,7.57,0,1.89,0,3.63.07,4.82h-.64c0-.45,0-.86,0-1.41,0-.35,0-.7,0-1.1l-.08,0c-.75,1.62-2.58,2.74-5.3,2.74-3.6,0-5.66-1.76-5.66-4.82s2-5,5.74-5a8.13,8.13,0,0,1,5.25,1.54l0,0c0-.56,0-1.21,0-1.95,0-.9,0-1.47,0-2.37Zm-.63,4.8A8.88,8.88,0,0,0,70,99.06c-3.43,0-5.25,1.73-5.25,4.47s1.89,4.29,5.14,4.29c2.8,0,5.29-1.39,5.29-3.83Z"/><path class="cls-1" d="M78.4,104.81c0,.18,0,.4,0,.54,0,1.93,1.76,2.5,5.31,2.5s5-.65,5-2.18c0-1.34-1-1.93-5.24-2.14s-5.33-1-5.33-2.53,1.65-2.56,5.35-2.56,5.31.83,5.31,2.86c0,.26,0,.42,0,.69h-.58c0-.22,0-.48,0-.64,0-1.71-1.2-2.41-4.73-2.41-3.34,0-4.8.7-4.8,2s.9,1.85,5.06,2,5.52.87,5.52,2.66-1.77,2.67-5.58,2.67-5.91-.73-5.91-3c0-.21,0-.37,0-.58h.57Z"/><path class="cls-1" d="M13.93,8.58H15.6l7.45,16.71H20.62L18.4,20.37H11.32L9.24,25.29H6.8Zm3.5,9.67-2.68-6-2.49,6Z"/><path class="cls-1" d="M37.72,8.68h2.22V25.29H37.55V12.36l-5.1,6.42H32l-5.17-6.42V25.29H24.46V8.68h2.25l5.52,6.82Z"/><path class="cls-1" d="M48.42,25.29H42.79V8.68h4.35a7.58,7.58,0,0,1,3.22.55,4.24,4.24,0,0,1,1.76,1.52,4.17,4.17,0,0,1,.6,2.24,3.61,3.61,0,0,1-2.53,3.51A5.1,5.1,0,0,1,53.08,18a3.9,3.9,0,0,1,1.08,2.76A4.1,4.1,0,0,1,53.51,23a4.78,4.78,0,0,1-1.92,1.63A7.1,7.1,0,0,1,48.42,25.29Zm-1.2-14.5h-2v5h1.58a4,4,0,0,0,2.71-.73,2.43,2.43,0,0,0,.8-1.88C50.26,11.59,49.25,10.79,47.22,10.79Zm.17,7.11H45.17v5.27h2.34a7.72,7.72,0,0,0,2.65-.3,2.52,2.52,0,0,0,1.12-.95,2.44,2.44,0,0,0,.42-1.38,2.35,2.35,0,0,0-.45-1.39A2.65,2.65,0,0,0,50,18.21,8.13,8.13,0,0,0,47.39,17.9Z"/><path class="cls-1" d="M56.38,8.68H65.8v2.11h-7v5.07h6.8V18h-6.8v5.16H66v2.12H56.38Z"/><path class="cls-1" d="M69.12,25.29V8.68h4.16a6,6,0,0,1,4,1.24,4.19,4.19,0,0,1,1.48,3.38A4.34,4.34,0,0,1,78,15.81a5.35,5.35,0,0,1-2,1.73l4.21,7.75H77.47l-3.69-7.23H71.5v7.23ZM72.21,10.7H71.5v5.24h.9a6.61,6.61,0,0,0,2.48-.31,2.26,2.26,0,0,0,1.05-.93,2.71,2.71,0,0,0,.37-1.42,2.59,2.59,0,0,0-.41-1.42,2.19,2.19,0,0,0-1.18-.9A8.55,8.55,0,0,0,72.21,10.7Z"/><path class="cls-1" d="M40.46,28.6v2.51h-.69V29.18a1.54,1.54,0,0,0-.15-.8.63.63,0,0,0-.54-.23.88.88,0,0,0-.4.1,1.9,1.9,0,0,0-.4.35v2.51h-.69V27.65h.69v.45a1.5,1.5,0,0,1,1-.52,1.12,1.12,0,0,1,1,.63,1.54,1.54,0,0,1,1.15-.64,1.08,1.08,0,0,1,.83.37,1.66,1.66,0,0,1,.33,1.13v2h-.69V29.06a1,1,0,0,0-.18-.66.57.57,0,0,0-.51-.23A1,1,0,0,0,40.46,28.6Z"/><path class="cls-1" d="M45.32,27.64a1.82,1.82,0,0,1,1.32.51,1.71,1.71,0,0,1,.52,1.28,1.62,1.62,0,0,1-.53,1.25,1.88,1.88,0,0,1-1.34.49,1.78,1.78,0,0,1-1.3-.5,1.77,1.77,0,0,1,0-2.52A1.82,1.82,0,0,1,45.32,27.64Zm0,.62a1.1,1.1,0,0,0-.81.32,1.15,1.15,0,0,0-.32.83,1.1,1.1,0,0,0,.32.81,1.16,1.16,0,0,0,.84.31,1.08,1.08,0,0,0,.82-.32,1.07,1.07,0,0,0,.33-.81,1.12,1.12,0,0,0-.34-.82A1.17,1.17,0,0,0,45.29,28.26Z"/><path class="cls-1" d="M50.15,27.65h.74l-1.53,3.52h-.23l-1.57-3.52h.75l.94,2.13Z"/><path class="cls-1" d="M51.86,26.19a.42.42,0,0,1,.29.12.38.38,0,0,1,.12.28.4.4,0,0,1-.12.29.42.42,0,0,1-.29.12.38.38,0,0,1-.28-.12.4.4,0,0,1-.12-.29.41.41,0,0,1,.12-.28A.38.38,0,0,1,51.86,26.19Zm-.34,1.46h.68v3.46h-.68Z"/><path class="cls-1" d="M54,27.65v.44a1.36,1.36,0,0,1,1-.51,1.13,1.13,0,0,1,.6.17,1.06,1.06,0,0,1,.43.46,2.29,2.29,0,0,1,.14.92v2h-.68v-2a1.33,1.33,0,0,0-.17-.76.6.6,0,0,0-.54-.23,1,1,0,0,0-.82.49v2.47h-.7V27.65Z"/><path class="cls-1" d="M57.07,28.85a1.08,1.08,0,0,1,.41-.88,1.75,1.75,0,0,1,1.1-.32H60v.53h-.7a1.58,1.58,0,0,1,.28.38.93.93,0,0,1,.08.39,1,1,0,0,1-.15.53,1.09,1.09,0,0,1-.4.4,2.38,2.38,0,0,1-.8.22q-.39.06-.39.27a.23.23,0,0,0,.15.2,2.75,2.75,0,0,0,.52.16,4.35,4.35,0,0,1,.82.22,1,1,0,0,1,.33.22.85.85,0,0,1,.25.63.9.9,0,0,1-.44.79,2.11,2.11,0,0,1-1.17.29,2.06,2.06,0,0,1-1.18-.3.9.9,0,0,1-.45-.79c0-.47.29-.77.87-.91-.23-.14-.34-.29-.34-.44a.4.4,0,0,1,.15-.3.84.84,0,0,1,.4-.2A1.13,1.13,0,0,1,57.07,28.85Zm1.13,2.42a1,1,0,0,0-.57.15.44.44,0,0,0-.22.38c0,.35.32.53,1,.53a1.52,1.52,0,0,0,.71-.13.41.41,0,0,0,.25-.38c0-.16-.1-.29-.31-.39A2,2,0,0,0,58.2,31.27Zm.16-3a.67.67,0,0,0-.47.19.62.62,0,0,0,0,.9.73.73,0,0,0,.49.17.68.68,0,0,0,.48-.18.59.59,0,0,0,.2-.44.61.61,0,0,0-.2-.46A.69.69,0,0,0,58.36,28.24Z"/><path class="cls-1" d="M65.72,28.6v2.51H65V29.18a1.54,1.54,0,0,0-.15-.8.6.6,0,0,0-.54-.23.87.87,0,0,0-.39.1,1.7,1.7,0,0,0-.41.35v2.51h-.69V27.65h.69v.45a1.52,1.52,0,0,1,1-.52,1.12,1.12,0,0,1,1,.63,1.54,1.54,0,0,1,1.15-.64,1.06,1.06,0,0,1,.83.37,1.66,1.66,0,0,1,.33,1.13v2H67.2V29.06A1.11,1.11,0,0,0,67,28.4a.59.59,0,0,0-.51-.23A1,1,0,0,0,65.72,28.6Z"/><path class="cls-1" d="M71.14,31.11v-.44a1.63,1.63,0,0,1-.5.37,1.3,1.3,0,0,1-.56.13,1.18,1.18,0,0,1-.61-.16,1.08,1.08,0,0,1-.41-.44,2.17,2.17,0,0,1-.14-.94v-2h.68v2a1.28,1.28,0,0,0,.16.76.6.6,0,0,0,.54.22,1,1,0,0,0,.84-.48V27.65h.68v3.46Z"/><path class="cls-1" d="M72.72,30.86v-.73a3.84,3.84,0,0,0,.59.33,1.42,1.42,0,0,0,.51.12.64.64,0,0,0,.37-.1.31.31,0,0,0,.15-.26.33.33,0,0,0-.1-.25,2.24,2.24,0,0,0-.43-.28,2.87,2.87,0,0,1-.86-.64.87.87,0,0,1-.21-.57.8.8,0,0,1,.31-.65,1.22,1.22,0,0,1,.8-.25,2.18,2.18,0,0,1,1,.29v.67a2.1,2.1,0,0,0-1-.36.56.56,0,0,0-.33.08.26.26,0,0,0-.12.22.31.31,0,0,0,.11.23A1.82,1.82,0,0,0,74,29l.25.14c.57.32.86.69.86,1.08a.86.86,0,0,1-.33.7,1.32,1.32,0,0,1-.86.27,2.32,2.32,0,0,1-.55-.06A4.11,4.11,0,0,1,72.72,30.86Z"/><path class="cls-1" d="M76.31,26.19a.4.4,0,0,1,.29.12.38.38,0,0,1,.12.28.41.41,0,0,1-.41.41.38.38,0,0,1-.28-.12.4.4,0,0,1-.12-.29.41.41,0,0,1,.12-.28A.38.38,0,0,1,76.31,26.19ZM76,27.65h.69v3.46H76Z"/><path class="cls-1" d="M80.34,30.3V31a2.82,2.82,0,0,1-1,.19,1.67,1.67,0,0,1-1.78-1.77A1.87,1.87,0,0,1,78,28.08a1.65,1.65,0,0,1,1.24-.5,2.28,2.28,0,0,1,.48.05,3.91,3.91,0,0,1,.53.19v.73a1.84,1.84,0,0,0-1-.33,1,1,0,0,0-.76.33,1.2,1.2,0,0,0-.29.83,1.1,1.1,0,0,0,.32.84,1.17,1.17,0,0,0,.87.31A2.13,2.13,0,0,0,80.34,30.3Z"/><path class="cls-1" d="M88.76.59V38.41H.79V.59h88M89.35,0H.2V39H89.35V0Z"/><path class="cls-1" d="M9.81,41.23h4.07a.55.55,0,0,1,.54.54V54.53a.52.52,0,0,1-.16.37.51.51,0,0,1-.38.16H9.81a.55.55,0,0,1-.53-.53V50.32H5.33v4.21a.49.49,0,0,1-.16.37.51.51,0,0,1-.38.16H.73a.54.54,0,0,1-.38-.15.46.46,0,0,1-.16-.38V41.77a.51.51,0,0,1,.16-.38.55.55,0,0,1,.38-.16H4.79a.55.55,0,0,1,.38.16.51.51,0,0,1,.16.38v4H9.28v-4a.51.51,0,0,1,.16-.38A.52.52,0,0,1,9.81,41.23Z"/><path class="cls-1" d="M29.47,47v2.35a5.41,5.41,0,0,1-1,3.32,5.35,5.35,0,0,1-2.59,1.88,11.21,11.21,0,0,1-3.77.56,11.21,11.21,0,0,1-3.77-.56,5.35,5.35,0,0,1-2.59-1.88,5.49,5.49,0,0,1-1-3.36V47a5,5,0,0,1,2.05-4.35,9,9,0,0,1,5.3-1.45,9,9,0,0,1,5.3,1.45A4.92,4.92,0,0,1,29.47,47Zm-9.36-.32v3a1.39,1.39,0,0,0,.54,1.18,2.4,2.4,0,0,0,1.47.41,2.34,2.34,0,0,0,1.47-.42,1.43,1.43,0,0,0,.55-1.19V46.67a1.41,1.41,0,0,0-.55-1.18,2.34,2.34,0,0,0-1.47-.42,2.33,2.33,0,0,0-1.47.41A1.37,1.37,0,0,0,20.11,46.65Z"/><path class="cls-1" d="M44.78,54.45a.46.46,0,0,1,0,.22.35.35,0,0,1-.13.26.4.4,0,0,1-.31.13H39.9a.85.85,0,0,1-.83-.49l-1.74-3.91H35.67v3.87a.55.55,0,0,1-.53.53H30.87a.55.55,0,0,1-.53-.53V41.77a.51.51,0,0,1,.16-.38.52.52,0,0,1,.37-.16h7.69a6.56,6.56,0,0,1,4.28,1.29A4.23,4.23,0,0,1,44.42,46a4.17,4.17,0,0,1-2.07,3.9Zm-9.11-9.54V47h2.47a.81.81,0,0,0,.67-.28,1.13,1.13,0,0,0,.24-.73,1.34,1.34,0,0,0-.23-.76.79.79,0,0,0-.68-.32Z"/><path class="cls-1" d="M59.6,54.45a.62.62,0,0,1,0,.22.38.38,0,0,1-.13.26.42.42,0,0,1-.31.13H54.72a.84.84,0,0,1-.83-.49l-1.74-3.91H50.49v3.87a.55.55,0,0,1-.53.53H45.69a.51.51,0,0,1-.38-.16.51.51,0,0,1-.15-.37V41.77a.54.54,0,0,1,.15-.38.55.55,0,0,1,.38-.16h7.68a6.57,6.57,0,0,1,4.29,1.29A4.26,4.26,0,0,1,59.24,46a4.17,4.17,0,0,1-2.07,3.9Zm-9.11-9.54V47H53a.82.82,0,0,0,.67-.28,1.13,1.13,0,0,0,.24-.73,1.34,1.34,0,0,0-.23-.76.79.79,0,0,0-.68-.32Z"/><path class="cls-1" d="M73.92,47v2.35a5.41,5.41,0,0,1-1,3.32,5.35,5.35,0,0,1-2.59,1.88,13,13,0,0,1-7.54,0,5.35,5.35,0,0,1-2.59-1.88,5.49,5.49,0,0,1-1-3.36V47a5,5,0,0,1,2.05-4.35,9,9,0,0,1,5.3-1.45,9,9,0,0,1,5.3,1.45A4.92,4.92,0,0,1,73.92,47Zm-9.36-.32v3a1.39,1.39,0,0,0,.54,1.18,2.4,2.4,0,0,0,1.47.41A2.34,2.34,0,0,0,68,50.81a1.43,1.43,0,0,0,.55-1.19V46.67A1.41,1.41,0,0,0,68,45.49a2.81,2.81,0,0,0-2.94,0A1.37,1.37,0,0,0,64.56,46.65Z"/><path class="cls-1" d="M89.23,54.45a.46.46,0,0,1,0,.22.35.35,0,0,1-.13.26.4.4,0,0,1-.31.13H84.35a.85.85,0,0,1-.83-.49l-1.74-3.91H80.12v3.87a.55.55,0,0,1-.53.53H75.32a.55.55,0,0,1-.53-.53V41.77a.51.51,0,0,1,.16-.38.52.52,0,0,1,.37-.16H83a6.56,6.56,0,0,1,4.28,1.29A4.23,4.23,0,0,1,88.87,46a4.17,4.17,0,0,1-2.07,3.9Zm-9.11-9.54V47h2.47a.81.81,0,0,0,.67-.28A1.13,1.13,0,0,0,83.5,46a1.34,1.34,0,0,0-.23-.76.79.79,0,0,0-.68-.32Z"/><path class="cls-1" d="M4.92,65.46h6.85a.44.44,0,0,1,.33.13.45.45,0,0,1,.14.33v2.42a.48.48,0,0,1-.47.47H.92a.45.45,0,0,1-.33-.14.45.45,0,0,1-.14-.33V57.24a.45.45,0,0,1,.14-.32.45.45,0,0,1,.33-.14H11.6a.45.45,0,0,1,.33.14.45.45,0,0,1,.14.32v2.43a.45.45,0,0,1-.14.32.45.45,0,0,1-.33.14H4.92v1.08h5.74a.45.45,0,0,1,.32.14.42.42,0,0,1,.14.33v2.23a.43.43,0,0,1-.14.33.44.44,0,0,1-.32.13H4.92Z"/><path class="cls-1" d="M13.56,56.78H19a9.79,9.79,0,0,1,3.28.5A4.61,4.61,0,0,1,24.57,59a4.87,4.87,0,0,1,.86,3v1.75a4.49,4.49,0,0,1-1.85,4A8.06,8.06,0,0,1,19,68.81H13.56a.47.47,0,0,1-.33-.14.44.44,0,0,1-.13-.33V57.24a.44.44,0,0,1,.13-.32A.47.47,0,0,1,13.56,56.78Zm4,3.35v5.33h1.57a2,2,0,0,0,1.28-.39A1.34,1.34,0,0,0,20.88,64V61.61a1.33,1.33,0,0,0-.47-1.09,2,2,0,0,0-1.28-.39Z"/><path class="cls-1" d="M37.42,60.3H34.31v5h3.11a.48.48,0,0,1,.47.47v2.59a.48.48,0,0,1-.47.47H26.53a.47.47,0,0,1-.33-.14.44.44,0,0,1-.13-.33V65.75a.44.44,0,0,1,.13-.33.47.47,0,0,1,.33-.14h3.14v-5H26.53a.43.43,0,0,1-.33-.14.44.44,0,0,1-.13-.32v-2.6a.44.44,0,0,1,.13-.32.47.47,0,0,1,.33-.14H37.42a.45.45,0,0,1,.33.14.45.45,0,0,1,.14.32v2.6a.45.45,0,0,1-.14.32A.42.42,0,0,1,37.42,60.3Z"/><path class="cls-1" d="M38.93,56.78H50.79a.45.45,0,0,1,.32.14.41.41,0,0,1,.14.32V60a.43.43,0,0,1-.14.33.44.44,0,0,1-.32.13h-3.7v7.87a.44.44,0,0,1-.13.33.47.47,0,0,1-.33.14H43.09a.47.47,0,0,1-.33-.14.44.44,0,0,1-.13-.33V60.47h-3.7a.44.44,0,0,1-.32-.13.47.47,0,0,1-.14-.33V57.24a.48.48,0,0,1,.46-.46Z"/><path class="cls-1" d="M63.19,60.3H60.08v5h3.11a.47.47,0,0,1,.33.14.44.44,0,0,1,.13.33v2.59a.44.44,0,0,1-.13.33.47.47,0,0,1-.33.14H52.3a.48.48,0,0,1-.47-.47V65.75a.48.48,0,0,1,.47-.47h3.14v-5H52.3a.42.42,0,0,1-.33-.14.45.45,0,0,1-.14-.32v-2.6a.45.45,0,0,1,.14-.32.45.45,0,0,1,.33-.14H63.19a.47.47,0,0,1,.33.14.44.44,0,0,1,.13.32v2.6a.44.44,0,0,1-.13.32A.43.43,0,0,1,63.19,60.3Z"/><path class="cls-1" d="M77,61.77v2a4.72,4.72,0,0,1-.86,2.89,4.66,4.66,0,0,1-2.25,1.64,11.45,11.45,0,0,1-6.56,0A4.66,4.66,0,0,1,65.1,66.7a4.73,4.73,0,0,1-.86-2.92v-2A4.32,4.32,0,0,1,66,58a9.06,9.06,0,0,1,9.22,0A4.29,4.29,0,0,1,77,61.77Zm-8.14-.28v2.6a1.2,1.2,0,0,0,.47,1,2.11,2.11,0,0,0,1.28.35,2.07,2.07,0,0,0,1.28-.36,1.25,1.25,0,0,0,.47-1V61.51a1.24,1.24,0,0,0-.47-1,2,2,0,0,0-1.28-.37,2,2,0,0,0-1.28.36A1.19,1.19,0,0,0,68.88,61.49Z"/><path class="cls-1" d="M85.69,56.78h3.2a.49.49,0,0,1,.33.14.44.44,0,0,1,.13.32v11.1a.44.44,0,0,1-.13.33.49.49,0,0,1-.33.14H86.12a.81.81,0,0,1-.68-.37l-3.75-4.77v4.67a.42.42,0,0,1-.14.33.45.45,0,0,1-.32.14H78a.45.45,0,0,1-.32-.14.42.42,0,0,1-.14-.33V57.24a.41.41,0,0,1,.14-.32.45.45,0,0,1,.32-.14h2.78a.79.79,0,0,1,.67.34l3.75,5.17v-5a.48.48,0,0,1,.46-.46Z"/><rect class="cls-1" y="73.79" width="89.35" height="1"/></g></g></svg>