<svg xmlns="http://www.w3.org/2000/svg" width="145" height="47" viewBox="0 0 145 47">
    <defs></defs>
    <g id="logo">
        <path class="cls-1" d="M46.89 40.6h-.01.01zM46.88 27.64l.01.01-.01-.01zM35.67 47.08h-.01.01zM35.67 21.16l-.01.01h.01v-.01M24.45 40.6h-.01.01z"/>
        <path
            class="cls-1"
            d="M24.45 27.64a31.73 31.73 0 0 1 .55 6.48 31.2 31.2 0 0 1-.55 6.48 31.42 31.42 0 0 1 5.88 2.76 31.71 31.71 0 0 1 5.33 3.71A32 32 0 0 1 41 43.36a31.43 31.43 0 0 1 5.88-2.76 31.18 31.18 0 0 1-.55-6.48 31.59 31.59 0 0 1 .55-6.48A30.7 30.7 0 0 1 41 24.88a30.86 30.86 0 0 1-5.33-3.71 31.42 31.42 0 0 1-5.34 3.71 30.91 30.91 0 0 1-5.88 2.76M35 24.55a1.56 1.56 0 0 1 1.42 0l7.22 4.17a1.55 1.55 0 0 1 .67 1.28v8.34a1.56 1.56 0 0 1-.71 1.23l-7.22 4.17a1.58 1.58 0 0 1-1.42 0l-7.22-4.17a1.55 1.55 0 0 1-.74-1.28V30a1.55 1.55 0 0 1 .71-1.23zM24.44 27.65l.01-.01-.01.01zM34.67 19.43h-.01v.01l.01-.01zM23.45 25.91h-.01.01zM12.23 19.44v-.01h-.01l.01.01z"/><path
            class="cls-1"
            d="M12.23 6.48a31.12 31.12 0 0 1 .55 6.52 31.08 31.08 0 0 1-.56 6.48 30.93 30.93 0 0 1 5.89 2.76 31.07 31.07 0 0 1 5.34 3.72 30.53 30.53 0 0 1 5.33-3.72 30.72 30.72 0 0 1 5.88-2.76 30.91 30.91 0 0 1-.55-6.48 31.18 31.18 0 0 1 .55-6.48 31.35 31.35 0 0 1-5.88-2.76A30.88 30.88 0 0 1 23.45 0a31.19 31.19 0 0 1-5.34 3.72 31.28 31.28 0 0 1-5.88 2.76m10.5-3.09a1.58 1.58 0 0 1 1.42 0l7.22 4.17a1.57 1.57 0 0 1 .71 1.23v8.34a1.59 1.59 0 0 1-.71 1.23l-7.22 4.17a1.56 1.56 0 0 1-1.42 0l-7.22-4.17a1.58 1.58 0 0 1-.71-1.23V8.78a1.56 1.56 0 0 1 .71-1.23zM11.22 21.16l.01.01v-.01h-.01zM0 27.65l.01-.01-.01.01zM22.44 27.64zM0 40.6h.01L0 40.59M22.45 40.6h-.01.01z"/><path
            class="cls-1"
            d="M11.23 47.07a31.57 31.57 0 0 1 5.33-3.71 31.3 31.3 0 0 1 5.88-2.76 31.71 31.71 0 0 1-.55-6.47 31.75 31.75 0 0 1 .55-6.48 31.1 31.1 0 0 1-5.88-2.76 31.56 31.56 0 0 1-5.33-3.71 31.24 31.24 0 0 1-5.33 3.7A31.1 31.1 0 0 1 0 27.64a31.58 31.58 0 0 1 .55 6.47A31.42 31.42 0 0 1 0 40.6a31.43 31.43 0 0 1 5.9 2.76 31.67 31.67 0 0 1 5.33 3.71m-7.94-7.55a1.57 1.57 0 0 1-.71-1.23V30a1.56 1.56 0 0 1 .71-1.23l7.22-4.17a1.56 1.56 0 0 1 1.42 0l7.22 4.17a1.56 1.56 0 0 1 .72 1.23v8.34a1.54 1.54 0 0 1-.71 1.23l-7.22 4.17a1.58 1.58 0 0 1-1.42 0zM11.23 47.08h-.01.01zM82.06 25.66c0-1.07 0-1.2-.72-1.7l-.25-.16a.38.38 0 0 1 0-.49 18.33 18.33 0 0 0 2.8-1.31.25.25 0 0 1 .27.16c-.05 1-.11 2.27-.11 3.39v4.92c0 2 .05 2.24 1 2.38l.56.08a.48.48 0 0 1-.05.68c-.8-.05-1.58-.08-2.52-.08s-1.77 0-2.52.08a.48.48 0 0 1-.05-.68l.56-.08c1-.13 1-.41 1-2.38zM84.15 17.69a1.26 1.26 0 0 1-2.51 0 1.27 1.27 0 0 1 1.3-1.33 1.22 1.22 0 0 1 1.21 1.28M98.35 25.66c0-1.07 0-1.2-.72-1.7l-.24-.16a.37.37 0 0 1 0-.49 14.3 14.3 0 0 0 2.7-1.31.31.31 0 0 1 .3.2c-.05.63-.05 1-.05 1.28a.29.29 0 0 0 .3.3 7.22 7.22 0 0 1 3.75-1.4c2.22 0 3.13 1.56 3.13 3.39v4.71c0 2 .05 2.24 1 2.38l.59.08a.49.49 0 0 1-.05.68c-.81-.05-1.58-.08-2.52-.08s-1.77 0-2.49.08a.48.48 0 0 1-.06-.68l.51-.08c1-.16 1-.41 1-2.38v-4.11c0-1.56-.69-2.7-2.52-2.7a2.9 2.9 0 0 0-2.27 1 2.33 2.33 0 0 0-.41 1.64v4.18c0 2 .05 2.21 1 2.38l.48.08a.49.49 0 0 1-.06.68c-.72-.05-1.49-.08-2.43-.08s-1.77 0-2.52.08a.49.49 0 0 1-.05-.68l.56-.08c1-.13 1-.41 1-2.38zM124.64 27.71c.4-.14.45-.38.45-.79v-1.25c0-1-.29-2.38-2-2.38-.75 0-1.66.38-1.72 1.23 0 .44-.05.76-.26.93a2.81 2.81 0 0 1-1.53.53.35.35 0 0 1-.38-.39c0-1.42 3-3.36 5-3.36s2.86 1.15 2.78 3.2l-.16 4.76c-.05 1.25.19 2.38 1.23 2.38a1.51 1.51 0 0 0 .67-.16c.14-.08.27-.19.35-.19s.19.16.19.35a2.78 2.78 0 0 1-2.25 1.2 2.12 2.12 0 0 1-1.74-.85c-.11-.16-.26-.38-.43-.38a4.33 4.33 0 0 0-1 .55 3.9 3.9 0 0 1-1.93.68 2.72 2.72 0 0 1-1.87-.63 2.58 2.58 0 0 1-.83-1.91c0-1.06.51-1.7 2.22-2.33zm-1.64 4.8a3 3 0 0 0 1.63-.68c.33-.33.33-.72.35-1.29v-1.62c0-.3-.1-.35-.27-.35a5.14 5.14 0 0 0-1.1.28c-1.58.54-2.36 1-2.36 2a1.63 1.63 0 0 0 1.75 1.66M143.22 30.51c0 1.92.05 2.19 1 2.32l.64.08a.46.46 0 0 1-.05.67c-.88-.05-1.66-.07-2.59-.07s-1.77 0-2.57.07a.46.46 0 0 1-.06-.67l.62-.08c1-.14 1-.4 1-2.32V18.45c0-1.58 0-1.74-.83-2.22l-.26-.16a.4.4 0 0 1 0-.53 18.64 18.64 0 0 0 2.88-1.12.3.3 0 0 1 .27.16c0 .8-.08 2.13-.08 3.3zM65.81 23.88c-.45 0-.45.06-.45.79v5.77c0 2 0 2.3 1 2.38l1 .08a.48.48 0 0 1-.06.68c-1.2-.06-2-.08-2.92-.08s-1.77 0-2.57.08a.49.49 0 0 1-.06-.68l.62-.08c1-.13 1-.41 1-2.38v-5.77c0-.74 0-.79-.54-.79h-.93a.38.38 0 0 1-.08-.52l1.18-.57a.63.63 0 0 0 .4-.55 12.44 12.44 0 0 1 .83-4.81A5.28 5.28 0 0 1 69 14c1.42 0 2.63.66 2.63 1.64a1 1 0 0 1-1 1 .75.75 0 0 1-.64-.33A3 3 0 0 0 67.84 15a2.08 2.08 0 0 0-1.9 1.51 14.76 14.76 0 0 0-.59 4.62V22c0 .73 0 .77.45.77h3.05a.85.85 0 0 1-.19 1.15z"/>
    </g>
</svg>
