<svg xmlns="http://www.w3.org/2000/svg" viewBox="0 0 96.01 42.01"><defs><style>.cls-1{fill:#7f5017;}</style></defs><g id="Calque_2" data-name="Calque 2"><g id="_70s" data-name="70s"><g id="footer"><path class="cls-1" d="M95.38.64V41.37H.64V.64H95.38M96,0H0V42H96V0Z"/><path class="cls-1" d="M14.79,9.24h1.8l8,18H22L19.6,21.93H12L9.73,27.24H7.1Zm3.76,10.41-2.89-6.48L13,19.65Z"/><path class="cls-1" d="M40.4,9.34h2.4v17.9H40.23V13.31l-5.51,6.92h-.47l-5.56-6.92V27.24H26.12V9.34h2.43l5.94,7.35Z"/><path class="cls-1" d="M51.93,27.24H45.87V9.34h4.69a8.06,8.06,0,0,1,3.45.6,4.44,4.44,0,0,1,1.9,1.64A4.51,4.51,0,0,1,56.56,14a3.9,3.9,0,0,1-2.73,3.78A5.53,5.53,0,0,1,57,19.39a4.14,4.14,0,0,1,1.16,3,4.33,4.33,0,0,1-.7,2.44,5.1,5.1,0,0,1-2.07,1.76A7.67,7.67,0,0,1,51.93,27.24Zm-1.3-15.62h-2.2V17h1.7a4.35,4.35,0,0,0,2.92-.78,2.61,2.61,0,0,0,.86-2C53.91,12.48,52.82,11.62,50.63,11.62Zm.19,7.66H48.43V25H51a8.15,8.15,0,0,0,2.85-.33,2.79,2.79,0,0,0,1.21-1,2.65,2.65,0,0,0,.45-1.48,2.53,2.53,0,0,0-.48-1.5,2.83,2.83,0,0,0-1.36-1A8.32,8.32,0,0,0,50.82,19.28Z"/><path class="cls-1" d="M60.5,9.34H70.65v2.28H63.07v5.46h7.32v2.29H63.07v5.56h7.82v2.28H60.5Z"/><path class="cls-1" d="M74.22,27.24V9.34H78.7A6.45,6.45,0,0,1,83,10.69a4.5,4.5,0,0,1,1.6,3.64,4.66,4.66,0,0,1-.78,2.7,5.74,5.74,0,0,1-2.1,1.86l4.54,8.35h-3l-4-7.79H76.78v7.79Zm3.33-15.72h-.77v5.65h1a7.34,7.34,0,0,0,2.67-.33,2.55,2.55,0,0,0,1.12-1A2.92,2.92,0,0,0,82,14.3a2.74,2.74,0,0,0-.45-1.53,2.41,2.41,0,0,0-1.26-1A9.39,9.39,0,0,0,77.55,11.52Z"/><path class="cls-1" d="M43.36,30.8v2.71h-.75V31.43a1.63,1.63,0,0,0-.16-.86.64.64,0,0,0-.58-.25.89.89,0,0,0-.43.11,2.09,2.09,0,0,0-.44.37v2.71h-.73V29.78H41v.49a1.62,1.62,0,0,1,1.11-.57,1.22,1.22,0,0,1,1.1.68,1.63,1.63,0,0,1,1.23-.68,1.16,1.16,0,0,1,.9.39,1.83,1.83,0,0,1,.35,1.22v2.2H45V31.3a1.16,1.16,0,0,0-.19-.72.66.66,0,0,0-.55-.24A1.11,1.11,0,0,0,43.36,30.8Z"/><path class="cls-1" d="M48.6,29.77a1.94,1.94,0,0,1,1.41.55,1.84,1.84,0,0,1,.56,1.38A1.76,1.76,0,0,1,50,33a2,2,0,0,1-1.44.53,1.93,1.93,0,0,1-1.4-.54,1.77,1.77,0,0,1-.56-1.35,1.83,1.83,0,0,1,.57-1.37A2,2,0,0,1,48.6,29.77Zm-.05.66a1.18,1.18,0,0,0-.87.35,1.26,1.26,0,0,0-.34.89,1.19,1.19,0,0,0,.35.88,1.25,1.25,0,0,0,.9.33,1.21,1.21,0,0,0,.89-.34,1.28,1.28,0,0,0,0-1.76A1.26,1.26,0,0,0,48.55,30.43Z"/><path class="cls-1" d="M53.79,29.78h.8l-1.65,3.79h-.25L51,29.78h.81l1,2.29Z"/><path class="cls-1" d="M55.63,28.21a.45.45,0,0,1,.31.12.44.44,0,0,1-.31.75.41.41,0,0,1-.3-.13.42.42,0,0,1-.13-.31.44.44,0,0,1,.43-.43Zm-.37,1.57H56v3.73h-.74Z"/><path class="cls-1" d="M57.91,29.78v.47A1.52,1.52,0,0,1,59,29.7a1.25,1.25,0,0,1,.65.18,1.2,1.2,0,0,1,.45.5,2.27,2.27,0,0,1,.16,1v2.13h-.74V31.38a1.48,1.48,0,0,0-.17-.81.66.66,0,0,0-.59-.25,1.09,1.09,0,0,0-.89.52v2.67h-.75V29.78Z"/><path class="cls-1" d="M61.25,31.07a1.16,1.16,0,0,1,.43-.95,1.87,1.87,0,0,1,1.19-.34h1.54v.57h-.75a1.83,1.83,0,0,1,.3.41.93.93,0,0,1,.09.42,1.14,1.14,0,0,1-.17.57,1.11,1.11,0,0,1-.43.43,2.59,2.59,0,0,1-.86.24c-.27,0-.41.14-.41.29a.23.23,0,0,0,.15.21,2,2,0,0,0,.57.17,5.67,5.67,0,0,1,.88.24,1.21,1.21,0,0,1,.35.24.93.93,0,0,1,.27.68,1,1,0,0,1-.47.84,2.16,2.16,0,0,1-1.26.32,2.29,2.29,0,0,1-1.28-.32,1,1,0,0,1-.48-.85c0-.51.32-.83.94-1-.25-.16-.37-.32-.37-.47a.44.44,0,0,1,.16-.33.91.91,0,0,1,.43-.21A1.23,1.23,0,0,1,61.25,31.07Zm1.21,2.61a1.13,1.13,0,0,0-.61.16.48.48,0,0,0-.24.41c0,.38.35.57,1,.57a1.72,1.72,0,0,0,.76-.14.45.45,0,0,0,.27-.41c0-.17-.11-.31-.34-.42A2,2,0,0,0,62.46,33.68Zm.17-3.26a.73.73,0,0,0-.51.2.67.67,0,0,0-.21.49.59.59,0,0,0,.21.47.81.81,0,0,0,1,0,.67.67,0,0,0,0-1A.73.73,0,0,0,62.63,30.42Z"/><path class="cls-1" d="M70.56,30.8v2.71h-.74V31.43a1.63,1.63,0,0,0-.16-.86.65.65,0,0,0-.58-.25.89.89,0,0,0-.43.11,1.86,1.86,0,0,0-.44.37v2.71h-.74V29.78h.74v.49a1.62,1.62,0,0,1,1.11-.57,1.2,1.2,0,0,1,1.09.68,1.66,1.66,0,0,1,1.24-.68,1.17,1.17,0,0,1,.9.39,1.83,1.83,0,0,1,.35,1.22v2.2h-.74V31.3a1.16,1.16,0,0,0-.19-.72.66.66,0,0,0-.55-.24A1.13,1.13,0,0,0,70.56,30.8Z"/><path class="cls-1" d="M76.4,33.51V33a1.72,1.72,0,0,1-.54.4,1.32,1.32,0,0,1-.6.14,1.35,1.35,0,0,1-.66-.17,1.3,1.3,0,0,1-.45-.48,2.45,2.45,0,0,1-.15-1V29.78h.74V31.9a1.45,1.45,0,0,0,.17.82.67.67,0,0,0,.59.24,1.08,1.08,0,0,0,.9-.52V29.78h.73v3.73Z"/><path class="cls-1" d="M78.1,33.24v-.79a3.65,3.65,0,0,0,.64.35,1.48,1.48,0,0,0,.55.14.65.65,0,0,0,.39-.12.32.32,0,0,0,.17-.27.37.37,0,0,0-.11-.27,2.62,2.62,0,0,0-.46-.31,3.18,3.18,0,0,1-.94-.68,1,1,0,0,1-.22-.61.84.84,0,0,1,.34-.7,1.27,1.27,0,0,1,.86-.28,2.43,2.43,0,0,1,1.12.31v.73a2.26,2.26,0,0,0-1.07-.39.61.61,0,0,0-.35.09.27.27,0,0,0-.13.24.37.37,0,0,0,.12.25,2.47,2.47,0,0,0,.42.28l.26.15q.93.53.93,1.17a1,1,0,0,1-.35.75,1.4,1.4,0,0,1-.93.29,2.12,2.12,0,0,1-.59-.07A3.22,3.22,0,0,1,78.1,33.24Z"/><path class="cls-1" d="M82,28.21a.45.45,0,0,1,.31.12.43.43,0,0,1,0,.62.42.42,0,0,1-.31.13.38.38,0,0,1-.3-.13.42.42,0,0,1-.13-.31.41.41,0,0,1,.13-.3A.38.38,0,0,1,82,28.21Zm-.37,1.57h.74v3.73H81.6Z"/><path class="cls-1" d="M86.31,32.64v.73a3.27,3.27,0,0,1-1.09.2,1.79,1.79,0,0,1-1.91-1.91,2,2,0,0,1,.5-1.42,1.76,1.76,0,0,1,1.34-.54,2,2,0,0,1,.51.06,3.29,3.29,0,0,1,.57.2v.79a1.94,1.94,0,0,0-1-.36,1.09,1.09,0,0,0-.82.35,1.32,1.32,0,0,0-.32.9,1.23,1.23,0,0,0,.35.91,1.29,1.29,0,0,0,.93.33A2.5,2.5,0,0,0,86.31,32.64Z"/></g></g></g></svg>