<?xml version="1.0" encoding="UTF-8"?><svg xmlns="http://www.w3.org/2000/svg" viewBox="0 0 158.19 69.21"><defs><style>.d{fill:#f4f0ec;}</style></defs><g id="a"/><g id="b"><g id="c"><g><g><path class="d" d="M24.36,15.23h2.97l13.22,29.65h-4.32l-3.93-8.74h-12.58l-3.68,8.74h-4.34L24.36,15.23Zm6.2,17.16l-4.76-10.68-4.41,10.68h9.17Z"/><path class="d" d="M66.57,15.39h3.95v29.48h-4.24V21.94l-9.06,11.4h-.78l-9.17-11.4v22.94h-4.22V15.39h4l9.8,12.11,9.74-12.11Z"/><path class="d" d="M85.55,44.87h-9.98V15.39h7.72c2.43,0,4.33,.33,5.7,.98,1.36,.65,2.41,1.55,3.12,2.7,.72,1.15,1.08,2.47,1.08,3.98,0,2.9-1.5,4.97-4.49,6.23,2.15,.41,3.87,1.29,5.14,2.66,1.27,1.36,1.91,3,1.91,4.9,0,1.51-.39,2.85-1.16,4.03s-1.91,2.15-3.41,2.89-3.37,1.12-5.62,1.12Zm-2.13-25.72h-3.63v8.86h2.81c2.25,0,3.85-.43,4.8-1.29,.95-.86,1.42-1.97,1.42-3.33,0-2.83-1.8-4.24-5.4-4.24Zm.32,12.62h-3.95v9.35h4.16c2.31,0,3.87-.18,4.69-.54s1.48-.92,1.98-1.68,.75-1.58,.75-2.45-.26-1.72-.79-2.47c-.53-.75-1.28-1.3-2.25-1.67-.97-.37-2.5-.55-4.6-.55Z"/><path class="d" d="M99.68,15.39h16.71v3.76h-12.49v8.99h12.07v3.78h-12.07v9.16h12.89v3.76h-17.11V15.39Z"/><path class="d" d="M122.28,44.87V15.39h7.39c2.98,0,5.35,.74,7.1,2.22s2.63,3.47,2.63,5.99c0,1.72-.43,3.2-1.29,4.45-.86,1.25-1.85,2.18-3.45,3.06l7.47,13.76h-5.02l-6.56-12.83s-1.57,0-2.95,0h-1.1v12.83h-4.22Zm5.49-25.89h-1.27v9.31h1.6c2.14,0,3.6-.18,4.4-.55,.79-.37,1.41-.92,1.86-1.66s.66-1.58,.66-2.52-.25-1.77-.74-2.52c-.49-.75-1.19-1.28-2.08-1.59-.89-.31-2.37-.46-4.44-.46Z"/></g><g><path class="d" d="M71.43,50.74v4.46h-1.22v-3.42c0-.68-.09-1.16-.27-1.43-.18-.27-.5-.4-.96-.4-.25,0-.49,.06-.7,.17-.21,.12-.45,.32-.72,.61v4.46h-1.22v-6.15h1.22v.81c.62-.62,1.22-.93,1.82-.93,.78,0,1.38,.37,1.81,1.11,.65-.75,1.33-1.12,2.04-1.12,.6,0,1.09,.22,1.47,.65,.39,.44,.58,1.1,.58,2v3.63h-1.22v-3.64c0-.51-.1-.9-.31-1.18-.21-.27-.51-.41-.9-.41-.5,0-.97,.25-1.41,.76Z"/><path class="d" d="M80.06,49.05c.94,0,1.71,.3,2.33,.91,.62,.6,.93,1.36,.93,2.28s-.31,1.62-.94,2.21-1.42,.88-2.37,.88-1.69-.3-2.31-.89c-.62-.6-.93-1.34-.93-2.23s.31-1.65,.94-2.25c.63-.6,1.41-.9,2.36-.9Zm-.07,1.1c-.58,0-1.06,.19-1.44,.57s-.56,.87-.56,1.46,.19,1.07,.57,1.44c.38,.37,.88,.56,1.48,.56s1.09-.19,1.47-.56c.38-.38,.57-.86,.57-1.45s-.2-1.07-.59-1.45c-.4-.38-.9-.57-1.5-.57Z"/><path class="d" d="M88.62,49.06h1.32l-2.72,6.25h-.41l-2.78-6.25h1.33l1.66,3.78,1.6-3.78Z"/><path class="d" d="M91.65,46.47c.2,0,.37,.07,.51,.21s.21,.31,.21,.51-.07,.37-.21,.51-.31,.21-.51,.21c-.19,0-.35-.07-.49-.22-.14-.14-.21-.31-.21-.5s.07-.35,.21-.5c.14-.14,.31-.22,.49-.22Zm-.6,2.59h1.22v6.15h-1.22v-6.15Z"/><path class="d" d="M95.42,49.06v.78c.54-.6,1.16-.9,1.85-.9,.38,0,.74,.1,1.07,.3s.58,.47,.75,.82,.26,.89,.26,1.64v3.51h-1.22v-3.5c0-.63-.1-1.08-.29-1.35s-.51-.4-.96-.4c-.57,0-1.06,.29-1.46,.86v4.39h-1.24v-6.15h1.24Z"/><path class="d" d="M100.91,51.18c0-.65,.24-1.17,.72-1.55,.48-.38,1.13-.57,1.96-.57h2.53v.95h-1.24c.24,.24,.41,.47,.5,.67s.14,.43,.14,.69c0,.32-.09,.64-.27,.95-.18,.31-.42,.55-.71,.71-.29,.16-.76,.3-1.41,.39-.46,.07-.69,.23-.69,.47,0,.14,.09,.26,.26,.35,.17,.09,.48,.19,.93,.28,.75,.16,1.24,.29,1.45,.39s.41,.23,.58,.4c.29,.29,.44,.66,.44,1.11,0,.58-.26,1.05-.78,1.4-.52,.35-1.21,.52-2.08,.52s-1.58-.18-2.1-.52c-.52-.35-.78-.82-.78-1.41,0-.83,.51-1.37,1.54-1.61-.41-.26-.61-.52-.61-.78,0-.2,.09-.37,.26-.53s.41-.28,.71-.35c-.9-.4-1.36-1.05-1.36-1.94Zm2,4.31c-.41,0-.75,.09-1.01,.26-.26,.17-.39,.4-.39,.67,0,.63,.57,.95,1.71,.95,.54,0,.96-.08,1.25-.24,.3-.16,.44-.38,.44-.67s-.19-.52-.56-.7c-.37-.18-.86-.27-1.45-.27Zm.29-5.38c-.33,0-.61,.11-.84,.33s-.35,.49-.35,.8,.11,.58,.34,.78c.23,.21,.51,.31,.86,.31s.63-.11,.86-.32,.34-.48,.34-.79-.12-.59-.35-.8-.52-.32-.87-.32Z"/><path class="d" d="M116.26,50.74v4.46h-1.22v-3.42c0-.68-.09-1.16-.27-1.43s-.5-.4-.96-.4c-.25,0-.49,.06-.7,.17s-.45,.32-.73,.61v4.46h-1.22v-6.15h1.22v.81c.62-.62,1.23-.93,1.82-.93,.78,0,1.38,.37,1.81,1.11,.65-.75,1.33-1.12,2.04-1.12,.6,0,1.09,.22,1.47,.65s.58,1.1,.58,2v3.63h-1.22v-3.64c0-.51-.1-.9-.31-1.18-.21-.27-.51-.41-.9-.41-.5,0-.97,.25-1.41,.76Z"/><path class="d" d="M125.87,55.21v-.79c-.26,.28-.55,.5-.89,.66s-.66,.24-.99,.24c-.39,0-.74-.1-1.07-.29-.33-.19-.57-.46-.74-.79-.17-.33-.25-.88-.25-1.65v-3.52h1.22v3.5c0,.65,.09,1.1,.28,1.35,.18,.26,.51,.38,.97,.38,.58,0,1.07-.28,1.48-.85v-4.39h1.22v6.15h-1.22Z"/><path class="d" d="M128.67,54.77v-1.31c.34,.24,.69,.44,1.05,.58,.36,.15,.66,.22,.91,.22s.47-.06,.65-.19c.18-.12,.27-.27,.27-.45s-.06-.33-.18-.44-.37-.29-.76-.51c-.78-.44-1.3-.81-1.54-1.12-.24-.31-.36-.65-.36-1.01,0-.47,.18-.86,.55-1.16,.37-.3,.84-.45,1.42-.45s1.22,.17,1.85,.51v1.2c-.72-.44-1.31-.65-1.77-.65-.24,0-.43,.05-.57,.15-.14,.1-.22,.23-.22,.4,0,.14,.07,.28,.2,.41,.13,.13,.36,.29,.69,.47l.43,.25c1.02,.58,1.54,1.22,1.54,1.92,0,.5-.2,.92-.59,1.24-.39,.32-.9,.48-1.52,.48-.37,0-.69-.04-.98-.12-.29-.08-.64-.22-1.08-.43Z"/><path class="d" d="M135.04,46.47c.2,0,.37,.07,.51,.21,.14,.14,.21,.31,.21,.51s-.07,.37-.21,.51c-.14,.14-.31,.21-.51,.21-.19,0-.35-.07-.49-.22-.14-.14-.21-.31-.21-.5s.07-.35,.21-.5c.14-.14,.31-.22,.49-.22Zm-.6,2.59h1.22v6.15h-1.22v-6.15Z"/><path class="d" d="M142.2,53.77v1.2c-.61,.23-1.21,.34-1.79,.34-.96,0-1.73-.28-2.3-.86-.57-.57-.86-1.33-.86-2.29s.28-1.75,.83-2.34c.56-.59,1.29-.89,2.2-.89,.32,0,.6,.03,.85,.09,.25,.06,.56,.17,.93,.34v1.3c-.61-.39-1.18-.59-1.71-.59s-1,.19-1.35,.58c-.35,.39-.53,.88-.53,1.47,0,.63,.19,1.13,.57,1.5,.38,.37,.89,.55,1.54,.55,.47,0,1-.14,1.61-.41Z"/></g><path class="d" d="M157.14,1.05V68.16H1.05V1.05H157.14m1.05-1.05H0V69.21H158.19V0h0Z"/></g></g></g></svg>