<svg xmlns="http://www.w3.org/2000/svg" viewBox="0 0 97.83 42.8"><defs><style>.cls-1{fill:#030402;}</style></defs><g id="Calque_2" data-name="Calque 2"><g id="Calque_1-2" data-name="Calque 1"><path class="cls-1" d="M15.06,9.42H16.9l8.17,18.33H22.4L20,22.35H12.19l-2.27,5.4H7.23ZM18.9,20,16,13.42,13.23,20Z"/><path class="cls-1" d="M41.17,9.52h2.44V27.75H41V13.57l-5.6,7H34.9l-5.67-7V27.75H26.62V9.52h2.47L35.15,17Z"/><path class="cls-1" d="M52.91,27.75H46.73V9.52h4.78a8.21,8.21,0,0,1,3.52.61A4.41,4.41,0,0,1,57,11.8a4.49,4.49,0,0,1,.67,2.46,4,4,0,0,1-2.78,3.85A5.66,5.66,0,0,1,58,19.75a4.32,4.32,0,0,1,1.18,3,4.43,4.43,0,0,1-.72,2.49,5.22,5.22,0,0,1-2.11,1.79A7.74,7.74,0,0,1,52.91,27.75ZM51.59,11.84H49.34v5.48h1.74a4.42,4.42,0,0,0,3-.79,2.68,2.68,0,0,0,.88-2.06C54.93,12.72,53.81,11.84,51.59,11.84Zm.19,7.81H49.34v5.78h2.57a8.48,8.48,0,0,0,2.91-.33,2.86,2.86,0,0,0,1.69-2.56A2.62,2.62,0,0,0,56,21a2.89,2.89,0,0,0-1.39-1A8.61,8.61,0,0,0,51.78,19.65Z"/><path class="cls-1" d="M61.65,9.52H72v2.32H64.26V17.4h7.46v2.34H64.26V25.4h8v2.32H61.65Z"/><path class="cls-1" d="M75.62,27.75V9.52h4.57a6.61,6.61,0,0,1,4.39,1.37,4.61,4.61,0,0,1,1.63,3.71,4.74,4.74,0,0,1-.8,2.75,5.82,5.82,0,0,1-2.13,1.89l4.61,8.51h-3.1l-4.06-7.93h-2.5v7.93Zm3.39-16h-.78v5.75h1a7.24,7.24,0,0,0,2.72-.34,2.43,2.43,0,0,0,1.15-1,2.93,2.93,0,0,0,.41-1.56A2.84,2.84,0,0,0,83.05,13a2.5,2.5,0,0,0-1.29-1A9,9,0,0,0,79,11.74Z"/><path class="cls-1" d="M44.17,31.38v2.76h-.75V32a1.71,1.71,0,0,0-.17-.89.67.67,0,0,0-.59-.25.89.89,0,0,0-.43.11,2,2,0,0,0-.45.38v2.76H41v-3.8h.75v.5a1.66,1.66,0,0,1,1.12-.58A1.23,1.23,0,0,1,44,31a1.69,1.69,0,0,1,1.26-.69,1.16,1.16,0,0,1,.91.4,1.82,1.82,0,0,1,.36,1.24v2.24H45.8V31.89a1.18,1.18,0,0,0-.2-.73.64.64,0,0,0-.55-.25A1.17,1.17,0,0,0,44.17,31.38Z"/><path class="cls-1" d="M49.51,30.33a2,2,0,0,1,1.44.56,1.86,1.86,0,0,1,.58,1.41A1.8,1.8,0,0,1,51,33.66a2,2,0,0,1-1.47.55,2,2,0,0,1-1.43-.55,1.86,1.86,0,0,1-.58-1.38,1.84,1.84,0,0,1,.59-1.39A2,2,0,0,1,49.51,30.33Zm0,.68a1.21,1.21,0,0,0-.89.35,1.25,1.25,0,0,0-.34.91,1.18,1.18,0,0,0,.35.89,1.25,1.25,0,0,0,.91.34,1.24,1.24,0,0,0,.91-.34,1.32,1.32,0,0,0,0-1.8A1.33,1.33,0,0,0,49.47,31Z"/><path class="cls-1" d="M54.8,30.34h.82l-1.68,3.87h-.26L52,30.34h.82l1,2.34Z"/><path class="cls-1" d="M56.68,28.74a.44.44,0,0,1,.32.13.4.4,0,0,1,.13.31.44.44,0,0,1-.13.32.48.48,0,0,1-.32.13.43.43,0,0,1-.31-.14.42.42,0,0,1-.13-.31.43.43,0,0,1,.13-.31A.42.42,0,0,1,56.68,28.74Zm-.37,1.6h.75v3.8h-.75Z"/><path class="cls-1" d="M59,30.34v.48a1.5,1.5,0,0,1,1.14-.56,1.27,1.27,0,0,1,.66.19,1.19,1.19,0,0,1,.47.5,2.54,2.54,0,0,1,.16,1v2.17h-.75V32a1.5,1.5,0,0,0-.18-.84.71.71,0,0,0-.6-.25,1.08,1.08,0,0,0-.9.54v2.71h-.77v-3.8Z"/><path class="cls-1" d="M62.4,31.65a1.17,1.17,0,0,1,.45-1,1.91,1.91,0,0,1,1.21-.35h1.57v.59h-.77a1.63,1.63,0,0,1,.31.41.94.94,0,0,1,.08.43,1.08,1.08,0,0,1-.17.58,1.14,1.14,0,0,1-.43.44,2.73,2.73,0,0,1-.88.24q-.42.06-.42.3a.24.24,0,0,0,.16.21,2.24,2.24,0,0,0,.57.18A5.48,5.48,0,0,1,65,34a1.15,1.15,0,0,1,.37.25.93.93,0,0,1,.27.68,1,1,0,0,1-.48.87,2.32,2.32,0,0,1-1.29.32,2.28,2.28,0,0,1-1.3-.33,1,1,0,0,1-.49-.87q0-.77,1-1c-.25-.16-.38-.32-.38-.48a.44.44,0,0,1,.16-.34,1.06,1.06,0,0,1,.44-.21A1.25,1.25,0,0,1,62.4,31.65Zm1.24,2.67a1.08,1.08,0,0,0-.62.16.5.5,0,0,0-.25.41c0,.39.36.59,1.06.59a1.66,1.66,0,0,0,.78-.15.44.44,0,0,0,.27-.41c0-.18-.11-.32-.34-.43A2,2,0,0,0,63.64,34.32ZM63.82,31a.7.7,0,0,0-.52.21.67.67,0,0,0,0,1,.75.75,0,0,0,.53.19.78.78,0,0,0,.54-.19.65.65,0,0,0,.21-.49.63.63,0,0,0-.22-.5A.76.76,0,0,0,63.82,31Z"/><path class="cls-1" d="M71.9,31.38v2.76h-.76V32a1.71,1.71,0,0,0-.17-.89.67.67,0,0,0-.59-.25A.89.89,0,0,0,70,31a2,2,0,0,0-.45.38v2.76h-.75v-3.8h.75v.5a1.66,1.66,0,0,1,1.12-.58,1.22,1.22,0,0,1,1.12.69A1.73,1.73,0,0,1,73,30.26a1.14,1.14,0,0,1,.91.4,1.82,1.82,0,0,1,.36,1.24v2.24h-.75V31.89a1.18,1.18,0,0,0-.19-.73.66.66,0,0,0-.56-.25A1.16,1.16,0,0,0,71.9,31.38Z"/><path class="cls-1" d="M77.84,34.14v-.49a1.8,1.8,0,0,1-.55.41,1.4,1.4,0,0,1-.61.15A1.32,1.32,0,0,1,76,34a1.21,1.21,0,0,1-.46-.49,2.54,2.54,0,0,1-.15-1V30.34h.75v2.17a1.53,1.53,0,0,0,.17.83.7.7,0,0,0,.6.24,1.11,1.11,0,0,0,.92-.53V30.34h.75v3.8Z"/><path class="cls-1" d="M79.57,33.87v-.81a3.22,3.22,0,0,0,.65.36,1.57,1.57,0,0,0,.56.14.71.71,0,0,0,.41-.12.33.33,0,0,0,.17-.27.39.39,0,0,0-.11-.28,2.47,2.47,0,0,0-.48-.31,3.63,3.63,0,0,1-1-.7,1,1,0,0,1-.22-.62.88.88,0,0,1,.34-.72,1.36,1.36,0,0,1,.88-.28,2.41,2.41,0,0,1,1.14.32v.74a2.28,2.28,0,0,0-1.1-.4.63.63,0,0,0-.35.09.28.28,0,0,0-.13.25.35.35,0,0,0,.12.25,1.82,1.82,0,0,0,.43.29l.26.15c.64.36,1,.76,1,1.19a1,1,0,0,1-.37.77,1.43,1.43,0,0,1-.94.3,2.13,2.13,0,0,1-.6-.08A3.31,3.31,0,0,1,79.57,33.87Z"/><path class="cls-1" d="M83.51,28.74a.42.42,0,0,1,.32.13.4.4,0,0,1,.13.31.44.44,0,0,1-.13.32.46.46,0,0,1-.32.13.41.41,0,0,1-.3-.14.43.43,0,0,1-.14-.31.44.44,0,0,1,.14-.31A.39.39,0,0,1,83.51,28.74Zm-.37,1.6h.75v3.8h-.75Z"/><path class="cls-1" d="M87.94,33.25V34a3.2,3.2,0,0,1-1.11.21,1.93,1.93,0,0,1-1.42-.53,1.89,1.89,0,0,1-.53-1.42,2.05,2.05,0,0,1,.51-1.45,1.82,1.82,0,0,1,1.36-.55,2.09,2.09,0,0,1,.53.06,3.86,3.86,0,0,1,.58.21v.8A2,2,0,0,0,86.8,31a1.12,1.12,0,0,0-.84.35,1.36,1.36,0,0,0-.32.92,1.25,1.25,0,0,0,.35.92,1.3,1.3,0,0,0,1,.34A2.44,2.44,0,0,0,87.94,33.25Z"/><path class="cls-1" d="M97.18.65v41.5H.65V.65H97.18M97.83,0H0V42.8H97.83V0Z"/></g></g></svg>