<?xml version="1.0" encoding="utf-8"?>
<!-- Generator: Adobe Illustrator 26.2.1, SVG Export Plug-In . SVG Version: 6.00 Build 0)  -->
<svg version="1.1" id="Calque_1" xmlns="http://www.w3.org/2000/svg" xmlns:xlink="http://www.w3.org/1999/xlink" x="0px" y="0px"
	 viewBox="0 0 85 31.2" style="enable-background:new 0 0 85 31.2;" xml:space="preserve">
<style type="text/css">
	.st0{fill:#FFFFFF;}
</style>
<g>
	<path class="st0" d="M9,2h1.9l8.5,19h-2.8l-2.5-5.6h-8L3.7,21H1L9,2z M13,13l-3-6.8L7.1,13H13z"/>
	<path class="st0" d="M36,2.1h2.5V21h-2.7V6.3L30,13.6h-0.5l-5.9-7.3V21H21V2.1h2.6l6.3,7.7L36,2.1z"/>
	<path class="st0" d="M48.1,21h-6.4V2.1h4.9c1.6,0,2.8,0.2,3.6,0.6s1.5,1,2,1.7C52.8,5.2,53,6.1,53,7c0,1.9-1,3.2-2.9,4
		c1.4,0.3,2.5,0.8,3.3,1.7s1.2,1.9,1.2,3.1c0,1-0.2,1.8-0.7,2.6c-0.5,0.8-1.2,1.4-2.2,1.8C50.8,20.7,49.6,21,48.1,21z M46.8,4.5
		h-2.3v5.7h1.8c1.4,0,2.5-0.3,3.1-0.8s0.9-1.3,0.9-2.1C50.2,5.5,49.1,4.5,46.8,4.5z M47,12.6h-2.5v6h2.7c1.5,0,2.5-0.1,3-0.3
		c0.5-0.2,0.9-0.6,1.3-1.1c0.3-0.5,0.5-1,0.5-1.6c0-0.6-0.2-1.1-0.5-1.6s-0.8-0.8-1.4-1.1C49.3,12.7,48.3,12.6,47,12.6z"/>
	<path class="st0" d="M57.1,2.1h10.7v2.4h-8v5.7h7.7v2.4h-7.7v5.8H68V21H57.1V2.1z"/>
	<path class="st0" d="M71.6,21V2.1h4.7c1.9,0,3.4,0.5,4.5,1.4s1.7,2.2,1.7,3.8c0,1.1-0.3,2-0.8,2.8s-1.2,1.4-2.2,2l4.8,8.8h-3.2
		l-4.2-8.2c0,0-1,0-1.9,0h-0.7V21H71.6z M75.1,4.4h-0.8v5.9h1c1.4,0,2.3-0.1,2.8-0.4C78.6,9.8,79,9.4,79.3,9c0.3-0.5,0.4-1,0.4-1.6
		s-0.2-1.1-0.5-1.6s-0.8-0.8-1.3-1C77.4,4.5,76.4,4.4,75.1,4.4z"/>
</g>
<g>
	<path class="st0" d="M39.1,24.7v2.9h-0.8v-2.2c0-0.4-0.1-0.7-0.2-0.9c-0.1-0.2-0.3-0.3-0.6-0.3c-0.2,0-0.3,0-0.4,0.1
		c-0.1,0.1-0.3,0.2-0.5,0.4v2.9h-0.8v-3.9h0.8v0.5c0.4-0.4,0.8-0.6,1.2-0.6c0.5,0,0.9,0.2,1.2,0.7c0.4-0.5,0.8-0.7,1.3-0.7
		c0.4,0,0.7,0.1,0.9,0.4s0.4,0.7,0.4,1.3v2.3h-0.8v-2.3c0-0.3-0.1-0.6-0.2-0.8c-0.1-0.2-0.3-0.3-0.6-0.3
		C39.7,24.2,39.4,24.4,39.1,24.7z"/>
	<path class="st0" d="M44.6,23.6c0.6,0,1.1,0.2,1.5,0.6s0.6,0.9,0.6,1.5s-0.2,1-0.6,1.4c-0.4,0.4-0.9,0.6-1.5,0.6s-1.1-0.2-1.5-0.6
		s-0.6-0.9-0.6-1.4c0-0.6,0.2-1.1,0.6-1.4C43.5,23.8,44,23.6,44.6,23.6z M44.6,24.3c-0.4,0-0.7,0.1-0.9,0.4
		c-0.2,0.2-0.4,0.6-0.4,0.9c0,0.4,0.1,0.7,0.4,0.9c0.2,0.2,0.6,0.4,0.9,0.4c0.4,0,0.7-0.1,0.9-0.4c0.2-0.2,0.4-0.5,0.4-0.9
		s-0.1-0.7-0.4-0.9C45.3,24.5,45,24.3,44.6,24.3z"/>
	<path class="st0" d="M50.1,23.7h0.8l-1.7,4h-0.3l-1.8-4H48l1.1,2.4L50.1,23.7z"/>
	<path class="st0" d="M52,22c0.1,0,0.2,0,0.3,0.1s0.1,0.2,0.1,0.3c0,0.1,0,0.2-0.1,0.3c-0.1,0.1-0.2,0.1-0.3,0.1s-0.2,0-0.3-0.1
		s-0.1-0.2-0.1-0.3c0-0.1,0-0.2,0.1-0.3C51.8,22,51.9,22,52,22z M51.6,23.7h0.8v3.9h-0.8V23.7z"/>
	<path class="st0" d="M54.4,23.7v0.5c0.3-0.4,0.7-0.6,1.2-0.6c0.2,0,0.5,0.1,0.7,0.2s0.4,0.3,0.5,0.5s0.2,0.6,0.2,1v2.2h-0.8v-2.2
		c0-0.4-0.1-0.7-0.2-0.9s-0.3-0.3-0.6-0.3c-0.4,0-0.7,0.2-0.9,0.6v2.8h-0.8v-3.9L54.4,23.7L54.4,23.7z"/>
	<path class="st0" d="M57.9,25c0-0.4,0.2-0.7,0.5-1c0.3-0.2,0.7-0.4,1.3-0.4h1.6v0.6h-0.8c0.2,0.2,0.3,0.3,0.3,0.4
		c0.1,0.1,0.1,0.3,0.1,0.4c0,0.2-0.1,0.4-0.2,0.6c-0.1,0.2-0.3,0.3-0.5,0.5c-0.2,0.1-0.5,0.2-0.9,0.3c-0.3,0-0.4,0.1-0.4,0.3
		c0,0.1,0.1,0.2,0.2,0.2c0.1,0.1,0.3,0.1,0.6,0.2c0.5,0.1,0.8,0.2,0.9,0.2c0.1,0.1,0.3,0.1,0.4,0.3c0.2,0.2,0.3,0.4,0.3,0.7
		c0,0.4-0.2,0.7-0.5,0.9c-0.3,0.2-0.8,0.3-1.3,0.3c-0.6,0-1-0.1-1.3-0.3c-0.3-0.2-0.5-0.5-0.5-0.9c0-0.5,0.3-0.9,1-1
		c-0.3-0.2-0.4-0.3-0.4-0.5c0-0.1,0.1-0.2,0.2-0.3c0.1-0.1,0.3-0.2,0.5-0.2C58.2,26,57.9,25.6,57.9,25z M59.2,27.8
		c-0.3,0-0.5,0.1-0.6,0.2c-0.2,0.1-0.2,0.3-0.2,0.4c0,0.4,0.4,0.6,1.1,0.6c0.3,0,0.6-0.1,0.8-0.2s0.3-0.2,0.3-0.4
		c0-0.2-0.1-0.3-0.4-0.4C59.9,27.8,59.6,27.8,59.2,27.8z M59.4,24.3c-0.2,0-0.4,0.1-0.5,0.2s-0.2,0.3-0.2,0.5s0.1,0.4,0.2,0.5
		c0.1,0.1,0.3,0.2,0.6,0.2c0.2,0,0.4-0.1,0.5-0.2s0.2-0.3,0.2-0.5s-0.1-0.4-0.2-0.5C59.8,24.4,59.6,24.3,59.4,24.3z"/>
	<path class="st0" d="M67.7,24.7v2.9H67v-2.2c0-0.4-0.1-0.7-0.2-0.9c-0.1-0.2-0.3-0.3-0.6-0.3c-0.2,0-0.3,0-0.4,0.1
		s-0.3,0.2-0.5,0.4v2.9h-0.8v-3.9h0.8v0.5c0.4-0.4,0.8-0.6,1.2-0.6c0.5,0,0.9,0.2,1.2,0.7c0.4-0.5,0.8-0.7,1.3-0.7
		c0.4,0,0.7,0.1,0.9,0.4c0.2,0.3,0.4,0.7,0.4,1.3v2.3h-0.8v-2.3c0-0.3-0.1-0.6-0.2-0.8c-0.1-0.2-0.3-0.3-0.6-0.3
		C68.3,24.2,68,24.4,67.7,24.7z"/>
	<path class="st0" d="M73.9,27.6v-0.5c-0.2,0.2-0.4,0.3-0.6,0.4s-0.4,0.2-0.6,0.2s-0.5-0.1-0.7-0.2s-0.4-0.3-0.5-0.5
		s-0.2-0.6-0.2-1.1v-2.2h0.8v2.2c0,0.4,0.1,0.7,0.2,0.9c0.1,0.2,0.3,0.2,0.6,0.2c0.4,0,0.7-0.2,0.9-0.5v-2.8h0.8v3.9H73.9z"/>
	<path class="st0" d="M75.7,27.3v-0.8c0.2,0.2,0.4,0.3,0.7,0.4C76.6,27,76.8,27,77,27s0.3,0,0.4-0.1s0.2-0.2,0.2-0.3
		c0-0.1,0-0.2-0.1-0.3c-0.1-0.1-0.2-0.2-0.5-0.3c-0.5-0.3-0.8-0.5-1-0.7s-0.2-0.4-0.2-0.6c0-0.3,0.1-0.5,0.4-0.7
		c0.2-0.2,0.5-0.3,0.9-0.3s0.8,0.1,1.2,0.3v0.8c-0.5-0.3-0.8-0.4-1.1-0.4c-0.2,0-0.3,0-0.4,0.1s-0.1,0.1-0.1,0.3
		c0,0.1,0,0.2,0.1,0.3c0.1,0.1,0.2,0.2,0.4,0.3l0.3,0.2c0.7,0.4,1,0.8,1,1.2c0,0.3-0.1,0.6-0.4,0.8c-0.3,0.2-0.6,0.3-1,0.3
		c-0.2,0-0.4,0-0.6-0.1C76.2,27.5,75.9,27.4,75.7,27.3z"/>
	<path class="st0" d="M79.7,22c0.1,0,0.2,0,0.3,0.1c0.1,0.1,0.1,0.2,0.1,0.3c0,0.1,0,0.2-0.1,0.3c-0.1,0.1-0.2,0.1-0.3,0.1
		c-0.1,0-0.2,0-0.3-0.1c-0.1-0.1-0.1-0.2-0.1-0.3c0-0.1,0-0.2,0.1-0.3C79.5,22,79.6,22,79.7,22z M79.3,23.7h0.8v3.9h-0.8V23.7z"/>
	<path class="st0" d="M84.3,26.7v0.8c-0.4,0.1-0.8,0.2-1.1,0.2c-0.6,0-1.1-0.2-1.5-0.5c-0.4-0.4-0.5-0.9-0.5-1.5s0.2-1.1,0.5-1.5
		c0.4-0.4,0.8-0.6,1.4-0.6c0.2,0,0.4,0,0.5,0.1c0.2,0,0.4,0.1,0.6,0.2v0.8c-0.4-0.3-0.8-0.4-1.1-0.4c-0.3,0-0.6,0.1-0.9,0.4
		c-0.2,0.2-0.3,0.6-0.3,0.9c0,0.4,0.1,0.7,0.4,1c0.2,0.2,0.6,0.4,1,0.4C83.6,26.9,83.9,26.8,84.3,26.7z"/>
</g>
</svg>
