<svg xmlns="http://www.w3.org/2000/svg" viewBox="0 0 185.61 28.68"><defs><style>.cls-1{fill:none;stroke:#000;stroke-miterlimit:10;}</style></defs><g id="Calque_2" data-name="Calque 2"><g id="Calque_2-2" data-name="Calque 2"><path d="M116.17,3c-1.14,2.05-3.65,7.23-4.75,9.38h-.18a1,1,0,0,0-.24,0c-.64-1.25-1.87-4.07-2.9-6.39-.48-1-.78-1.81-1-2.4-.23.61-.55,1.39-1,2.4-1,2.36-2.27,5.09-2.9,6.39h-.43c-1.13-2.23-3.37-7.27-4.59-9.38h.75c.34.83,2.07,4.26,3.06,6.42a25.36,25.36,0,0,1,1,2.4c.24-.58.56-1.36,1.07-2.5,1-2.32,2.31-5.09,2.8-6.32h.53c.5,1.22,1.82,4.14,2.74,6.32.53,1.11.86,1.92,1.09,2.51.24-.54.59-1.32,1.13-2.46,1-2.13,2.72-5.55,3-6.37Z"/><path d="M118,1.58a.61.61,0,0,1-.69-.65.69.69,0,0,1,1.38,0A.61.61,0,0,1,118,1.58Zm-.34,10.81c0-1.73,0-2.8,0-4.84s0-2.94,0-4.54h.66c0,1.6,0,2.59,0,4.56s0,3.07,0,4.82Z"/><path d="M122.33,5.62a4.22,4.22,0,0,1,4.35-2.8,6.94,6.94,0,0,1,2.86.57,5.12,5.12,0,0,0-.28.58,5.85,5.85,0,0,0-2.73-.59,4,4,0,0,0-4.22,4c0,1.79,0,4.1,0,5.06h-.62c0-1.28,0-2.64,0-4.6s0-3.4,0-4.78h.61c0,.7,0,1.54-.1,2.59Z"/><path d="M141.42,9.09c0,1.7-.9,3.59-5.48,3.59-3.9,0-6.26-1.68-6.26-5s2.34-5,6.23-5,5.51,1.59,5.51,4c0,.24,0,.66,0,1-1.1,0-2.78,0-6.19,0-1.62,0-3.45,0-5-.07,0,2.82,2.07,4.46,5.7,4.46,4.15,0,4.92-1.53,4.9-3.08ZM130.26,7.27c2.75,0,8.85,0,10.6,0V6.64c0-1.95-1.44-3.42-5-3.42S130.45,4.71,130.26,7.27Z"/><path d="M143.94,12.39c0-2.18,0-3.89,0-6.1,0-2.67,0-4,0-6.29h.63c0,2.29,0,3.67,0,6.31,0,2.2,0,3.87,0,6.08Z"/><path d="M158.55,9.09c0,1.7-.89,3.59-5.47,3.59-3.91,0-6.26-1.68-6.26-5s2.34-5,6.23-5,5.5,1.59,5.5,4c0,.24,0,.66,0,1-1.11,0-2.79,0-6.2,0-1.61,0-3.44,0-5-.07,0,2.82,2.07,4.46,5.7,4.46,4.14,0,4.91-1.53,4.9-3.08ZM147.4,7.27c2.75,0,8.85,0,10.59,0V6.64c0-1.95-1.44-3.42-5-3.42S147.59,4.71,147.4,7.27Z"/><path d="M161.12,9.06c0,.18,0,.4,0,.54,0,1.92,1.76,2.5,5.31,2.5s5-.66,5-2.18c0-1.34-1-1.93-5.24-2.14s-5.33-1-5.33-2.53,1.65-2.56,5.35-2.56,5.31.83,5.31,2.86c0,.26,0,.42,0,.69H171c0-.22,0-.48,0-.64,0-1.71-1.2-2.42-4.72-2.42-3.35,0-4.81.71-4.81,2.05s.9,1.84,5.06,2.05S172,8.15,172,9.94s-1.77,2.67-5.58,2.67-5.91-.73-5.91-3c0-.21,0-.37,0-.58h.57Z"/><path d="M174.71,9.06a5.25,5.25,0,0,0,0,.54c0,1.92,1.76,2.5,5.32,2.5s5-.66,5-2.18c0-1.34-1-1.93-5.23-2.14s-5.33-1-5.33-2.53,1.65-2.56,5.34-2.56,5.32.83,5.32,2.86c0,.26,0,.42,0,.69h-.57c0-.22,0-.48,0-.64,0-1.71-1.2-2.42-4.72-2.42-3.34,0-4.8.71-4.8,2.05s.89,1.84,5.06,2.05,5.52.87,5.52,2.66-1.78,2.67-5.59,2.67-5.9-.73-5.9-3c0-.21,0-.37,0-.58h.58Z"/><path d="M110.84,25.09c0,1.7-.89,3.59-5.47,3.59-3.91,0-6.26-1.68-6.26-5s2.34-5,6.22-5,5.51,1.59,5.51,4.05c0,.24,0,.66,0,1-1.11,0-2.79,0-6.2,0-1.62,0-3.44,0-5-.07,0,2.82,2.06,4.46,5.7,4.46,4.14,0,4.91-1.53,4.9-3.08ZM99.69,23.27c2.75,0,8.85,0,10.59,0v-.59c0-1.95-1.44-3.42-5-3.42S99.88,20.71,99.69,23.27Z"/><path d="M112.85,22.27c-.06-2.16,1.48-3.47,5.25-3.47,4.15,0,5.35,1.59,5.35,3.55,0,1,0,1.94,0,3.11a16,16,0,0,0,.19,2.93h-.44c-.23,0-.31-.1-.31-.35,0-.56,0-1.22,0-1.86l-.08,0c-.68,1.48-2.77,2.44-6,2.44s-4.46-.92-4.46-2.69,1.45-2.69,5.2-2.69a31.07,31.07,0,0,1,5.33.41c0-.49,0-.91,0-1.21,0-1.79-1-3.12-4.78-3.12-3.38,0-4.74,1-4.66,3h-.58Zm10,1.75a45.25,45.25,0,0,0-5.28-.31c-3.35,0-4.68.66-4.68,2.15s1.06,2.24,4,2.24c4.29,0,6-1.58,6-3.35Z"/><path d="M126.68,21.62a4.22,4.22,0,0,1,4.35-2.8,7,7,0,0,1,2.87.57,3.92,3.92,0,0,0-.29.58,5.83,5.83,0,0,0-2.72-.59,4,4,0,0,0-4.23,3.95c0,1.79,0,4.1,0,5.06h-.62c0-1.28.05-2.64.05-4.6s0-3.4-.05-4.78h.61c0,.7,0,1.54-.1,2.59Z"/><path d="M135.09,21.54c.74-1.62,2.53-2.74,5.46-2.74,3.62,0,5.51,1.87,5.51,4.85s-2,5-5.59,5A8.51,8.51,0,0,1,135.09,27l0,0c0,.21,0,.37,0,.59v.74h-.59c0-1.49,0-3.33,0-5.7,0-2.93,0-5.46,0-6.69h.62c0,1.07,0,1.94,0,3.23,0,.76,0,1.43,0,2.28Zm0,5a9.3,9.3,0,0,0,5.4,1.52c3.29,0,5-1.77,5-4.43s-1.73-4.34-5-4.34c-2.86,0-5.41,1.28-5.41,3.81Z"/><path d="M158.84,19c0,1.2-.05,2.56-.05,4.45,0,2.1,0,3.7.05,4.93h-.67c0-.8,0-1.47.06-2.31l-.09,0c-.84,1.62-2.76,2.51-5.56,2.51-3.41,0-5.09-1.34-5.09-3.82,0-1.47,0-2.07,0-3s0-1.82,0-2.72h.65c0,1.47-.06,3.22-.06,5.66,0,2.23,1.38,3.4,4.64,3.4,3,0,5.54-1.23,5.54-3.76,0-3,0-4.39,0-5.3Z"/><path d="M172,16c0,3.14-.06,4.66-.06,7.57,0,1.89,0,3.63.06,4.82h-.64c0-.45,0-.87,0-1.41a10.58,10.58,0,0,1,0-1.1l-.08,0c-.76,1.62-2.58,2.74-5.3,2.74-3.6,0-5.67-1.76-5.67-4.82s2-5,5.75-5a8.15,8.15,0,0,1,5.25,1.54l0,0c0-.56,0-1.22,0-1.95,0-.9,0-1.47,0-2.37Zm-.62,4.8a8.91,8.91,0,0,0-5.19-1.49c-3.42,0-5.25,1.73-5.25,4.47s1.89,4.29,5.14,4.29c2.8,0,5.3-1.39,5.3-3.83Z"/><path d="M174.55,25.06a5.25,5.25,0,0,0,0,.54c0,1.92,1.76,2.5,5.32,2.5s5-.66,5-2.18c0-1.34-1-1.93-5.23-2.14s-5.33-1-5.33-2.53,1.65-2.56,5.34-2.56,5.32.83,5.32,2.86c0,.26,0,.42,0,.69h-.57c0-.22,0-.48,0-.64,0-1.71-1.2-2.42-4.72-2.42-3.34,0-4.8.71-4.8,2.05s.89,1.84,5.06,2.05,5.52.87,5.52,2.66-1.78,2.67-5.59,2.67-5.9-.73-5.9-3c0-.21,0-.37,0-.58h.58Z"/><path d="M9.62.93h4.07a.51.51,0,0,1,.38.16.51.51,0,0,1,.15.37V14.22a.54.54,0,0,1-.15.38.55.55,0,0,1-.38.16H9.62a.52.52,0,0,1-.37-.16.51.51,0,0,1-.16-.38V10H5.14v4.2a.55.55,0,0,1-.54.54H.53a.51.51,0,0,1-.37-.15A.5.5,0,0,1,0,14.22V1.46a.49.49,0,0,1,.16-.37A.49.49,0,0,1,.53.93H4.6A.51.51,0,0,1,5,1.09a.52.52,0,0,1,.16.37V5.51h4v-4a.49.49,0,0,1,.16-.37A.49.49,0,0,1,9.62.93Z"/><path d="M29.28,6.67V9a5.4,5.4,0,0,1-1,3.31,5.3,5.3,0,0,1-2.59,1.89,11.47,11.47,0,0,1-3.77.56,11.47,11.47,0,0,1-3.77-.56,5.3,5.3,0,0,1-2.59-1.89,5.46,5.46,0,0,1-1-3.35V6.71a5,5,0,0,1,2-4.36A9.05,9.05,0,0,1,21.93.91a9,9,0,0,1,5.3,1.44A4.93,4.93,0,0,1,29.28,6.67Zm-9.37-.32v3a1.36,1.36,0,0,0,.55,1.17,2.33,2.33,0,0,0,1.47.41,2.34,2.34,0,0,0,1.47-.42,1.4,1.4,0,0,0,.54-1.18V6.37a1.42,1.42,0,0,0-.54-1.19,2.34,2.34,0,0,0-1.47-.42,2.4,2.4,0,0,0-1.47.41A1.39,1.39,0,0,0,19.91,6.35Z"/><path d="M44.59,14.14a.67.67,0,0,1,0,.22.43.43,0,0,1-.13.27.46.46,0,0,1-.31.13H39.71a.85.85,0,0,1-.83-.5l-1.74-3.91H35.48v3.87a.51.51,0,0,1-.16.38.52.52,0,0,1-.37.16H30.68a.57.57,0,0,1-.38-.16.54.54,0,0,1-.15-.38V1.46a.51.51,0,0,1,.15-.37.52.52,0,0,1,.38-.16h7.69a6.62,6.62,0,0,1,4.28,1.28,4.25,4.25,0,0,1,1.58,3.5A4.16,4.16,0,0,1,42.16,9.6ZM35.48,4.6V6.7H38a.83.83,0,0,0,.67-.29,1.08,1.08,0,0,0,.24-.72,1.31,1.31,0,0,0-.23-.76A.77.77,0,0,0,38,4.6Z"/><path d="M59.4,14.14a.48.48,0,0,1,0,.22.41.41,0,0,1-.12.27.46.46,0,0,1-.31.13H54.53a.84.84,0,0,1-.83-.5L52,10.35H50.3v3.87a.55.55,0,0,1-.54.54H45.5a.55.55,0,0,1-.54-.54V1.46a.52.52,0,0,1,.16-.37A.51.51,0,0,1,45.5.93h7.68a6.63,6.63,0,0,1,4.29,1.28,4.28,4.28,0,0,1,1.58,3.5A4.16,4.16,0,0,1,57,9.6ZM50.3,4.6V6.7h2.47a.83.83,0,0,0,.67-.29,1.08,1.08,0,0,0,.24-.72,1.31,1.31,0,0,0-.23-.76.77.77,0,0,0-.68-.33Z"/><path d="M73.73,6.67V9a5.4,5.4,0,0,1-1,3.31,5.3,5.3,0,0,1-2.59,1.89,13,13,0,0,1-7.54,0A5.3,5.3,0,0,1,60,12.33,5.46,5.46,0,0,1,59,9V6.71a5,5,0,0,1,2-4.36A9.05,9.05,0,0,1,66.38.91a9,9,0,0,1,5.3,1.44A4.93,4.93,0,0,1,73.73,6.67Zm-9.37-.32v3a1.36,1.36,0,0,0,.55,1.17,2.81,2.81,0,0,0,2.94,0,1.4,1.4,0,0,0,.54-1.18V6.37a1.42,1.42,0,0,0-.54-1.19,2.34,2.34,0,0,0-1.47-.42,2.4,2.4,0,0,0-1.47.41A1.39,1.39,0,0,0,64.36,6.35Z"/><path d="M89,14.14a.67.67,0,0,1,0,.22.43.43,0,0,1-.13.27.46.46,0,0,1-.31.13H84.16a.85.85,0,0,1-.83-.5l-1.74-3.91H79.93v3.87a.51.51,0,0,1-.16.38.52.52,0,0,1-.37.16H75.13a.57.57,0,0,1-.38-.16.54.54,0,0,1-.15-.38V1.46a.51.51,0,0,1,.15-.37.52.52,0,0,1,.38-.16h7.69A6.62,6.62,0,0,1,87.1,2.21a4.25,4.25,0,0,1,1.58,3.5A4.16,4.16,0,0,1,86.61,9.6ZM79.93,4.6V6.7H82.4a.83.83,0,0,0,.67-.29,1.08,1.08,0,0,0,.24-.72,1.31,1.31,0,0,0-.23-.76.77.77,0,0,0-.68-.33Z"/><path d="M4.73,25.15h6.85a.45.45,0,0,1,.33.14.45.45,0,0,1,.14.32V28a.45.45,0,0,1-.14.32.45.45,0,0,1-.33.14H.73a.45.45,0,0,1-.33-.14A.45.45,0,0,1,.26,28V16.94a.45.45,0,0,1,.14-.33.45.45,0,0,1,.33-.14H11.41a.45.45,0,0,1,.33.14.44.44,0,0,1,.13.33v2.42a.44.44,0,0,1-.46.46H4.73v1.09h5.74a.44.44,0,0,1,.32.13.47.47,0,0,1,.14.33V23.6a.45.45,0,0,1-.14.33.45.45,0,0,1-.32.14H4.73Z"/><path d="M13.37,16.47h5.48a9.79,9.79,0,0,1,3.28.5,4.69,4.69,0,0,1,2.25,1.69,4.91,4.91,0,0,1,.86,2.95v1.75a4.49,4.49,0,0,1-1.86,4,8.08,8.08,0,0,1-4.53,1.13H13.37a.45.45,0,0,1-.33-.14.44.44,0,0,1-.13-.32V16.94a.44.44,0,0,1,.13-.33A.45.45,0,0,1,13.37,16.47Zm4,3.35v5.33h1.57a1.93,1.93,0,0,0,1.27-.39,1.31,1.31,0,0,0,.48-1.09V21.3a1.32,1.32,0,0,0-.48-1.09,1.93,1.93,0,0,0-1.27-.39Z"/><path d="M37.23,20H34.12v5h3.11a.42.42,0,0,1,.33.14.44.44,0,0,1,.13.32V28a.44.44,0,0,1-.13.32.45.45,0,0,1-.33.14H26.34a.45.45,0,0,1-.33-.14.44.44,0,0,1-.13-.32v-2.6a.44.44,0,0,1,.13-.32.42.42,0,0,1,.33-.14h3.14V20H26.34a.45.45,0,0,1-.33-.14.44.44,0,0,1-.13-.33V16.94a.44.44,0,0,1,.13-.33.45.45,0,0,1,.33-.14H37.23a.45.45,0,0,1,.33.14.44.44,0,0,1,.13.33v2.59a.44.44,0,0,1-.13.33A.45.45,0,0,1,37.23,20Z"/><path d="M38.74,16.47H50.6a.45.45,0,0,1,.32.14.45.45,0,0,1,.14.33V19.7a.45.45,0,0,1-.14.33.45.45,0,0,1-.32.14H46.9V28a.41.41,0,0,1-.14.32.45.45,0,0,1-.32.14H42.9a.45.45,0,0,1-.33-.14.44.44,0,0,1-.13-.32V20.17h-3.7a.45.45,0,0,1-.32-.14.42.42,0,0,1-.14-.33V16.94a.42.42,0,0,1,.14-.33A.45.45,0,0,1,38.74,16.47Z"/><path d="M63,20H59.89v5H63a.48.48,0,0,1,.46.46V28a.41.41,0,0,1-.14.32.45.45,0,0,1-.32.14H52.11a.45.45,0,0,1-.33-.14.45.45,0,0,1-.14-.32v-2.6a.45.45,0,0,1,.14-.32.42.42,0,0,1,.33-.14h3.14V20H52.11a.48.48,0,0,1-.47-.47V16.94a.48.48,0,0,1,.47-.47H63a.45.45,0,0,1,.32.14.42.42,0,0,1,.14.33v2.59a.42.42,0,0,1-.14.33A.45.45,0,0,1,63,20Z"/><path d="M76.83,21.47v2A4.71,4.71,0,0,1,76,26.39,4.6,4.6,0,0,1,73.72,28a11.22,11.22,0,0,1-6.56,0,4.67,4.67,0,0,1-2.26-1.64,4.76,4.76,0,0,1-.85-2.91v-2a4.34,4.34,0,0,1,1.77-3.79,9.14,9.14,0,0,1,9.23,0A4.32,4.32,0,0,1,76.83,21.47Zm-8.15-.28v2.6a1.2,1.2,0,0,0,.48,1,2,2,0,0,0,1.28.36,2,2,0,0,0,1.28-.37,1.24,1.24,0,0,0,.47-1V21.2a1.25,1.25,0,0,0-.47-1,2.09,2.09,0,0,0-1.28-.36,2.11,2.11,0,0,0-1.28.35A1.21,1.21,0,0,0,68.68,21.19Z"/><path d="M85.5,16.47h3.2a.45.45,0,0,1,.32.14.42.42,0,0,1,.14.33V28a.41.41,0,0,1-.14.32.45.45,0,0,1-.32.14H85.93a.85.85,0,0,1-.69-.36L81.5,23.36V28a.48.48,0,0,1-.46.46h-3.2a.47.47,0,0,1-.33-.14.44.44,0,0,1-.13-.32V16.94a.44.44,0,0,1,.13-.33.47.47,0,0,1,.33-.14h2.78a.8.8,0,0,1,.67.35L85,22v-5a.42.42,0,0,1,.14-.33A.45.45,0,0,1,85.5,16.47Z"/><line class="cls-1" x1="93.86" y1="28.62" x2="93.86"/></g></g></svg>