<?xml version="1.0" encoding="UTF-8"?><svg id="Calque_2" xmlns="http://www.w3.org/2000/svg" viewBox="0 0 97.57 36.6"><defs><style>.cls-1{fill:#fff;}</style></defs><g id="Calque_1-2"><g><path class="cls-1" d="M97.57,36.41c-.52,.06-1.03,.18-1.55,.18-15.88,0-31.76,0-47.63,0-1.99,0-2.01-.02-2.58-2.22h1.21c16.41,0,32.81,0,49.22,0,.44,0,.89,.06,1.33,.09v1.94Z"/><path class="cls-1" d="M52.73,10.45l-8.59,10.3c2.81,3.36,5.58,6.68,8.61,10.31-1.54,0-2.77-.09-3.98,.02-1.56,.15-2.62-.35-3.59-1.63-1.82-2.42-3.86-4.68-6.05-7.29v8.89c-1.57,0-2.97,.02-4.38-.02-.19,0-.42-.3-.53-.51-.09-.16-.03-.4-.03-.6,0-9.59,0-19.18,0-28.77,0-.31,.06-.63,.09-1.02h4.75V19.01l.29,.12c1.18-1.4,2.36-2.8,3.54-4.21,.86-1.02,1.8-2,2.54-3.1,.78-1.15,1.73-1.52,3.08-1.4,1.28,.11,2.58,.02,4.24,.02Z"/><path class="cls-1" d="M5.11,22.21c-.11,3.05,1.75,5.1,4.56,5.26,2.06,.12,3.9-.18,4.97-2.25,.11-.22,.49-.41,.76-.41,1.37-.04,2.75-.02,4.3-.02-.22,1.5-.83,2.68-1.76,3.69-2.9,3.16-6.57,3.67-10.5,2.74-3.96-.94-6.2-3.71-7.07-7.54-.7-3.12-.45-6.19,1.16-9.06,2.15-3.84,6.83-5.63,11.5-4.4,4.14,1.09,6.87,4.68,6.89,9.06q.01,2.93-2.93,2.93c-3.53,0-7.07,0-10.6,0-.4,0-.8,0-1.27,0Zm.13-3.72H15.09c-.28-3.24-2.47-4.84-5.91-4.46-2.46,.27-4.24,2.29-3.94,4.46Z"/><path class="cls-1" d="M63.36,31.63c-6.19,.05-10.89-4.58-10.92-10.76-.04-6.32,4.5-10.93,10.81-10.98,6.3-.06,11.13,4.66,11.13,10.87,0,6.15-4.74,10.83-11.01,10.88Zm6.06-10.89c0-3.69-2.64-6.5-6.1-6.51-3.41,0-5.99,2.77-6.01,6.45-.03,3.72,2.59,6.59,6.01,6.58,3.45,0,6.09-2.84,6.1-6.53Z"/><path class="cls-1" d="M82.63,10.45l.1,2.23c.17-.05,.31-.05,.37-.12,2.6-2.94,5.91-3.19,9.37-2.21,3.19,.9,4.38,3.5,4.48,6.53,.15,4.44,.06,8.9,.09,13.34,0,.64-.25,.86-.86,.84-1.01-.03-2.03-.05-3.04,0-.88,.05-1.1-.31-1.09-1.13,.04-3.32,.03-6.63,0-9.95,0-.8-.08-1.62-.27-2.4-.48-2.05-1.65-3.16-3.37-3.33-2.35-.24-4.1,.54-4.91,2.52-.49,1.2-.74,2.57-.79,3.87-.11,3.03-.09,6.07,0,9.1,.03,1.12-.35,1.42-1.39,1.32-.76-.08-1.54-.06-2.31,0-.87,.07-1.22-.18-1.21-1.13,.04-6.15,.03-12.3,0-18.44,0-.77,.21-1.1,1.03-1.06,1.21,.06,2.43,.01,3.8,.01Z"/><path class="cls-1" d="M24.19,10.51h4.75c.02,.44,.05,.83,.05,1.21,0,5.99-.03,11.98,.03,17.96,.01,1.18-.39,1.46-1.46,1.38-1.09-.08-2.18-.02-3.38-.02V10.51Z"/><path class="cls-1" d="M43.53,36.52H.8v-2.14h1.59c12.83,0,25.66,0,38.49,0q2,0,2.65,2.14Z"/><path class="cls-1" d="M26.5,0c1.89,0,3.31,1.42,3.27,3.29-.03,1.77-1.5,3.18-3.31,3.17-1.79,0-3.2-1.45-3.2-3.26C23.26,1.39,24.67,0,26.5,0Z"/></g></g></svg>