<svg xmlns="http://www.w3.org/2000/svg" viewBox="0 0 123.15 40.69"><defs><style>.cls-1{fill:#fff;}</style></defs><g id="Calque_2" data-name="Calque 2"><g id="Calque_2-2" data-name="Calque 2"><path class="cls-1" d="M12,0h2.8L27.22,28H23.15l-3.71-8.25H7.57L4.09,28H0ZM17.8,16.19,13.31,6.11,9.15,16.19Z"/><path class="cls-1" d="M51.78.16H55.5V28h-4V6.33L43,17.09h-.74L33.56,6.33V28h-4V.16h3.77l9.24,11.42Z"/><path class="cls-1" d="M69.69,28H60.27V.16h7.29a12.65,12.65,0,0,1,5.38.93,6.83,6.83,0,0,1,3,2.54,7,7,0,0,1,1,3.76q0,4.1-4.24,5.87a8.62,8.62,0,0,1,4.85,2.51,6.55,6.55,0,0,1,1.8,4.62,6.76,6.76,0,0,1-1.09,3.8A7.94,7.94,0,0,1,75,26.92,11.76,11.76,0,0,1,69.69,28Zm-2-24.28H64.26v8.37h2.65c2.12,0,3.63-.41,4.53-1.22a4.06,4.06,0,0,0,1.34-3.14Q72.78,3.71,67.68,3.7ZM68,15.61H64.26v8.82h3.92a13.05,13.05,0,0,0,4.43-.5,4.19,4.19,0,0,0,1.87-1.59A4.11,4.11,0,0,0,75.19,20a4,4,0,0,0-.75-2.33,4.46,4.46,0,0,0-2.12-1.57A13.1,13.1,0,0,0,68,15.61Z"/><path class="cls-1" d="M83,.16H98.8V3.7H87v8.49H98.4v3.56H87v8.64H99.18v3.55H83Z"/><path class="cls-1" d="M104.36,28V.16h7A10.1,10.1,0,0,1,118,2.25a7,7,0,0,1,2.48,5.66,7.24,7.24,0,0,1-1.22,4.2A8.77,8.77,0,0,1,116,15l7,13h-4.74l-6.19-12.11h-3.82V28Zm5.17-24.44h-1.19v8.79h1.51a11.38,11.38,0,0,0,4.16-.52,4,4,0,0,0,1.75-1.56,4.52,4.52,0,0,0,.62-2.38,4.28,4.28,0,0,0-.69-2.38,3.76,3.76,0,0,0-2-1.51A14.26,14.26,0,0,0,109.53,3.54Z"/><path class="cls-1" d="M56.37,33.52v4.21H55.22V34.5A2.59,2.59,0,0,0,55,33.15a1,1,0,0,0-.9-.38,1.35,1.35,0,0,0-.66.17,2.93,2.93,0,0,0-.69.58v4.21H51.56v-5.8h1.15v.76a2.54,2.54,0,0,1,1.72-.88,1.9,1.9,0,0,1,1.71,1.05,2.56,2.56,0,0,1,1.92-1.06,1.78,1.78,0,0,1,1.39.62A2.81,2.81,0,0,1,60,34.31v3.42H58.85V34.29a1.79,1.79,0,0,0-.3-1.11,1,1,0,0,0-.85-.38A1.76,1.76,0,0,0,56.37,33.52Z"/><path class="cls-1" d="M64.51,31.92a3,3,0,0,1,2.21.85,2.89,2.89,0,0,1,.87,2.15A2.7,2.7,0,0,1,66.7,37a3.17,3.17,0,0,1-2.24.83A3,3,0,0,1,62.28,37a2.8,2.8,0,0,1-.87-2.1,2.84,2.84,0,0,1,.88-2.13A3.1,3.1,0,0,1,64.51,31.92Zm-.06,1a1.8,1.8,0,0,0-1.35.54,1.86,1.86,0,0,0-.53,1.38,1.81,1.81,0,0,0,.54,1.36,2.09,2.09,0,0,0,2.78,0,1.85,1.85,0,0,0,.54-1.37,1.81,1.81,0,0,0-.57-1.37A1.94,1.94,0,0,0,64.45,33Z"/><path class="cls-1" d="M72.59,31.93h1.24l-2.56,5.9h-.39l-2.62-5.9h1.25l1.57,3.57Z"/><path class="cls-1" d="M75.45,29.49a.69.69,0,0,1,.49.19.68.68,0,0,1-.49,1.16.67.67,0,0,1-.47-.2.66.66,0,0,1,0-.95A.67.67,0,0,1,75.45,29.49Zm-.57,2.44H76v5.8H74.88Z"/><path class="cls-1" d="M79,31.93v.74a2.33,2.33,0,0,1,1.75-.86,1.91,1.91,0,0,1,1,.29,1.8,1.8,0,0,1,.71.76,3.76,3.76,0,0,1,.24,1.55v3.32H81.56V34.42a2.28,2.28,0,0,0-.27-1.27,1,1,0,0,0-.9-.38,1.65,1.65,0,0,0-1.39.82v4.14H77.83v-5.8Z"/><path class="cls-1" d="M84.19,33.93a1.77,1.77,0,0,1,.67-1.46,2.91,2.91,0,0,1,1.85-.54H89.1v.89H87.93a2.13,2.13,0,0,1,.47.63,1.51,1.51,0,0,1,.14.65,1.79,1.79,0,0,1-.26.9,1.87,1.87,0,0,1-.67.67,4.09,4.09,0,0,1-1.33.37c-.43.06-.65.21-.65.45a.39.39,0,0,0,.24.33,4.74,4.74,0,0,0,.88.27,8.68,8.68,0,0,1,1.37.36,1.91,1.91,0,0,1,.56.38,1.46,1.46,0,0,1,.41,1.05,1.49,1.49,0,0,1-.73,1.31,4.15,4.15,0,0,1-4,0,1.53,1.53,0,0,1-.74-1.33c0-.78.48-1.29,1.46-1.52-.39-.24-.58-.49-.58-.73a.68.68,0,0,1,.24-.51,1.55,1.55,0,0,1,.68-.33A1.9,1.9,0,0,1,84.19,33.93ZM86.07,38a1.64,1.64,0,0,0-.95.25.74.74,0,0,0-.37.63c0,.59.54.89,1.62.89a2.53,2.53,0,0,0,1.18-.22.7.7,0,0,0,.42-.64c0-.26-.18-.48-.53-.65A3.16,3.16,0,0,0,86.07,38Zm.27-5.08a1.1,1.1,0,0,0-.79.32,1,1,0,0,0-.33.76,1,1,0,0,0,.32.74,1.2,1.2,0,0,0,.81.29,1.17,1.17,0,0,0,.82-.3,1,1,0,0,0,.32-.75,1,1,0,0,0-.33-.75A1.18,1.18,0,0,0,86.34,32.92Z"/><path class="cls-1" d="M98.67,33.52v4.21H97.52V34.5a2.59,2.59,0,0,0-.26-1.35,1,1,0,0,0-.9-.38,1.35,1.35,0,0,0-.66.17,2.93,2.93,0,0,0-.69.58v4.21H93.87v-5.8H95v.76a2.54,2.54,0,0,1,1.72-.88,1.88,1.88,0,0,1,1.71,1.05,2.56,2.56,0,0,1,1.92-1.06,1.76,1.76,0,0,1,1.39.62,2.75,2.75,0,0,1,.55,1.89v3.42h-1.15V34.29a1.79,1.79,0,0,0-.3-1.11,1,1,0,0,0-.85-.38A1.76,1.76,0,0,0,98.67,33.52Z"/><path class="cls-1" d="M107.74,37.73V37a2.82,2.82,0,0,1-.84.62,2.11,2.11,0,0,1-.93.22,2,2,0,0,1-1-.27,1.81,1.81,0,0,1-.7-.75,3.86,3.86,0,0,1-.23-1.56V31.93h1.14v3.3a2.23,2.23,0,0,0,.27,1.28,1,1,0,0,0,.91.36,1.7,1.7,0,0,0,1.4-.8V31.93h1.15v5.8Z"/><path class="cls-1" d="M110.38,37.31V36.08a5.81,5.81,0,0,0,1,.55,2.32,2.32,0,0,0,.85.21,1.05,1.05,0,0,0,.62-.18.49.49,0,0,0,.26-.42.57.57,0,0,0-.17-.42,3.88,3.88,0,0,0-.72-.48,4.77,4.77,0,0,1-1.45-1.06,1.51,1.51,0,0,1-.35-1,1.32,1.32,0,0,1,.52-1.09,2.09,2.09,0,0,1,1.34-.43,3.7,3.7,0,0,1,1.75.48v1.14a3.53,3.53,0,0,0-1.67-.62.94.94,0,0,0-.54.14.44.44,0,0,0-.21.38.56.56,0,0,0,.19.38,2.73,2.73,0,0,0,.65.44l.41.24c1,.54,1.45,1.15,1.45,1.81a1.41,1.41,0,0,1-.56,1.17,2.15,2.15,0,0,1-1.43.46,3.63,3.63,0,0,1-.92-.11A5.81,5.81,0,0,1,110.38,37.31Z"/><path class="cls-1" d="M116.4,29.49a.65.65,0,0,1,.48.19.68.68,0,0,1-.48,1.16.65.65,0,0,1-.47-.2.66.66,0,0,1,0-.95A.65.65,0,0,1,116.4,29.49Zm-.57,2.44H117v5.8h-1.15Z"/><path class="cls-1" d="M123.15,36.37v1.14a4.86,4.86,0,0,1-1.69.32,2.79,2.79,0,0,1-3-3,3.09,3.09,0,0,1,.79-2.21,2.72,2.72,0,0,1,2.07-.84,3.35,3.35,0,0,1,.81.09,5.13,5.13,0,0,1,.88.32v1.22a3,3,0,0,0-1.62-.55,1.66,1.66,0,0,0-1.27.54,2,2,0,0,0-.5,1.39,1.85,1.85,0,0,0,.54,1.41,2,2,0,0,0,1.45.53A3.71,3.71,0,0,0,123.15,36.37Z"/></g></g></svg>