<?xml version="1.0" encoding="utf-8"?>
<!-- Generator: Adobe Illustrator 25.4.1, SVG Export Plug-In . SVG Version: 6.00 Build 0)  -->
<svg version="1.1" id="Calque_1" xmlns="http://www.w3.org/2000/svg" xmlns:xlink="http://www.w3.org/1999/xlink" x="0px" y="0px"
	 viewBox="0 0 79.4 60" style="enable-background:new 0 0 79.4 60;" xml:space="preserve">
<g>
	<path d="M79.4,60C52.8,60,26.6,60,0,60C0,40.1,0,19.9,0,0c0.4,0,78.7,0,79.4,0C79.4,20.3,79.4,40.2,79.4,60z M9.5,5.6
		C9.9,6,9.9,6,10.3,6.4c6.4,6.4,12.4,12.7,18.7,19.1c2.8,2.8,5.5,5.5,8.4,8.4c0.4,0.4,0.8,0.8,1.6,1.2c1.6,0.4,2.8,0,4-1.2
		c3.6-3.6,7.2-7.2,10.3-10.3c5.5-5.5,11.2-11.5,17-17l0.4-0.4C50,5.6,29.7,5.6,9.5,5.6z M69.9,54.5L69.9,54.5
		C63.5,47.8,56.8,40.9,50,34.2l-0.4,0.4c-1.2,1.2-2,2-3.1,3.1c-3.6,3.6-9.5,3.6-13.1,0c-1.2-1.2-2.4-2.4-3.1-3.1l-0.4-0.4
		C23.2,40.9,16.8,47.8,10,54.5l0,0l0,0l0,0C29.7,54.5,49.7,54.5,69.9,54.5z M25.4,30.2C24.6,29.4,6,10.3,5.1,9.9c0,0.4,0,0.4,0,0.8
		c0,13.1,0,25.8,0,39v0.4v0.4C12.3,43.8,19.1,37,25.4,30.2z M54,30.2c6.7,6.7,13.1,13.6,19.9,20.3c0-13.6,0-27,0-40.6
		C67.1,17.2,60.7,23.5,54,30.2z"/>
</g>
</svg>
