<?xml version="1.0" encoding="utf-8"?>
<!-- Generator: Adobe Illustrator 26.2.1, SVG Export Plug-In . SVG Version: 6.00 Build 0)  -->
<svg version="1.1" id="Calque_1" xmlns="http://www.w3.org/2000/svg" xmlns:xlink="http://www.w3.org/1999/xlink" x="0px" y="0px"
	 viewBox="0 0 212.3 166.4" style="enable-background:new 0 0 212.3 166.4;" xml:space="preserve">
<style type="text/css">
	.st0{fill:#0A1348;}
</style>
<g>
	<path class="st0" d="M200.7,155c-61,0-121.8,0-182.8,0c0-46,0-91.9,0-137.8c1-0.3,181.1-0.3,182.8,0
		C200.7,63.1,200.7,109,200.7,155z M39.6,29.8c0.6,0.6,1,1,1.4,1.4c14.3,14.6,28.7,29.2,43,43.7c6.4,6.5,12.9,13,19.3,19.5
		c1.1,1.1,2.2,2,3.7,2.3c3.4,0.8,6.4,0.3,8.9-2.3c8-8.1,16-16.1,24-24.1c13-13.1,26-26.2,39-39.2c0.3-0.3,0.7-0.7,1.1-1.2
		C133.1,29.8,86.5,29.8,39.6,29.8z M178.6,142.2c0.1-0.1,0.1-0.2,0.2-0.3c-15.2-15.5-30.4-31.1-45.6-46.7c-0.4,0.4-0.8,0.7-1.1,1.1
		c-2.4,2.4-4.8,4.9-7.3,7.3c-8.4,8.4-22,8.4-30.4-0.1c-2.5-2.6-5.1-5.2-7.6-7.7c-0.3-0.3-0.6-0.6-1-0.9
		c-15.2,15.6-30.4,31-45.5,46.5c-0.1,0.1-0.2,0.3-0.4,0.4v0.1c0,0,0,0.1,0.1,0.2C86.2,142.2,132.4,142.2,178.6,142.2z M76.8,85.9
		c-1.7-2.1-45.1-46-46.2-46.6c0,0.7,0,1.3,0,1.9c0,29.9,0,59.7,0,89.6c0,0.3,0,0.7,0,1s0.1,0.6,0.2,1
		C46.2,117.1,61.5,101.5,76.8,85.9z M142.2,86.2c15.2,15.6,30.4,31.1,45.7,46.8c0-31.1,0-61.8,0-92.9
		C172.6,55.6,157.4,70.8,142.2,86.2z"/>
</g>
</svg>
