<?xml version="1.0" encoding="UTF-8"?><svg xmlns="http://www.w3.org/2000/svg" viewBox="0 0 27.88 29.65"><defs><style>.d{fill:#0a1348;}</style></defs><g id="a"/><g id="b"><g id="c"><path class="d" d="M24.66,7.92c-.75,0-1.35,.2-1.84,.49-.16-.42-.4-.85-.77-1.23-.58-.58-1.37-.89-2.27-.89-.68,0-1.23,.16-1.69,.39-.49-1.19-1.47-1.89-2.76-1.89-.66,0-1.18,.13-1.6,.32v-1.39c0-.17-.02-1.68-1.08-2.75-.63-.63-1.49-.96-2.5-.96-2.58,0-3.26,2.66-3.26,4.07V14.37l-.33-.29c-.19-.19-1.91-1.87-3.67-1.84-.74,.02-1.4,.32-1.91,.89-1.9,2.13-.63,4.65,.32,5.7,.24,.25,5.89,6.26,8.72,8.1,.09,.06,.19,.13,.31,.23,1.02,.76,3.36,2.5,7.81,2.5,1.28,0,2.73-.14,4.37-.49,3.26-.7,4.97-3.49,5.18-5.8,.17-1.82,.18-11.68,.18-12.14-.06-1.33-.96-3.31-3.22-3.31Zm1.05,15.27c-.15,1.6-1.34,3.54-3.6,4.02-6.48,1.39-9.34-.74-10.57-1.65-.16-.12-.3-.22-.41-.29-2.62-1.71-8.29-7.73-8.34-7.78-.15-.17-1.46-1.72-.3-3.02,.14-.16,.27-.22,.46-.23h.02c.72,0,1.77,.83,2.22,1.28l1.92,1.74c.22,.2,.5,.27,.77,.24h.01c.55,0,1-.45,1-1V4.07c0-.08,.03-2.07,1.26-2.07,1.45,0,1.57,1.31,1.58,1.71V14.28c0,.55,.45,1,1,1s1-.45,1-1v-.08s.02-.07,.02-.12v-5.81s.02-.69,.44-1.11c.25-.26,.63-.38,1.14-.38,.25,0,.99,0,1.1,1.51v7.1h0c0,.55,.45,1,1,1s1-.45,1-1h0v-6.37c.1-.25,.42-.74,1.35-.74,1.23,0,1.34,1.29,1.35,1.68v6.44c0,.55,.45,1,1,1s1-.45,1-1v-5.03c.02-.35,.2-1.45,1.54-1.45,1.06,0,1.2,1.07,1.22,1.35,0,.1-.02,10.19-.17,11.92Z"/></g></g></svg>