<svg xmlns="http://www.w3.org/2000/svg" viewBox="0 0 158.475 36"><g transform="translate(9600.237 -108)"><path d="M-9449.475 112.233a2.345 2.345 0 0 0-2.522 2.392v2.751h2.472a2.51 2.51 0 0 0 2.673-2.6 2.5 2.5 0 0 0-2.622-2.542m-9.348 2.624a2.344 2.344 0 0 0 2.393 2.521h2.751v-2.471a2.509 2.509 0 0 0-2.6-2.671 2.5 2.5 0 0 0-2.541 2.621m2.619 9.347a2.343 2.343 0 0 0 2.521-2.392v-2.751h-2.472a2.509 2.509 0 0 0-2.671 2.6 2.5 2.5 0 0 0 2.621 2.542m9.35-2.623a2.343 2.343 0 0 0-2.393-2.522h-2.75v2.472a2.509 2.509 0 0 0 2.6 2.671 2.5 2.5 0 0 0 2.542-2.621" fill="#da291c"/><path d="M-9466.692 137.972h4.795l-5.16-6.588.154-.076c2.9-1.388 4.2-3.358 4.2-6.383 0-4.508-3.682-7.539-9.163-7.539h-9.66v20.586h3.876v-16.983h5.784c3.261 0 5.287 1.555 5.287 4.06 0 2.983-2.1 4.45-6.435 4.479v.4zm-31.258-21.254a10.844 10.844 0 0 0-10.96 10.961 10.843 10.843 0 0 0 10.96 10.96 10.844 10.844 0 0 0 10.962-10.96 10.845 10.845 0 0 0-10.962-10.961m0 18.319a7.067 7.067 0 0 1-7.082-7.358 7.065 7.065 0 0 1 7.082-7.358 7.065 7.065 0 0 1 7.082 7.358 7.066 7.066 0 0 1-7.082 7.358m-16.767 3.184h.393v-20.835h-3.875v12.925l-15.841-13.175h-.395v20.836h3.877v-12.884zm-65.105 0h.422l7.256-12.38 3.969 12.13h4.026l-6.843-20.836h-.4l-8.218 14.115-8.217-14.115h-.4l-6.843 20.836h4.026l3.841-11.745.126-.385zm18.436-.264h4.146l1.849-3.772h10.958l1.847 3.772h4.146l-11.118-20.857h-.708zm7.625-7.067l3.848-7.239 3.848 7.239z"/><rect transform="translate(-9600.237 108)" fill="none"/></g></svg>