<?xml version="1.0" encoding="utf-8"?>
<!-- Generator: Adobe Illustrator 26.2.1, SVG Export Plug-In . SVG Version: 6.00 Build 0)  -->
<svg version="1.1" id="Calque_1" xmlns="http://www.w3.org/2000/svg" xmlns:xlink="http://www.w3.org/1999/xlink" x="0px" y="0px"
	 viewBox="0 0 340.2 64.9" style="enable-background:new 0 0 340.2 64.9;" xml:space="preserve">
<style type="text/css">
	.st0{fill:#C8D2EA;}
</style>
<g id="c65otc.tif_00000023981690418309597350000010724300331015875217_">
	<g>
		<path class="st0" d="M61.5,64.9h-6.1c-0.9-5.3-1.9-10.6-2.8-16c-1-5.8-2-11.7-3-17.3c-5.9,10-11.8,20.1-17.9,30.5
			c-5.9-10.6-11.6-21-17.4-31.5c-0.8,4.5-1.6,8.8-2.4,13.1c-1.3,7-2.6,14.1-3.8,21.1H1.9c3.3-17.1,6.6-34.1,9.8-51
			c0.1,0,0.2,0,0.3-0.1c6.5,12,13,24,19.6,36.2c6.6-12.2,13.2-24.2,19.7-36.2c0.1,0,0.2,0,0.3,0C54.9,30.8,58.2,47.7,61.5,64.9z"/>
		<path class="st0" d="M183.8,16.5v48.3h-8c-11.5-12-22.9-23.8-34.5-35.9v35.9h-6V14.3c14.1,14.8,28.2,29.4,42.2,44
			c0.1-0.1,0.2-0.1,0.3-0.2V16.5H183.8z"/>
		<path class="st0" d="M287.1,48.6c4.1,5.4,8.1,10.8,12.2,16.2h-7.6c-5-6.6-10-13.3-14.9-19.9c-0.1-0.1-0.2-0.3-0.3-0.6
			c2.8-0.2,5.5-0.2,8.2-0.6c1.9-0.3,3.9-0.9,5.5-1.8c4.2-2.3,5.7-6,5.2-10.6c-0.5-4.4-3.1-7.1-7.1-8.3c-2-0.6-4.1-1-6.2-1
			c-4.9-0.1-9.8-0.1-14.7-0.1c-0.3,0-0.5,0-0.9,0.1v42.9h-6.2V16.3c0.3-0.1,0.6-0.1,0.8-0.1c7.9,0.1,15.8,0,23.7,0.2
			c4.8,0.2,9.2,1.8,12.8,5.3c6.2,5.9,7,20.9-6.4,25.7C290,47.8,288.6,48.2,287.1,48.6z"/>
		<path class="st0" d="M241.9,25.4C233,12.1,211.7,12,203,25.7c-3.5,5.5-5,11.5-5.1,18c0.1,1.7,0.2,3.5,0.4,5.2
			c0.1,1,0.3,2.1,0.6,3.1c1.1,5.2,3.3,9.6,6.5,12.9h10.4c-5.1-1.9-8.9-6.2-10.6-12.2c-0.8-2.9-1.1-5.9-1.6-8.9
			c0.3-4.2,0.9-8.3,2.6-12.1c3.2-7,8.7-10.4,16.4-10.3c7.5,0,13.1,3.4,16,10.4c3.3,7.7,3.3,15.6,0.2,23.4c-1.9,4.8-5.3,8.1-9.6,9.8
			h10.3c0.9-1,1.7-2,2.5-3.2C248.9,51.7,248.6,35.5,241.9,25.4z"/>
		<path class="st0" d="M98.5,13.9c-7.6,17.1-15,34-22.5,51h6.5c0.4-1.1,0.9-2.1,1.3-3.2c0.3-0.8,0.7-1.2,1.7-1.2
			c8.5,0.1,17,0.1,25.5,0c0.9,0,1.3,0.3,1.6,1.1c0.4,1.1,0.9,2.2,1.3,3.2h6.6C113.1,47.8,105.9,31,98.5,13.9z M86.9,54.9
			c3.8-9,7.6-17.7,11.5-26.9c3.8,9.1,7.6,18,11.3,26.9H86.9z"/>
		<path class="st0" d="M325.2,29c-0.8-0.2-2.1,0-2.5-0.5c-1-1.2-2.1-2.6-2.1-4c0-1.3,1.1-2.9,2.1-3.8c0.7-0.6,2.2-0.4,3.4-0.4
			c0.6,0,1.5-0.1,1.8,0.3c0.9,1.2,2.1,2.7,2.1,4c0,1.4-1.2,2.8-2.2,4C327.4,29.1,326.1,28.9,325.2,29z"/>
		<path class="st0" d="M316.5,5c0.9,0.1,2.1,0,2.6,0.5c1,1.2,2.1,2.7,2.1,4c0,1.4-1.1,2.9-2.2,4c-0.6,0.6-2.2,0.3-3.3,0.3
			c-0.6,0-1.5,0.1-1.8-0.3c-0.9-1.2-2.2-2.7-2.2-4s1.2-2.8,2.2-4C314.4,5,315.6,5.2,316.5,5z"/>
		<path class="st0" d="M333.9,5c1,0.1,2.2,0,2.7,0.5c1,1.1,2.2,2.6,2.2,4c0,1.3-1.1,3-2.2,3.9c-0.7,0.6-2.2,0.3-3.4,0.4
			c-0.6,0-1.5,0-1.8-0.3c-0.9-1.3-2.1-2.7-2.1-4s1.1-2.8,2.1-3.9C331.9,5,333.1,5.2,333.9,5z"/>
		<path class="st0" d="M325.4,0c0.9,0.2,2.1,0,2.5,0.5c1,1.1,2.1,2.6,2.1,3.9s-1.1,2.9-2.1,3.8c-0.6,0.6-2.1,0.4-3.2,0.4
			c-0.7,0-1.7,0.1-2-0.3c-0.9-1.2-2.1-2.6-2.1-3.9s1.1-2.8,2.1-3.9C323.2,0,324.5,0.2,325.4,0z"/>
		<path class="st0" d="M333.9,23.9c-0.9-0.2-2.1,0-2.5-0.6c-1-1.1-2.1-2.6-2.1-3.9s1.1-2.9,2.1-3.8c0.6-0.6,2.1-0.4,3.2-0.4
			c0.7,0,1.7,0,2,0.4c0.9,1.2,2.1,2.6,2.1,3.9c0,1.3-1.1,2.8-2.1,3.9C336.1,23.9,334.9,23.8,333.9,23.9z"/>
		<path class="st0" d="M316.6,15.1c0.8,0.2,2.1,0,2.6,0.6c1,1.1,2.1,2.6,2,3.9c0,1.3-1.1,2.8-2.1,3.8c-0.6,0.6-2,0.4-3.1,0.3
			c-0.7,0-1.8,0-2.1-0.4c-0.9-1.2-2.1-2.6-2.1-3.9s1.2-2.8,2.2-3.8C314.4,15.1,315.6,15.3,316.6,15.1z"/>
	</g>
</g>
</svg>
