<svg xmlns="http://www.w3.org/2000/svg" viewBox="0 0 200 35.43"><defs><style>.cls-1{fill:#fff;}</style></defs><g id="Calque_2" data-name="Calque 2"><g id="Calque_2-2" data-name="Calque 2"><path class="cls-1" d="M20.81,25.47l3.89-6.64L31.53,7.15a4.13,4.13,0,0,1,.61-.65c.17.23.43.43.51.69Q37.09,20.6,41.5,34c0,.13.07.26.12.47H36.23L30.91,18.3c-.27.4-.48.7-.66,1L21.64,33.93c-.76,1.28-.92,1.29-1.66,0q-4.31-7.3-8.6-14.62l-.65-1c-.17.48-.3.82-.42,1.16-1.54,4.71-3.1,9.41-4.61,14.13a1.16,1.16,0,0,1-1.38,1c-1.39-.07-2.78,0-4.32,0,.1-.4.16-.72.26-1Q4.56,20.46,8.88,7.38a5.3,5.3,0,0,1,.48-.87,3.87,3.87,0,0,1,.77.74q5,8.52,10,17.06C20.32,24.67,20.54,25,20.81,25.47Z"/><path class="cls-1" d="M82.12,6.34l21.54,17.84V6.92h5.2V35a9.41,9.41,0,0,1-1.15-.69Q97.86,26.17,88,18c-.26-.22-.54-.42-1-.75V34.49H81.87V6.59Z"/><path class="cls-1" d="M131,6A14.63,14.63,0,0,1,145.87,20.6a14.81,14.81,0,1,1-29.62,0A14.62,14.62,0,0,1,131,6Zm0,4.86a9.52,9.52,0,0,0-9.54,9.86,9.58,9.58,0,1,0,19.14,0A9.53,9.53,0,0,0,131,10.81Z"/><path class="cls-1" d="M172.79,25.71l7,8.85c-2.18,0-4.11,0-6.05,0a1.12,1.12,0,0,1-.76-.43q-3.94-5-7.86-10a6.14,6.14,0,0,1-.44-.86c1.15-.12,2.16-.15,3.13-.35a12.41,12.41,0,0,0,2.87-.89,5,5,0,0,0,2.8-4.86,4.8,4.8,0,0,0-2.88-4.58,6.57,6.57,0,0,0-2.49-.71c-3.15-.09-6.31,0-9.57,0V34.49h-5.2V7a4.22,4.22,0,0,1,.65-.1c4.42,0,8.84,0,13.27,0a13.59,13.59,0,0,1,7.46,2.31c5.12,3.41,5.83,12.6-.89,16Z"/><path class="cls-1" d="M76.35,34.54c-1.8,0-3.43,0-5.06,0a1.22,1.22,0,0,1-.79-.63c-.67-1.25-1.24-2.56-1.93-3.8a1.42,1.42,0,0,0-1-.63q-6.69-.06-13.37,0a1.42,1.42,0,0,0-1,.65c-.67,1.21-1.27,2.46-1.84,3.73a1.1,1.1,0,0,1-1.2.72c-1.52,0-3,0-4.71,0,.22-.44.35-.75.51-1q7-13.07,14-26.13a1.67,1.67,0,0,1,1-.84c.24,0,.69.44.88.78q7,13.11,14,26.23C76,33.8,76.13,34.09,76.35,34.54ZM60.89,15.29c-1.74,3.28-3.42,6.42-5.14,9.64H66Z"/><path class="cls-1" d="M193.18,6.85c0-1.53-.08-2.84,0-4.15A3,3,0,0,1,196.34,0,3.31,3.31,0,0,1,200,2.86a3.19,3.19,0,0,1-2.3,3.7A38.17,38.17,0,0,1,193.18,6.85Z"/><path class="cls-1" d="M190.78,6.7c-1.48,0-2.84.11-4.17,0-1.73-.17-2.7-1.52-2.65-3.38A3.27,3.27,0,0,1,186.84,0a3.33,3.33,0,0,1,3.93,3.38C190.82,4.47,190.78,5.55,190.78,6.7Z"/><path class="cls-1" d="M193.18,9.2c1.46,0,2.78-.07,4.09,0a3.1,3.1,0,0,1,2.7,3.65,3.37,3.37,0,0,1-3.73,3.1,3.26,3.26,0,0,1-3-3C193.1,11.74,193.18,10.53,193.18,9.2Z"/><path class="cls-1" d="M190.77,9.18c0,1.42.08,2.7,0,4A3.12,3.12,0,0,1,187.36,16a3.33,3.33,0,0,1-3.4-3.23,3.26,3.26,0,0,1,2.93-3.53,12.17,12.17,0,0,1,1.35,0Z"/></g></g></svg>