<?xml version="1.0" encoding="utf-8"?>
<!-- Generator: Adobe Illustrator 26.2.1, SVG Export Plug-In . SVG Version: 6.00 Build 0)  -->
<svg version="1.1" id="Calque_1" xmlns="http://www.w3.org/2000/svg" xmlns:xlink="http://www.w3.org/1999/xlink" x="0px" y="0px"
	 viewBox="0 0 354.3 41.8" style="enable-background:new 0 0 354.3 41.8;" xml:space="preserve">
<style type="text/css">
	.st0{fill:#C8D2EA;}
</style>
<g id="_x33_8fR8N.tif">
	<g>
		<path class="st0" d="M298.6,16.2c-1.4,0-2.8,0-4.1,0c-0.9,0-1.1,0.2-1.3,1.1c-0.1,0.4-0.2,0.9-0.3,1.4c-0.2-0.1-0.2-0.1-0.2-0.1
			c-3.2-2.6-6.9-3.1-10.8-2.3c-4.5,1-7.9,3.6-10.7,7.1c-0.9,1.1-1.6,2.4-2.4,3.6c0-0.3,0.1-0.4,0.1-0.6c2-8,4-16.1,6-24.1
			c0.3-1.2,0.1-1.5-1.1-1.5c-1.6,0-3.1,0-4.7,0c-0.6,0-1.1,0.2-1.5,0.7c-8.2,9.3-16.5,18.6-24.7,27.8c-0.2,0.2-0.3,0.4-0.6,0.7
			c0.1-0.4,0.1-0.6,0.1-0.9c1.9-9.1,3.8-18.1,5.7-27.2c0.2-0.8,0-1.1-0.9-1.1c-1.9,0-3.7,0-5.6,0c-0.6,0-1.1,0.2-1.5,0.7
			C229.6,13.7,219,25.8,208.4,38c-0.2,0.2-0.3,0.4-0.5,0.6c-0.1-0.2-0.1-0.2-0.1-0.3c-0.4-3.7-1.5-7.2-3-10.7
			c-1.8-4-4.6-7.1-8.8-8.8c-3.9-1.5-7.6-1.3-10.8,1.5c-0.2,0.2-0.4,0.3-0.7,0.4c0-0.1-0.1-0.1-0.1-0.1c0.1-0.2,0.3-0.4,0.4-0.6
			c1.9-2.3,4.5-3.4,7.4-3.6c4.2-0.2,7.8,1.4,10.9,4.1c2.8,2.4,4.5,5.7,6.1,8.9c0.2,0.4,0.4,0.8,0.6,1.2h0.2c0.3-1.7,0.5-3.4,0.8-5.1
			c0-0.2-0.1-0.5-0.3-0.6c-1.9-2.5-4.1-4.9-6.7-6.7c-3.7-2.6-7.9-3.9-12.4-3c-3.8,0.7-6.7,2.8-8,6.6c-0.1,0.3-0.3,0.6-0.4,1
			c-0.1-0.2-0.1-0.3-0.1-0.4c0.4-3.6,2.4-6.1,5.4-7.8c3.7-2,7.6-2.2,11.6-1.2c3.7,0.9,6.8,2.9,9.8,5.1c0.2,0.1,0.4,0.2,0.5,0.4
			c0.1,0,0.2-0.1,0.2-0.1c-0.7-1.8-1.5-3.7-2.2-5.5c-0.1-0.2-0.3-0.4-0.5-0.5c-4.1-1.6-8.3-2.9-12.8-2.5c-3.5,0.4-6.7,1.6-9.2,4
			s-3.8,5.4-3.2,8.9c0.1,0.4,0.1,0.9,0.2,1.3c-0.2-0.1-0.3-0.3-0.4-0.4c-0.9-2.3-1-4.6-0.2-6.9c1.5-4.3,4.7-6.9,8.8-8.6
			c3.3-1.4,6.8-1.4,10.4-1.2c0.9,0.1,1.8,0.1,2.9,0.2c-1.5-1.5-2.9-2.7-4.5-3.7c-0.1-0.1-0.4-0.1-0.6,0c-2.5,0.6-5.1,1-7.5,1.8
			c-4.4,1.5-7.8,4.3-9.8,8.5c-1.9,4.1-1.8,8,1.2,11.6c0.2,0.2,0.4,0.5,0.5,0.7c-0.3,0-0.5-0.2-0.7-0.3c-2.4-2-3.6-4.6-3.7-7.7
			c-0.1-4.5,1.7-8.2,4.8-11.3c2.5-2.6,5.7-4.2,9-5.7c0.2-0.1,0.4-0.2,0.8-0.4c-2-0.5-3.9-0.9-5.8-0.9c-0.4,0-0.9,0.1-1.2,0.4
			C185.1,2,183.5,3.4,182,5c-3.6,3.9-5.4,8.5-4.6,13.8c0.6,4,2.7,7,6.6,8.4c0.3,0.1,0.6,0.3,0.9,0.4c-0.3,0.1-0.5,0.1-0.8,0.1
			c-3.3-0.5-5.7-2.4-7.3-5.2c-2-3.6-2.3-7.4-1.4-11.3c0.8-3.5,2.7-6.5,4.7-9.4c0.1-0.2,0.3-0.4,0.4-0.6c-0.1-0.1-0.1-0.2-0.2-0.2
			c-1.6,0.7-3.1,1.4-4.7,2c-0.2,0.1-0.3,0.3-0.3,0.4c-1.5,4-2.8,8.1-2.3,12.5c0.4,3.7,1.8,7,4.6,9.6c2.4,2.2,5.3,3.2,8.6,2.6
			c0.4-0.1,0.8-0.1,1.3-0.1c-1.2,0.8-3.5,1.3-5.2,1.1c-2.8-0.3-5.2-1.6-7.2-3.5c-3.4-3.4-5-7.6-5.1-12.3c0-2.1,0.1-4.2,0.1-6.4
			c-1.5,1.4-2.7,3-3.8,4.8c-0.1,0.2-0.1,0.4,0,0.6c0.6,2.4,1,4.9,1.8,7.2c1.5,4.3,4.2,7.6,8.3,9.5c4.1,2,8.2,1.9,11.8-1.2
			c0.2-0.2,0.4-0.3,0.8-0.5c-0.8,1.6-2.7,3.1-4.6,3.8c-3.5,1.2-6.8,0.8-10.1-0.7c-5.8-2.8-8.7-7.9-11-13.6c-0.2-0.6-0.6-0.9-1.2-0.9
			c-1.5,0-2.9,0-4.4,0c-0.6,0-0.9,0.2-1.1,0.7c-0.2,0.5-0.4,1.1-0.5,1.4c-1.6-0.7-3.1-1.6-4.7-2c-2.2-0.6-4.4-0.4-6.6,0.1
			c-4.9,1.3-8.5,4.3-11.3,8.5c-0.8,1.2-1.4,2.6-2.1,3.9c0.7-3.8,1.3-7.5,1.9-11.2c0.2-1.1-0.1-1.5-1.2-1.5c-1.4,0-2.8,0-4.1,0
			c-1.2,0-1.4,0.1-1.6,1.3c-1.5,8.3-3,16.6-4.6,24.9h7.3c0.2-1.2,0.4-2.3,0.6-3.5c0.2-1.4,0.5-2.8,0.7-4.2c0.1,0,0.1,0,0.2,0
			c0,0.3,0,0.7,0,1c0.1,2.4,0.7,4.7,2,6.6h26c0.9-5,1.9-10,2.8-15.1c0.2-1.3,0.5-2.5,0.8-4c0.2,0.3,0.3,0.5,0.5,0.6
			c2,1.9,3.9,4,6.1,5.8c3.7,3.1,8,4.3,12.8,3.5c3.9-0.6,6.8-2.7,8.2-6.5c0.1-0.3,0.3-0.6,0.4-1c0.1,0.1,0.1,0.2,0.1,0.4
			c-0.3,2.6-1.5,4.8-3.5,6.4c-3.4,2.8-7.4,3.5-11.7,2.9c-2.7-0.4-5.2-1.5-7.5-2.9c-1.4-0.8-2.7-1.7-4-2.5c0.5,2,1.2,3.8,2.1,5.6
			c0.1,0.1,0.3,0.3,0.4,0.3c3.7,1.4,7.5,2.6,11.5,2.3c3.5-0.2,6.7-1.3,9.4-3.7c2.8-2.4,4.2-5.4,3.7-9.1c-0.1-0.5-0.1-1-0.2-1.5
			c0.2,0.1,0.3,0.2,0.4,0.4c0.8,1.9,1,3.8,0.5,5.8c-0.9,3.9-3.4,6.6-6.8,8.6c-3.6,2.1-7.6,2.5-11.7,2.4c-1.1,0-2.1-0.1-3.2-0.2
			c0,0.1-0.1,0.1-0.1,0.2c0.6,0.4,1.1,0.9,1.7,1.4h10.1c0.1,0,0.2-0.1,0.2-0.1c4.3-1.4,7.7-4.2,9.7-8.4c1.9-4.1,1.9-8.1-1.2-11.7
			c-0.2-0.2-0.4-0.5-0.5-0.7c0.3,0.1,0.6,0.2,0.8,0.4c2.4,2,3.5,4.5,3.6,7.6c0.1,4.5-1.7,8.3-4.8,11.4c-0.5,0.6-1.1,1.1-1.7,1.5h4.2
			c3.2-3.8,4.8-8.2,4.1-13.2c-0.6-4-2.7-7-6.6-8.4c-0.3-0.1-0.6-0.3-1.1-0.5c0.3,0,0.3-0.1,0.4-0.1c0.1,0,0.3,0,0.4,0.1
			c3.3,0.5,5.8,2.4,7.4,5.2c2.2,4,2.4,8.2,1.1,12.5c-0.5,1.6-1.1,3-1.9,4.4h3.5c1-2.9,1.7-5.9,1.5-9.1c-0.2-3.6-1.3-6.8-3.7-9.6
			c-2.6-2.9-5.8-4.4-9.8-3.6c-0.3,0-0.6,0-0.8,0c0.1-0.2,0.3-0.3,0.5-0.4c1.9-0.8,3.8-0.9,5.8-0.4c3.9,1,6.6,3.4,8.6,6.8
			c1.8,3,2.4,6.3,2.6,9.7c0.1,2.2,0.1,4.4-0.5,6.5H214c7.4-8.8,14.8-17.6,22.2-26.5c0.1-0.2,0.3-0.3,0.5-0.5
			c-0.8,4.6-1.8,9.2-2.7,13.7c-0.9,4.4-1.9,8.9-2.8,13.3h9.3c7.5-8.7,14.9-17.5,22.4-26.2c0.2-0.2,0.3-0.3,0.5-0.5
			c0,0.9-0.2,1.7-0.4,2.5c-1.9,8.1-3.8,16.1-5.7,24.2h7.7c0.1-0.5,0.2-1,0.4-1.5c0.5-2.2,1.1-4.4,1.7-6.7c0.2,0.3,0.2,0.7,0.2,1
			c0,2.6,0.6,5,2.1,7.2h26c0.5-2.8,1-5.5,1.6-8.3c1-5.5,2-11.1,3-16.6C300,16.6,299.6,16.2,298.6,16.2z M151.4,37.8
			c-0.5,0.5-1.1,1-1.7,1.4c-2.3,1.7-4.9,2-7.7,1.4c-1.3-0.3-2.3-1.1-3.1-2.2c-1.4-2.1-1.9-4.3-1.2-6.7c1.2-4.2,3.8-7.2,8.1-8.5
			c1.4-0.4,2.9-0.3,4.4,0.1c3,0.9,4.7,3.5,4.7,7.6C154.9,33.3,153.5,35.7,151.4,37.8z M291.3,31.2c-0.8,4.5-3.5,7.6-7.7,9.2
			c-1.9,0.8-4,0.6-5.9-0.1c-0.7-0.3-1.4-0.8-1.9-1.3c-1.2-1.5-2-3.1-2-5.1c0-4.2,3.2-8.9,7.2-10.3c1.7-0.6,3.4-0.8,5.1-0.4
			C289.7,24.1,292,27.5,291.3,31.2z"/>
		<path class="st0" d="M125.6,7.3c-1.4,0-2.8,0-4.2,0c-0.9,0-1.1,0.2-1.3,1c-0.5,2.2-0.9,4.3-1.3,6.5c-0.3,1.2-0.5,2.5-0.8,3.8
			c-0.3-0.2-0.5-0.4-0.7-0.5c-1.3-0.6-2.6-1.5-4-1.8c-2.2-0.6-4.4-0.5-6.6,0.1c-6.2,1.7-10.3,5.8-12.9,11.6
			c-0.1,0.2-0.2,0.5-0.3,0.7c-0.1-0.1-0.1-0.1-0.1-0.1c0-0.2,0-0.3-0.1-0.5c-0.3-2.2-0.7-4.4-1.9-6.3c-3.1-5-8.8-6.4-13.3-5.5
			C72.3,17.5,68,20.8,65,25.9c-0.1,0.2-0.2,0.4-0.3,0.6c-0.1-0.3,0-0.5,0-0.7c1.9-7.9,3.9-15.8,5.8-23.6c0.3-1.1,0-1.3-1.1-1.3
			c-1.6,0-3.3,0-4.9,0c-0.4,0-1,0.2-1.2,0.6C54.9,10.7,46.7,20,38.4,29.4c-0.2,0.2-0.4,0.4-0.6,0.7c0-0.2,0-0.3,0-0.4
			c0.5-2.4,1-4.8,1.5-7.2c1.3-6.8,2.7-13.6,4.1-20.4c0.2-1,0-1.3-1.1-1.3c-1.8,0-3.5,0-5.3,0c-0.6,0-1,0.2-1.3,0.6
			C23.8,15.1,12,28.8,0.1,42.5h9.5c7.3-8.8,14.7-17.5,22-26.3c0.2-0.2,0.4-0.5,0.6-0.7c0,0,0.1,0,0.1,0.1c0,0.3-0.1,0.6-0.1,0.8
			c-1.8,8.7-3.7,17.4-5.5,26.1H36c7.4-8.7,14.9-17.4,22.4-26.1c0.2-0.2,0.4-0.4,0.5-0.6C59,16,59,16.1,59,16.2
			c-2.1,8.8-4.1,17.5-6.2,26.3h7.7c0.6-2.3,1.1-4.5,1.7-6.8c0.1-0.2,0.1-0.5,0.2-0.8c0.1,0.2,0.1,0.2,0.1,0.2c0,0.2,0,0.4,0,0.7
			c0.2,2.4,0.6,4.7,2.1,6.7h22.7c1.2-1.2,2.2-2.6,3.1-4.3c0.5-0.9,0.1-1.5-1-1.6c-1.4,0-2.8,0-4.2,0c-0.6,0-1,0.2-1.4,0.6
			c-1.9,2-4.1,3.4-6.9,3.7c-3.5,0.4-6.8-1.8-7.5-5.2c-0.2-0.8-0.1-0.9,0.7-0.9h22.3c0,0,0,0,0,0.1c0,0.4,0,0.7,0,1.1
			c0.1,2.3,0.7,4.5,2,6.4h26c1.2-6.4,2.4-12.8,3.6-19.2c0.9-4.9,1.8-9.7,2.7-14.6C126.9,7.6,126.6,7.3,125.6,7.3z M71.5,28
			c0-0.1,0-0.2,0.1-0.3c1.7-2.9,6.2-5.9,10.9-3.9c1.8,0.8,3,2.1,3.5,4.2H71.5z M115.5,34.3c-1.1,2.1-2.7,3.9-4.7,5.2
			c-2.3,1.5-4.8,1.7-7.4,1.1c-1.3-0.3-2.2-1.1-2.9-2.2c-1.4-2.1-1.9-4.4-1.1-6.8c1.3-4.2,3.8-7.2,8.2-8.4c1.5-0.4,2.9-0.3,4.4,0.1
			c2.9,0.9,4.7,3.5,4.7,7C116.6,31.7,116.2,33,115.5,34.3z"/>
		<path class="st0" d="M351.4,16.2h-5.2c0-0.3,0-0.5,0-0.7c0.4-2.3,0.8-4.6,1.2-6.9c0.2-1-0.1-1.4-1.1-1.4c-1.3,0-2.6,0-3.9,0
			c-1.9,0-1.9,0-2.2,1.9c-0.4,2.3-0.8,4.7-1.2,7c-1.2,0.1-2.4,0.1-3.5,0.2c-0.4,0-0.8-0.1-1.2-0.1c-1.7,0-3.5,0-5.2,0
			c-0.6,0-1.1,0.2-1.5,0.7c-2.1,2.4-4.3,4.8-6.4,7.2c-0.2,0.2-0.3,0.4-0.4,0.6c-0.1-0.1-0.1-0.1-0.2-0.2c0-0.3,0.1-0.6,0.1-0.9
			c0.9-5.1,1.7-10.1,2.6-15.2c0.1-0.7-0.2-1.1-0.9-1.2c-1.7,0-3.4,0-5.1,0c-0.6,0-0.9,0.3-1,0.9c-0.1,0.9-0.3,1.7-0.4,2.6
			c-0.3,1.8-0.6,3.5-0.9,5.2c-2.6-0.3-4.7,0.8-6.8,1.9c0-1.6-0.1-1.7-1.7-1.7c-1.2,0-2.4,0-3.6,0c-1.1,0-1.3,0.2-1.5,1.2
			c-1.5,8.4-3.1,16.7-4.6,25.1h6.6c0.7-3.3,1.3-6.6,2-9.9c0.4-1.8,0.7-3.6,1.3-5.3c1.1-3,4.1-4.9,7-4.7c0,0.2,0,0.3,0,0.5
			c-1.1,6.5-2.2,13-3.3,19.4h7.1c0.1-0.7,0.3-1.4,0.4-2.1c0.3-2,0.7-3.9,1.1-6.1c0.3,0.4,0.4,0.6,0.6,0.8c1.6,2.5,3.2,4.9,4.9,7.4
			h8.5c-2.5-4-4.9-7.9-7.4-11.9c-0.2-0.4-0.3-0.6,0-1c3.1-3.7,6.2-7.4,9.3-11.2c0.1-0.1,0.1-0.2,0.1-0.2c0.1,0,0.1,0.1,0.2,0.1
			c-0.2,1-0.4,2-0.6,3s0.1,1.4,1.2,1.4c0.6,0,1.2,0,1.8,0c0,0,0.1,0,0.2,0.1c-1.1,6.5-2.1,13-3.2,19.6h7.1c0.3-1.7,0.6-3.5,0.9-5.2
			c0.8-4.6,1.6-9.2,2.4-13.8c0.1-0.6,0.3-0.8,0.9-0.8c1.7,0.1,3.3,0,5,0c0.9,0,1.2-0.2,1.3-1.1c0.2-1.2,0.4-2.5,0.6-3.7
			C353.1,16.4,353,16.2,351.4,16.2z"/>
		<path class="st0" d="M130.5,15.2c-0.9,0-1.7,0-2.6,0c-0.7,0-1.1-0.4-1-1.1c0.3-2,0.7-4,1.1-6c0.1-0.5,0.5-0.8,1-0.8
			c1.8,0,3.5,0,5.3,0.1c0.6,0,0.9,0.4,0.8,1c-0.3,2-0.6,4-1,6c-0.1,0.5-0.5,0.8-1,0.8C132.3,15.2,131.4,15.2,130.5,15.2z"/>
	</g>
</g>
</svg>
