<svg xmlns="http://www.w3.org/2000/svg" viewBox="0 0 200 26.65"><defs><style>.cls-1{fill:#fff;}</style></defs><g id="Calque_2" data-name="Calque 2"><g id="Calque_2-2" data-name="Calque 2"><path class="cls-1" d="M86.88,25l-.6.33A10,10,0,0,1,82,26.56a6.27,6.27,0,0,1-5.65-2.91,6.91,6.91,0,0,1-1.22-3.83,1.34,1.34,0,0,0-.1-.58c-.11.62-.23,1.23-.33,1.85-.26,1.48-.51,2.95-.77,4.42-.09.55-.21.64-.75.64H70.5c-.55,0-.72-.22-.62-.78q1.45-7.92,2.9-15.84c.13-.68.23-.77.91-.77H76c.65,0,.8.21.69.86-.36,2.07-.72,4.13-1,6.22l.18-.4a11,11,0,0,1,7.26-6.55,7,7,0,0,1,3.72-.08,13.37,13.37,0,0,1,2.25,1,3.39,3.39,0,0,1,.34.23,5.19,5.19,0,0,1,.37-.92.82.82,0,0,1,.55-.37c.86,0,1.72,0,2.58,0,.33,0,.47.18.59.49,1.22,3.05,2.74,5.87,5.8,7.48a7.29,7.29,0,0,0,6,.6,4.57,4.57,0,0,0,2.52-2.06c-.13.09-.28.16-.4.26a5.69,5.69,0,0,1-6.53.7,8.9,8.9,0,0,1-4.78-5.43c-.44-1.31-.69-2.68-1-4a.5.5,0,0,1,0-.34,12.74,12.74,0,0,1,2.11-2.67c0,1.19-.08,2.36-.07,3.54a9.83,9.83,0,0,0,1.56,5.37,7.4,7.4,0,0,0,4.74,3.48,5.25,5.25,0,0,0,3.13-.3l.22-.1s0-.07.1-.14c-.42.06-.79.12-1.16.15a5.86,5.86,0,0,1-5.63-3.09A9,9,0,0,1,99,5.84c.27-1.32.72-2.61,1.11-3.91a.9.9,0,0,1,.44-.48c.72-.32,1.46-.6,2.19-.89.09,0,.2,0,.28-.06-.6,1-1.22,2-1.78,3A9.67,9.67,0,0,0,100,9.42a6.63,6.63,0,0,0,3.68,5.65,11.73,11.73,0,0,0,1.77.55l.06-.16c-.17-.08-.33-.18-.5-.24a5.54,5.54,0,0,1-3.75-4.78,9,9,0,0,1,2.5-7.65c.84-.92,1.81-1.73,2.72-2.59a.63.63,0,0,1,.34-.2,11.65,11.65,0,0,1,3.45.48c-1.09.6-2.2,1.17-3.27,1.81a9.63,9.63,0,0,0-4.33,5.19,6.68,6.68,0,0,0,.21,5.43,4.34,4.34,0,0,0,1.82,1.9,4.27,4.27,0,0,0-.29-.41,5.73,5.73,0,0,1-.7-6.57,9.15,9.15,0,0,1,5.37-4.74A20.13,20.13,0,0,1,113.46,2a.41.41,0,0,1,.31,0l2.49,1.88-.07.15L114.71,4a12.88,12.88,0,0,0-6.29.86,8,8,0,0,0-4.61,4.89,4.84,4.84,0,0,0,.35,3.88,2.16,2.16,0,0,0,0-.44,5.59,5.59,0,0,1,2.37-5.82,8.86,8.86,0,0,1,7.39-1.62,42.23,42.23,0,0,1,4.22,1.22.77.77,0,0,1,.43.38c.42,1,.81,2,1.21,3l-.13.08-.3-.22a16.49,16.49,0,0,0-5.51-2.87,8.6,8.6,0,0,0-6.89.91,5.51,5.51,0,0,0-2.67,4.1c0,.05,0,.11,0,.16a1.34,1.34,0,0,0,0,.14,5.77,5.77,0,0,0,.27-.58,5.62,5.62,0,0,1,5.07-3.77,9.14,9.14,0,0,1,7.5,2.65c1,.89,1.79,1.9,2.67,2.86a.59.59,0,0,1,.18.39c-.13,1-.28,1.89-.42,2.84l-.11,0c-.41-.8-.81-1.62-1.25-2.41a10.94,10.94,0,0,0-3.69-4.18,7.8,7.8,0,0,0-6.39-1.19,5.15,5.15,0,0,0-2.77,1.85.44.44,0,0,0-.11.32,3.11,3.11,0,0,0,.38-.25,5.59,5.59,0,0,1,6.09-.85,9,9,0,0,1,5.09,5.29,22.34,22.34,0,0,1,1.5,5.62s0,.07.08.16l.31-.33q8.9-10.28,17.8-20.55a1,1,0,0,1,.84-.38c1,0,2,0,3,0,.62,0,.72.13.6.73q-1.61,7.61-3.19,15.21c0,.12,0,.25-.06.48.16-.18.27-.28.36-.39Q145,8.31,152,.48a1,1,0,0,1,.85-.38c.85,0,1.69,0,2.54,0s.89.09.69.87l-3.33,13.54a.5.5,0,0,0,0,.32c.1-.19.2-.38.31-.56a10.88,10.88,0,0,1,6.69-5.38,7.06,7.06,0,0,1,3.76-.08,13.38,13.38,0,0,1,2.3,1.09,3.87,3.87,0,0,1,.39.28c.06-.29.12-.53.17-.77.11-.56.23-.66.79-.66h2.29c.57,0,.75.19.66.74q-.79,4.44-1.6,8.88c-.44,2.39-.9,4.78-1.35,7.17-.1.5-.21.6-.7.6-.76,0-1.53,0-2.29,0s-.82-.17-.7-.84a2.82,2.82,0,0,0,0-.34l-.46.25a9.91,9.91,0,0,1-4.41,1.34A6.25,6.25,0,0,1,153,23.7a7.06,7.06,0,0,1-1.26-4.19,3.89,3.89,0,0,0,0-.49s0,0-.08-.1l-.85,3.46c-.27,1.07-.54,2.14-.79,3.21a.54.54,0,0,1-.63.48c-1.05,0-2.1,0-3.15,0-.48,0-.6-.16-.49-.63l3.48-14.8a17.67,17.67,0,0,0,.39-2.12l-.25.27L134.92,25.66a1,1,0,0,1-.87.4c-.81,0-1.63,0-2.45,0-.49,0-.61-.13-.51-.62.61-2.87,1.24-5.74,1.85-8.61s1.14-5.51,1.71-8.27c0-.06,0-.12,0-.27-.15.16-.25.25-.33.35q-7.14,8.52-14.27,17.05a.89.89,0,0,1-.79.38c-1.31,0-2.62,0-3.93,0-.52,0-.69-.26-.42-.69a6.79,6.79,0,0,0,1.07-3.3,13.52,13.52,0,0,0-1.43-7.63,7.52,7.52,0,0,0-4.81-3.84,5.12,5.12,0,0,0-3.32.26.37.37,0,0,0-.22.21L107,11a5.45,5.45,0,0,1,4.71,1.57,8.26,8.26,0,0,1,2.5,5.14,14.93,14.93,0,0,1-1.33,7.39c0,.09-.11.21-.2.24-1,.37-2,.73-3,1.08,0,0,0,0-.1,0,.17-.23.33-.44.48-.66a15.62,15.62,0,0,0,2.63-5.27A8.6,8.6,0,0,0,112,14a5.55,5.55,0,0,0-4.14-3,2,2,0,0,0-.24,0l-.25,0c.27.13.44.23.61.29a5.54,5.54,0,0,1,3.75,4.78,9.1,9.1,0,0,1-2.56,7.71c-.86.93-1.83,1.75-2.76,2.61a1,1,0,0,1-.51.19,8.78,8.78,0,0,1-3.38-.55l.41-.18A16.39,16.39,0,0,0,108,22.65a8.56,8.56,0,0,0,2.7-6.4,5.49,5.49,0,0,0-2-4.25l-.26-.2a.29.29,0,0,0-.2,0c.09.14.18.28.28.41a5.72,5.72,0,0,1,.65,6.67,9.05,9.05,0,0,1-5.58,4.73c-1.32.42-2.69.66-4,1a.41.41,0,0,1-.31,0c-.75-.57-1.49-1.16-2.24-1.74l.07-.12c.58,0,1.15.09,1.73.11A12.08,12.08,0,0,0,105,21.66a7.84,7.84,0,0,0,4.16-4.74,5.14,5.14,0,0,0-.18-3.56.37.37,0,0,0-.21-.22l.09.81a5.57,5.57,0,0,1-2.09,5.14,8.5,8.5,0,0,1-5.26,2.06,15.37,15.37,0,0,1-6.48-1.28.45.45,0,0,1-.25-.19,12.08,12.08,0,0,1-1.2-3.13c.78.49,1.51,1,2.27,1.42a11.35,11.35,0,0,0,4.24,1.62A8.26,8.26,0,0,0,106.68,18a5.22,5.22,0,0,0,2-3.69.49.49,0,0,0,0-.12l-.06-.08a5.24,5.24,0,0,0-.24.56,5.56,5.56,0,0,1-4.65,3.7,8.73,8.73,0,0,1-7.2-2c-1.2-1-2.27-2.15-3.4-3.24a1.2,1.2,0,0,1-.15-.24l-.12.05c-.14.71-.28,1.42-.41,2.14q-1,5.19-1.91,10.39c-.12.64-.2.7-.86.7H87.57c-.69,0-.82-.15-.73-.82Zm1.87-8.19a3.88,3.88,0,0,0-2.66-4,4.38,4.38,0,0,0-2.46-.06,6.43,6.43,0,0,0-4.58,4.76,4.38,4.38,0,0,0,.82,4,2.49,2.49,0,0,0,1.46,1,5.06,5.06,0,0,0,4.15-.58A7.52,7.52,0,0,0,88.13,19,4.69,4.69,0,0,0,88.75,16.77Zm66.76,2a4.2,4.2,0,0,0,1.1,2.87,2.6,2.6,0,0,0,1,.75,4.48,4.48,0,0,0,3.32.06,6.66,6.66,0,0,0,4.35-5.2,3.84,3.84,0,0,0-2.55-4.41,4.68,4.68,0,0,0-4.34.72A6.48,6.48,0,0,0,155.51,18.73Z"/><path class="cls-1" d="M36.7,19.32c-.07.23-.13.45-.19.68-.46,1.86-.93,3.72-1.37,5.58a.54.54,0,0,1-.62.49c-1.05,0-2.1,0-3.15,0-.51,0-.62-.15-.5-.66l3.9-16.68a2,2,0,0,0,0-.29l-.36.39L20.05,25.66a1,1,0,0,1-.87.4c-.83,0-1.66,0-2.49,0-.44,0-.56-.16-.47-.59L19.64,9.28a3.46,3.46,0,0,0,.11-.92l-.38.42q-7.08,8.45-14.14,16.9a.94.94,0,0,1-.83.39c-1.28,0-2.57,0-3.85,0C.36,26,.07,26,0,25.82a.67.67,0,0,1,.18-.56L21.68.49A1,1,0,0,1,22.52.1c1,0,1.94,0,2.91,0,.61,0,.72.13.6.74L24,11c-.37,1.79-.73,3.59-1.1,5.38l.16.14a1.22,1.22,0,0,1,.14-.33L37.12.48A1,1,0,0,1,37.93.1c.9,0,1.8,0,2.7,0,.64,0,.75.14.6.76Q39.6,7.52,38,14.17a.7.7,0,0,0,0,.38c.18-.3.35-.6.54-.89a10.65,10.65,0,0,1,7-4.85A7.07,7.07,0,0,1,53,11.91a8.44,8.44,0,0,1,1,3.57.74.74,0,0,0,.1.31c.06-.12.12-.24.17-.36a11,11,0,0,1,7.27-6.54,6.92,6.92,0,0,1,3.72-.08A20.72,20.72,0,0,1,67.91,10c.08-.35.18-.8.28-1.26.31-1.46.61-2.93.91-4.39a.62.62,0,0,1,.7-.58c.8,0,1.61,0,2.41,0,.55,0,.72.2.63.74-.45,2.45-.9,4.89-1.36,7.34q-1.2,6.49-2.41,13c-.06.31-.11.62-.17.92a.49.49,0,0,1-.52.43c-.89,0-1.77,0-2.66,0-.4,0-.58-.25-.52-.65,0-.15,0-.3.08-.53-.4.22-.73.4-1.07.57a9.65,9.65,0,0,1-3.79,1,6.27,6.27,0,0,1-5.63-2.87,6.88,6.88,0,0,1-1.24-3.79c0-.23,0-.45,0-.63H41c-.52,0-.54,0-.42.54a3.83,3.83,0,0,0,4.24,2.9,6.27,6.27,0,0,0,3.83-2.08,1.05,1.05,0,0,1,.85-.37c.79,0,1.59,0,2.38,0,.6,0,.81.34.52.88a9.81,9.81,0,0,1-7.1,5.23,7.09,7.09,0,0,1-6.39-1.7,6.78,6.78,0,0,1-2.15-5c0-.11,0-.21,0-.32Zm30.44-2.66.12,0a13.31,13.31,0,0,0-.59-2A3.9,3.9,0,0,0,62,12.71a6.36,6.36,0,0,0-4.57,4.72,4.36,4.36,0,0,0,.63,3.81,2.71,2.71,0,0,0,1.66,1.23,5.09,5.09,0,0,0,4.16-.61A7.57,7.57,0,0,0,66.54,19,4.62,4.62,0,0,0,67.14,16.66ZM50,15.39A3.28,3.28,0,0,0,47.91,13a5.11,5.11,0,0,0-6,2.19,1.44,1.44,0,0,0-.07.23Z"/><path class="cls-1" d="M196.17,8.76h3c.76,0,.89.16.77.89s-.23,1.42-.35,2.13c-.1.53-.23.64-.76.64-.91,0-1.83,0-2.74,0-.34,0-.5.07-.56.44-.35,2.12-.72,4.23-1.09,6.35l-1.08,6.27c-.09.49-.21.6-.71.6h-6.58a.76.76,0,0,1-.69-.4c-1.38-2.11-2.77-4.21-4.15-6.31l-.32-.48c-.14.74-.25,1.37-.36,2-.28,1.52-.55,3.05-.82,4.57-.1.54-.2.62-.73.62-.88,0-1.75,0-2.62,0-.51,0-.68-.23-.6-.73Q176.88,19,178,12.6a1.22,1.22,0,0,0,0-.27,4,4,0,0,0-4,2.77,25.56,25.56,0,0,0-.76,3.25q-.75,3.57-1.45,7.16a.64.64,0,0,1-.73.58c-.72,0-1.45,0-2.17,0s-.83-.21-.72-.85q1.46-7.92,2.9-15.84c.1-.58.22-.67.82-.67h2.2c.65,0,.79.17.71.81,0,0,0,.08,0,.16a5.88,5.88,0,0,1,3.8-1.08c.17-.94.34-1.92.51-2.91.08-.5.17-1,.24-1.49a.53.53,0,0,1,.57-.52c1,0,1.91,0,2.87,0,.4,0,.57.24.5.66q-.57,3.31-1.13,6.63l-.42,2.44.13.08c.08-.11.16-.24.25-.35l3.61-4.07a1,1,0,0,1,.84-.39c1,0,1.94,0,2.91,0,.24,0,.49.08.72.06l2-.1c.23-1.32.46-2.63.67-3.95.17-1.05.16-1.05,1.23-1.05h2.16c.56,0,.72.22.63.77-.23,1.29-.45,2.58-.67,3.86C196.18,8.47,196.19,8.58,196.17,8.76Zm-4.64,3.66H190.4c-.65,0-.81-.2-.69-.82s.21-1.13.31-1.69l-.12-.06a.51.51,0,0,1-.07.15c-1.73,2.09-3.46,4.19-5.21,6.29a.41.41,0,0,0,0,.56q2.31,3.69,4.6,7.38l.24.36h.1Z"/><path class="cls-1" d="M75,8.16H73.57c-.46,0-.64-.21-.57-.67.19-1.11.4-2.22.6-3.33a.52.52,0,0,1,.55-.44c1,0,2,0,3,0a.46.46,0,0,1,.48.58c-.17,1.12-.37,2.25-.56,3.37a.53.53,0,0,1-.58.46Z"/></g></g></svg>