<?xml version="1.0" encoding="utf-8"?>
<!-- Generator: Adobe Illustrator 26.2.1, SVG Export Plug-In . SVG Version: 6.00 Build 0)  -->
<svg version="1.1" id="Calque_1" xmlns="http://www.w3.org/2000/svg" xmlns:xlink="http://www.w3.org/1999/xlink" x="0px" y="0px"
	 viewBox="0 0 42.5 25.5" style="enable-background:new 0 0 42.5 25.5;" xml:space="preserve">
<style type="text/css">
	.st0{fill:#FFFFFF;}
</style>
<path class="st0" d="M39.7,7.1h-37c-0.8,0-1.5-0.7-1.5-1.5v0c0-0.8,0.7-1.5,1.5-1.5h37c0.8,0,1.5,0.7,1.5,1.5v0
	C41.2,6.4,40.5,7.1,39.7,7.1z"/>
<path class="st0" d="M39.7,14.3h-37c-0.8,0-1.5-0.7-1.5-1.5v0c0-0.8,0.7-1.5,1.5-1.5h37c0.8,0,1.5,0.7,1.5,1.5v0
	C41.2,13.6,40.5,14.3,39.7,14.3z"/>
<path class="st0" d="M39.7,21.5h-37c-0.8,0-1.5-0.7-1.5-1.5v0c0-0.8,0.7-1.5,1.5-1.5h37c0.8,0,1.5,0.7,1.5,1.5v0
	C41.2,20.8,40.5,21.5,39.7,21.5z"/>
</svg>
