<?xml version="1.0" encoding="utf-8"?>
<!-- Generator: Adobe Illustrator 26.2.1, SVG Export Plug-In . SVG Version: 6.00 Build 0)  -->
<svg version="1.1" id="Calque_1" xmlns="http://www.w3.org/2000/svg" xmlns:xlink="http://www.w3.org/1999/xlink" x="0px" y="0px"
	 viewBox="0 0 227.2 30" style="enable-background:new 0 0 227.2 30;" xml:space="preserve">
<style type="text/css">
	.st0{fill:#0A1348;}
</style>
<g>
	<path class="st0" d="M183.2,20.2c-0.7,2.4-2.9,4.7-5.1,5.2c-1.7,0.2-2.9,0.1-3.8-0.5c-0.9-0.6-1.4-1.7-1.7-2.7l-0.1-1
		c0-2.2,1.1-4.3,3.3-5.9c1.3-0.9,2.8-1.2,4.3-0.9c1.1,0.2,2.1,1,2.6,2c0.4,0.7,0.6,1.6,0.6,2.4C183.3,19.3,183.3,19.8,183.2,20.2
		 M98.7,20.2c-0.6,2.4-2.7,4.7-4.9,5.1c-1.6,0.3-3,0.2-3.9-0.4c-0.8-0.7-1.4-1.7-1.7-2.7l-0.1-1c0-2.2,1.1-4.3,3.3-5.9
		c1.3-0.9,2.8-1.2,4.3-0.9c1.1,0.2,2.1,1,2.6,2C99,17.5,99.1,18.9,98.7,20.2 M188.6,10.5l-0.2-0.4c-0.1-0.2-0.2-0.2-0.5-0.2h-3
		c-0.2,0-0.5,0.2-0.6,0.5l-0.2,1.1c-0.6-0.6-1.4-1-2.3-1.4l-0.3-0.2h-0.1c-3.3-0.7-6.6,0.2-9.2,2.8c-1.3,1.2-2.3,2.6-3,4.3l3-16.3
		l-0.1-0.4c-0.1-0.1-0.2-0.2-0.3-0.2h-4l-0.3,0.2c0,0-12,16.1-14,18.3c0.7-2.6,3.2-17.9,3.2-17.9V0.8l-0.1-0.3
		c-0.1-0.1-0.2-0.2-0.3-0.2h-4.3l-0.3,0.2l-20.2,23.7c-0.3-3.4-1.9-7.2-1.9-7.2c-2.6-5.5-8.5-7.4-12-4.4l-0.6,0.2
		c2.6-3.7,8.7-3.4,12.6,1.2c0,0,1.8,2.2,3,5.5c0.3-1.1,0.6-2.3,0.6-3.5c-2.1-2.9-4.5-4.6-4.5-4.6c-5-3.4-10.8-2.2-12.4,2l-0.4,0.7
		c0.5-4.5,5.9-7.3,11.5-5.4c0,0,2.7,1,5.5,3.3l-0.2-0.6c-0.3-1.2-0.7-2.3-1.3-3.4c-3.2-1.4-6.1-1.7-6.1-1.7
		c-6.1-0.4-10.7,3.9-9.7,8.5v0.6C113.7,11.3,117,6,123,4.9c0,0,2.8-0.5,6.3,0c-0.9-1-1.8-1.8-3-2.5c-3.4,0.4-6,1.6-6,1.6
		c-5.5,2.7-7.3,8.8-4.3,12.3l0.4,0.6c-3.9-2.6-3.6-8.9,1-13c0,0,2.2-1.8,5.4-3.1c-1.4-0.4-2.7-0.6-4.1-0.6c-1.6,1.2-3,2.7-4.3,4.3
		c-3.4,5.2-2,11.4,2.5,12.8h0.1l0.4,0.2c-4.6-0.2-7.5-5.9-5.5-11.7c0,0,1-2.6,3-5.2c-1.2,0.3-2.2,0.7-3.3,1.4
		c-1.3,3.2-1.6,5.9-1.6,5.9c-0.4,6.2,3.8,10.7,8.3,9.9h0.2l0.5-0.1c-4.1,2.1-9.3-1.3-10.5-7.4c0,0-0.5-2.7,0-6.2
		c-1,1-1.8,2.1-2.6,3.3c0.4,3.4,1.6,5.9,1.6,5.9c2.7,5.6,8.7,7.5,12.2,4.3l0.1-0.1l0.4-0.3c-2.5,3.9-8.7,3.8-12.8-1c0,0-2-2.6-3-5.7
		c0-0.1-0.1-0.3-0.2-0.4c-0.2-0.2-0.3-0.2-0.5-0.2h-3c-0.2,0-0.5,0.2-0.6,0.5c0,0-0.2,0.3-0.2,1c-0.6-0.6-1.4-1-2.2-1.3l-0.4-0.2
		c-3.3-0.8-6.6,0.2-9.2,2.8c-1.5,1.4-2.7,3.1-3.4,5.1L84.4,18l1.4-7.5c0-0.2,0-0.3-0.2-0.5c-0.1-0.2-0.2-0.2-0.5-0.2h-3.4
		c-0.3,0-0.6,0.2-0.6,0.5l-3.3,18.4c0,0.2,0,0.3,0.2,0.5c0.1,0.2,0.2,0.2,0.5,0.2h3.4c0.3,0,0.6-0.1,0.6-0.4l1.4-7.5
		c0,0.1,0.1,1.6,0.2,2.3c0.6,2.9,2.7,5.2,5.6,5.9c2.3,0.4,4.7-0.2,7.2-1.7l-0.2,0.6v0.1l0.1,0.3c0.1,0.2,0.3,0.2,0.5,0.2h3
		c0.3,0,0.6-0.1,0.6-0.4l2.6-14.4c2,2.4,4.6,4.4,4.6,4.4c5,3.4,10.8,2.1,12.4-2.1l0.4-0.6c-0.5,4.5-5.9,7.3-11.5,5.3
		c0,0-2.5-1-5.1-3l0.1,0.3c0.3,1.2,0.8,2.4,1.4,3.5c3,1.3,5.8,1.5,5.8,1.5c6.1,0.4,10.6-3.9,9.7-8.3v-0.5v-0.2
		c1.9,4.2-1.4,9.4-7.3,10.6c0,0-2.6,0.5-5.9,0c0.8,0.9,1.7,1.6,2.6,2.2c3.4-0.4,6-1.6,6-1.6c5.4-2.6,7.2-8.5,4.4-12l-0.4-0.7
		c3.7,2.6,3.4,8.8-1.1,12.8c0,0-2.2,1.8-5.5,3.2c1.3,0.4,2.6,0.7,4,0.8c2.8-2.2,4.5-4.6,4.5-4.6c3.4-5.2,2-11.4-2.4-12.8l-0.6-0.3
		c4.7,0.2,7.5,5.9,5.5,11.7c0,0-1,2.8-3.2,5.6l0.6-0.2c1.1-0.3,2.2-0.7,3.2-1.2c1.4-3.3,1.6-6.2,1.6-6.2c0.4-6.1-3.6-10.6-8-9.9
		l-0.6-0.1h-0.2c4.1-1.8,9.1,1.5,10.3,7.5c0,0,0.7,2.8,0.2,6.2c-0.2,0.6-0.4,1.4-0.7,1.9l-0.4,0.7v0.4c0.1,0.2,0.2,0.2,0.4,0.2h4.7
		l0.3-0.2c0,0,15.6-17.1,17.4-19.3c-0.7,3.6-2.1,12.4-3.4,18.9v0.1l0.1,0.2l0.3,0.2h3.7l0.3-0.2c0,0,12.6-17,14.4-19.3
		c-0.8,3.6-2.1,12.4-3.4,18.9v0.1l0.1,0.2l0.3,0.2h3.7c0.2,0,0.4-0.2,0.4-0.3l1.4-7.9v0.5c0,0.7-0.2,1.5-0.2,2.2
		c0.6,2.9,2.7,5.2,5.6,5.9c2.3,0.4,4.7-0.2,7.2-1.7l-0.2,0.6v0.1l0.2,0.4c0.1,0.2,0.2,0.2,0.5,0.2h3c0.3,0,0.6-0.1,0.6-0.4l2.7-14.5
		L188.6,10.5L188.6,10.5z M209.9,27.8l-5.5-9.1l6.2-7.5l-0.4,2.2c0,0.2,0,0.3,0.2,0.5c0.1,0.2,0.2,0.2,0.5,0.2h1.6
		C212.2,15.1,210.4,24.7,209.9,27.8 M221.4,10.1c-0.1-0.2-0.2-0.2-0.5-0.2h-3.4l1-5.1V4.8l-0.2-0.4c-0.1-0.2-0.2-0.2-0.5-0.2h-3.4
		c-0.3,0-0.6,0.2-0.6,0.5l-1,5.3h-1.8c-0.2,0-0.4,0.1-0.5,0.2c-0.1-0.2-0.2-0.2-0.5-0.2h-3.9l-0.4,0.2c0,0-2.7,3.4-4.3,5.2l1.9-10.5
		V4.7l-0.2-0.4C203.3,4.1,203.2,4,203,4h-3.3c-0.3,0-0.6,0.2-0.6,0.5l-1,5.3c-0.1-0.2-0.3-0.2-0.5-0.2c-1.4,0.2-2.8,0.6-4,1.4
		l0.1-0.4c0-0.2,0-0.3-0.2-0.5c-0.1-0.2-0.2-0.2-0.5-0.2h-3c-0.2,0-0.5,0.2-0.6,0.5l-0.1,0.5l-3.2,17.9c0,0.2,0,0.3,0.2,0.5
		c0.1,0.2,0.3,0.2,0.5,0.2h2.9c0.2,0,0.5-0.2,0.6-0.5l2.2-11.1c0.7-2.8,2.6-3.6,4.2-3.9l0.5-0.1l-2.5,14.8c0,0.2,0,0.3,0.2,0.5
		c0.1,0.2,0.2,0.2,0.5,0.2h3.2c0.2,0,0.5-0.2,0.6-0.4l1.4-7.6l4.7,7.8c0.1,0.2,0.3,0.2,0.5,0.2h3.6l0.2-0.1l0.2,0.1h3.8
		c0.2,0,0.5-0.2,0.6-0.5l2.7-14.8h3.6c0.3,0,0.6-0.2,0.6-0.5l0.5-3v-0.1C221.6,10.4,221.6,10.2,221.4,10.1 M75.1,18.9l-0.2,1.3
		c-0.6,2.4-2.8,4.7-5,5.2c-1.7,0.3-3,0.1-3.9-0.5c-0.9-0.6-1.5-1.6-1.7-2.7l-0.1-1c0-2.2,1.2-4.3,3.4-5.9c1.3-0.9,2.8-1.2,4.3-0.9
		c0.8,0.2,1.8,0.7,2.6,2C74.9,17,75.1,17.9,75.1,18.9 M47.2,17.4c1-1.7,2.6-2.8,4.5-3c1.8-0.2,2.6,0.3,3.4,1c0.7,0.7,1,1.4,1.1,2.1
		L47.2,17.4 M81.4,4.4c-0.1-0.2-0.2-0.2-0.5-0.2h-3c-0.2,0-0.5,0.2-0.6,0.5L76,11.5c-0.6-0.6-1.4-1-2.2-1.3l-0.3-0.2h-0.1
		c-3.3-0.7-6.6,0.2-9.2,2.8c-1.5,1.4-2.7,3.1-3.4,5.1c-0.1-1.6-0.5-3.1-1-4.3v-0.1c-1.6-2.6-4.2-3.9-7.6-3.8h-0.1
		c-3.8,0.5-7.5,3-9.4,6.7l-0.1,0.2l2.7-15.9l-0.1-0.4c-0.1-0.1-0.2-0.2-0.3-0.2H41l-0.3,0.2c0,0-12.2,16-14,18.2
		c0.6-2.6,3.1-17.8,3.1-17.8V0.7l-0.1-0.3c-0.1-0.1-0.2-0.2-0.3-0.2h-3.8l-0.3,0.2L1.2,28.6c-0.1,0.2-0.2,0.3-0.1,0.5
		s0.2,0.3,0.4,0.3h4.8l0.3-0.2c0,0,15.3-17.6,17.1-19.8c-0.6,3.6-2.1,12.9-3.4,19.4v0.1l0.1,0.2l0.3,0.2h3.7l0.3-0.2
		c0,0,12.8-17.6,14.6-19.8c-0.8,3.6-2,13-3.5,19.4v0.1l0.1,0.2l0.3,0.2h3.6c0.2,0,0.4-0.2,0.4-0.3l1.4-7.5c0,1.6,0.3,3.2,1,4.4
		c1.4,2.4,3.8,3.8,6.6,3.9c4.1,0,8-2.5,9.8-6.3V23c-0.1-0.2-0.3-0.2-0.5-0.2h-3l-0.4,0.2c-1.4,1.7-3.1,2.6-4.9,2.6
		c-1.8,0.1-3.4-1-4-2.6l-0.1-0.2l-0.2-0.8v-0.2h13.9l0.4-0.2l0.2,2.2c0.6,2.9,2.7,5.2,5.6,5.9c2.3,0.4,4.7-0.2,7.2-1.7l-0.2,0.6v0.1
		l0.2,0.4c0.1,0.2,0.2,0.2,0.5,0.2h3c0.2,0,0.5-0.1,0.6-0.4l4.4-24.1L81.4,4.4"/>
	<path class="st0" d="M82.3,9.4h3.3c0.2,0,0.5-0.3,0.6-0.6l0.7-3.9c0-0.2,0-0.3-0.2-0.5c-0.1-0.2-0.2-0.2-0.5-0.2h-3.4
		c-0.2,0-0.5,0.2-0.6,0.5l-0.7,3.9c0,0.2,0,0.4,0.2,0.6L82.3,9.4 M222.3,4.3h0.9c0.3,0,0.7-0.1,0.7-0.6c0-0.2-0.2-0.5-0.6-0.5h-1
		V4.3z M222.3,6.5h-0.8V2.6h1.8c0.2,0,1.4,0,1.4,1.2c0,0.7-0.6,1-0.7,1l0.7,1.7h-0.9l-0.6-1.6h-1L222.3,6.5L222.3,6.5z M223,7.6
		c1.6,0,3-1.4,3-3s-1.3-3-3-3c-1.6,0-3,1.4-3,3S221.4,7.6,223,7.6 M223,0.8c2,0,3.6,1.6,3.6,3.7c0,2-1.6,3.7-3.6,3.7
		c-2-0.1-3.6-1.7-3.6-3.7S221,0.8,223,0.8"/>
</g>
</svg>
