<?xml version="1.0" encoding="utf-8"?>
<!-- Generator: Adobe Illustrator 26.2.1, SVG Export Plug-In . SVG Version: 6.00 Build 0)  -->
<svg version="1.1" id="Calque_1" xmlns="http://www.w3.org/2000/svg" xmlns:xlink="http://www.w3.org/1999/xlink" x="0px" y="0px"
	 viewBox="0 0 375 49.5" style="enable-background:new 0 0 375 49.5;" xml:space="preserve">
<style type="text/css">
	.st0{fill:#0A1348;}
</style>
<g>
	<path class="st0" d="M303.1,33.4c-1.2,4-4.8,7.8-8.5,8.6c-2.8,0.3-4.8,0.2-6.3-0.8c-1.5-1-2.3-2.8-2.8-4.5l-0.2-1.7
		c0-3.7,1.8-7.1,5.5-9.8c2.2-1.5,4.7-2,7.1-1.5c1.8,0.3,3.5,1.7,4.3,3.3c0.7,1.2,1,2.7,1,4C303.2,31.9,303.2,32.7,303.1,33.4
		 M162.6,33.4c-1,4-4.5,7.8-8.1,8.5c-2.7,0.5-5,0.3-6.5-0.7c-1.3-1.2-2.3-2.8-2.8-4.5L145,35c0-3.7,1.8-7.1,5.5-9.8
		c2.2-1.5,4.7-2,7.1-1.5c1.8,0.3,3.5,1.7,4.3,3.3C163.1,28.9,163.2,31.2,162.6,33.4 M312,17.2l-0.3-0.7c-0.2-0.3-0.3-0.3-0.8-0.3h-5
		c-0.3,0-0.8,0.3-1,0.8l-0.3,1.8c-1-1-2.3-1.7-3.8-2.3l-0.5-0.3h-0.2c-5.5-1.2-11,0.3-15.3,4.7c-2.2,2-3.8,4.3-5,7.1l5-27.1
		l-0.2-0.7c-0.2-0.2-0.3-0.3-0.5-0.3h-6.7L277,0.3c0,0-20,26.8-23.3,30.4c1.2-4.3,5.3-29.8,5.3-29.8v0.2l-0.2-0.5
		c-0.2-0.2-0.3-0.3-0.5-0.3h-7.1l-0.5,0.3L217.1,40c-0.5-5.7-3.2-12-3.2-12c-4.3-9.1-14.1-12.3-20-7.3l-1,0.3
		c4.3-6.2,14.5-5.7,20.9,2c0,0,3,3.7,5,9.1c0.5-1.8,1-3.8,1-5.8c-3.5-4.8-7.5-7.6-7.5-7.6c-8.3-5.7-18-3.7-20.6,3.3l-0.7,1.2
		c0.8-7.5,9.8-12.1,19.1-9c0,0,4.5,1.7,9.1,5.5l-0.3-1c-0.5-2-1.2-3.8-2.2-5.7c-5.3-2.3-10.1-2.8-10.1-2.8
		c-10.1-0.7-17.8,6.5-16.1,14.1v1C187.5,18.6,193,9.8,203,7.9c0,0,4.7-0.8,10.5,0c-1.5-1.7-3-3-5-4.2c-5.7,0.7-10,2.7-10,2.7
		c-9.1,4.5-12.1,14.6-7.1,20.5l0.7,1c-6.5-4.3-6-14.8,1.7-21.6c0,0,3.7-3,9-5.2c-2.3-0.7-4.5-1-6.8-1c-2.7,2-5,4.5-7.1,7.1
		c-5.7,8.6-3.3,19,4.2,21.3h0.2l0.7,0.3c-7.6-0.3-12.5-9.8-9.1-19.5c0,0,1.7-4.3,5-8.6c-2,0.5-3.7,1.2-5.5,2.3
		c-2.2,5.3-2.7,9.8-2.7,9.8c-0.7,10.3,6.3,17.8,13.8,16.5h0.3l0.8-0.2c-6.8,3.5-15.5-2.2-17.5-12.3c0,0-0.8-4.5,0-10.3
		c-1.7,1.7-3,3.5-4.3,5.5c0.7,5.7,2.7,9.8,2.7,9.8c4.5,9.3,14.5,12.5,20.3,7.1l0.2-0.2l0.7-0.5c-4.2,6.5-14.5,6.3-21.3-1.7
		c0,0-3.3-4.3-5-9.5c0-0.2-0.2-0.5-0.3-0.7c-0.3-0.3-0.5-0.3-0.8-0.3h-5c-0.3,0-0.8,0.3-1,0.8c0,0-0.3,0.5-0.3,1.7
		c-1-1-2.3-1.7-3.7-2.2l-0.7-0.3c-5.5-1.3-11,0.3-15.3,4.7c-2.5,2.3-4.5,5.2-5.7,8.5l-0.5,0.3l2.3-12.5c0-0.3,0-0.5-0.3-0.8
		c-0.2-0.3-0.3-0.3-0.8-0.3h-5.7c-0.5,0-1,0.3-1,0.8l-5.5,30.6c0,0.3,0,0.5,0.3,0.8c0.2,0.3,0.3,0.3,0.8,0.3h5.7c0.5,0,1-0.2,1-0.7
		l2.3-12.5c0,0.2,0.2,2.7,0.3,3.8c1,4.8,4.5,8.6,9.3,9.8c3.8,0.7,7.8-0.3,12-2.8l-0.3,1v0.2l0.2,0.5c0.2,0.3,0.5,0.3,0.8,0.3h5
		c0.5,0,1-0.2,1-0.7l4.3-23.9c3.3,4,7.6,7.3,7.6,7.3c8.3,5.7,18,3.5,20.6-3.5l0.7-1c-0.8,7.5-9.8,12.1-19.1,8.8c0,0-4.2-1.7-8.5-5
		l0.2,0.5c0.5,2,1.3,4,2.3,5.8c5,2.2,9.6,2.5,9.6,2.5c10.1,0.7,17.6-6.5,16.1-13.8v-0.8v-0.3c3.2,7-2.3,15.6-12.1,17.6
		c0,0-4.3,0.8-9.8,0c1.3,1.5,2.8,2.7,4.3,3.7c5.7-0.7,10-2.7,10-2.7c9-4.3,12-14.1,7.3-20l-0.7-1.2c6.2,4.3,5.7,14.6-1.8,21.3
		c0,0-3.7,3-9.1,5.3c2.2,0.7,4.3,1.2,6.7,1.3c4.7-3.7,7.5-7.6,7.5-7.6c5.7-8.6,3.3-19-4-21.3l-1-0.5c7.8,0.3,12.5,9.8,9.1,19.5
		c0,0-1.7,4.7-5.3,9.3l1-0.3c1.8-0.5,3.7-1.2,5.3-2c2.3-5.5,2.7-10.3,2.7-10.3c0.7-10.1-6-17.6-13.3-16.5l-1-0.2h-0.3
		c6.8-3,15.1,2.5,17.1,12.5c0,0,1.2,4.7,0.3,10.3c-0.3,1-0.7,2.3-1.2,3.2l-0.7,1.2v0.7c0.2,0.3,0.3,0.3,0.7,0.3h7.8l0.5-0.3
		c0,0,25.9-28.4,28.9-32.1c-1.2,6-3.5,20.6-5.7,31.4V47l0.2,0.3l0.5,0.3h6.2l0.5-0.3c0,0,20.9-28.3,23.9-32.1
		c-1.3,6-3.5,20.6-5.7,31.4v0.2l0.2,0.3l0.5,0.3h6.2c0.3,0,0.7-0.3,0.7-0.5l2.3-13.1v0.8c0,1.2-0.3,2.5-0.3,3.7
		c1,4.8,4.5,8.6,9.3,9.8c3.8,0.7,7.8-0.3,12-2.8l-0.3,1v0.2l0.3,0.7c0.2,0.3,0.3,0.3,0.8,0.3h5c0.5,0,1-0.2,1-0.7l4.5-24.1L312,17.2
		L312,17.2z M347.5,46l-9.1-15.1l10.3-12.5l-0.7,3.7c0,0.3,0,0.5,0.3,0.8c0.2,0.3,0.3,0.3,0.8,0.3h2.7
		C351.3,24.9,348.3,40.9,347.5,46 M366.6,16.6c-0.2-0.3-0.3-0.3-0.8-0.3h-5.7l1.7-8.5v0l-0.3-0.7c-0.2-0.3-0.3-0.3-0.8-0.3h-5.7
		c-0.5,0-1,0.3-1,0.8l-1.7,8.8h-3c-0.3,0-0.7,0.2-0.8,0.3c-0.2-0.3-0.3-0.3-0.8-0.3h-6.5l-0.7,0.3c0,0-4.5,5.7-7.1,8.6l3.2-17.5V7.6
		l-0.3-0.7c0.3-0.3,0.2-0.5-0.2-0.5h-5.5c-0.5,0-1,0.3-1,0.8l-1.7,8.8c-0.2-0.3-0.5-0.3-0.8-0.3c-2.3,0.3-4.7,1-6.7,2.3l0.2-0.7
		c0-0.3,0-0.5-0.3-0.8c-0.2-0.3-0.3-0.3-0.8-0.3h-5c-0.3,0-0.8,0.3-1,0.8l-0.2,0.8l-5.3,29.8c0,0.3,0,0.5,0.3,0.8
		c0.2,0.3,0.5,0.3,0.8,0.3h4.8c0.3,0,0.8-0.3,1-0.8l3.7-18.5c1.2-4.7,4.3-6,7-6.5l0.8-0.2l-4.2,24.6c0,0.3,0,0.5,0.3,0.8
		c0.2,0.3,0.3,0.3,0.8,0.3h5.3c0.3,0,0.8-0.3,1-0.7l2.3-12.6l7.8,13c0.2,0.3,0.5,0.3,0.8,0.3h6l0.3-0.2l0.3,0.2h6.3
		c0.3,0,0.8-0.3,1-0.8l4.5-24.6h6c0.5,0,1-0.3,1-0.8l0.8-5v-0.2C366.9,17.1,366.9,16.7,366.6,16.6 M123.3,31.2l-0.3,2.2
		c-1,4-4.7,7.8-8.3,8.6c-2.8,0.5-5,0.2-6.5-0.8s-2.5-2.7-2.8-4.5l-0.2-1.7c0-3.7,2-7.1,5.7-9.8c2.2-1.5,4.7-2,7.1-1.5
		c1.3,0.3,3,1.2,4.3,3.3C123,28.1,123.3,29.5,123.3,31.2 M76.9,28.7c1.7-2.8,4.3-4.7,7.5-5c3-0.3,4.3,0.5,5.7,1.7
		c1.2,1.2,1.7,2.3,1.8,3.5L76.9,28.7 M133.8,7.1c-0.2-0.3-0.3-0.3-0.8-0.3h-5c-0.3,0-0.8,0.3-1,0.8l-2.2,11.3c-1-1-2.3-1.7-3.7-2.2
		l-0.5-0.3h-0.2c-5.5-1.2-11,0.3-15.3,4.7c-2.5,2.3-4.5,5.2-5.7,8.5c-0.2-2.7-0.8-5.2-1.7-7.1v-0.2c-2.7-4.3-7-6.5-12.6-6.3h-0.2
		c-6.3,0.8-12.5,5-15.6,11.1l-0.2,0.3l4.5-26.4l-0.2-0.7C73.5,0.1,73.3,0,73.1,0h-6.5l-0.5,0.3c0,0-20.3,26.6-23.3,30.3
		c1-4.3,5.2-29.6,5.2-29.6v0l-0.2-0.5c-0.2-0.2-0.3-0.3-0.5-0.3H41l-0.5,0.3L0.5,47.3c-0.2,0.3-0.3,0.5-0.2,0.8s0.3,0.5,0.7,0.5h8
		l0.5-0.3c0,0,25.4-29.3,28.4-32.9c-1,6-3.5,21.4-5.7,32.3v0.2l0.2,0.3l0.5,0.3H39l0.5-0.3c0,0,21.3-29.3,24.3-32.9
		c-1.3,6-3.3,21.6-5.8,32.3v0.2l0.2,0.3l0.5,0.3h6c0.3,0,0.7-0.3,0.7-0.5l2.3-12.5c0,2.7,0.5,5.3,1.7,7.3c2.3,4,6.3,6.3,11,6.5
		c6.8,0,13.3-4.2,16.3-10.5V38c-0.2-0.3-0.5-0.3-0.8-0.3h-5L90.1,38c-2.3,2.8-5.2,4.3-8.1,4.3c-3,0.2-5.7-1.7-6.7-4.3l-0.2-0.3
		l-0.3-1.3V36h23.1l0.7-0.3l0.3,3.7c1,4.8,4.5,8.6,9.3,9.8c3.8,0.7,7.8-0.3,12-2.8l-0.3,1v0.2l0.3,0.7c0.2,0.3,0.3,0.3,0.8,0.3h5
		c0.3,0,0.8-0.2,1-0.7l7.3-40.1L133.8,7.1"/>
	<path class="st0" d="M135.3,15.4h5.5c0.3,0,0.8-0.5,1-1l1.2-6.5c0-0.3,0-0.5-0.3-0.8c-0.2-0.3-0.3-0.3-0.8-0.3h-5.7
		c-0.3,0-0.8,0.3-1,0.8l-1.2,6.5c0,0.3,0,0.7,0.3,1L135.3,15.4 M368.1,6.9h1.5c0.5,0,1.2-0.2,1.2-1c0-0.3-0.3-0.8-1-0.8h-1.7
		L368.1,6.9L368.1,6.9z M368.1,10.6h-1.3V4.1h3c0.3,0,2.3,0,2.3,2c0,1.2-1,1.7-1.2,1.7l1.2,2.8h-1.5l-1-2.7h-1.7L368.1,10.6
		L368.1,10.6z M369.2,12.4c2.7,0,5-2.3,5-5s-2.2-5-5-5c-2.7,0-5,2.3-5,5S366.6,12.4,369.2,12.4 M369.2,1.1c3.3,0,6,2.7,6,6.2
		c0,3.3-2.7,6.2-6,6.2c-3.3-0.2-6-2.8-6-6.2S365.9,1.1,369.2,1.1"/>
</g>
</svg>
