<?xml version="1.0" encoding="utf-8"?>
<!-- Generator: Adobe Illustrator 26.2.1, SVG Export Plug-In . SVG Version: 6.00 Build 0)  -->
<svg version="1.1" id="Calque_1" xmlns="http://www.w3.org/2000/svg" xmlns:xlink="http://www.w3.org/1999/xlink" x="0px" y="0px"
	 viewBox="0 0 283.7 37.7" style="enable-background:new 0 0 283.7 37.7;" xml:space="preserve">
<style type="text/css">
	.st0{fill:#0A1348;}
</style>
<g>
	<path class="st0" d="M227,25.1c-0.9,3-3.6,5.8-6.4,6.5c-2.1,0.3-3.6,0.1-4.7-0.6c-1.1-0.8-1.8-2.1-2.1-3.4l-0.1-1.3
		c0-2.7,1.4-5.3,4.1-7.4c1.6-1.1,3.5-1.5,5.4-1.1c1.4,0.3,2.6,1.2,3.3,2.5c0.5,0.9,0.7,2,0.7,3C227.2,24,227.2,24.6,227,25.1
		 M121.7,25.1c-0.8,3-3.4,5.8-6.1,6.4c-2,0.4-3.8,0.2-4.9-0.5c-1-0.9-1.8-2.1-2.1-3.4l-0.1-1.3c0-2.7,1.4-5.3,4.1-7.4
		c1.6-1.1,3.5-1.5,5.4-1.1c1.4,0.3,2.6,1.2,3.3,2.5C122.1,21.8,122.2,23.5,121.7,25.1 M233.8,13.1l-0.2-0.5
		c-0.1-0.2-0.3-0.2-0.6-0.2h-3.7c-0.3,0-0.6,0.2-0.7,0.6l-0.3,1.4c-0.8-0.8-1.8-1.3-2.9-1.7l-0.4-0.2h-0.1
		c-4.1-0.9-8.2,0.3-11.5,3.5c-1.6,1.5-2.9,3.3-3.8,5.3L213.3,1l-0.1-0.5c-0.1-0.1-0.3-0.2-0.4-0.2h-5l-0.4,0.2
		c0,0-15,20.1-17.4,22.8C190.9,20,194,1,194,1V0.9l-0.1-0.4c-0.1-0.1-0.3-0.2-0.4-0.2h-5.3l-0.4,0.2l-25.2,29.6
		c-0.4-4.3-2.4-9-2.4-9c-3.3-6.9-10.6-9.2-14.9-5.5l-0.7,0.3c3.3-4.6,10.8-4.2,15.7,1.5c0,0,2.2,2.7,3.8,6.8
		c0.4-1.4,0.7-2.9,0.8-4.4c-2.6-3.6-5.6-5.7-5.6-5.7c-6.2-4.2-13.5-2.7-15.5,2.5l-0.5,0.9c0.6-5.6,7.3-9.1,14.3-6.7
		c0,0,3.4,1.3,6.9,4.1l-0.2-0.7c-0.4-1.5-0.9-2.9-1.6-4.2c-4-1.8-7.6-2.1-7.6-2.1c-7.6-0.5-13.3,4.8-12.1,10.6v0.8
		c-2.6-5.2,1.5-11.9,9-13.3c0,0,3.5-0.6,7.8,0c-1.1-1.2-2.3-2.2-3.7-3.1c-4.3,0.5-7.5,2-7.5,2c-6.9,3.4-9.1,11-5.3,15.3l0.5,0.7
		c-4.8-3.2-4.5-11.1,1.2-16.2c0,0,2.7-2.3,6.7-3.9C150,0.3,148.3,0,146.6,0c-2,1.5-3.8,3.4-5.3,5.4c-4.3,6.5-2.5,14.2,3.1,16h0.1
		l0.5,0.3c-5.7-0.3-9.4-7.3-6.9-14.6c0,0,1.2-3.2,3.7-6.5c-1.5,0.4-2.8,0.9-4.1,1.7c-1.6,4-2,7.4-2,7.4c-0.5,7.7,4.7,13.4,10.3,12.3
		h0.3l0.6-0.1c-5.1,2.6-11.6-1.6-13.1-9.2c0,0-0.6-3.4,0-7.7c-1.3,1.2-2.3,2.6-3.2,4.1c0.5,4.2,2,7.3,2,7.3c3.4,7,10.9,9.3,15.2,5.3
		l0.1-0.1l0.5-0.4c-3.1,4.9-10.9,4.7-15.9-1.2c0,0-2.5-3.3-3.8-7.1c0-0.1-0.1-0.4-0.3-0.5c-0.2-0.2-0.4-0.2-0.6-0.2H124
		c-0.3,0-0.6,0.2-0.8,0.6c0,0-0.2,0.4-0.3,1.3c-0.8-0.8-1.8-1.2-2.7-1.6l-0.5-0.2c-4.1-1-8.2,0.3-11.5,3.5c-1.9,1.7-3.4,3.9-4.2,6.4
		l-0.1,0.2l1.7-9.3c0-0.2,0-0.4-0.2-0.6c-0.1-0.2-0.3-0.3-0.6-0.3h-4.2c-0.4,0-0.7,0.3-0.7,0.6l-4.1,22.9c0,0.2,0,0.4,0.2,0.6
		c0.1,0.2,0.3,0.2,0.6,0.2h4.2c0.4,0,0.7-0.1,0.7-0.5l1.7-9.3c0,0.1,0.1,2,0.3,2.9c0.7,3.6,3.4,6.5,7,7.4c2.9,0.5,5.9-0.2,9-2.1
		l-0.2,0.8v0.1l0.1,0.4c0.1,0.2,0.4,0.2,0.6,0.2h3.7c0.4,0,0.7-0.1,0.7-0.5l3.3-18c2.5,3,5.7,5.5,5.7,5.5c6.2,4.2,13.5,2.6,15.5-2.6
		l0.5-0.8c-0.6,5.6-7.3,9.1-14.3,6.6c0,0-3.1-1.2-6.4-3.8l0.1,0.4c0.4,1.5,1,3,1.7,4.4c3.8,1.6,7.2,1.9,7.2,1.9
		c7.6,0.5,13.2-4.8,12.1-10.4v-0.6v-0.2c2.4,5.2-1.7,11.7-9.1,13.2c0,0-3.3,0.6-7.4,0c1,1.1,2.1,2,3.3,2.8c4.3-0.5,7.5-2,7.5-2
		c6.7-3.3,9-10.6,5.5-15l-0.5-0.9c4.6,3.3,4.3,11-1.4,16c0,0-2.8,2.3-6.9,4c1.6,0.5,3.3,0.9,5,1c3.5-2.7,5.6-5.7,5.6-5.7
		c4.3-6.5,2.5-14.2-3-16l-0.7-0.4c5.8,0.3,9.4,7.3,6.9,14.6c0,0-1.2,3.5-4,7l0.7-0.2c1.4-0.4,2.7-0.9,4-1.5c1.7-4.1,2-7.7,2-7.7
		c0.5-7.6-4.5-13.2-10-12.4l-0.7-0.1h-0.2c5.1-2.2,11.4,1.9,12.8,9.3c0,0,0.9,3.5,0.2,7.7c-0.2,0.8-0.5,1.7-0.9,2.4l-0.5,0.9v0.5
		c0.1,0.2,0.3,0.3,0.5,0.3h5.9l0.4-0.2c0,0,19.5-21.3,21.7-24c-0.9,4.5-2.6,15.4-4.2,23.5v0.1l0.1,0.3l0.4,0.2h4.6l0.4-0.2
		c0,0,15.7-21.2,18-24c-1,4.5-2.6,15.5-4.2,23.5v0.1l0.1,0.3l0.4,0.2h4.6c0.2,0,0.5-0.2,0.5-0.4l1.7-9.9v0.6c0,0.9-0.3,1.9-0.2,2.8
		c0.7,3.6,3.4,6.5,7,7.4c2.9,0.5,5.9-0.2,9-2.1l-0.2,0.8v0.1l0.2,0.5c0.1,0.2,0.3,0.2,0.6,0.2h3.7c0.4,0,0.7-0.1,0.7-0.5l3.4-18.1
		L233.8,13.1L233.8,13.1z M260.3,34.6l-6.8-11.3l7.7-9.4l-0.5,2.8c0,0.2,0,0.4,0.2,0.6c0.1,0.2,0.3,0.3,0.6,0.3h2
		C263.2,18.8,260.9,30.7,260.3,34.6 M274.7,12.6c-0.1-0.2-0.3-0.3-0.6-0.3h-4.2l1.2-6.3V5.9l-0.2-0.5c-0.1-0.2-0.3-0.3-0.6-0.3h-4.2
		c-0.4,0-0.7,0.3-0.7,0.6l-1.2,6.6h-2.3c-0.3,0-0.5,0.1-0.6,0.3c-0.1-0.2-0.3-0.3-0.6-0.3h-4.8l-0.5,0.2c0,0-3.4,4.3-5.4,6.5
		l2.4-13.1V5.8l-0.2-0.5c-0.1-0.2-0.3-0.3-0.5-0.3h-4.1c-0.4,0-0.7,0.3-0.7,0.6l-1.2,6.6c-0.1-0.2-0.4-0.3-0.6-0.3
		c-1.8,0.2-3.5,0.7-5,1.7l0.1-0.5c0-0.2,0-0.4-0.2-0.6c-0.1-0.2-0.3-0.2-0.6-0.2h-3.8c-0.3,0-0.6,0.2-0.7,0.6l-0.1,0.6l-4,22.3
		c0,0.2,0,0.4,0.2,0.6c0.1,0.2,0.4,0.2,0.6,0.2h3.6c0.3,0,0.6-0.2,0.7-0.6l2.8-13.8c0.9-3.5,3.2-4.5,5.2-4.8l0.6-0.1l-3.1,18.5
		c0,0.2,0,0.4,0.2,0.6c0.1,0.2,0.3,0.3,0.6,0.3h4c0.3,0,0.6-0.2,0.7-0.5l1.8-9.5l5.9,9.7c0.1,0.2,0.4,0.3,0.6,0.3h4.5l0.2-0.1
		l0.3,0.1h4.7c0.3,0,0.6-0.2,0.7-0.6l3.4-18.5h4.5c0.4,0,0.7-0.3,0.7-0.6l0.6-3.7v-0.1C274.9,12.9,274.9,12.7,274.7,12.6 M92.2,23.5
		L92,25.1c-0.8,3-3.5,5.8-6.2,6.5C83.7,32,82.1,31.7,81,31c-1.1-0.8-1.9-2-2.1-3.4l-0.1-1.3c0-2.7,1.5-5.4,4.2-7.4
		c1.6-1.1,3.5-1.5,5.4-1.1c1,0.2,2.3,0.9,3.2,2.5C92,21.2,92.2,22.3,92.2,23.5 M57.5,21.6c1.2-2.1,3.2-3.5,5.6-3.8
		c2.2-0.2,3.2,0.4,4.2,1.2c0.9,0.9,1.3,1.7,1.4,2.6H57.5 M100.1,5.5c-0.1-0.2-0.3-0.3-0.6-0.3h-3.7c-0.3,0-0.6,0.2-0.7,0.6l-1.7,8.5
		c-0.8-0.8-1.8-1.2-2.7-1.6l-0.4-0.2h-0.1c-4.1-0.9-8.2,0.3-11.5,3.5c-1.9,1.7-3.4,3.9-4.2,6.4c-0.1-2-0.6-3.9-1.3-5.4v-0.1
		c-2-3.3-5.2-4.9-9.5-4.7h-0.1c-4.7,0.6-9.4,3.8-11.7,8.3l-0.1,0.2l3.4-19.8l-0.1-0.5c-0.1-0.1-0.3-0.2-0.4-0.2h-4.9l-0.4,0.2
		c0,0-15.2,20-17.5,22.7c0.7-3.3,3.9-22.2,3.9-22.2V0.8l-0.1-0.4c-0.1-0.1-0.3-0.2-0.4-0.2h-4.7l-0.4,0.2L0.1,35.6
		C0,35.8-0.1,36,0,36.2c0.1,0.2,0.3,0.4,0.5,0.4h6l0.4-0.2c0,0,19.1-21.9,21.3-24.7c-0.8,4.5-2.6,16.1-4.3,24.2V36l0.1,0.3l0.4,0.2
		H29l0.4-0.2c0,0,15.9-21.9,18.2-24.7c-1,4.5-2.5,16.2-4.4,24.2v0.1l0.1,0.3l0.4,0.2h4.5c0.2,0,0.5-0.2,0.5-0.4l1.7-9.3
		c0,2,0.4,4,1.2,5.5c1.7,3,4.7,4.7,8.2,4.9c5.1,0,10-3.1,12.2-7.8v-0.7c-0.1-0.2-0.4-0.3-0.6-0.3h-3.8l-0.5,0.2
		c-1.8,2.1-3.9,3.2-6.1,3.2c-2.2,0.1-4.2-1.2-5-3.3l-0.1-0.3l-0.2-1v-0.2H73l0.5-0.2l0.2,2.8c0.7,3.6,3.4,6.5,7,7.4
		c2.9,0.5,5.9-0.2,9-2.1l-0.2,0.8v0.1l0.2,0.5c0.1,0.2,0.3,0.2,0.6,0.2H94c0.3,0,0.6-0.1,0.7-0.5l5.5-30L100.1,5.5"/>
	<path class="st0" d="M101.2,11.7h4.1c0.3,0,0.6-0.4,0.7-0.7l0.9-4.9c0-0.2,0-0.4-0.2-0.6c-0.1-0.2-0.3-0.3-0.6-0.3h-4.2
		c-0.3,0-0.6,0.3-0.7,0.6l-0.9,4.9c0,0.2,0,0.5,0.2,0.7L101.2,11.7 M275.8,5.3h1.1c0.4,0,0.9-0.1,0.9-0.7c0-0.3-0.2-0.6-0.8-0.6
		h-1.2V5.3z M275.8,8.1h-1V3.2h2.3c0.3,0,1.8,0,1.8,1.5c0,0.9-0.7,1.2-0.9,1.3l0.9,2.1h-1.1l-0.8-2h-1.2L275.8,8.1L275.8,8.1z
		 M276.7,9.4c2,0,3.7-1.7,3.7-3.8s-1.6-3.8-3.7-3.8c-2,0-3.7,1.7-3.7,3.8S274.6,9.4,276.7,9.4 M276.7,1c2.5,0,4.5,2,4.5,4.6
		c0,2.5-2,4.6-4.5,4.6c-2.5-0.1-4.5-2.1-4.5-4.6C272.2,3.1,274.2,1,276.7,1"/>
</g>
</svg>
