<?xml version="1.0" encoding="UTF-8"?><svg id="Calque_2" xmlns="http://www.w3.org/2000/svg" viewBox="0 0 73.53 94.4"><defs><style>.cls-1{fill:#e7771c;}</style></defs><g id="Calque_1-2"><g><path class="cls-1" d="M10.57,50.29L32.6,8.21c.13-.24,.06-.76-.22-1.56-.15-1.04-.02-1.6,.37-1.7,3.9-2.81,7.89-4.46,11.95-4.95l1.59,.93,.44,3.13c.3,2.09,1.98,4.83,5.06,8.22,.54,.96,.95,1.51,1.21,1.67,.41,.56,.87,1.31,1.42,2.26,3.64,5.64,6.2,10.02,7.7,13.12,2.57,5.02,4.69,9.92,6.34,14.72,3.6,11.67,5.22,23.14,4.87,34.41,.4,.56,.21,.92-.58,1.1-1.18,.27-2.95,.98-5.29,2.16-3.01,1.11-5.3,1.84-6.87,2.19l-.8-.47c2.23-26.11-3.83-47.99-18.18-65.64L21.7,55.85c-1.02,1.96-2.55,5.2-4.58,9.75-2.03,4.55-3.63,7.92-4.78,10.11L0,68.48c3.86-6.03,7.37-12.09,10.57-18.19Z"/><path class="cls-1" d="M18.09,70.74l17.89-28.93c.1-.16,.1-.52,0-1.08,0-.72,.12-1.11,.38-1.17,2.77-1.91,5.49-3.02,8.17-3.33l.95,.66,.02,2.17c.01,1.45,.87,3.36,2.57,5.73,.27,.67,.48,1.05,.64,1.16,.21,.39,.45,.91,.72,1.58,1.87,3.93,3.16,6.98,3.86,9.14,1.24,3.49,2.18,6.9,2.84,10.23,1.33,8.1,1.39,16.05,.2,23.85,.21,.39,.06,.64-.47,.76-.79,.17-1.99,.66-3.61,1.45-2.04,.74-3.59,1.23-4.64,1.46l-.48-.33c3.69-18.04,1.65-33.23-6.13-45.55l-16.18,26.16c-.83,1.34-2.1,3.58-3.81,6.71-1.71,3.13-3.03,5.45-3.96,6.96l-7.37-5.1c3.02-4.14,5.82-8.31,8.41-12.5Z"/></g></g></svg>