<svg xmlns="http://www.w3.org/2000/svg" viewBox="0 0 29.76 26.46"><defs><style>.cls-1{fill:#fff;}</style></defs><g id="Calque_2" data-name="Calque 2"><g id="Calque_2-2" data-name="Calque 2"><path class="cls-1" d="M22.75,21.51H12c.08.1.16.18.22.27A2.89,2.89,0,1,1,7.07,24a2.79,2.79,0,0,1,1.26-2.84.23.23,0,0,0,.12-.28c-.56-2.69-1.11-5.39-1.66-8.08C6.16,9.72,5.54,6.65,4.91,3.58c-.06-.27,0-.27-.34-.27H1.33A1.25,1.25,0,0,1,0,2V1.23A1.24,1.24,0,0,1,1.22,0H6.56A1.21,1.21,0,0,1,7.74,1c.16.72.3,1.43.45,2.15a2.09,2.09,0,0,0,.05.21H28.46a1.22,1.22,0,0,1,1.28,1,1.46,1.46,0,0,1,0,.55q-1.2,5.31-2.42,10.63a1.24,1.24,0,0,1-1.32,1h-15l.33,1.66H25.08a1.23,1.23,0,0,1,1.28,1,1.8,1.8,0,0,1,0,.61,7.93,7.93,0,0,1-.21.94.22.22,0,0,0,.13.3,2.83,2.83,0,0,1,1.43,2.89,2.77,2.77,0,0,1-2.06,2.39,2.86,2.86,0,0,1-3.24-1.21,2.89,2.89,0,0,1,.25-3.46Z" transform="translate(0 0)"/></g></g></svg>