<?xml version="1.0" encoding="UTF-8"?><svg xmlns="http://www.w3.org/2000/svg" viewBox="0 0 61.49 61.49"><defs><style>.d{stroke:#66841f;}.d,.e{stroke-width:2.11px;}.d,.e,.f,.g{fill:none;stroke-linecap:round;stroke-linejoin:round;}.e,.f,.g{stroke:#87ac29;}.f{stroke-width:1.76px;}.g{stroke-width:1.41px;}</style></defs><g id="a"/><g id="b"><g id="c"><g><path class="g" d="M57.03,41.75c-.34,.34-.7,.66-1.08,.95-.37,.29-.75,.56-1.16,.8-.35,.22-.71,.42-1.09,.59-.45,.22-.92,.41-1.39,.57-.48,.17-.98,.31-1.48,.43-.6,.14-1.21,.24-1.84,.31-.48,.06-.97,.09-1.47,.1-.68,.02-1.37,0-2.08-.06-.5-6.32-3.95-13.5-9.91-19.47-5.97-5.97-13.15-9.41-19.46-9.92-.06-.71-.08-1.4-.06-2.08,0-.49,.04-.98,.1-1.47,.06-.63,.17-1.24,.31-1.84,.11-.51,.25-1,.43-1.48,.16-.48,.35-.94,.57-1.4,.18-.38,.38-.74,.59-1.09,.25-.4,.52-.79,.81-1.17,.29-.37,.61-.73,.95-1.07C26.6-2.4,40.51,.4,50.8,10.69c10.3,10.3,13.08,24.2,6.23,31.06Z"/><path class="g" d="M45.43,45.44c-6.32-.51-13.49-3.95-19.46-9.92-5.97-5.97-9.41-13.15-9.91-19.46-.7-.06-1.4-.08-2.08-.06-.62,.01-1.24,.06-1.83,.14-.94,7.11,2.59,16.13,9.83,23.37,7.24,7.24,16.27,10.77,23.37,9.84,.08-.6,.13-1.21,.14-1.84,.02-.68,0-1.37-.06-2.07Zm1.37-30.76C37.54,5.41,25.32,2.23,17.99,6.7c-.21,.35-.41,.71-.59,1.09-.22,.45-.41,.92-.57,1.4-.17,.48-.31,.97-.43,1.48-.14,.6-.25,1.21-.31,1.84-.06,.48-.09,.97-.1,1.47-.02,.68,0,1.37,.06,2.08,6.32,.51,13.49,3.95,19.46,9.92,5.97,5.97,9.42,13.15,9.91,19.47,.71,.06,1.4,.08,2.08,.06,.5,0,.99-.04,1.47-.1,.63-.07,1.24-.17,1.84-.31,.51-.11,1.01-.25,1.48-.43,.48-.16,.94-.35,1.39-.57,.38-.17,.74-.37,1.09-.59,4.47-7.34,1.29-19.54-7.98-28.82Z"/><path class="e" d="M45.43,45.44c-6.32-.51-13.49-3.95-19.46-9.92-5.97-5.97-9.41-13.15-9.91-19.46-.7-.06-1.4-.08-2.08-.06-.62,.01-1.24,.06-1.83,.14-.49,.06-.96,.15-1.43,.25-.52,.11-1.03,.26-1.53,.44-2.57,7.4,.85,18.04,9.14,26.33,8.29,8.29,18.93,11.71,26.33,9.15,.18-.5,.33-1.01,.44-1.54,.11-.46,.19-.94,.25-1.42,.08-.6,.13-1.21,.14-1.84,.02-.68,0-1.37-.06-2.07Zm-2.28-27.11c-8.29-8.29-18.93-11.71-26.33-9.14-.17,.48-.31,.97-.43,1.48-.14,.6-.25,1.21-.31,1.84-.06,.48-.09,.97-.1,1.47-.02,.68,0,1.37,.06,2.08,6.32,.51,13.49,3.95,19.46,9.92,5.97,5.97,9.42,13.15,9.91,19.47,.71,.06,1.4,.08,2.08,.06,.5,0,.99-.04,1.47-.1,.63-.07,1.24-.17,1.84-.31,.51-.11,1.01-.25,1.48-.43,2.57-7.4-.85-18.04-9.15-26.34Z"/><path class="f" d="M45.43,45.44c-6.32-.51-13.49-3.95-19.46-9.92-5.97-5.97-9.41-13.15-9.91-19.46-.7-.06-1.4-.08-2.08-.06-.62,.01-1.24,.06-1.83,.14-.49,.06-.96,.15-1.43,.25-.52,.11-1.03,.26-1.53,.44-.47,.16-.92,.34-1.37,.56-.47,.22-.93,.48-1.37,.76-4.7,7.31-1.56,19.68,7.83,29.07,9.38,9.39,21.76,12.53,29.07,7.82,.28-.44,.53-.9,.76-1.37,.21-.44,.39-.89,.55-1.35,.18-.5,.33-1.01,.44-1.54,.11-.46,.19-.94,.25-1.42,.08-.6,.13-1.21,.14-1.84,.02-.68,0-1.37-.06-2.07Zm-6.33-23.05c-7.12-7.12-15.97-10.65-23.02-9.88-.06,.48-.09,.97-.1,1.47-.02,.68,0,1.37,.06,2.08,6.32,.51,13.49,3.95,19.46,9.92,5.97,5.97,9.42,13.15,9.91,19.47,.71,.06,1.4,.08,2.08,.06,.5,0,.99-.04,1.47-.1,.78-7.04-2.76-15.89-9.88-23.02Z"/><path class="g" d="M45.49,47.51c-.01,.62-.06,1.24-.14,1.84-.06,.48-.15,.96-.25,1.42-.11,.53-.26,1.04-.44,1.54-.16,.47-.34,.92-.55,1.35-.22,.47-.48,.93-.76,1.37-.21,.32-.43,.63-.66,.93-.29,.37-.61,.73-.94,1.07-6.85,6.85-20.76,4.07-31.05-6.23C.39,40.51-2.39,26.6,4.46,19.74c.34-.34,.7-.66,1.07-.95,.3-.23,.6-.45,.92-.65,.44-.29,.9-.54,1.37-.76,.44-.21,.9-.4,1.37-.56,.49-.18,1.01-.33,1.53-.44,.47-.11,.94-.19,1.43-.25,.6-.08,1.21-.13,1.83-.14,.68-.02,1.38,0,2.08,.06,.51,6.31,3.95,13.5,9.91,19.46,5.97,5.97,13.15,9.42,19.46,9.92,.06,.7,.08,1.39,.06,2.07Z"/><path class="d" d="M45.43,45.44c-6.32-.51-13.49-3.95-19.46-9.92-5.97-5.97-9.41-13.15-9.91-19.46,6.32,.51,13.49,3.95,19.46,9.92,5.97,5.97,9.42,13.15,9.91,19.47Z"/></g></g></g></svg>