<?xml version="1.0" encoding="UTF-8"?><svg xmlns="http://www.w3.org/2000/svg" viewBox="0 0 61.42 61.42"><defs><style>.d{stroke-width:1.41px;}.d,.e,.f{stroke:#65adb3;}.d,.e,.f,.g{fill:none;stroke-linecap:round;stroke-linejoin:round;}.e,.g{stroke-width:2.11px;}.f{stroke-width:1.76px;}.g{stroke:#508a8e;}</style></defs><g id="a"/><g id="b"><g id="c"><g><path class="d" d="M56.97,41.7c-.34,.34-.7,.66-1.08,.95-.37,.29-.75,.56-1.16,.8-.35,.22-.71,.42-1.09,.59-.45,.22-.91,.41-1.39,.57-.48,.17-.98,.31-1.48,.43-.59,.14-1.21,.24-1.83,.31-.48,.06-.97,.09-1.47,.1-.68,.02-1.37,0-2.08-.06-.5-6.31-3.94-13.49-9.9-19.45-5.96-5.96-13.13-9.4-19.44-9.9-.06-.71-.08-1.4-.06-2.08,0-.49,.04-.98,.1-1.46,.06-.63,.17-1.24,.31-1.83,.11-.51,.25-1,.43-1.48,.16-.48,.35-.94,.57-1.4,.18-.38,.38-.74,.59-1.09,.25-.4,.52-.79,.81-1.17,.29-.37,.61-.73,.95-1.07C26.57-2.39,40.46,.4,50.74,10.68c10.29,10.29,13.07,24.17,6.22,31.03Z"/><path class="d" d="M45.38,45.39c-6.31-.5-13.48-3.94-19.44-9.91-5.96-5.96-9.4-13.14-9.9-19.44-.7-.06-1.4-.08-2.08-.06-.62,.01-1.23,.06-1.83,.14-.94,7.1,2.59,16.12,9.82,23.35,7.23,7.23,16.25,10.76,23.35,9.83,.08-.6,.13-1.21,.14-1.83,.02-.68,0-1.37-.06-2.07Zm1.37-30.72C37.49,5.41,25.3,2.23,17.97,6.69c-.21,.35-.41,.71-.59,1.09-.22,.45-.41,.92-.57,1.4-.17,.48-.31,.97-.43,1.48-.14,.59-.25,1.21-.31,1.83-.06,.48-.09,.97-.1,1.46-.02,.68,0,1.37,.06,2.08,6.31,.51,13.48,3.94,19.44,9.9,5.96,5.96,9.4,13.14,9.9,19.45,.71,.06,1.4,.08,2.08,.06,.5,0,.99-.04,1.47-.1,.63-.07,1.24-.17,1.83-.31,.5-.11,1-.25,1.48-.43,.48-.16,.94-.35,1.39-.57,.38-.17,.74-.37,1.09-.59,4.47-7.33,1.29-19.52-7.97-28.79Z"/><path class="e" d="M45.38,45.39c-6.31-.5-13.48-3.94-19.44-9.91-5.96-5.96-9.4-13.14-9.9-19.44-.7-.06-1.4-.08-2.08-.06-.62,.01-1.23,.06-1.83,.14-.49,.06-.96,.15-1.43,.25-.52,.11-1.03,.26-1.53,.44-2.57,7.4,.85,18.02,9.13,26.3,8.28,8.28,18.91,11.7,26.3,9.14,.18-.5,.33-1.01,.44-1.54,.11-.46,.19-.94,.25-1.42,.08-.6,.13-1.21,.14-1.83,.02-.68,0-1.37-.06-2.07Zm-2.27-27.08c-8.28-8.28-18.91-11.7-26.3-9.13-.17,.48-.31,.97-.43,1.48-.14,.59-.25,1.21-.31,1.83-.06,.48-.09,.97-.1,1.46-.02,.68,0,1.37,.06,2.08,6.31,.51,13.48,3.94,19.44,9.9,5.96,5.96,9.4,13.14,9.9,19.45,.71,.06,1.4,.08,2.08,.06,.5,0,.99-.04,1.47-.1,.63-.07,1.24-.17,1.83-.31,.5-.11,1-.25,1.48-.43,2.57-7.4-.85-18.02-9.14-26.31Z"/><path class="f" d="M45.38,45.39c-6.31-.5-13.48-3.94-19.44-9.91-5.96-5.96-9.4-13.14-9.9-19.44-.7-.06-1.4-.08-2.08-.06-.62,.01-1.23,.06-1.83,.14-.49,.06-.96,.15-1.43,.25-.52,.11-1.03,.26-1.53,.44-.47,.16-.92,.34-1.36,.56-.47,.22-.93,.48-1.37,.76-4.7,7.3-1.55,19.66,7.82,29.03,9.37,9.38,21.73,12.52,29.04,7.81,.28-.44,.53-.9,.76-1.37,.21-.44,.39-.89,.55-1.35,.18-.5,.33-1.01,.44-1.54,.11-.46,.19-.94,.25-1.42,.08-.6,.13-1.21,.14-1.83,.02-.68,0-1.37-.06-2.07Zm-6.32-23.03c-7.12-7.12-15.95-10.64-22.99-9.86-.06,.48-.09,.97-.1,1.46-.02,.68,0,1.37,.06,2.08,6.31,.51,13.48,3.94,19.44,9.9,5.96,5.96,9.4,13.14,9.9,19.45,.71,.06,1.4,.08,2.08,.06,.5,0,.99-.04,1.47-.1,.77-7.04-2.76-15.87-9.87-22.99Z"/><path class="d" d="M45.44,47.46c-.01,.62-.06,1.23-.14,1.83-.06,.48-.15,.96-.25,1.42-.11,.53-.26,1.04-.44,1.54-.16,.47-.34,.91-.55,1.35-.22,.47-.48,.93-.76,1.37-.21,.32-.43,.63-.66,.93-.29,.37-.61,.73-.94,1.07-6.85,6.85-20.73,4.06-31.02-6.22C.39,40.46-2.39,26.57,4.46,19.72c.34-.34,.7-.66,1.07-.95,.3-.23,.6-.45,.92-.65,.44-.29,.9-.54,1.37-.76,.44-.21,.9-.4,1.36-.56,.49-.18,1-.33,1.53-.44,.47-.11,.94-.19,1.43-.25,.59-.08,1.21-.13,1.83-.14,.68-.02,1.37,0,2.08,.06,.5,6.31,3.94,13.48,9.9,19.44,5.96,5.97,13.13,9.4,19.44,9.91,.06,.7,.08,1.39,.06,2.07Z"/><path class="g" d="M45.38,45.39c-6.31-.5-13.48-3.94-19.44-9.91-5.96-5.96-9.4-13.14-9.9-19.44,6.31,.51,13.48,3.94,19.44,9.9,5.96,5.96,9.4,13.14,9.9,19.45Z"/></g></g></g></svg>