<svg xmlns="http://www.w3.org/2000/svg" viewBox="0 0 115.85 149.53"><defs><style>.cls-1{fill:#79893b;}.cls-2{fill:#c7c8bb;}.cls-3{fill:#97adac;}.cls-4{fill:none;stroke:#79893b;stroke-miterlimit:10;stroke-width:0.9px;}.cls-5{fill:#dcdcd6;}</style></defs><g id="Calque_2" data-name="Calque 2"><g id="Calque_1-2" data-name="Calque 1"><path class="cls-1" d="M74.22,42,84.59,0l4.72.29L92,62.2,52,59.81,66,52.54A16.26,16.26,0,0,0,74.22,42Z"/><path class="cls-1" d="M74.17,149.53l-1.63-41.16a15.62,15.62,0,0,0-5.65-11.44L50.63,83.45l39.79,5L79.83,147.23Z"/><path class="cls-2" d="M1.54,73.12A2.24,2.24,0,0,1,.08,70.63c.35-2,1-5.19,2.18-6.69.9-1.19,25.07-4.71,49.77-4.13,22.23.53,43.17,1.26,43.17,1.26l11.31,5.57s10-2.51,9.3,9.3-10.16,9-10.16,9-9.62,6.8-14.6,6.24C86.36,90.64,14.83,77.76,1.54,73.12Z"/><ellipse class="cls-3" cx="50.62" cy="72" rx="4.54" ry="4.55" transform="translate(-18.12 17.04) rotate(-16.25)"/><ellipse class="cls-3" cx="35" cy="70.64" rx="4.96" ry="4.97" transform="translate(-18.37 12.61) rotate(-16.25)"/><path class="cls-4" d="M75.48,99.75s21.27-24,2.64-45.43"/><path class="cls-1" d="M8.76,75.14S-.08,73,0,71.8s.67-7.27,2.26-7.86,8.08-1.77,8.08-1.77S5.54,68.35,8.76,75.14Z"/><path class="cls-5" d="M47.6,73.27s.75,2.6,2.76,2.32-.61-1.29-.61-1.29-1.88-.87-1.9-1.82S47.23,72.78,47.6,73.27Z"/><path class="cls-5" d="M31.41,71.63s1.09,3.78,4,3.37-.88-1.87-.88-1.87-2.74-1.26-2.77-2.64S30.87,70.92,31.41,71.63Z"/></g></g></svg>