<svg xmlns="http://www.w3.org/2000/svg" viewBox="0 0 175.14 283.4"><defs><style>.cls-1{fill:#87492a;stroke:#030402;stroke-width:1.02px;}.cls-1,.cls-7,.cls-9{stroke-miterlimit:10;}.cls-2{fill:#7a381e;}.cls-3{fill:#8f583d;}.cls-4{fill:#79893b;}.cls-5{fill:#c7c8bb;}.cls-6{fill:#97adac;}.cls-7,.cls-9{fill:none;stroke:#79893b;}.cls-7{stroke-width:1.08px;}.cls-8{fill:#dcdcd6;}.cls-9{stroke-width:0.58px;}</style></defs><g id="Calque_2" data-name="Calque 2"><g id="Calque_1-2" data-name="Calque 1"><rect class="cls-1" x="0.51" y="0.51" width="174.12" height="282.38"/><path class="cls-2" d="M89.45,1.06c18.1,27.55-50.85,68.25,81.4,62,4.35-.21,3.27,17,3.27,17v26.88h0c-21.93-14.57-69.2,20.72-96-2.63-21.39-18.66-6.78-49-3.25-60.27a51.35,51.35,0,0,0,1-14.77C74.87,20.86,67,6.69,60.66,1.06"/><path class="cls-3" d="M174.12,226.25c-40.45-2.91-25.5-34.56-49.68,53.12-1.08,3.92-12.92,3.1-12.92,3.1l-20.28.14-16.84-.23c40.8-20.77,15.77-75.4,43.7-92,16.54-9.82,37.37-2.8,47.63-2.53,6.16.16,8.15,11.63,8.15,11.63"/><ellipse class="cls-3" cx="29.94" cy="212.15" rx="25.37" ry="25.05"/><ellipse class="cls-2" cx="29.94" cy="212.15" rx="16.26" ry="16.05"/><ellipse class="cls-2" cx="138.59" cy="252.88" rx="18.42" ry="18.19"/><ellipse class="cls-3" cx="138.59" cy="252.88" rx="11.8" ry="11.66"/><path class="cls-4" d="M113.87,164.05l49.69-14.14,2.51,5.12-62.63,39.61L82.27,151.42l15.78,10.24A19.3,19.3,0,0,0,113.87,164.05Z"/><path class="cls-4" d="M2.35,227.94l41.71-26.18A18.76,18.76,0,0,0,52.58,189l4.35-25,18.33,44.64L8.08,232.5Z"/><path class="cls-5" d="M38.59,106.48a2.69,2.69,0,0,1,1.72-3c2.28-.83,6-2,8.22-1.7,1.77.23,19.73,23.44,33.74,49.64,12.61,23.57,24.25,45.93,24.25,45.93l.92,15.14s8.52,9-4.13,15.27S88,222.47,88,222.47s-12.76-6-15.12-11.57C70.63,205.67,41.64,123.15,38.59,106.48Z"/><ellipse class="cls-6" cx="68.8" cy="157.19" rx="5.42" ry="5.47"/><ellipse class="cls-6" cx="60.96" cy="140.03" rx="5.92" ry="5.97"/><path class="cls-7" d="M54.74,199.7s37.47,8,48.67-24.25"/><path class="cls-4" d="M40.76,115.25s-3-10.55-1.71-11.16,7.93-3.61,9.48-2.31,6.62,7.4,6.62,7.4S45.9,107.83,40.76,115.25Z"/><path class="cls-8" d="M65.7,154.78s-2.25,2.34-.77,4.27,1-1.4,1-1.4-.21-2.49.76-3.07S66,154.1,65.7,154.78Z"/><path class="cls-8" d="M57.81,136.86s-3.27,3.39-1.12,6.2,1.42-2,1.42-2-.31-3.62,1.09-4.47S58.23,135.87,57.81,136.86Z"/><path class="cls-4" d="M130.87,127.12l24.35,13.95-1,2.87L115,134.45l8.76-24.22,2,9.9A10.47,10.47,0,0,0,130.87,127.12Z"/><path class="cls-4" d="M63.7,107.76l26,6.4a10.31,10.31,0,0,0,8.18-1.43l11.38-7.61L98.88,128.76,64.11,111.67Z"/><path class="cls-5" d="M124.66,76.69a1.49,1.49,0,0,1,1.83-.45,12.15,12.15,0,0,1,3.78,2.55c.58.77-1.62,16.31-6.49,31.44-4.37,13.62-8.64,26.41-8.64,26.41l-5.54,6s-.25,6.62-7.5,4.06-3.77-7.88-3.77-7.88-2.5-7.16-1.24-10.13C98.28,125.87,119.34,84.06,124.66,76.69Z"/><ellipse class="cls-6" cx="116.42" cy="107.17" rx="2.96" ry="2.92"/><ellipse class="cls-6" cx="120.12" cy="97.78" rx="3.23" ry="3.19"/><path class="cls-9" d="M94.56,117.52s11.12,17.43,27.91,9.8"/><path class="cls-4" d="M122.08,80.78s3-5.06,3.69-4.8,4.41,1.72,4.5,2.81-.37,5.3-.37,5.3S126.91,80,122.08,80.78Z"/><path class="cls-8" d="M116.18,105.08s-1.76,0-2,1.29.92-.15.92-.15.88-1,1.48-.84S116.56,104.94,116.18,105.08Z"/><path class="cls-8" d="M120.15,95.39s-2.56,0-2.83,1.86,1.33-.2,1.33-.2,1.29-1.47,2.15-1.24S120.7,95.18,120.15,95.39Z"/><path class="cls-3" d="M147.39,57.26s-.78,15.95,9.62,16.28c0,0-10.18.88-9.4,13.66,0,0-.11-11.91-10-14.09C137.65,73.11,146.83,75.18,147.39,57.26Z"/><path class="cls-2" d="M54.31,224s-.78,16,9.62,16.29c0,0-10.18.87-9.4,13.66,0,0-.11-11.91-10-14.1C44.57,239.88,53.75,242,54.31,224Z"/><ellipse class="cls-3" cx="104.19" cy="43.66" rx="25.37" ry="25.05"/><ellipse class="cls-2" cx="104.19" cy="43.66" rx="16.26" ry="16.05"/><path class="cls-2" d="M156.51,169.55s-.78,16,9.63,16.28c0,0-10.18.88-9.41,13.66,0,0-.11-11.91-10-14.09C146.77,185.4,156,187.47,156.51,169.55Z"/><path class="cls-3" d="M157.07,226.25s-.77,16,9.63,16.29c0,0-10.18.87-9.41,13.66,0,0-.11-11.92-10-14.1C147.33,242.1,156.52,244.18,157.07,226.25Z"/><path class="cls-3" d="M28.33,30.11s-.77,16,9.63,16.28c0,0-10.18.88-9.41,13.66,0,0-.11-11.91-10-14.1C18.59,46,27.78,48,28.33,30.11Z"/><path class="cls-2" d="M18.65,11.15s-.78,16,9.63,16.28c0,0-10.19.87-9.41,13.66,0,0-.11-11.91-10-14.1C8.91,27,18.09,29.07,18.65,11.15Z"/></g></g></svg>