<svg xmlns="http://www.w3.org/2000/svg" viewBox="0 0 193.55 66.06"><defs><style>.cls-1{fill:#c7c8bb;}.cls-2{fill:#97adac;}.cls-3{fill:#8f3225;}.cls-4{fill:none;stroke:#8f3225;stroke-miterlimit:10;stroke-width:1.78px;}.cls-5{fill:#dcdcd6;}</style></defs><g id="Calque_2" data-name="Calque 2"><g id="Calque_1-2" data-name="Calque 1"><path class="cls-1" d="M0,26.18s74.15,56.89,147.92,8C147.92,34.21,81.61-23.38,0,26.18Z"/><circle class="cls-2" cx="61.95" cy="28.98" r="12.29"/><line class="cls-3" x1="24.43" y1="14.66" x2="22.61" y2="38.52"/><path class="cls-3" d="M129.88,44.17,115.72,66.06l76.62-15.21s-66.61,9.93-51.81-11.92Z"/><path class="cls-3" d="M130.76,23,118.44,0l75.11,21.46S128,6.08,140.94,29.08Z"/><line class="cls-4" x1="133.82" y1="43.09" x2="135.3" y2="23.75"/><path class="cls-3" d="M24.44,14.22,22.53,39.39S.09,27.57,0,26.18,24.44,14.22,24.44,14.22Z"/><path class="cls-5" d="M52.38,28.45s-1.55,6.46,3.08,8.29.26-3.47.26-3.47-3-4.15-1.86-6.19S52.18,27,52.38,28.45Z"/></g></g></svg>