<svg xmlns="http://www.w3.org/2000/svg" viewBox="0 0 171.64 281.26"><defs><style>.cls-1{fill:#5a8886;stroke:#030402;}.cls-1,.cls-10,.cls-11,.cls-12,.cls-13,.cls-14,.cls-15,.cls-16,.cls-7,.cls-9{stroke-miterlimit:10;}.cls-2{fill:#74b3ad;}.cls-3{fill:#456664;}.cls-4{fill:#c7c8bb;}.cls-5{fill:#97adac;}.cls-6{fill:#8f3225;}.cls-10,.cls-11,.cls-12,.cls-13,.cls-14,.cls-15,.cls-16,.cls-7,.cls-9{fill:none;}.cls-15,.cls-7{stroke:#8f3225;}.cls-7{stroke-width:0.7px;}.cls-8{fill:#dcdcd6;}.cls-10,.cls-11,.cls-12,.cls-13,.cls-14,.cls-9{stroke:#456664;}.cls-9{stroke-width:0.86px;}.cls-10{stroke-width:1.28px;}.cls-11{stroke-width:0.43px;}.cls-12{stroke-width:0.48px;}.cls-13{stroke-width:0.72px;}.cls-14{stroke-width:0.24px;}.cls-15{stroke-width:1.33px;}.cls-16{stroke:#74b3ad;stroke-width:0.96px;}</style></defs><g id="Calque_2" data-name="Calque 2"><g id="Calque_1-2" data-name="Calque 1"><rect class="cls-1" x="0.5" y="0.5" width="170.64" height="280.26"/><path class="cls-2" d="M140.55,280.28S41.8,199.43,52.42,171.76s116.74,38.59,116.74,38.59,5.15,8.23-10.39,1.41-44.8-14.45-52.06,1.76,39,66.76,39,66.76Z"/><path class="cls-3" d="M42.19,227s19.5,5.11,20.61,10.9-9,28.28-9,28.28-.89,8.35,10.77-.92,27.15-34.83,25.83-37.93S71.44,214,45.85,220.74C45.85,220.74,38.78,222.26,42.19,227Z"/><path class="cls-3" d="M70.82,68.4S36.68,77,30.9,69.3s-5.51-49.74-5.51-49.74S17.52,4.91,9.14,29.91C.5,55.7-.89,101.23.64,107.65,1.92,113,34,112.24,69.42,80.76,69.42,80.76,79.45,72.6,70.82,68.4Z"/><path class="cls-2" d="M20.78,101.47s117.65-77.13,141-58.89S90.77,143,90.77,143s-9.38,2.52,1.69-10.34S119.37,94,106,82.3,29.27,99.9,29.27,99.9,19.89,107.21,20.78,101.47Z"/><path class="cls-4" d="M114.56,150.49S111.8,187,143.61,200.67C143.61,200.67,148.27,166.61,114.56,150.49Z"/><circle class="cls-5" cx="126.91" cy="171.39" r="4.81"/><line class="cls-6" x1="123.57" y1="156.03" x2="115.36" y2="160.54"/><path class="cls-6" d="M136.48,196.89l-10.2.05,21.39,21.84s-17.52-19.69-7.19-19.52Z"/><path class="cls-6" d="M143.61,192.64l4.89-8.95,9.06,29.2s-9-24.78-13.77-15.61Z"/><line class="cls-7" x1="137.68" y1="197.95" x2="144.33" y2="194.29"/><path class="cls-6" d="M123.71,155.94l-8.65,4.76s-.94-9.88-.5-10.21S123.71,155.94,123.71,155.94Z"/><path class="cls-8" d="M125,168.14s-2.44.87-2,2.78,1.19-.66,1.19-.66.72-1.86,1.63-1.93S125.48,167.75,125,168.14Z"/><line class="cls-9" x1="132.81" y1="9.61" x2="147.27" y2="40.58"/><line class="cls-9" x1="141.71" y1="44.44" x2="138.65" y2="7.18"/><line class="cls-10" x1="125.58" y1="25.45" x2="157.84" y2="25.6"/><line class="cls-10" x1="129.47" y1="33.73" x2="149.77" y2="17.74"/><line class="cls-11" x1="132.03" y1="21.34" x2="149.16" y2="29.71"/><line class="cls-11" x1="136.56" y1="32.59" x2="143.24" y2="18.32"/><line class="cls-12" x1="26.99" y1="200.26" x2="35.24" y2="217.48"/><line class="cls-12" x1="32.06" y1="219.63" x2="30.32" y2="198.91"/><line class="cls-13" x1="22.86" y1="209.07" x2="41.27" y2="209.15"/><line class="cls-13" x1="25.08" y1="213.67" x2="36.67" y2="204.79"/><line class="cls-14" x1="26.54" y1="206.79" x2="36.31" y2="211.44"/><line class="cls-14" x1="29.13" y1="213.04" x2="32.94" y2="205.1"/><polygon class="cls-3" points="145.42 70.1 149.51 75.57 144.3 76.03 150.06 76.61 148.39 81.62 150.85 76.82 155.78 80.24 151.98 76.61 156.95 75.03 151.44 74.98 153.31 70.18 150.14 73.94 145.42 70.1"/><path class="cls-2" d="M28.92,21.72s2.24,10.7-9.26,8.61c0,0,8.38,1.52,9.16,8.76,0,0,1.94-8.86,8.46-8.65A9.49,9.49,0,0,1,28.92,21.72Z"/><path class="cls-3" d="M89,246.83s2.24,10.7-9.26,8.61c0,0,8.38,1.52,9.16,8.76,0,0,1.94-8.86,8.46-8.65A9.49,9.49,0,0,1,89,246.83Z"/><polygon class="cls-2" points="14.27 119.07 24.98 133.38 11.32 134.58 26.4 136.11 22.03 149.22 28.47 136.65 41.36 145.61 31.42 136.11 44.42 131.96 30 131.85 34.92 119.29 26.61 129.12 14.27 119.07"/><path class="cls-4" d="M88.29,29.93S32.45,71.61,52.57,134.44C52.57,134.44,107.32,98.52,88.29,29.93Z"/><circle class="cls-5" cx="73.73" cy="73.82" r="9.16"/><line class="cls-6" x1="91.61" y1="49.79" x2="74.86" y2="43.65"/><path class="cls-6" d="M49.07,119.48,36.23,104.89,31.63,163S38,113.14,50.68,128.19Z"/><path class="cls-6" d="M64.1,124.4l19-4.18L52.47,169.77s24.32-43.93,5.19-39.29Z"/><line class="cls-15" x1="49.05" y1="122.53" x2="62.63" y2="127.51"/><path class="cls-6" d="M91.92,49.89,74.25,43.42s13-13.71,14-13.49S91.92,49.89,91.92,49.89Z"/><path class="cls-8" d="M76.05,67.05s-4.32-2.42-6.57.53,2.44.9,2.44.9,3.58-1.29,4.81-.09S77.17,67.21,76.05,67.05Z"/><line class="cls-16" x1="159.76" y1="219.26" x2="168.02" y2="236.48"/><line class="cls-16" x1="164.84" y1="238.62" x2="163.1" y2="217.91"/><line class="cls-16" x1="155.64" y1="228.07" x2="171.14" y2="228.13"/><line class="cls-16" x1="157.86" y1="232.67" x2="169.45" y2="223.78"/><line class="cls-16" x1="159.32" y1="225.78" x2="169.09" y2="230.43"/><line class="cls-16" x1="161.91" y1="232.04" x2="165.72" y2="224.1"/><polygon class="cls-3" points="143.78 238.03 150.69 247.27 141.87 248.05 151.6 249.03 148.78 257.5 152.94 249.39 161.26 255.17 154.85 249.03 163.24 246.35 153.93 246.28 157.1 238.18 151.74 244.52 143.78 238.03"/><path class="cls-2" d="M45.72,219.26S48,230,36.47,227.87c0,0,8.38,1.52,9.16,8.75,0,0,1.93-8.85,8.46-8.64A9.5,9.5,0,0,1,45.72,219.26Z"/><path class="cls-3" d="M11.39,144s2.24,10.7-9.26,8.61c0,0,8.38,1.52,9.16,8.76,0,0,1.94-8.86,8.46-8.65A9.48,9.48,0,0,1,11.39,144Z"/><path class="cls-3" d="M161,56.51s2.24,10.7-9.26,8.61c0,0,8.38,1.53,9.16,8.76,0,0,1.94-8.85,8.46-8.64A9.49,9.49,0,0,1,161,56.51Z"/></g></g></svg>