<svg xmlns="http://www.w3.org/2000/svg" viewBox="0 0 175.81 281.13"><defs><style>.cls-1{fill:#ca6d33;stroke:#030402;stroke-width:1.04px;}.cls-1,.cls-6,.cls-9{stroke-miterlimit:10;}.cls-2{fill:#c7c8bb;}.cls-3{fill:#54a6a9;}.cls-4{fill:#97adac;}.cls-5{fill:#dcdcd6;}.cls-6,.cls-9{fill:none;stroke:#54a6a9;}.cls-6{stroke-width:1.89px;}.cls-7{fill:#da8b42;}.cls-8{fill:#e4ac78;}.cls-9{stroke-width:4.04px;}</style></defs><g id="Calque_2" data-name="Calque 2"><g id="Calque_1-2" data-name="Calque 1"><rect class="cls-1" x="0.52" y="0.52" width="174.77" height="280.1"/><path class="cls-2" d="M65,46.89c-4.74,6.42-22.33,31-21.33,40.61,0,0-6.82,35.34-5.76,38.88s7.91,3.6,8.83,1.42c.4-.94,16.06-36.74,16.14-36.88s7.21-8.7,3.83-43.72C66.66,46.41,65.5,46.25,65,46.89Z"/><path class="cls-3" d="M42.79,92.82,21.2,141.44s12.63-5,14.85-8.4S42.79,92.82,42.79,92.82Z"/><path class="cls-3" d="M60,97.55l-8.49,52.34S43.63,139.05,43.62,135,60,97.55,60,97.55Z"/><path class="cls-3" d="M61.18,52.23s3.95-1.32,6.08,1.43l-.38-6.57s-.49-1.34-1.78-.31Z"/><ellipse class="cls-4" cx="55.24" cy="80.75" rx="5.12" ry="4.99"/><path class="cls-5" d="M54.93,77.41s-3,.13-3.14,2.43,1.52-.33,1.52-.33,1.38-1.85,2.41-1.62S55.54,77.13,54.93,77.41Z"/><ellipse class="cls-4" cx="60.56" cy="65.34" rx="3.7" ry="3.61"/><path class="cls-5" d="M60.46,62.59s-2.6.11-2.75,2.12,1.34-.28,1.34-.28,1.21-1.62,2.1-1.42S61,62.34,60.46,62.59Z"/><path class="cls-6" d="M33.24,117S42.56,127.49,53,120.7"/><path class="cls-7" d="M139.83,280s-43.24.1-45.16-11.37C90.31,242.5,137.94,209,41.14,220.7c-11.95,1.45-36.91-14.34-38.39-43.09l3.59,4.67c-4.14-2.4-5.74.9,16.26,20.22,15,13.19,61.62-16.24,79.51,4.56,14.29,16.63,7,41.69,3.57,51.09-1.57,4.21-3.36,9.38-.82,13.21s11.14,7.66,25,8.31"/><path class="cls-7" d="M1.39,3.25s59-9.86,89.75,18.3C113.79,42.27,64.28,102,164.62,58.11c12.38-5.42,10.67-5.23,10.67-5.23V65.54l-.11,6.81c-20.52-10-45.55,38-71.68,20.45-20.88-14-21.38-44.4-20.74-56a27.22,27.22,0,0,0-3.49-15C72.13,9.21,51.35-5.09,1,17.11"/><path class="cls-8" d="M118.78,14.15C108.59,4,68.83,10.8,70,12.53c-4,3.57,1.74,28.84,5.68,36.27s38.05,2.2,43.12,1.65S127.85,23.18,118.78,14.15Zm-6.6-1.83c10.89.77,12.82,27.2-.2,30.17-12.25,2.79-30,7.11-33.75,4.2-4.07-3.13-1.8-18.17-.68-23.83.62-3.09,1-7.83,6.1-11.1,3-1.95,13.87-1.28,18.4-1"/><path class="cls-8" d="M130.71,97.32c13.7,15.14,39.22,8.49,40.85,7.05,5.79-4.86,2.91-61.1,2.91-61.1C166.79,31.94,140.22,45,133,45.44S118.51,83.84,130.71,97.32Zm9.17,3c-15.27-1.79-16.29-39.68,2.24-43.1,17.42-3.22,26.47-7.85,31.6-3.45l-1.2,31.08-.29,9a10,10,0,0,1-9.34,9.64,56.78,56.78,0,0,1-8.84-.24"/><path class="cls-8" d="M17,246.3c14.33,14.47,70.26,4.78,68.65,2.31,5.55-5.1-2.45-41.17-8-51.77S24.1,193.7,17,194.49,4.21,233.41,17,246.3Zm9.28,2.61c-15.31-1.1-18-38.82.29-43.06,17.23-4,42.15-10.16,47.46-6,5.74,4.48,2.55,25.94,1,34-.86,4.42-1.47,11.18-8.58,15.84-4.25,2.8-19.5,1.84-25.88,1.5"/><path class="cls-8" d="M64.28,214.47s-.78,15.83,9.66,16.15c0,0-10.22.87-9.44,13.55,0,0-.11-11.81-10-14C54.5,230.19,63.72,232.25,64.28,214.47Z"/><path class="cls-7" d="M153.78,24.36s-.77,15.82,9.67,16.15c0,0-10.22.87-9.45,13.55,0,0-.11-11.82-10-14C144,40.08,153.23,42.13,153.78,24.36Z"/><path class="cls-7" d="M60.29,239.89s-.81,16.48,10.06,16.82c0,0-10.64.9-9.83,14.11,0,0-.12-12.31-10.41-14.56C50.11,256.26,59.71,258.4,60.29,239.89Z"/><path class="cls-8" d="M33.27,81.28s-.39,7.92,4.83,8.08c0,0-5.11.43-4.72,6.78,0,0-.05-5.91-5-7C28.38,89.14,33,90.17,33.27,81.28Z"/><path class="cls-7" d="M38.16,55.23s-.78,15.83,9.66,16.15c0,0-10.22.87-9.44,13.55,0,0-.11-11.81-10-14C28.38,71,37.6,73,38.16,55.23Z"/><path class="cls-7" d="M146.85,125.72s-.78,15.83,9.66,16.16c0,0-10.22.86-9.44,13.55,0,0-.11-11.82-10-14C137.07,141.44,146.29,143.5,146.85,125.72Z"/><path class="cls-2" d="M87.35,97.22c1.27,16.18,7,77.48,21.54,91.23,0,0,37.14,64.26,43.61,68.43s17.28-4.54,15.78-9.15c-.65-2-24.55-78.36-24.63-78.69s-.47-22.95-53.2-73.53C89.27,94.37,87.23,95.6,87.35,97.22Z"/><path class="cls-3" d="M114.66,198l28.75,82s12.87,1.71,15.13-10.22C160.08,261.66,114.66,198,114.66,198Z"/><path class="cls-3" d="M148.11,183.16l26.56,44.28v35.9C169.21,257.05,148.11,183.16,148.11,183.16Z"/><path class="cls-3" d="M88.56,110.56S93,103.4,100,105l-9.49-9.8s-2.59-1.49-3.22,1.8Z"/><ellipse class="cls-4" cx="117.85" cy="162.97" rx="10.49" ry="10.24"/><path class="cls-5" d="M112.84,158.14s-4.5,4.05-1.65,7.86,2-2.48,2-2.48-.34-4.69,1.58-5.64S113.42,156.9,112.84,158.14Z"/><ellipse class="cls-4" cx="105.33" cy="131.94" rx="7.58" ry="7.4"/><path class="cls-5" d="M101.45,127.74s-3.94,3.55-1.44,6.88,1.71-2.17,1.71-2.17-.3-4.1,1.38-4.93S102,126.66,101.45,127.74Z"/><path class="cls-9" d="M137.91,246s26.45,5.68,34-19.47"/></g></g></svg>