<svg xmlns="http://www.w3.org/2000/svg" viewBox="0 0 170.53 53.5"><defs><style>.cls-1{fill:#c7c8bb;}.cls-2{fill:#54a6a9;}.cls-3{fill:#97adac;}.cls-4{fill:#dcdcd6;}.cls-5{fill:none;stroke:#54a6a9;stroke-miterlimit:10;stroke-width:3.16px;}</style></defs><g id="Calque_2" data-name="Calque 2"><g id="Calque_1-2" data-name="Calque 1"><path class="cls-1" d="M1.3,25.32c12.34,4.79,59.34,22.25,73.89,16.19,0,0,58.67-5.09,63.7-8.46s1.85-14.58-2-15.09c-1.68-.22-65.3-9.36-65.56-9.42S54.23.75,1,22.39C-.22,22.88.07,24.84,1.3,25.32Z"/><path class="cls-2" d="M84,40.56,170.53,53.5s-13.93-18.35-20.3-20.42S84,40.56,84,40.56Z"/><path class="cls-2" d="M83.11,10.2,169.22,0S156,17.92,149.72,19.79,83.11,10.2,83.11,10.2Z"/><path class="cls-2" d="M11.52,29.15s-4-5.84-.68-10.59L.74,22.2s-1.88,1.42.36,3.06Z"/><ellipse class="cls-3" cx="59.07" cy="25.75" rx="8.15" ry="8.72" transform="translate(-4.86 17.67) rotate(-16.35)"/><path class="cls-4" d="M54,27.8s1.63,4.81,5.31,4-1.24-2.35-1.24-2.35-3.57-1.4-3.69-3.18S53.25,26.92,54,27.8Z"/><ellipse class="cls-3" cx="32.37" cy="24.15" rx="5.89" ry="6.3" transform="translate(-5.49 10.09) rotate(-16.35)"/><path class="cls-4" d="M28.1,25.57s1.43,4.21,4.65,3.52S31.66,27,31.66,27s-3.12-1.23-3.23-2.79S27.45,24.8,28.1,25.57Z"/><path class="cls-5" d="M126.48,45s11.94-20-3.73-34"/></g></g></svg>