<?xml version="1.0" encoding="UTF-8"?><svg xmlns="http://www.w3.org/2000/svg" viewBox="0 0 68 59.15"><defs><style>.d{fill:none;stroke:#ea541f;stroke-linecap:round;stroke-linejoin:round;stroke-width:2.11px;}</style></defs><g id="a"/><g id="b"><g id="c"><g><path class="d" d="M14.9,31.1c-9.14,.02-13.85-7.12-13.85-15.28S7.67,1.06,15.82,1.06s14.76,6.61,14.76,14.76"/><path class="d" d="M63.93,34.89c-1.34-2.67-9.81-16.49-14.04-16.49-3.95,0-5.38,3.1-3.38,6.22-4.46-6.1-8-4.37-8.43-2.43-.11,.48,.06,1.07,.39,1.7,1.87,1.99,3.46,4.11,3.61,4.31-.19-.17-2.61-2.39-3.61-4.31-1.9-2.03-4.09-3.92-5.3-3.48-1.77,.64-3.31,2.99-1.32,6.92-2.8-3.56-6.09-7.58-8.56-10.08-1.66-1.68-2.95-2.67-3.49-2.41-1.49,.75-2.83,4.63-2.43,7.04,.07,.47,.21,.88,.43,1.2,1.34,2.01,18.28,19.16,18.28,19.16-5.13-.67-12.26-1.12-12.26,3.12s1.94,4.9,6.77,5.57,15.52,6.46,19.08,7.13c3.57,.67,13.6-9.14,16.27-11.36,2.67-2.23-.67-9.14-2.01-11.81Zm-32.07-7.55c1.56,1.97,2.96,3.8,3.99,5.16-1.96-1.94-3.23-3.66-3.99-5.16Zm14.66-2.7c.16,.21,.32,.44,.47,.67-.18-.22-.34-.45-.47-.67Z"/><path class="d" d="M31.86,27.33c1.56,1.97,2.96,3.8,3.99,5.16-1.96-1.94-3.23-3.66-3.99-5.16Z"/><path class="d" d="M38.47,23.88c1.87,1.99,3.46,4.11,3.61,4.31-.19-.17-2.61-2.39-3.61-4.31Z"/><path class="d" d="M46.99,25.3c-.18-.22-.34-.45-.47-.67,.16,.21,.32,.44,.47,.67Z"/><path class="d" d="M23.73,14.79c0,.86-.15,1.68-.44,2.45-1.66-1.68-2.95-2.67-3.49-2.41-1.49,.75-2.83,4.63-2.43,7.04-.26,.03-.52,.04-.78,.04-3.94,0-7.13-3.19-7.13-7.13s3.19-7.13,7.13-7.13,7.13,3.19,7.13,7.13Z"/></g></g></g></svg>