<?xml version="1.0" encoding="UTF-8"?><svg xmlns="http://www.w3.org/2000/svg" viewBox="0 0 67.93 59.09"><defs><style>.d{fill:none;stroke:#65adb3;stroke-linecap:round;stroke-linejoin:round;stroke-width:2.11px;}</style></defs><g id="a"/><g id="b"><g id="c"><g><path class="d" d="M14.89,31.06c-9.13,.02-13.83-7.11-13.83-15.26S7.66,1.06,15.8,1.06s14.75,6.6,14.75,14.75"/><path class="d" d="M63.86,34.85c-1.34-2.67-9.8-16.47-14.02-16.47-3.95,0-5.37,3.09-3.38,6.22-4.45-6.1-7.99-4.37-8.42-2.43-.11,.48,.06,1.07,.39,1.69,1.86,1.98,3.46,4.11,3.6,4.3-.19-.17-2.61-2.39-3.6-4.3-1.9-2.03-4.08-3.92-5.29-3.48-1.77,.64-3.31,2.99-1.32,6.91-2.8-3.56-6.08-7.57-8.55-10.07-1.66-1.68-2.95-2.67-3.48-2.41-1.49,.75-2.83,4.62-2.43,7.04,.07,.47,.21,.88,.43,1.2,1.34,2,18.26,19.14,18.26,19.14-5.12-.67-12.25-1.12-12.25,3.12s1.94,4.89,6.76,5.56,15.5,6.46,19.06,7.12c3.57,.67,13.58-9.13,16.25-11.35,2.67-2.23-.67-9.13-2-11.8Zm-32.03-7.55c1.56,1.97,2.95,3.8,3.98,5.15-1.96-1.94-3.23-3.66-3.98-5.15Zm14.64-2.7c.16,.21,.31,.43,.47,.67-.18-.22-.34-.45-.47-.67Z"/><path class="d" d="M31.83,27.3c1.56,1.97,2.95,3.8,3.98,5.15-1.96-1.94-3.23-3.66-3.98-5.15Z"/><path class="d" d="M38.43,23.86c1.86,1.98,3.46,4.11,3.6,4.3-.19-.17-2.61-2.39-3.6-4.3Z"/><path class="d" d="M46.94,25.27c-.18-.22-.34-.45-.47-.67,.16,.21,.31,.43,.47,.67Z"/><path class="d" d="M23.7,14.77c0,.86-.15,1.68-.43,2.44-1.66-1.68-2.95-2.67-3.48-2.41-1.49,.75-2.83,4.62-2.43,7.04-.26,.03-.52,.04-.77,.04-3.94,0-7.12-3.19-7.12-7.12s3.19-7.12,7.12-7.12,7.12,3.19,7.12,7.12Z"/></g></g></g></svg>