<svg xmlns="http://www.w3.org/2000/svg" viewBox="0 0 20 16.36"><g id="Calque_2" data-name="Calque 2"><g id="Calque_2-2" data-name="Calque 2"><path d="M0,14.56a8.57,8.57,0,0,0,6-1.75A4.22,4.22,0,0,1,2.15,9.93a4.14,4.14,0,0,0,1.79-.07A4.27,4.27,0,0,1,1.62,8.38a4.06,4.06,0,0,1-.9-2.62,4.29,4.29,0,0,0,1.84.51A4.2,4.2,0,0,1,.76,3.12,4,4,0,0,1,1.31.77,11.82,11.82,0,0,0,9.8,5.08c0-.2-.06-.37-.07-.55A4.09,4.09,0,0,1,13.1.08a4,4,0,0,1,3.61,1.09.33.33,0,0,0,.35.09A8.65,8.65,0,0,0,19.31.4l.16-.08a4.31,4.31,0,0,1-1.73,2.24A7.75,7.75,0,0,0,20,2l-.08.15a8,8,0,0,1-1.76,1.83.42.42,0,0,0-.19.39,11.89,11.89,0,0,1-4.08,9.26,10.75,10.75,0,0,1-6,2.67,11.75,11.75,0,0,1-7.39-1.4Z"/></g></g></svg>