<?xml version="1.0" encoding="utf-8"?>
<!-- Generator: Adobe Illustrator 26.2.1, SVG Export Plug-In . SVG Version: 6.00 Build 0)  -->
<svg version="1.1" id="Calque_1" xmlns="http://www.w3.org/2000/svg" xmlns:xlink="http://www.w3.org/1999/xlink" x="0px" y="0px"
	 viewBox="0 0 23 23" style="enable-background:new 0 0 23 23;" xml:space="preserve">
<style type="text/css">
	.st0{fill:#FFFFFF;}
</style>
<g>
	<g>
		<path class="st0" d="M22.5,11.5c0,6.2-5,11.2-11.2,11.2c-6.1,0-11.1-5-11.1-11.2c0-6.2,5-11.2,11.2-11.1
			C17.6,0.3,22.5,5.3,22.5,11.5z M6.5,12.6c0.4,1.1,1.2,1.7,2.4,1.8c-1.1,0.8-2.3,1.2-3.7,1.1c0.1,0.1,0.1,0.1,0.2,0.2
			c2.2,1.2,4.4,1.3,6.7,0.3c2.8-1.3,4.2-3.7,4.3-6.8c0-0.2,0-0.3,0.2-0.4c0.4-0.3,0.8-0.7,1.1-1.1c-0.5,0.1-0.9,0.2-1.3,0.4
			c0,0,0,0,0-0.1c0.5-0.3,0.8-0.7,1-1.3c-0.5,0.2-0.9,0.3-1.3,0.5c-0.2,0.1-0.3,0-0.4-0.1c-0.8-0.7-1.6-0.8-2.6-0.5
			c-0.9,0.3-1.5,1-1.6,2c0,0.3,0,0.6,0,1C9.1,9.4,7.4,8.5,6,6.9C5.6,7.5,5.6,8.1,5.7,8.7c0.1,0.6,0.5,1.1,1,1.5c0,0,0,0,0,0.1
			c-0.3-0.1-0.7-0.2-1-0.3c0.1,1.3,0.7,2.1,1.9,2.5c0,0,0,0,0,0.1C7.2,12.6,6.9,12.6,6.5,12.6z"/>
	</g>
</g>
</svg>
