<?xml version="1.0" encoding="utf-8"?>
<!-- Generator: Adobe Illustrator 26.3.1, SVG Export Plug-In . SVG Version: 6.00 Build 0)  -->
<svg version="1.1" id="Calque_1" xmlns="http://www.w3.org/2000/svg" xmlns:xlink="http://www.w3.org/1999/xlink" x="0px" y="0px"
	 viewBox="0 0 50 50" style="enable-background:new 0 0 50 50;" xml:space="preserve">
<style type="text/css">
	.st0{fill:#FFFFFF;}
</style>
<path class="st0" d="M24.7,36.3c-5.8-0.1-9.7-6.1-7.1-11.2c1.8-3.5,4.1-6.8,6.2-10.1c0.8-1.3,1.5-0.9,2.1,0.1c2,3.3,4.3,6.5,6,9.9
	C34.6,30.2,30.6,36.3,24.7,36.3z M24.8,16.5c-2.2,3.6-4.2,6.6-5.9,9.7c-1.2,2.3-0.1,5.4,2,7c2.2,1.8,5.2,1.8,7.5,0.2
	c2.2-1.6,3.4-4.5,2.2-6.9C29,23.2,27,20.2,24.8,16.5z"/>
</svg>
